<?xml version="1.0" standalone="no"?>
<!DOCTYPE svg PUBLIC "-//W3C//DTD SVG 1.1//EN" "http://www.w3.org/Graphics/SVG/1.1/DTD/svg11.dtd" >
<svg xmlns="http://www.w3.org/2000/svg" xmlns:xlink="http://www.w3.org/1999/xlink" version="1.1">
<metadata>
Created by FontForge 20201107 at Thu Dec  7 13:01:09 2023
 By 
</metadata>
<defs>
<font id="icomoon" horiz-adv-x="1024" >
  <font-face 
    font-family="icomoon"
    font-weight="400"
    font-stretch="normal"
    units-per-em="1024"
    panose-1="0 0 0 0 0 0 0 0 0 0"
    ascent="819"
    descent="-205"
    bbox="0 -64.45 1024.2 960"
    underline-thickness="0"
    underline-position="0"
    unicode-range="U+0001-E983"
  />
<missing-glyph 
 />
    <glyph glyph-name=".notdef" 
 />
    <glyph glyph-name="glyph1" horiz-adv-x="0" 
d="M0 0v0v0v0z" />
    <glyph glyph-name="glyph1" horiz-adv-x="0" 
d="M0 0v0v0v0z" />
    <glyph glyph-name="nonmarkingreturn" horiz-adv-x="341" 
 />
    <glyph glyph-name="uni0001" horiz-adv-x="0" 
d="M0 0v0v0v0z" />
    <glyph glyph-name="space" unicode=" " horiz-adv-x="512" 
d="M0 0v0v0v0z" />
    <glyph glyph-name="uniE800" unicode="&#xe800;" 
d="M512 789q-71 0 -133 -26q-62 -27 -108.5 -73.5t-73.5 -108.5q-26 -62 -26 -133t26 -133q27 -62 73.5 -108.5t108.5 -73.5q62 -26 133 -26t133 26q62 27 108.5 73.5t73.5 108.5q26 62 26 133t-26 133q-27 62 -73.5 108.5t-108.5 73.5q-62 26 -133 26v0zM85 448
q0 88 34 166q33 78 91 136t136 91q78 34 166 34t166 -34q78 -33 136 -91t91 -136q34 -78 34 -166t-34 -166q-33 -78 -91 -136t-136 -91q-78 -34 -166 -34t-166 34q-78 33 -136 91t-91 136q-34 78 -34 166v0zM469 602q0 17 12.5 29.5t30.5 12.5v0q18 0 30.5 -12.5t12.5 -29.5
q0 -18 -12.5 -30.5t-30.5 -12.5v0q-18 0 -30.5 12.5t-12.5 30.5v0zM512 491q18 0 30.5 -12.5t12.5 -30.5v-154q0 -17 -12.5 -29.5t-30.5 -12.5t-30.5 12.5t-12.5 29.5v154q0 18 12.5 30.5t30.5 12.5v0z" />
    <glyph glyph-name="uniE801" unicode="&#xe801;" 
d="M862 418q-6 15 -6 30.5t6 29.5l28 67q6 14 6 29.5t-6 30.5q-6 14 -17 25t-25 17l-67 28q-15 6 -26 16.5t-17 25.5l-27 67q-6 14 -17 25t-26 17q-14 6 -29.5 6t-29.5 -6l-67 -28q-15 -6 -30.5 -6t-29.5 6l-67 28q-14 6 -29.5 6t-30.5 -6q-14 -6 -25 -17t-17 -25l-28 -67
q-6 -15 -16.5 -25.5t-25.5 -16.5l-67 -28q-7 -3 -13.5 -7.5t-11.5 -9.5q-5 -6 -9.5 -12t-7.5 -13t-4.5 -15t-1.5 -15q0 -8 1.5 -15.5t4.5 -14.5l28 -67q6 -14 6 -29.5t-6 -30.5l-28 -67q-6 -14 -6 -29.5t6 -29.5q6 -15 17 -26t25 -17l67 -27q15 -6 25.5 -17t16.5 -26l28 -67
q6 -14 17 -25t25 -17q15 -6 30.5 -6t29.5 6l67 28q14 6 29.5 6t30.5 -6l67 -28q14 -6 29.5 -6t29.5 6q15 6 26 17t17 25l27 67q6 15 17 26t26 17l67 27q7 3 13 7.5t12 9.5q5 6 9.5 12.5t7.5 13.5t4.5 14.5t1.5 14.5q0 8 -1.5 15.5t-4.5 14.5l-28 67v0zM677 514l-173 -173
q-6 -6 -14 -9t-16 -3q-9 0 -17 3t-14 9l-77 77q-12 12 -12 29.5t12 30.5q13 12 30.5 12t30.5 -12l46 -47l143 143q12 12 29.5 12t30.5 -12q12 -13 12 -30.5t-12 -29.5h1v0z" />
    <glyph glyph-name="uniE802" unicode="&#xe802;" 
d="M713 820q12 -13 12 -30.5t-12 -30.5l-311 -311l311 -311q12 -13 12 -30.5t-12 -30.5q-13 -12 -30.5 -12t-30.5 12l-341 342q-12 12 -12 30t12 30l341 342q13 12 30.5 12t30.5 -12v0z" />
    <glyph glyph-name="uniE803" unicode="&#xe803;" 
d="M884 247q-13 -12 -30.5 -12t-30.5 12l-311 311l-311 -311q-13 -12 -30.5 -12t-30.5 12q-12 13 -12 30.5t12 30.5l342 341q12 12 30 12t30 -12l342 -341q12 -13 12 -30.5t-12 -30.5v0z" />
    <glyph glyph-name="uniE804" unicode="&#xe804;" 
d="M311 76q-12 13 -12 30.5t12 30.5l311 311l-311 311q-12 13 -12 30.5t12 30.5q13 12 30.5 12t30.5 -12l341 -342q12 -12 12 -30t-12 -30l-341 -342q-13 -12 -30.5 -12t-30.5 12v0z" />
    <glyph glyph-name="uniE805" unicode="&#xe805;" 
d="M140 649q13 12 30.5 12t30.5 -12l311 -311l311 311q13 12 30.5 12t30.5 -12q12 -13 12 -30.5t-12 -30.5l-342 -341q-12 -12 -30 -12t-30 12l-342 341q-12 13 -12 30.5t12 30.5v0z" />
    <glyph glyph-name="uniE806" unicode="&#xe806;" 
d="M140 820q13 12 30.5 12t30.5 -12l311 -312l311 312q13 12 30.5 12t30.5 -12q12 -13 12 -30.5t-12 -30.5l-312 -311l312 -311q12 -13 12 -30.5t-12 -30.5q-13 -12 -30.5 -12t-30.5 12l-311 312l-311 -312q-13 -12 -30.5 -12t-30.5 12q-12 13 -12 30.5t12 30.5l312 311
l-312 311q-12 13 -12 30.5t12 30.5v0z" />
    <glyph glyph-name="uniE807" unicode="&#xe807;" 
d="M512 875q18 0 30.5 -12.5t12.5 -30.5v-341h341q18 0 30.5 -12.5t12.5 -30.5t-12.5 -30.5t-30.5 -12.5h-341v-341q0 -18 -12.5 -30.5t-30.5 -12.5t-30.5 12.5t-12.5 30.5v341h-341q-18 0 -30.5 12.5t-12.5 30.5t12.5 30.5t30.5 12.5h341v341q0 18 12.5 30.5t30.5 12.5v0z
" />
    <glyph glyph-name="uniE808" unicode="&#xe808;" 
d="M512 789q18 0 30.5 -12.5t12.5 -29.5v-256h256q17 0 29.5 -12.5t12.5 -30.5t-12.5 -30.5t-29.5 -12.5h-256v-256q0 -17 -12.5 -29.5t-30.5 -12.5t-30.5 12.5t-12.5 29.5v256h-256q-17 0 -29.5 12.5t-12.5 30.5t12.5 30.5t29.5 12.5h256v256q0 17 12.5 29.5t30.5 12.5v0z
" />
    <glyph glyph-name="uniE809" unicode="&#xe809;" 
d="M171 448q0 18 12.5 30.5t29.5 12.5h598q17 0 29.5 -12.5t12.5 -30.5t-12.5 -30.5t-29.5 -12.5h-598q-17 0 -29.5 12.5t-12.5 30.5v0z" />
    <glyph glyph-name="uniE80A" unicode="&#xe80a;" 
d="M226 606q12 13 30 13t30 -13l226 -226l226 226q12 13 30 13t30 -13q13 -12 13 -30t-13 -30l-256 -256q-12 -13 -30 -13t-30 13l-256 256q-13 12 -13 30t13 30v0z" />
    <glyph glyph-name="uniE80B" unicode="&#xe80b;" 
d="M798 290q-12 -13 -30 -13t-30 13l-226 226l-226 -226q-12 -13 -30 -13t-30 13q-13 12 -13 30t13 30l256 256q12 13 30 13t30 -13l256 -256q13 -12 13 -30t-13 -30v0z" />
    <glyph glyph-name="uniE80C" unicode="&#xe80c;" 
d="M477 861q14 14 35 14t35 -14l249 -237q15 -14 15 -33.5t-15 -33.5q-14 -14 -35 -14t-35 14l-214 203l-214 -203q-14 -14 -35 -14t-35 14q-15 14 -15 33.5t15 33.5l249 237v0zM228 339q14 14 35 14t35 -14l214 -203l214 203q14 14 35 14t35 -14q15 -14 15 -33.5t-15 -33.5
l-249 -237q-14 -14 -35 -14t-35 14l-249 237q-15 14 -15 33.5t15 33.5v0z" />
    <glyph glyph-name="uniE80D" unicode="&#xe80d;" 
d="M469 789q62 0 117 -23q54 -24 94.5 -64.5t64.5 -94.5q23 -54 23 -116q0 -61 -22.5 -114t-61.5 -94q-1 0 -2 -1l-2 -2l-2 -2t-1 -2q-41 -39 -94 -61.5t-114 -22.5q-62 0 -116 23q-54 24 -94.5 64.5t-64.5 94.5q-23 55 -23 117t23 116q24 54 64.5 94.5t94.5 64.5
q54 23 116 23v0zM769 251q40 49 62 110.5t22 129.5q0 79 -30 149t-82 122t-122 82q-70 31 -150 31q-79 0 -149 -31q-70 -30 -122 -82t-82 -122q-31 -70 -31 -149q0 -80 31 -150q30 -70 82 -122t122 -82t149 -30q68 0 129.5 22t110.5 62l157 -157q12 -13 30 -13t30 13
q13 12 13 30t-13 30l-157 157v0z" />
    <glyph glyph-name="uniE80E" unicode="&#xe80e;" 
d="M85 704q0 18 12.5 30.5t30.5 12.5h768q18 0 30.5 -12.5t12.5 -30.5t-12.5 -30.5t-30.5 -12.5h-768q-18 0 -30.5 12.5t-12.5 30.5zM85 448q0 18 12.5 30.5t30.5 12.5h768q18 0 30.5 -12.5t12.5 -30.5t-12.5 -30.5t-30.5 -12.5h-768q-18 0 -30.5 12.5t-12.5 30.5zM85 192
q0 18 12.5 30.5t30.5 12.5h768q18 0 30.5 -12.5t12.5 -30.5t-12.5 -30.5t-30.5 -12.5h-768q-18 0 -30.5 12.5t-12.5 30.5z" />
    <glyph glyph-name="uniE80F" unicode="&#xe80f;" 
d="M311 789h402h42.5t35.5 -1q16 -2 31.5 -5t29.5 -10q22 -11 40 -27.5t29 -37.5q7 -14 10.5 -28t5.5 -29q1 -4 1.5 -9t-0.5 -10q0 -13 0.5 -27t0.5 -30v-235q0 -22 -0.5 -40.5t-1.5 -33.5t-4.5 -30t-11.5 -29q-11 -21 -29 -37.5t-40 -27.5q-14 -7 -29.5 -10t-31.5 -5
q-16 -1 -35.5 -1h-42.5h-402h-42.5t-35.5 1q-16 2 -31.5 5t-29.5 10q-22 11 -40 27.5t-29 37.5q-8 14 -11.5 29t-4.5 30t-1.5 33.5t-0.5 40.5v235q0 16 0.5 30t0.5 27q-1 5 -0.5 10t1.5 9q2 15 5.5 29t10.5 28q11 21 29 37.5t40 27.5q14 7 29.5 10t31.5 5q16 1 35.5 1h42.5
v0zM171 563v-222v-39.5t1 -28.5q1 -11 2.5 -17.5t3.5 -9.5q5 -10 13.5 -17.5t18.5 -12.5q4 -2 11 -3.5t19 -2.5q13 -1 30.5 -1h41.5h400h41.5t30.5 1q12 1 19 2.5t11 3.5q10 5 18.5 12.5t13.5 17.5q2 3 3.5 9.5t2.5 17.5q1 12 1 28.5v39.5v222l-133 -85h-1.5t-0.5 -1l-14 -8
t-14 -7t-13.5 -5t-13.5 -3q-8 -1 -16 -1.5t-16 -0.5h-1.5h-1.5h-232h-1.5h-1.5q-8 0 -16 0.5t-16 1.5q-7 1 -13.5 3t-13.5 5t-14 7l-14 8q0 1 -0.5 1h-1.5l-133 85v0zM849 659q0 3 -1 5.5t-2 4.5q-5 10 -13.5 17.5t-18.5 12.5q-4 2 -11 3.5t-19 2.5q-13 1 -30.5 1h-41.5
h-400h-41.5t-30.5 -1q-12 -1 -19 -2.5t-11 -3.5q-10 -5 -18.5 -12.5t-13.5 -17.5q-1 -2 -2 -4.5t-1 -5.5l176 -111q9 -6 12 -7.5l5 -2.5q1 -1 3 -1.5t4 -0.5q2 -1 5.5 -1h15.5h232h15.5t5.5 1q2 0 4 0.5t3 1.5l5 2.5t12 7.5l176 111v0z" />
    <glyph glyph-name="uniE810" unicode="&#xe810;" 
d="M549 837q2 17 16 28t31 9q66 -7 125.5 -35.5t105.5 -74.5q47 -46 75.5 -105t35.5 -125q2 -17 -9 -31t-28 -16q-18 -2 -31.5 9t-15.5 29q-6 50 -28.5 96t-58.5 83q-36 36 -82.5 58t-97.5 28q-17 2 -28.5 15.5t-9.5 31.5v0zM278 726q-7 4 -15 4t-16 -4q-2 -1 -7.5 -6
t-22.5 -22l-6 -6q-16 -16 -22 -22.5t-9 -11.5q-4 -7 -6.5 -17.5t-2.5 -17.5t1.5 -13.5t5.5 -23.5q12 -41 29 -80q16 -40 38 -77t49 -73q28 -35 60 -67t67 -59q36 -27 73.5 -49t77.5 -38q39 -17 80 -29q17 -4 23.5 -5.5t13.5 -1.5q8 0 18.5 2.5t17.5 6.5q5 3 11.5 9t23.5 22
l6 6q17 17 21.5 22.5t6.5 7.5q3 7 3 15t-3 15q-2 3 -6.5 8.5t-21.5 22.5l-8 7l-14.5 14.5t-5.5 4.5q-8 5 -18 5t-19 -5l-4.5 -4.5t-15.5 -14.5v-0.5t-1 -0.5l-5.5 -5.5t-7.5 -6.5q-15 -10 -33.5 -13.5t-36.5 1.5q-5 2 -9 3.5t-7 3.5v0v0q-45 22 -87 51t-79 66t-66 78.5
t-51 85.5v1v0q-2 3 -3.5 7t-3.5 9q-5 17 -1.5 36t13.5 34q3 4 6.5 7.5l5.5 5.5l0.5 0.5l0.5 0.5l14.5 14.5t4.5 5.5q5 8 5 18t-5 18q-1 2 -4.5 5.5l-14.5 14.5l-7 7q-17 17 -22.5 22t-8.5 6v0zM209 803q25 12 53.5 12t54.5 -12q12 -7 24 -17.5t24 -22.5l2 -2l2 -2l7 -7
l1.5 -1.5l1.5 -1.5q8 -8 15 -15.5t12 -15.5q20 -30 20 -65t-20 -65q-5 -8 -12 -15.5t-15 -15.5q-1 0 -1.5 -1t-1.5 -1q0 -1 -0.5 -1.5t-1.5 -0.5l1 -1v-1q18 -38 43.5 -73.5t57.5 -67.5q31 -31 67 -56.5t74 -43.5h1.5t0.5 -1q0 1 0.5 1.5l1.5 1.5q1 0 1.5 0.5l1.5 1.5
q8 8 15.5 15t15.5 12q29 20 64.5 20t65.5 -20q8 -5 15.5 -12t15.5 -15q0 -1 1 -1.5l1 -0.5l8 -8l2 -2l2 -2q12 -12 22.5 -23.5t17.5 -24.5q13 -25 13 -53.5t-13 -53.5q-7 -13 -17.5 -25t-22.5 -24l-2 -2l-2 -2l-6 -6q-1 0 -1.5 -1t-1.5 -1q-13 -14 -24.5 -24.5t-26.5 -18.5
q-16 -9 -37.5 -14.5t-39.5 -5.5q-16 0 -29.5 3t-28.5 7q0 1 -0.5 1h-1.5q-46 13 -91 32q-44 19 -86.5 43.5t-81.5 54.5q-40 31 -76 67q-37 36 -67 75q-31 40 -55.5 82t-43.5 86q-19 45 -32 91v0.5v1.5q-5 15 -8 28t-3 29q0 19 5.5 40t15.5 38q8 14 18.5 25.5t23.5 24.5
l1.5 1.5l1.5 1.5l6 6l2 2l2 2q12 12 23.5 22.5t24.5 17.5v0zM550 688q3 17 18 27t32 7q34 -7 65 -23.5t56 -40.5q24 -25 40.5 -55.5t23.5 -65.5q3 -17 -7 -31.5t-27 -18.5q-17 -3 -32 7t-18 27q-4 22 -14.5 41.5t-26.5 34.5q-15 16 -35 26t-41 15q-18 3 -27.5 17.5
t-6.5 32.5v0z" />
    <glyph glyph-name="uniE811" unicode="&#xe811;" 
d="M130 798q13 12 30.5 12.5t30.5 -11.5l141 -130q2 -1 4 -2.5t3 -3.5l120 -110v0v0l165 -152h0.5h0.5l119 -110q2 -1 4 -3l4 -4l141 -129q12 -12 12.5 -28.5t-11.5 -28.5q-13 -12 -30.5 -12.5t-30.5 11.5l-121 111q-42 -22 -92.5 -36.5t-107.5 -14.5q-84 0 -152.5 29.5
t-119.5 68.5t-85.5 79.5t-51.5 66.5q-1 0 -1 0.5v0.5q-4 5 -8 12t-7 17q-2 8 -2 17t2 17q3 10 7 17t8 12v0.5t1 1.5q17 25 51.5 65.5t85.5 79.5l-109 100q-12 12 -12.5 28.5t11.5 28.5v0zM302 585q-47 -34 -79.5 -72t-48.5 -61q-1 -1 -1.5 -2t-0.5 -2t0.5 -1.5t1.5 -2.5
q16 -22 46 -57.5t74 -69.5q43 -33 98 -56t120 -23q37 0 71 8t65 21l-57 52q-18 -9 -38 -14t-41 -5q-65 0 -112.5 43t-47.5 105q0 20 5.5 38t14.5 34l-70 65v0zM439 459q-1 -3 -1 -5.5v-5.5q0 -27 21 -47t53 -20h5.5t5.5 1l-84 77v0zM512 658q-11 0 -22 -0.5t-21 -1.5
q-17 -3 -31.5 7t-16.5 27q-3 16 7.5 29.5t28.5 15.5q13 2 27 3t28 1q84 0 152.5 -29.5t119.5 -68.5t85.5 -79.5t51.5 -66.5q1 0 1 -0.5v-0.5q4 -5 8 -12t7 -17q2 -8 2 -17t-2 -17q-3 -10 -7 -17t-8 -12v-1l-1 -1q-9 -13 -23 -31.5t-33 -39.5q-12 -12 -29.5 -13.5t-30.5 9.5
q-14 11 -15 27.5t10 29.5q17 18 29.5 34t20.5 28q1 1 1.5 2t0.5 2t-0.5 1.5t-1.5 2.5q-16 22 -46 57.5t-74 69.5q-43 33 -98 56t-120 23v0z" />
    <glyph glyph-name="uniE812" unicode="&#xe812;" 
d="M295 585q-44 -35 -74.5 -71.5t-45.5 -60.5q-2 -1 -2.5 -2t-1.5 -2v-1v0v0v-1q1 -1 1.5 -2t2.5 -2q15 -24 45.5 -60.5t74.5 -71.5q43 -35 97.5 -58.5t119.5 -23.5t119.5 23.5t97.5 58.5q44 35 74.5 71.5t45.5 60.5q2 1 2.5 2t1.5 2v1v0v0v1q-1 1 -1.5 2t-2.5 2
q-15 24 -45.5 60.5t-74.5 71.5q-43 35 -97.5 58.5t-119.5 23.5t-119.5 -23.5t-97.5 -58.5zM239 646q51 40 119.5 70.5t153.5 30.5t153.5 -30.5t119.5 -70.5q50 -40 85 -82t52 -69l0.5 -0.5l0.5 -0.5q3 -5 7 -12t7 -17q2 -8 2 -17t-2 -17q-3 -10 -7 -17t-7 -12l-0.5 -0.5
l-0.5 -0.5q-17 -27 -52 -69t-85 -82q-51 -40 -119.5 -70.5t-153.5 -30.5t-153.5 30.5t-119.5 70.5q-50 40 -85 82t-52 69l-0.5 0.5l-0.5 0.5q-3 5 -7 12t-7 17q-2 8 -2 17t2 17q3 10 7 17t7 12l0.5 0.5l0.5 0.5q17 27 52 69t85 82v0zM512 519q-30 0 -52 -20.5t-22 -50.5
t22 -50.5t52 -20.5t52 20.5t22 50.5t-22 50.5t-52 20.5zM352 448q0 62 46.5 106.5t113.5 44.5t113.5 -44.5t46.5 -106.5t-46.5 -106.5t-113.5 -44.5t-113.5 44.5t-46.5 106.5z" />
    <glyph glyph-name="uniE813" unicode="&#xe813;" 
d="M512 875q18 0 30.5 -12.5t12.5 -30.5v-37q59 -7 112 -33q52 -26 92.5 -66.5t66.5 -92.5q26 -53 33 -112h37q18 0 30.5 -12.5t12.5 -30.5t-12.5 -30.5t-30.5 -12.5h-37q-7 -59 -33 -112q-26 -52 -66.5 -92.5t-92.5 -66.5q-53 -26 -112 -33v-37q0 -18 -12.5 -30.5
t-30.5 -12.5t-30.5 12.5t-12.5 30.5v37q-59 7 -112 33q-52 26 -92.5 66.5t-66.5 92.5q-26 53 -33 112h-37q-18 0 -30.5 12.5t-12.5 30.5t12.5 30.5t30.5 12.5h37q7 59 33 112q26 52 66.5 92.5t92.5 66.5q53 26 112 33v37q0 18 12.5 30.5t30.5 12.5v0zM469 709
q-42 -7 -78 -26q-37 -19 -66 -48t-48 -66q-19 -36 -26 -78h31q17 0 29.5 -12.5t12.5 -30.5t-12.5 -30.5t-29.5 -12.5h-31q7 -42 26 -78q19 -37 48 -66t66 -48q36 -19 78 -26v31q0 17 12.5 29.5t30.5 12.5t30.5 -12.5t12.5 -29.5v-31q42 7 78 26q37 19 66 48t48 66
q19 36 26 78h-31q-17 0 -29.5 12.5t-12.5 30.5t12.5 30.5t29.5 12.5h31q-7 42 -26 78q-19 37 -48 66t-66 48q-36 19 -78 26v-31q0 -17 -12.5 -29.5t-30.5 -12.5t-30.5 12.5t-12.5 29.5v31v0z" />
    <glyph glyph-name="uniE814" unicode="&#xe814;" 
d="M512 768q34 29 75 45q40 17 83.5 18.5t86.5 -12.5q44 -14 83 -47q43 -36 68 -83q24 -47 29 -97.5t-9 -100.5q-14 -51 -47 -94q-26 -32 -71 -77.5t-92 -89.5q-47 -45 -91 -84t-67 -60v-0.5t-1 -0.5q-2 -2 -4.5 -4t-5.5 -4q-3 -3 -8 -5.5t-12 -4.5q-8 -3 -17 -3t-18 3
q-6 2 -11 4.5t-9 5.5q-2 2 -5 4t-5 4v0.5t-1 0.5q-23 21 -66.5 60t-91.5 84q-47 44 -92 89.5t-70 77.5q-34 43 -48 94q-14 50 -8.5 100.5t29.5 97.5q25 46 67 83q39 33 82 47q44 15 87.5 13t84.5 -19q41 -16 75 -45v0zM479 680q-48 56 -116 65.5t-125 -38.5
q-59 -51 -66.5 -124.5t38.5 -132.5q22 -28 64 -70.5t90 -87.5q43 -41 83 -77t65 -58q25 22 65 58t83 77q48 45 89.5 87.5t63.5 70.5q47 59 39.5 133t-66.5 123q-58 48 -126 39t-116 -65q-6 -7 -14.5 -11t-17.5 -4q-10 0 -18.5 4t-14.5 11v0z" />
    <glyph glyph-name="uniE815" unicode="&#xe815;" 
d="M183 772q39 33 82 47q44 15 87.5 13t84.5 -19q41 -16 75 -45q34 29 75 45q40 17 83.5 18.5t86.5 -12.5q44 -14 83 -47q43 -36 68 -83q24 -47 29 -97.5t-9 -100.5q-14 -51 -47 -94q-26 -32 -71 -77.5t-92 -89.5q-47 -45 -91 -84t-67 -60l-1 -1q-2 -2 -4.5 -4t-5.5 -4
q-3 -3 -8 -5.5t-12 -4.5q-8 -3 -17 -3t-18 3q-6 2 -11 4.5t-9 5.5q-2 2 -5 4t-5 4l-1 1q-23 21 -66.5 60t-91.5 84q-47 44 -92 89.5t-70 77.5q-34 43 -48 94q-14 50 -8.5 100.5t29.5 97.5q25 46 67 83v0z" />
    <glyph glyph-name="uniE816" unicode="&#xe816;" 
d="M564 871q12 -5 18.5 -17.5t5.5 -26.5l-31 -260h215h1h1h12.5h12.5q5 -1 14.5 -3t18.5 -10q10 -9 16 -22t5 -27q0 -13 -4 -22t-7 -14l-8 -10t-8 -11v0l-1 -1l-318 -410q-8 -11 -21 -14.5t-26 2.5q-12 5 -18.5 17.5t-5.5 26.5l31 260h-215h-1h-1h-12.5h-12.5q-5 1 -14.5 3
t-18.5 10q-10 9 -16 22t-5 27q0 13 4 22t7 14l8 10t8 11v0l1 1l318 410q8 11 21 14.5t26 -2.5v0zM276 414h236q9 0 16.5 -4t13.5 -11q6 -6 8.5 -15t1.5 -18l-19 -162l215 278h-236q-9 0 -16.5 4t-13.5 11q-6 6 -8.5 15t-1.5 18l19 162l-215 -278v0z" />
    <glyph glyph-name="uniE818" unicode="&#xe818;" 
d="M501 874q6 1 11 1t11 -1t12 -3t10 -4h1h1l203 -79q1 -1 2.5 -1.5t2.5 -0.5q18 -7 33 -14t27 -18q10 -9 18 -20.5t13 -25.5q6 -15 6.5 -32t0.5 -37v-2.5v-2.5v-187q0 -83 -37 -151.5t-84 -119.5t-96 -86.5t-78 -53.5h-1l-1 -1q-5 -3 -12 -6.5t-16 -5.5q-7 -2 -16 -2t-16 2
q-9 2 -16 5.5t-12 6.5l-1 1h-1q-29 18 -78 53.5t-96 86.5t-84 119.5t-37 151.5v187v2.5v2.5q0 20 0.5 37t6.5 32q5 14 13 25.5t18 20.5q12 11 27 18t33 14q1 0 2.5 0.5t2.5 1.5l203 79h1h1q4 2 10 4t12 3v0zM512 797q-1 0 -3 -1t-5 -2l-203 -79q-24 -9 -31.5 -12.5
t-9.5 -6.5q-4 -3 -6.5 -7t-4.5 -8q-1 -4 -1.5 -12.5t-0.5 -34.5v-187q0 -62 28.5 -117t71.5 -101q42 -45 86.5 -77.5t71.5 -48.5q1 -1 2.5 -1.5t2.5 -1.5q1 0 1.5 -0.5l0.5 -0.5l0.5 0.5t1.5 0.5q1 1 2.5 1.5t2.5 1.5q27 16 71.5 48.5t86.5 77.5q43 46 71.5 101t28.5 117
v187q0 26 -0.5 34.5t-1.5 12.5q-2 4 -4.5 8t-6.5 7q-3 3 -10 6.5t-31 12.5l-203 79q-3 1 -5 2t-3 1v0zM512 721q16 0 27 -11.5t11 -27.5v-20h5q32 0 57.5 -17t38.5 -43q8 -15 3 -30t-19 -23q-14 -7 -29 -2t-22 19q-4 8 -12 13t-17 5h-81q-15 0 -26.5 -11.5t-11.5 -27.5
q0 -17 11.5 -28.5t26.5 -11.5h76q47 0 80.5 -34.5t33.5 -82.5t-33.5 -82.5t-80.5 -34.5v-20q0 -16 -11 -27.5t-27 -11.5t-27 11.5t-11 27.5v20h-5q-32 0 -57.5 16.5t-38.5 43.5q-8 14 -3 29.5t19 22.5t29 2.5t22 -18.5q4 -9 12 -14t17 -5h81q15 0 26.5 11.5t11.5 28.5
t-11.5 28t-26.5 11h-76q-47 0 -80.5 34.5t-33.5 83.5q0 48 33.5 82.5t80.5 34.5v20q0 16 11 27.5t27 11.5v0z" />
    <glyph glyph-name="uniE819" unicode="&#xe819;" 
d="M485 847q13 6 27 6t27 -6q11 -5 17.5 -13t9.5 -13t6.5 -11t6.5 -12v-1v-1l87 -174l196 -28q7 -1 13.5 -2t12.5 -2q6 -2 15.5 -5.5t17.5 -12.5q10 -10 14.5 -23.5t2.5 -28.5q-2 -12 -7.5 -20.5t-8.5 -12.5q-4 -5 -9 -10l-10 -10l-141 -136l33 -191v-0.5v-0.5l2 -14t2 -13
q0 -5 -0.5 -15.5t-6.5 -21.5q-7 -12 -18.5 -20.5t-25.5 -10.5q-12 -3 -22 -0.5t-15 5.5q-5 2 -11.5 5t-12.5 6l-175 92l-174 -91h-0.5t-0.5 -1q-6 -3 -12.5 -6t-11.5 -5q-5 -3 -15 -5.5t-22 0.5q-14 2 -25.5 10.5t-18.5 20.5q-6 11 -6.5 21.5t-0.5 15.5q1 6 2 13l2 14
l33 192l-140 135q0 1 -0.5 1h-0.5l-10 10t-9 10q-3 4 -8.5 12.5t-7.5 20.5q-2 15 2.5 28.5t14.5 23.5q8 9 17.5 12.5t15.5 5.5q6 1 12.5 2t13.5 2h1h1l194 28l87 174v1v1q3 6 6.5 12t6.5 11t9.5 13t17.5 13v0zM512 740l-80 -160v-1h-1q-1 -3 -4 -9t-8 -11t-9.5 -8.5
t-10.5 -5.5q-7 -3 -13 -4.5t-10 -1.5v0h-1l-178 -26l129 -124v-0.5t1 -0.5q2 -2 6.5 -7t7.5 -11t5 -11.5t3 -11.5q1 -8 0 -14t-1 -10l-0.5 -0.5l-0.5 -0.5l-30 -176l160 84h0.5h0.5q3 2 9 4.5t13 4.5q6 1 12 1t12 -1q7 -2 13 -4.5t9 -4.5h0.5h0.5l160 -84l-30 176l-0.5 0.5
l-0.5 0.5q0 4 -1 10t0 14q1 6 3 11.5t5 11.5t7.5 11t6.5 7q1 0 1 0.5v0.5l129 124l-178 26h-1v0q-4 0 -10 1.5t-13 4.5q-6 2 -10.5 5.5t-9.5 8.5t-8 11t-4 9h-1v1l-80 160v0z" />
    <glyph glyph-name="uniE81A" unicode="&#xe81a;" 
d="M418 875h0.5h0.5h186h0.5h0.5h6t5 -1q35 -2 63 -22t41 -52q1 -3 2 -5.5t2 -5.5v-1q2 -4 2 -5.5t1 -1.5q3 -9 11 -15t18 -6q1 -1 2.5 -1h5.5h1.5h0.5h16h13q57 -6 96.5 -46t45.5 -96q0 -6 0.5 -12.5t0.5 -15.5v-0.5v-1.5v-369q0 -29 -9.5 -54.5t-26.5 -46.5l23 -23
q13 -12 13 -30t-13 -30q-12 -13 -30 -13t-30 13l-54 54q-1 0 -1.5 1t-1.5 1l-206 207h-1v0q-1 2 -2.5 3t-2.5 3l-211 211q-2 1 -3 2t-2 3l-283 283q-13 12 -13 30t13 30q12 13 30 13t30 -13l103 -103h4t2 1q10 0 18 6t11 15q1 0 1 1.5t2 5.5v0.5v0.5q1 3 2 5.5t2 5.5
q13 32 41 52t63 22q2 1 5 1h6v0zM328 692l91 -90q21 11 44.5 17t48.5 6q41 0 76 -15q36 -16 62.5 -42.5t42.5 -62.5q15 -36 15 -76q0 -25 -6 -49t-17 -44l157 -158q5 9 8 19t3 21v369v15v7q-3 26 -21 44t-44 21h-6.5h-16.5h-1h-6h-6q-34 2 -62.5 22.5t-40.5 52.5
q-2 3 -2.5 5.5t-1.5 5.5l-0.5 0.5l-0.5 0.5q-1 4 -1.5 5t-0.5 2q-4 9 -12 15t-18 6h-1.5h-5.5h-186h-5.5h-1.5q-10 0 -18 -6t-12 -15q0 -1 -0.5 -2t-1.5 -5l-0.5 -0.5l-0.5 -0.5q-1 -3 -1.5 -5.5t-2.5 -5.5q-7 -18 -19 -32.5t-28 -24.5v0zM619 401q2 7 3 14t1 14
q0 46 -32.5 78.5t-78.5 32.5q-7 0 -14 -1t-14 -3zM128 663q18 0 30.5 -12.5t12.5 -29.5v-334v-42.5t1 -29.5q1 -13 3 -19.5t4 -10.5q5 -11 13 -19t18 -13q4 -2 11 -3.5t19 -3.5q13 -1 30.5 -1h41.5h334q18 0 30.5 -12.5t12.5 -30.5q0 -17 -12.5 -29.5t-30.5 -12.5h-335
h-42.5t-35.5 1q-16 2 -31.5 5.5t-29.5 10.5q-23 11 -40.5 29t-28.5 40q-8 14 -11.5 29.5t-4.5 32.5q-1 15 -1.5 34.5t-0.5 42.5v336q0 17 12.5 29.5t30.5 12.5v0zM358 471q18 0 30.5 -12.5t12.5 -29.5q0 -46 32.5 -78.5t78.5 -32.5q18 0 30.5 -12.5t12.5 -30.5
q0 -17 -12.5 -29.5t-30.5 -12.5q-41 0 -76 15q-36 15 -62.5 42t-42.5 62q-15 36 -15 77q0 17 12.5 29.5t29.5 12.5z" />
    <glyph glyph-name="uniE81B" unicode="&#xe81b;" 
d="M418 853h0.5h0.5h186h0.5h0.5h6h5q35 -2 63 -22t41 -52q1 -3 2 -5.5t2 -5.5v-1q2 -4 2 -5.5t1 -1.5q3 -9 11 -15t18 -6h2.5h5.5h1.5h0.5h16t13 -1q56 -5 96 -45t46 -96q0 -6 0.5 -12.5t0.5 -15.5v-0.5v-1.5v-300q0 -23 -0.5 -42t-1.5 -35t-4.5 -31.5t-11.5 -30.5
q-11 -22 -28.5 -39.5t-40.5 -28.5q-14 -8 -29.5 -11t-31.5 -5q-16 -1 -35.5 -1h-42.5h-402h-42.5t-35.5 1q-16 2 -31.5 5t-29.5 11q-23 11 -40.5 28.5t-28.5 39.5q-8 15 -11.5 30.5t-4.5 31.5q-1 15 -1.5 34.5t-0.5 42.5v300v1.5v0.5q0 9 0.5 15.5t0.5 12.5q6 56 46 96
t96 45q6 1 13 1h16h0.5h1.5h5.5h2.5q10 0 18 6t11 15q1 0 1 1.5t2 5.5v0.5v0.5q1 3 2 5.5t2 5.5q13 32 41 52t63 22h5h6v0zM419 768h-5.5h-1.5q-10 -1 -18 -6.5t-12 -14.5q0 -1 -0.5 -2t-1.5 -5l-0.5 -0.5l-0.5 -0.5q-1 -3 -2 -5.5t-2 -5.5q-12 -32 -40.5 -52t-62.5 -22
q-3 0 -6 -0.5t-6 -0.5h-0.5h-0.5h-16.5h-6.5q-26 -2 -44 -20.5t-21 -43.5v-7v-15v-298v-42t1 -30q1 -12 3 -19t4 -11q5 -10 13 -18t18 -13q4 -2 11 -4t19 -3q13 -1 30.5 -1h41.5h400h41.5t30.5 1q12 1 19 3t11 4q10 5 18 13t13 18q2 4 4 11t3 19q1 13 1 30v42v298v15v7
q-3 25 -21 43.5t-44 20.5h-6.5h-16.5h-1q-3 0 -6 0.5t-6 0.5q-34 2 -62.5 22t-40.5 52q-1 3 -2 5.5t-2 5.5l-1 1q-1 4 -1.5 5t-0.5 2q-4 9 -12 14.5t-18 6.5h-1.5h-5.5h-186v0zM512 520q-46 0 -78.5 -32.5t-32.5 -77.5q0 -46 32.5 -78t78.5 -32t78.5 32t32.5 78
q0 45 -32.5 77.5t-78.5 32.5v0zM316 410q0 40 15 76q16 36 42.5 62.5t62.5 41.5q35 15 76 15t76 -15q36 -15 62.5 -41.5t42.5 -62.5q15 -36 15 -76q0 -41 -15 -76q-16 -36 -42.5 -62.5t-62.5 -41.5q-35 -16 -76 -16t-76 16q-36 15 -62.5 41.5t-42.5 62.5q-15 35 -15 76v0z
" />
    <glyph glyph-name="uniE81C" unicode="&#xe81c;" 
d="M539 847q-13 6 -27 6t-27 -6q-11 -5 -17.5 -13t-9.5 -13t-6.5 -11t-6.5 -12l-87 -176l-196 -28q-7 -1 -13.5 -2t-12.5 -2q-6 -2 -15.5 -5.5t-17.5 -12.5q-10 -10 -14.5 -23.5t-2.5 -28.5q2 -12 7.5 -20.5t8.5 -12.5q4 -5 9 -10l10 -10v0l1 -1l140 -135l-33 -192l-2 -14
t-2 -13q0 -5 0.5 -15.5t6.5 -21.5q7 -12 18.5 -20.5t25.5 -10.5q12 -3 22 -0.5t15 5.5q5 2 11.5 5t12.5 6l175 92l175 -92q6 -3 12.5 -6t11.5 -5q5 -3 15 -5.5t22 0.5q14 2 25.5 10.5t18.5 20.5q6 11 6.5 21.5t0.5 15.5q-1 6 -2 13l-2 14v1l-33 191l141 136l10 10t9 10
q3 4 8.5 12.5t7.5 20.5q2 15 -2.5 28.5t-14.5 23.5q-8 9 -17.5 12.5t-15.5 5.5q-6 1 -12.5 2t-13.5 2v0l-196 28l-87 176q-3 6 -6.5 12t-6.5 11t-9.5 13t-17.5 13v0z" />
    <glyph glyph-name="uniE81D" unicode="&#xe81d;" 
d="M310 789h212h42t35 -2q17 -1 32.5 -5t30.5 -12q23 -13 40 -32.5t28 -42.5q7 -16 10.5 -32t4.5 -34q1 -14 1.5 -31.5t0.5 -38.5l66 74q5 6 10.5 11.5l10.5 10.5q4 4 13.5 10.5t24.5 8.5q16 1 30 -5.5t23 -18.5q8 -11 10 -21.5t3 -16.5q0 -7 0.5 -15t0.5 -17v-264
q0 -9 -0.5 -17t-0.5 -15q-1 -6 -3 -16.5t-10 -21.5q-9 -12 -23 -18.5t-30 -5.5q-15 2 -24.5 8.5t-13.5 10.5l-10.5 10.5t-10.5 11.5l-66 74q0 -21 -0.5 -38.5t-1.5 -31.5q-1 -18 -4.5 -34t-10.5 -32q-11 -23 -28 -42.5t-40 -32.5q-15 -8 -30.5 -12t-32.5 -5q-16 -2 -35 -2
h-42h-212h-42t-35 2q-17 1 -32.5 5t-30.5 12q-23 13 -40 32.5t-28 42.5q-7 16 -10.5 32t-4.5 34q-1 17 -1.5 38.5t-0.5 47.5v190q0 26 0.5 47.5t1.5 38.5q1 18 4.5 34t10.5 32q11 23 28 42.5t40 32.5q15 8 30.5 12t32.5 5q16 2 35 2h42v0zM661 448v0v0v94v46.5t-1 34.5
q-1 14 -3 22.5t-4 13.5q-6 12 -14.5 21.5t-18.5 15.5q-4 2 -10 3.5t-19 2.5q-12 2 -29.5 2h-41.5h-208h-41.5t-29.5 -2q-13 -1 -19 -2.5t-10 -3.5q-10 -6 -18.5 -15.5t-14.5 -21.5q-2 -5 -4 -13.5t-3 -22.5q-1 -15 -1 -34.5v-46.5v-188v-46.5t1 -34.5q1 -14 3 -22.5t4 -13.5
q6 -12 14.5 -21.5t18.5 -15.5q4 -2 10 -3.5t19 -2.5q12 -2 29.5 -2h41.5h208h41.5t29.5 2q13 1 19 2.5t10 3.5q10 6 18.5 15.5t14.5 21.5q2 5 4 13.5t3 22.5q1 15 1 34.5v46.5v94v0zM761 448l92 -102v204z" />
    <glyph glyph-name="uniE81E" unicode="&#xe81e;" 
d="M512 789q-58 0 -109 -21q-50 -21 -87.5 -57t-59.5 -84q-21 -48 -21 -102q0 -53 23.5 -104.5t66.5 -105.5q37 -45 82 -90t95 -93q3 -2 5.5 -4.5l4.5 -4.5l4.5 4.5t5.5 4.5q50 48 95 93t82 90q43 54 66.5 105.5t23.5 104.5q0 54 -21 102q-22 48 -59.5 84t-87.5 57
q-51 21 -109 21v0zM149 525q0 73 29 137q29 63 78.5 110.5t115.5 74.5q66 28 140 28t140 -28q66 -27 115.5 -74.5t78.5 -110.5q29 -64 29 -137q0 -74 -31.5 -139.5t-78.5 -123.5q-39 -49 -87.5 -97t-98.5 -96q-9 -9 -18.5 -18t-18.5 -18q-13 -12 -30 -12t-30 12
q-9 9 -18.5 18t-18.5 18q-50 48 -98.5 96t-87.5 97q-47 58 -78.5 123.5t-31.5 139.5v0zM512 597q-33 0 -55 -21.5t-22 -50.5t22 -51t55 -22t55 22t22 51t-22 50.5t-55 21.5zM349 525q0 66 48.5 112t114.5 46t114.5 -46t48.5 -112q0 -67 -48.5 -112.5t-114.5 -45.5
t-114.5 45.5t-48.5 112.5v0z" />
    <glyph glyph-name="uniE81F" unicode="&#xe81f;" 
d="M512 789q-71 0 -133 -26q-62 -27 -108.5 -73.5t-73.5 -108.5q-26 -62 -26 -133t26 -133q27 -62 73.5 -108.5t108.5 -73.5q62 -26 133 -26t133 26q62 27 108.5 73.5t73.5 108.5q26 62 26 133t-26 133q-27 62 -73.5 108.5t-108.5 73.5q-62 26 -133 26v0zM85 448
q0 88 34 166q33 78 91 136t136 91q78 34 166 34t166 -34q78 -33 136 -91t91 -136q34 -78 34 -166t-34 -166q-33 -78 -91 -136t-136 -91q-78 -34 -166 -34t-166 34q-78 33 -136 91t-91 136q-34 78 -34 166v0zM512 721q18 0 30.5 -12.5t12.5 -30.5v-204l130 -65
q15 -8 21 -24.5t-2 -32.5t-25 -21.5t-32 2.5l-154 77q-11 5 -17.5 15.5t-6.5 22.5v230q0 18 12.5 30.5t30.5 12.5v0z" />
    <glyph glyph-name="uniE820" unicode="&#xe820;" 
d="M740 559q-32 0 -60 12t-49 32l-195 -115q2 -10 3.5 -20t1.5 -20t-1.5 -20t-3.5 -20l195 -115q21 20 49 32t60 12q65 0 110.5 -46.5t45.5 -111.5t-45.5 -111.5t-110.5 -46.5q-66 0 -111.5 46.5t-45.5 111.5q0 11 1.5 21t3.5 19l-195 115q-21 -20 -49 -32t-60 -12
q-65 0 -110.5 46.5t-45.5 111.5t45.5 111.5t110.5 46.5q32 0 60 -12t49 -32l195 115q-2 10 -3.5 19.5t-1.5 20.5q0 65 45.5 111.5t111.5 46.5q65 0 110.5 -46.5t45.5 -111.5t-45.5 -111.5t-110.5 -46.5v0zM346 484q0 1 -0.5 1.5t-0.5 1.5q-10 15 -26 24.5t-35 9.5
q-29 0 -50 -21.5t-21 -51.5t21 -51.5t50 -21.5q19 0 35 9.5t26 24.5q0 1 0.5 1.5t0.5 1.5l0.5 0.5l0.5 0.5q4 8 6.5 17t2.5 18t-2.5 18t-6.5 17l-0.5 0.5l-0.5 0.5v0zM678 216q0 -1 -0.5 -2t-1.5 -2q-4 -8 -6 -16t-2 -17q0 -30 21 -51t51 -21q29 0 50 21t21 51q0 31 -21 52
t-50 21q-19 0 -34.5 -8.5t-24.5 -23.5q-1 -1 -1.5 -2t-1.5 -2v0zM742 648q30 0 51 21t21 51t-21 51.5t-51 21.5t-51 -21.5t-21 -51.5t21 -51t51 -21z" />
    <glyph glyph-name="uniE821" unicode="&#xe821;" 
d="M937 370q-1 6 -2.5 12t-3.5 12q-3 7 -6 13t-7 12q0 1 -0.5 1.5l-0.5 0.5l-137 238q-7 11 -19 17t-25 4l-181 -30v139q0 18 -12.5 30.5t-30.5 12.5t-30.5 -12.5t-12.5 -30.5v-153l-194 -32q-10 -2 -17.5 -7.5t-12.5 -13.5l-138 -237l-0.5 -1l-0.5 -1q-4 -7 -7.5 -13
t-5.5 -12t-3.5 -12t-2.5 -12q-1 -7 -1.5 -14t-0.5 -15v-7q0 -41 16 -76q15 -36 42 -62.5t62 -41.5q36 -15 77 -15q40 0 76 15t62.5 41.5t41.5 62.5q16 35 16 76v7v15t-1 14q-1 6 -3 12l-4 12t-5.5 12t-7.5 13l-0.5 0.5t-0.5 1.5l-107 183l169 28h0.5h1.5l140 23l-92 -159
l-0.5 -1l-0.5 -1q-4 -6 -7.5 -12.5t-5.5 -12.5l-4 -12t-3 -12q-1 -7 -1 -14v-15v-7q0 -41 16 -76q15 -36 41.5 -62t62.5 -42q36 -15 76 -15q41 0 77 15q35 16 62 42t42 62q16 35 16 76v7q0 8 -0.5 15t-1.5 14v0v0zM282 149q-46 0 -77.5 31t-33.5 73h222q-2 -43 -34 -73.5
t-77 -30.5v0zM362 339h-159l79 138zM742 553l80 -138h-159l80 138h-1zM742 225q-45 0 -77 31t-34 73h222q-2 -43 -33.5 -73.5t-77.5 -30.5v0z" />
    <glyph glyph-name="uniE823" unicode="&#xe823;" 
d="M128 756v-533q0 -49 34.5 -83.5t84.5 -34.5h44l71 -71q6 -6 13.5 -9.5t16.5 -3.5q8 0 16 3.5t14 9.5l90 91l91 -91q6 -6 14 -9.5t16 -3.5q9 0 16.5 3.5t13.5 9.5l71 71h43q50 0 84.5 34.5t34.5 83.5v533q0 49 -34.5 84t-84.5 35h-530q-50 0 -84.5 -35t-34.5 -84v0z
M345 172l38 38q10 -14 22.5 -25.5t26.5 -19.5l-40 -41l-47 48v0zM356 303l-102 -101l-4 -6l-4 -6q-13 0 -23 10t-10 23v533q0 14 10 23.5t24 9.5h530q14 0 24 -9.5t10 -23.5v-533q0 -13 -9.5 -22.5t-22.5 -10.5l-4 6l-4 6l-103 102q-1 63 -46.5 107.5t-109.5 44.5
t-109.5 -44.5t-46.5 -108.5v0zM441 291v0v0v4v5q0 29 21 50t50 21t50 -21t21 -50q0 -30 -20.5 -50.5t-49.5 -21.5v0h-1v0q-27 0 -47.5 18t-23.5 45v0zM593 165q14 9 26 20.5t22 25.5l39 -39l-47 -48l-40 41v0zM356 680q0 -18 12.5 -30.5t29.5 -12.5h228q17 0 29.5 12.5
t12.5 30.5t-12.5 30.5t-29.5 12.5h-228q-17 0 -29.5 -12.5t-12.5 -30.5v0zM280 547q0 -18 12.5 -30.5t29.5 -12.5h380q17 0 29.5 12.5t12.5 30.5q0 17 -12.5 29.5t-29.5 12.5h-380q-17 0 -29.5 -12.5t-12.5 -29.5v0z" />
    <glyph glyph-name="uniE824" unicode="&#xe824;" 
d="M313 875h1h1h396q7 0 13.5 -0.5t12.5 -0.5q7 -1 15 -2.5t16 -6.5q11 -6 20 -15t14 -20q4 -9 6 -16.5t2 -14.5q1 -6 1 -13v-14v-81v-2v-1q0 -12 -0.5 -22.5t-2.5 -21.5q-2 -9 -5.5 -17.5t-8.5 -16.5q-5 -9 -12 -17t-15 -16l-1.5 -1.5l-0.5 -0.5l-108 -113q-4 -5 -7.5 -8.5
l-5.5 -5.5l5.5 -5.5t7.5 -8.5l108 -113l0.5 -0.5l1.5 -1.5q8 -8 15 -16t12 -17q5 -8 8.5 -16.5t5.5 -17.5q2 -11 2.5 -21.5t0.5 -22.5v-1v-2v-81v-14t-1 -13q0 -7 -2 -14.5t-6 -16.5q-5 -11 -14 -20t-20 -15q-8 -5 -16 -6.5t-15 -2.5q-6 0 -12.5 -0.5t-13.5 -0.5h-398
q-7 0 -13.5 0.5t-12.5 0.5q-7 1 -15 2.5t-16 6.5q-11 6 -20 15t-14 20q-4 9 -6 16.5t-2 14.5q-1 6 -1 13v14v81v2v1q0 12 0.5 22.5t2.5 21.5q2 9 5.5 17.5t8.5 16.5q5 9 12 17t15 16l1.5 1.5l0.5 0.5l108 113q4 5 7.5 8.5l5.5 5.5l-5.5 5.5t-7.5 8.5l-108 113l-0.5 0.5
l-1.5 1.5q-8 8 -15 16t-12 17q-5 8 -8.5 16.5t-5.5 17.5q-2 11 -2.5 21.5t-0.5 22.5v1v2v80v0.5v0.5v14t1 13q0 7 2 14.5t6 16.5q5 11 14 20t20 15q8 5 16 6.5t15 2.5q6 1 12.5 1h13.5v0zM299 789v-7.5v-10.5v-80v-20.5t1 -7.5q0 -2 1 -4.5t3 -5.5q1 -2 4 -5.5t13 -14.5
l107 -112q1 0 1 -0.5v-0.5q5 -5 9.5 -10t8.5 -10q5 -5 9 -12t7 -16q3 -11 3 -24t-3 -24q-3 -9 -7 -16t-9 -12q-4 -5 -8.5 -10t-9.5 -10l-108 -113q-10 -11 -13 -14.5t-4 -5.5q-2 -3 -3 -5.5t-1 -4.5q-1 -3 -1 -7.5v-20.5v-80v-10.5v-7.5h1h2h5.5h7.5h394h7.5h5.5h2h1v7.5
v10.5v80v20.5t-1 7.5q0 2 -1 4.5t-3 5.5q-1 2 -4 5.5t-13 14.5l-108 113q-5 5 -9.5 10t-8.5 10q-5 5 -9 12t-7 16q-3 11 -3 24t3 24q3 9 7 16t9 12q4 5 8.5 10t9.5 10v0.5t1 0.5l107 112q10 11 13 14.5t4 5.5q2 3 3 5.5t1 4.5q1 3 1 7.5v20.5v80v10.5v7.5h-1h-2h-5.5h-7.5
h-394h-7.5h-5.5h-2h-1v0zM360 198q0 18 12.5 30.5t29.5 12.5h220q17 0 29.5 -12.5t12.5 -30.5q0 -17 -12.5 -29.5t-29.5 -12.5h-220q-17 0 -29.5 12.5t-12.5 29.5v0z" />
    <glyph glyph-name="uniE825" unicode="&#xe825;" 
d="M312 875h2h2h110h2h2q11 0 22 -0.5t22 -3.5q9 -2 17.5 -5.5t17.5 -8.5q9 -6 17 -13.5t16 -15.5q1 0 1.5 -1l0.5 -1l300 -300l30 -30t24 -26q11 -13 19.5 -26.5t13.5 -28.5q8 -24 8 -49.5t-8 -49.5q-5 -15 -13.5 -28.5t-19.5 -26.5q-10 -12 -24 -26l-30 -30l-89 -89
l-30 -30t-26 -24q-13 -11 -26.5 -19.5t-28.5 -13.5q-24 -8 -49.5 -8t-49.5 8q-15 5 -28.5 13.5t-26.5 19.5q-12 10 -26 24l-30 30l-300 300l-1 0.5t-1 1.5q-8 8 -15.5 16t-13.5 17q-5 9 -8.5 17.5t-5.5 17.5q-3 11 -3.5 22t-0.5 22v2v2v110v2v2q0 12 0.5 22.5t3.5 21.5
q2 9 5.5 18t8.5 17q6 9 13.5 17t15.5 16q0 1 1 1.5t1 1.5l63 63q1 0 1.5 1t1.5 1q8 8 16 15.5t17 13.5q8 5 17 8.5t18 5.5q11 3 21.5 3.5t22.5 0.5v0zM316 789h-21t-7 -1q-3 0 -5.5 -1t-4.5 -3q-2 -1 -5.5 -4t-14.5 -15l-63 -63q-12 -11 -15 -14.5t-4 -5.5q-2 -2 -3 -4.5
t-1 -5.5q-1 -2 -1 -7v-21v-110v-21t1 -7q0 -3 1 -5.5t3 -4.5q1 -2 4 -5.5t15 -14.5l298 -298q17 -18 29.5 -30t22.5 -21q10 -8 16 -11.5t11 -5.5q11 -3 22.5 -3t22.5 3q5 2 11 5.5t16 11.5q9 9 22 21t30 30l86 86q18 17 30 30t21 22q8 10 11.5 16t5.5 11q3 11 3 22.5
t-3 22.5q-2 5 -5.5 11t-11.5 16q-9 10 -21 22.5t-30 29.5l-298 298q-11 12 -14.5 15t-5.5 4q-2 2 -4.5 3t-5.5 1q-2 1 -7 1h-21h-110v0zM299 599q0 25 18.5 43.5t43.5 18.5q26 0 44 -18.5t18 -43.5q0 -26 -18 -44t-44 -18q-25 0 -43.5 18t-18.5 44z" />
    <glyph glyph-name="uniE826" unicode="&#xe826;" 
d="M874 760h-53q-5 0 -9.5 2t-8.5 5l-58 58q-3 4 -7.5 5.5t-8.5 1.5h-121q-39 0 -66.5 -28t-27.5 -67q0 -3 0.5 -6t2.5 -5l21 -35q-2 -53 -27.5 -99.5t-69.5 -76.5l-53 -37q-54 -37 -84.5 -94.5t-30.5 -123.5v-55h-74q-29 0 -50 -20.5t-21 -49.5t20.5 -50t50.5 -21h602
q10 0 16.5 6.5t6.5 15.5v49q0 23 -14 41.5t-34 25.5v143q21 37 21 79t-21 79q0 17 8 28t16 15l50 30q21 13 33.5 35t12.5 47v79q0 10 -6.5 16.5t-15.5 6.5v0v0zM173 135q0 10 7.5 17.5t18.5 7.5h74v-51h-74q-11 0 -18.5 7.5t-7.5 18.5zM851 658q0 -13 -6.5 -24.5
t-17.5 -18.5l-50 -30q-39 -23 -42.5 -55.5t-3.5 -33.5q0 -3 0.5 -6.5t2.5 -5.5q18 -28 18 -60.5t-18 -59.5q-2 -3 -2.5 -6t-0.5 -6v-169q0 -9 6.5 -16t15.5 -7q11 0 18.5 -7.5t7.5 -17.5v-26h-100v219q0 9 -6.5 15.5t-15.5 6.5q-10 0 -16.5 -6.5t-6.5 -15.5v-148
q-11 9 -24.5 15t-28.5 9q-10 58 -51.5 78t-65.5 20q-10 0 -16.5 -6.5t-6.5 -16.5q0 -9 7 -15.5t16 -6.5q30 0 52 -21.5t22 -52.5q0 -9 6.5 -16t15.5 -7q25 0 44 -14.5t27 -36.5h-313v151q0 55 25 102.5t70 78.5l54 37q40 27 67.5 66.5t39.5 85.5l15 -25q3 -5 8 -7.5t10 -3.5
h1v0q6 0 10.5 2.5t7.5 6.5l73 97q5 7 4 16.5t-9 14.5q-7 6 -16.5 4.5t-14.5 -8.5l-53 -70l-51 86q1 9 12 26.5t37 17.5h112l51 -52q10 -10 23 -15t27 -5h30v-57v0z" />
    <glyph glyph-name="uniE827" unicode="&#xe827;" 
d="M512 767q34 29 75 46q40 17 83.5 18.5t86.5 -12.5q44 -15 83 -48q44 -36 68 -83q24 -48 29 -98.5t-9 -101.5t-47 -94q-23 -30 -62.5 -70.5t-82.5 -81.5q-43 -42 -85 -80.5t-71 -63.5l-1 -1q-4 -4 -9 -8t-9 -8q-5 -4 -11.5 -7.5t-14.5 -6.5q-11 -3 -23 -3t-24 3
q-8 3 -14.5 6.5t-11.5 7.5q-4 4 -8.5 8t-9.5 8l-1 1q-28 25 -70 63.5t-86 80.5q-42 41 -81.5 81.5t-62.5 70.5q-34 43 -48 94q-13 51 -8 101.5t29 97.5q24 48 67 84q39 34 82 48q44 15 87 13t85 -19q41 -17 75 -46v0zM479 679q-48 57 -116 66.5t-124 -39.5
q-60 -51 -67.5 -125.5t38.5 -134.5q20 -26 57 -63.5t80 -79.5q42 -40 83.5 -78t69.5 -64q3 -2 5 -4l4 -4q1 0 1.5 -0.5l1.5 -1.5q0 1 1 1.5t2 0.5q1 2 3.5 4t4.5 4q29 26 70 64t84 78q43 42 79.5 79.5t56.5 63.5q47 60 39.5 135t-67.5 125q-58 48 -125.5 39t-115.5 -66
q-6 -7 -14.5 -11t-17.5 -4q-10 0 -18.5 4t-14.5 11v0zM477 619q-13 1 -24.5 -5.5t-17.5 -17.5l-45 -92h-12q-18 0 -30.5 -12.5t-12.5 -30.5t12.5 -30.5t30.5 -12.5h38q12 0 22.5 6.5t15.5 17.5l12 23l44 -133q4 -13 14 -21t23 -9t24.5 5.5t17.5 18.5l45 92h12
q18 0 30.5 12.5t12.5 30.5t-12.5 30.5t-30.5 12.5h-38q-12 0 -22.5 -6.5t-15.5 -17.5l-12 -23l-44 133q-4 13 -14 20.5t-23 8.5v0z" />
    <glyph glyph-name="uniE828" unicode="&#xe828;" 
d="M340 835h1l1 -1l443 -295q10 -7 19 -13t15 -11q8 -6 15.5 -14.5t12.5 -20.5q6 -15 6 -32t-6 -32q-5 -12 -12.5 -20.5t-15.5 -14.5q-6 -5 -15 -11t-19 -13l-445 -296l-22.5 -15t-19.5 -12t-21 -9t-27 -4q-18 2 -34.5 10.5t-27.5 23.5q-9 12 -12 24.5t-4 22.5t-1 22.5v26.5
v592v0.5v1.5v26.5t1 22.5t4 22.5t12 24.5q11 15 27.5 23.5t34.5 10.5q15 0 27 -4t21 -9t19.5 -12l22.5 -15v0zM257 787v-0.5v-0.5q-1 -7 -1 -17v-26v-590v-26t1 -17v-0.5v-0.5v0h1q6 4 14.5 9.5t21.5 14.5l443 295q11 7 18 11.5t11 8.5v0v0v0v0q-4 4 -11 8.5t-18 11.5
l-443 295q-13 9 -21.5 14.5t-14.5 9.5h-1v0v0z" />
    <glyph glyph-name="uniE829" unicode="&#xe829;" 
d="M884 713q12 -13 12 -30.5t-12 -30.5l-470 -469q-12 -12 -30 -12t-30 12l-214 213q-12 13 -12 30.5t12 30.5q13 12 30.5 12t30.5 -12l183 -183l439 439q13 12 30.5 12t30.5 -12v0z" />
    <glyph glyph-name="uniE82A" unicode="&#xe82a;" 
d="M512 789q-71 0 -133 -26q-62 -27 -108.5 -73.5t-73.5 -108.5q-26 -62 -26 -133t26 -133q27 -62 73.5 -108.5t108.5 -73.5q62 -26 133 -26t133 26q62 27 108.5 73.5t73.5 108.5q26 62 26 133t-26 133q-27 62 -73.5 108.5t-108.5 73.5q-62 26 -133 26v0zM85 448
q0 88 34 166q33 78 91 136t136 91q78 34 166 34t166 -34q78 -33 136 -91t91 -136q34 -78 34 -166t-34 -166q-33 -78 -91 -136t-136 -91q-78 -34 -166 -34t-166 34q-78 33 -136 91t-91 136q-34 78 -34 166v0zM715 593q12 -12 12 -29.5t-12 -30.5l-230 -230q-13 -13 -30.5 -13
t-30.5 13l-115 115q-12 12 -12 30t12 30q13 13 30.5 13t29.5 -13l85 -85l201 200q12 13 29.5 13t30.5 -13v0z" />
    <glyph glyph-name="uniE82B" unicode="&#xe82b;" 
d="M512 789q-71 0 -133 -26q-62 -27 -108.5 -73.5t-73.5 -108.5q-26 -62 -26 -133t26 -133q27 -62 73.5 -108.5t108.5 -73.5q62 -26 133 -26t133 26q62 27 108.5 73.5t73.5 108.5q26 62 26 133t-26 133q-27 62 -73.5 108.5t-108.5 73.5q-62 26 -133 26v0zM85 448
q0 88 34 166q33 78 91 136t136 91q78 34 166 34t166 -34q78 -33 136 -91t91 -136q34 -78 34 -166t-34 -166q-33 -78 -91 -136t-136 -91q-78 -34 -166 -34t-166 34q-78 33 -136 91t-91 136q-34 78 -34 166v0zM367 593q12 13 29.5 13t30.5 -13l85 -85l85 85q13 13 30.5 13
t29.5 -13q13 -12 13 -29.5t-13 -30.5l-85 -85l85 -85q13 -13 13 -30.5t-13 -29.5q-12 -13 -29.5 -13t-30.5 13l-85 85l-85 -85q-13 -13 -30.5 -13t-29.5 13q-13 12 -13 29.5t13 30.5l85 85l-85 85q-13 13 -13 30.5t13 29.5z" />
    <glyph glyph-name="uniE82C" unicode="&#xe82c;" 
d="M761 22h-498q-23 1 -45 6t-41 16q-21 11 -37 27t-28 35t-19 41t-8 45q-1 22 4 44t15 43l126 253l43 86l38 76t28 57q12 22 13 26q11 22 28 40.5t39 31.5q42 26 93 26t93 -26q21 -13 37.5 -31.5t27.5 -40.5l249 -498q10 -21 15 -43t4 -44q-1 -23 -7.5 -45t-19.5 -41
q-11 -19 -27.5 -35t-36.5 -27t-41.5 -16.5t-44.5 -5.5v0v0zM262 107h498q13 0 24 3t22 9q10 5 18.5 13.5t14.5 18.5t9.5 21t4.5 23q0 12 -2.5 23.5t-7.5 22.5l-249 498q-5 12 -13.5 21t-19.5 16q-22 13 -49 13t-49 -13q-11 -7 -19.5 -16t-14.5 -21l-13 -26t-28 -56.5
t-38 -76.5q-22 -42 -44 -87l-126 -253q-5 -10 -7.5 -21.5t-1.5 -23.5q0 -12 3.5 -23t9.5 -21q6 -11 14.5 -19t19.5 -13q10 -6 21 -9t23 -3v0v0zM512 302q-8 0 -15.5 -2.5t-13.5 -6.5q-7 -4 -12 -10.5t-8 -13.5t-4 -15t1 -15q2 -8 5.5 -15t8.5 -12q6 -6 13 -9.5t15 -4.5
q7 -2 15 -1t15 4q7 2 13 7t11 12q4 6 6 13t3 14q0 7 -1.5 14t-4.5 13q-4 6 -8.5 11.5t-10.5 8.5q-6 4 -13 6t-14 2h-1v0zM512 374q-3 0 -6 0.5t-6 1.5q-2 1 -4.5 2.5t-4.5 3.5q-3 3 -4.5 5t-2.5 5t-1.5 6t-0.5 6v177q0 5 2.5 10t7.5 9q4 4 9.5 6t10.5 2q6 0 11.5 -2t9.5 -6
t7 -9t3 -10v-177q0 -6 -2 -11.5t-7 -9.5q-4 -4 -9.5 -6.5t-11.5 -2.5h-1v0z" />
    <glyph glyph-name="uniE82D" unicode="&#xe82d;" 
d="M896 21h-700q-21 0 -35.5 1.5t-28.5 8.5q-12 6 -21.5 15.5t-15.5 21.5q-7 14 -8.5 28.5t-1.5 35.5v700q0 18 12.5 30.5t30.5 12.5t30.5 -12.5t12.5 -30.5v-700v-17t1 -10q0 1 7.5 1.5t16.5 0.5h700q18 0 30.5 -12.5t12.5 -30.5t-12.5 -30.5t-30.5 -12.5v0v0zM299 277
q-9 0 -16.5 3.5t-14.5 9.5q-12 12 -12 29.5t12 30.5l189 189q8 8 16 14.5t19 10.5q10 3 20 3t19 -3q11 -4 19 -10.5t16 -14.5l74 -74l153 153h-68q-18 0 -30.5 12.5t-12.5 30.5t12.5 30.5t30.5 12.5h171q4 0 8 -1t8 -3q4 -1 7.5 -3.5t6.5 -5.5t5.5 -6.5t3.5 -7.5q2 -4 3 -8
t1 -9v-170q0 -18 -12.5 -30.5t-30.5 -12.5t-30.5 12.5t-12.5 30.5v68l-159 -159q-8 -8 -15.5 -15t-18.5 -10q-10 -3 -20 -3t-20 3q-11 3 -18.5 9.5t-15.5 14.5l-74 74l-183 -183q-6 -7 -14 -10t-16 -3v1v0z" />
    <glyph glyph-name="uniE82E" unicode="&#xe82e;" 
d="M501 874q6 1 11 1t11 -1t12 -3t10 -4h1h1l203 -79q1 -1 2.5 -1.5t2.5 -0.5q18 -7 33 -14t27 -18q10 -9 18 -20.5t13 -25.5q6 -15 6.5 -32t0.5 -37v-2.5v-2.5v-187q0 -83 -37 -151.5t-84 -119.5t-96 -86.5t-78 -53.5h-1l-1 -1q-5 -3 -12 -6.5t-16 -5.5q-7 -2 -16 -2t-16 2
q-9 2 -16 5.5t-12 6.5l-1 1h-1q-29 18 -78 53.5t-96 86.5t-84 119.5t-37 151.5v187v2.5v2.5q0 20 0.5 37t6.5 32q5 14 13 25.5t18 20.5q12 11 27 18t33 14q1 0 2.5 0.5t2.5 1.5l203 79h1h1q4 2 10 4t12 3v0zM512 797q-1 0 -3 -1t-5 -2l-203 -79q-24 -9 -31.5 -12.5
t-9.5 -6.5q-4 -3 -6.5 -7t-4.5 -8q-1 -4 -1.5 -12.5t-0.5 -34.5v-187q0 -62 28.5 -117t71.5 -101q42 -45 86.5 -77.5t71.5 -48.5q1 -1 2.5 -1.5t2.5 -1.5q1 0 1.5 -0.5l0.5 -0.5l0.5 0.5t1.5 0.5q1 1 2.5 1.5t2.5 1.5q27 16 71.5 48.5t86.5 77.5q43 46 71.5 101t28.5 117
v187q0 26 -0.5 34.5t-1.5 12.5q-2 4 -4.5 8t-6.5 7q-3 3 -10 6.5t-31 12.5l-203 79q-3 1 -5 2t-3 1v0zM512 721q16 0 27 -11.5t11 -27.5v-20h5q32 0 57.5 -17t38.5 -43q8 -15 3 -30t-19 -23q-14 -7 -29 -2t-22 19q-4 8 -12 13t-17 5h-81q-15 0 -26.5 -11.5t-11.5 -27.5
q0 -17 11.5 -28.5t26.5 -11.5h76q47 0 80.5 -34.5t33.5 -82.5t-33.5 -82.5t-80.5 -34.5v-20q0 -16 -11 -27.5t-27 -11.5t-27 11.5t-11 27.5v20h-5q-32 0 -57.5 16.5t-38.5 43.5q-8 14 -3 29.5t19 22.5t29 2.5t22 -18.5q4 -9 12 -14t17 -5h81q15 0 26.5 11.5t11.5 28.5
t-11.5 28t-26.5 11h-76q-47 0 -80.5 34.5t-33.5 83.5q0 48 33.5 82.5t80.5 34.5v20q0 16 11 27.5t27 11.5v0z" />
    <glyph glyph-name="uniE82F" unicode="&#xe82f;" 
d="M512 465q-44 0 -86 -24q-41 -24 -73 -61.5t-51 -83.5q-19 -47 -19 -92q0 -11 4 -38t28 -46q42 -31 99 -2.5t98 28.5t98 -28.5t99 2.5q24 19 28 46t4 38q0 45 -19 92q-19 46 -51 83.5t-73 61.5q-42 24 -86 24v0zM666 183q-8 -2 -27 4.5t-33 11.5q-63 23 -94 23t-94 -23
q-14 -5 -33 -11.5t-27 -4.5q-1 1 -2 6.5t-1 14.5q0 64 51.5 124.5t105.5 60.5t105.5 -60.5t51.5 -124.5q0 -9 -1 -14.5t-2 -6.5v0zM512 531q47 0 80.5 38t33.5 91q0 54 -33.5 91.5t-80.5 37.5t-80.5 -37.5t-33.5 -91.5q0 -53 33.5 -91t80.5 -38zM512 713q17 0 29 -15.5
t12 -37.5t-12 -37.5t-29 -15.5t-29 15.5t-12 37.5t12 37.5t29 15.5zM328 617q-36 39 -85 41.5t-82 -31.5q-34 -34 -33 -85.5t37 -90.5q35 -39 84 -41.5t83 31.5t32.5 85.5t-36.5 90.5v0zM282 496q-11 -11 -30 -10t-35 18q-22 24 -15.5 51t35.5 27q11 0 21 -5t18 -13
q14 -16 16 -36t-10 -32v0v0zM696 617q-35 -39 -36.5 -90.5t32.5 -85.5t83 -31.5t84 41.5q36 39 37 90.5t-33 85.5q-33 34 -82 31t-85 -41zM807 504q-16 -17 -35 -18t-30 10q-12 12 -10 32t16 36q8 8 18 13t21 5q29 0 35.5 -27t-15.5 -51v0z" />
    <glyph glyph-name="uniE830" unicode="&#xe830;" 
d="M500 874q6 1 12 1t12 -1t12 -3t11 -4h1.5h0.5l215 -78q1 -1 2.5 -1.5t2.5 -0.5q18 -7 34.5 -14t29.5 -18q11 -10 19.5 -22t13.5 -25q7 -16 8 -33.5t1 -36.5v-3v-3v-185q0 -84 -40 -152.5t-89 -119.5q-51 -51 -103 -86t-82 -53h-0.5h-1.5q-5 -4 -12.5 -7.5t-17.5 -5.5
q-8 -2 -17 -2t-17 2q-10 2 -17.5 5.5t-12.5 7.5h-1.5h-0.5q-30 18 -82 53t-103 86q-49 51 -89 119.5t-40 152.5v185v3v3q0 19 1 36.5t8 33.5q5 13 13.5 25t19.5 22v0q13 11 29.5 18t34.5 14q1 0 2.5 0.5t2.5 1.5l215 78h0.5h1.5q5 2 11 4t12 3v0zM512 789q-1 0 -3 -0.5
t-5 -2.5l-214 -78q-25 -9 -32.5 -12t-10.5 -6q-4 -3 -6.5 -6.5t-3.5 -7.5q-1 -3 -1.5 -10.5t-0.5 -33.5v-185q0 -60 29.5 -113t74.5 -99q45 -45 91.5 -76.5t74.5 -47.5q2 -1 3 -2t2 -1q1 -1 1.5 -1h0.5h0.5t1.5 1q1 0 2 1t3 2q28 16 74.5 47.5t91.5 76.5q45 46 74.5 99
t29.5 113v185q0 26 -0.5 33.5t-1.5 10.5q-1 4 -3.5 7.5t-6.5 6.5q-3 3 -10.5 6t-32.5 12l-214 78q-3 2 -5 2.5t-3 0.5v0zM683 593q12 -13 11.5 -30.5t-12.5 -30.5l-180 -174q-13 -12 -30 -12t-30 12l-80 77q-12 13 -12.5 30.5t11.5 30.5q13 12 30.5 12.5t30.5 -11.5l50 -49
l150 146q13 12 30.5 11.5t30.5 -12.5v0z" />
    <glyph glyph-name="uniE831" unicode="&#xe831;" 
d="M311 832h402h42.5t35.5 -2q16 -1 31.5 -4.5t29.5 -10.5q23 -11 40.5 -28.5t28.5 -39.5q8 -15 11.5 -30t4.5 -31t1.5 -35t0.5 -42v-322q0 -23 -0.5 -42t-1.5 -35t-4.5 -31t-11.5 -30q-11 -22 -28.5 -39.5t-40.5 -28.5q-14 -7 -29.5 -10.5t-31.5 -4.5q-16 -2 -35.5 -2
h-42.5h-402h-42.5t-35.5 2q-16 1 -31.5 4.5t-29.5 10.5q-23 11 -40.5 28.5t-28.5 39.5q-8 15 -11.5 30t-4.5 31t-1.5 35t-0.5 42v322q0 23 0.5 42t1.5 35t4.5 31t11.5 30q11 22 28.5 39.5t40.5 28.5q14 7 29.5 10.5t31.5 4.5q16 2 35.5 2h42.5v0zM240 745q-12 -1 -19 -2.5
t-11 -3.5q-10 -5 -18 -13t-14 -18q-2 -4 -3.5 -10.5t-2.5 -18.5q-1 -13 -1 -30v-42v-318v-42t1 -30q1 -12 2.5 -18.5t3.5 -10.5q4 -7 10 -13.5t13 -11.5l238 235v0h1l10 10l9 9q6 4 12.5 8.5t15.5 7.5q12 4 25 4t25 -4q9 -3 15.5 -7.5t12.5 -8.5l9 -9l10 -10l5 -4l81 80
l10 10t10 9t12 8.5t15 7.5q13 4 25.5 4t24.5 -4q9 -3 16 -7.5t12 -8.5t10 -9l10 -10l38 -38v171v42t-1 29q-1 13 -3 19.5t-3 10.5q-6 10 -14 18t-18 13q-4 2 -11 3.5t-19 2.5q-13 1 -30.5 1.5t-41.5 0.5h-400q-24 0 -41.5 -0.5t-30.5 -1.5v0zM853 316l-97 97q-5 4 -8 7.5
t-6 5.5q-2 -2 -5 -5.5t-8 -7.5l-79 -79l173 -171q7 5 13 11.5t10 13.5q2 4 3.5 10.5t2.5 18.5q1 13 1 30v42v27v0zM715 149l-156 155v0v0l-34 33q-4 5 -7.5 8t-5.5 5q-2 -2 -5.5 -5t-7.5 -8l-190 -188h1.5h1.5h400h1.5h1.5v0zM358 595q-14 0 -24 -10t-10 -23q0 -14 10 -23.5
t24 -9.5q15 0 25 9.5t10 23.5q0 13 -10 23t-25 10zM239 562q0 49 35 83.5t84 34.5q50 0 85 -34.5t35 -83.5q0 -50 -35 -84.5t-85 -34.5q-49 0 -84 34.5t-35 84.5z" />
    <glyph glyph-name="uniE832" unicode="&#xe832;" 
d="M512 875q18 0 30.5 -12.5t12.5 -30.5v-38q0 -18 -12.5 -30.5t-30.5 -12.5t-30.5 12.5t-12.5 30.5v38q0 18 12.5 30.5t30.5 12.5zM209 751q13 12 30.5 12t30.5 -12l23 -23q12 -13 12 -30.5t-12 -30.5q-13 -12 -30.5 -12t-30.5 12l-23 23q-12 13 -12 30.5t12 30.5v0z
M815 751q12 -13 12 -30.5t-12 -30.5l-23 -23q-13 -12 -30.5 -12t-30.5 12q-12 13 -12 30.5t12 30.5l23 23q13 12 30.5 12t30.5 -12v0zM512 636q-78 0 -133 -55t-55 -133t55 -133t133 -55t133 55t55 133t-55 133t-133 55v0zM239 448q0 57 21 106q22 50 59 87t87 59
q49 21 106 21t106 -21q50 -22 87 -59t59 -87q21 -49 21 -106q0 -81 -42.5 -146.5t-111.5 -99.5v-61q0 -50 -35 -85t-84 -35t-84 35t-35 85v61q-69 34 -111.5 99.5t-42.5 146.5v0zM478 177v-36q0 -14 10 -24t24 -10t24 10t10 24v36q-8 -1 -16.5 -1.5t-17.5 -0.5t-17.5 0.5
t-16.5 1.5zM85 448q0 18 12.5 30.5t30.5 12.5h38q18 0 30.5 -12.5t12.5 -30.5t-12.5 -30.5t-30.5 -12.5h-38q-18 0 -30.5 12.5t-12.5 30.5zM815 448q0 18 12.5 30.5t30.5 12.5h38q18 0 30.5 -12.5t12.5 -30.5t-12.5 -30.5t-30.5 -12.5h-38q-18 0 -30.5 12.5t-12.5 30.5z" />
    <glyph glyph-name="uniE833" unicode="&#xe833;" 
d="M282 875q17 0 29.5 -12.5t12.5 -30.5v-154v0v0v0v0v-338q0 -16 0.5 -27t0.5 -19q1 -8 2 -11t1 -4q2 -5 6 -9t9 -6q1 0 4 -1t11 -2q8 0 19 -0.5t27 -0.5h338v0v0v0v0h154q18 0 30.5 -12.5t12.5 -29.5q0 -18 -12.5 -30.5t-30.5 -12.5h-111v-111q0 -18 -12.5 -30.5
t-30.5 -12.5q-17 0 -29.5 12.5t-12.5 30.5v111h-297h-28.5t-23.5 1q-12 1 -23.5 3.5t-23.5 8.5q-17 9 -30 22t-22 30q-6 12 -8.5 23.5t-3.5 23.5q-1 10 -1 23.5v28.5v297h-111q-18 0 -30.5 12.5t-12.5 29.5q0 18 12.5 30.5t30.5 12.5h111v111q0 18 12.5 30.5t30.5 12.5v0z
M666 635q-8 0 -19 0.5t-27 0.5h-185q-17 0 -29.5 12.5t-12.5 29.5q0 18 12.5 30.5t29.5 12.5h186h28.5t23.5 -1q12 -1 23.5 -3.5t23.5 -8.5q17 -9 30 -22t22 -30q6 -12 8.5 -23.5t3.5 -23.5q1 -10 1 -23.5v-28.5v-186q0 -17 -12.5 -29.5t-30.5 -12.5q-17 0 -29.5 12.5
t-12.5 29.5v185q0 16 -0.5 27t-0.5 19q-1 8 -2 11t-1 4q-2 5 -6 9t-9 6q-1 0 -4 1t-11 2v0z" />
    <glyph glyph-name="uniE834" unicode="&#xe834;" 
d="M341 832q0 -18 12.5 -30.5t30.5 -12.5h256q18 0 30.5 12.5t12.5 30.5t-12.5 30.5t-30.5 12.5h-256q-18 0 -30.5 -12.5t-12.5 -30.5v0zM213 747h0.5h0.5h596h0.5h0.5h85q18 0 30.5 -12.5t12.5 -30.5t-12.5 -30.5t-30.5 -12.5h-45l-28 -410q-1 -25 -3 -45t-4 -36
q-2 -17 -6.5 -32.5t-12.5 -29.5q-13 -23 -32 -40.5t-42 -29.5q-15 -7 -31 -10.5t-33 -4.5q-16 -1 -36.5 -1.5t-44.5 -0.5h-132q-24 0 -44.5 0.5t-36.5 1.5q-17 1 -33 4.5t-31 10.5q-23 12 -42 29.5t-32 40.5q-8 14 -12.5 29.5t-6.5 32.5q-2 16 -4 36t-3 45l-28 410h-45
q-18 0 -30.5 12.5t-12.5 30.5t12.5 30.5t30.5 12.5h85v0zM765 661h-506l27 -403q2 -26 3 -44t3 -32q2 -13 4.5 -20.5t5.5 -11.5q6 -11 15.5 -20t21.5 -15q4 -2 12 -4t21 -3t31.5 -1h44.5h128h44.5t31.5 1t21 3t12 4q12 6 21.5 15t15.5 20q3 4 5.5 11.5t4.5 20.5q2 14 3 32
t3 44l27 403v0zM427 555q-18 0 -30.5 -12.5t-12.5 -30.5v-213q0 -18 12.5 -30.5t30.5 -12.5q17 0 29.5 12.5t12.5 30.5v213q0 18 -12.5 30.5t-29.5 12.5v0zM597 555q-17 0 -29.5 -12.5t-12.5 -30.5v-213q0 -18 12.5 -30.5t29.5 -12.5q18 0 30.5 12.5t12.5 30.5v213
q0 18 -12.5 30.5t-30.5 12.5v0z" />
    <glyph glyph-name="uniE835" unicode="&#xe835;" 
d="M482 862q12 13 30 13t30 -13l115 -115q13 -13 13 -30.5t-13 -29.5q-12 -13 -29.5 -13t-30.5 13l-42 42v-238h238l-42 42q-13 13 -13 30.5t13 29.5q12 13 29.5 13t30.5 -13l115 -115q13 -12 13 -30t-13 -30l-115 -115q-13 -13 -30.5 -13t-29.5 13q-13 12 -13 29.5t13 30.5
l42 42h-238v-238l42 42q13 13 30.5 13t29.5 -13q13 -12 13 -29.5t-13 -30.5l-115 -115q-12 -13 -30 -13t-30 13l-115 115q-13 13 -13 30.5t13 29.5q12 13 29.5 13t30.5 -13l42 -42v238h-238l42 -42q13 -13 13 -30.5t-13 -29.5q-12 -13 -29.5 -13t-30.5 13l-115 115
q-13 12 -13 30t13 30l115 115q13 13 30.5 13t29.5 -13q13 -12 13 -29.5t-13 -30.5l-42 -42h238v238l-42 -42q-13 -13 -30.5 -13t-29.5 13q-13 12 -13 29.5t13 30.5l115 115v0z" />
    <glyph glyph-name="uniE836" unicode="&#xe836;" 
d="M356 875q17 0 29.5 -12.5t12.5 -30.5v-34h228v34q0 18 12.5 30.5t29.5 12.5q18 0 30.5 -12.5t12.5 -30.5v-34q13 0 24.5 -0.5t21.5 -1.5q16 -1 31.5 -4.5t30.5 -10.5q23 -11 40.5 -29t29.5 -40q8 -15 11.5 -30t4.5 -32q1 -16 1.5 -35t0.5 -42v-326q0 -24 -0.5 -43
t-1.5 -35t-4.5 -31.5t-11.5 -30.5q-12 -22 -29.5 -39.5t-40.5 -29.5q-15 -7 -30.5 -10.5t-31.5 -4.5t-35.5 -1.5t-43.5 -0.5h-332q-24 0 -43.5 0.5t-35.5 1.5t-31.5 4.5t-30.5 10.5q-23 12 -40.5 29.5t-29.5 39.5q-8 15 -11.5 30.5t-4.5 31.5t-1.5 35t-0.5 43v326
q0 23 0.5 42t1.5 35q1 17 4.5 32t11.5 30q12 22 29.5 40t40.5 29q15 7 30.5 10.5t31.5 4.5q10 1 21.5 1.5t24.5 0.5v34q0 18 12.5 30.5t30.5 12.5v0zM313 712h-21.5t-17.5 -1q-13 -1 -20 -2.5t-11 -4.5q-10 -5 -18.5 -13t-13.5 -18q-2 -4 -4 -11t-3 -19q-1 -13 -1 -30v-42
v-4h618v4v42t-1 30q-1 12 -3 19t-4 11q-5 10 -13.5 18t-18.5 13q-4 3 -11 4.5t-20 2.5q-8 1 -17.5 1h-21.5v-34q0 -17 -12.5 -29.5t-30.5 -12.5q-17 0 -29.5 12.5t-12.5 29.5v35h-228v-35q0 -17 -12.5 -29.5t-29.5 -12.5q-18 0 -30.5 12.5t-12.5 29.5v34v0zM821 482h-618
v-234v-41.5t1 -30.5q1 -12 3 -19t4 -10q5 -11 13.5 -19t18.5 -13q4 -2 11 -4t20 -3t31 -1h43h328h43t31 1t20 3t11 4q10 5 18.5 13t13.5 19q2 3 4 10t3 19q1 13 1 30.5v41.5v234v0z" />
    <glyph glyph-name="uniE838" unicode="&#xe838;" 
d="M728 838q36 37 87 37t87 -37q37 -36 37 -87t-37 -87l-365 -365q0 -1 -0.5 -1.5l-1.5 -1.5q-8 -8 -16 -15.5t-17 -12.5q-8 -5 -16.5 -8.5t-17.5 -5.5q-11 -3 -21.5 -3.5t-22.5 -0.5h-1.5h-1.5h-64q-18 0 -30.5 12.5t-12.5 30.5v64v1.5v1.5q0 12 0.5 22.5t3.5 21.5
q2 9 5.5 17.5t8.5 16.5q5 9 12.5 17t15.5 16l1.5 1.5t1.5 0.5l365 365v0zM842 778q-11 11 -27 11t-27 -11l-365 -365q-11 -11 -14 -14.5t-4 -5.5q-2 -2 -3 -4.5t-1 -4.5q-1 -2 -1 -7v-20v-21h21h20t7 1q2 0 4.5 1t4.5 3q2 1 5.5 4t14.5 14l365 365q11 11 11 27t-11 27v0z
M309 794h163q17 0 29.5 -12.5t12.5 -30.5t-12.5 -30.5t-29.5 -12.5h-161h-41.5t-30.5 -1q-12 -1 -18.5 -2.5t-10.5 -3.5q-10 -6 -18 -14t-14 -18q-2 -4 -3.5 -10.5t-2.5 -18.5q-1 -13 -1 -30.5v-41.5v-321v-41.5t1 -30.5q1 -12 2.5 -18.5t3.5 -10.5q6 -10 14 -18t18 -14
q4 -2 10.5 -3.5t18.5 -2.5q13 -1 30.5 -1h41.5h321h41.5t30.5 1q12 1 18.5 2.5t10.5 3.5q10 6 18 14t14 18q2 4 3.5 10.5t2.5 18.5q1 13 1 30.5v41.5v161q0 17 12.5 29.5t30.5 12.5t30.5 -12.5t12.5 -29.5v-163q0 -22 -0.5 -41.5t-1.5 -34.5q-1 -17 -4.5 -32t-10.5 -30
q-12 -22 -29.5 -39.5t-39.5 -29.5q-15 -7 -30 -10.5t-31 -4.5t-35 -1.5t-42 -0.5h-325q-22 0 -41.5 0.5t-34.5 1.5q-17 1 -32 4.5t-30 10.5q-22 12 -39.5 29.5t-29.5 39.5q-7 15 -10.5 30t-4.5 32q-1 15 -1.5 34.5t-0.5 41.5v325q0 22 0.5 41.5t1.5 35.5t4.5 31t10.5 30
q12 22 29.5 39.5t39.5 29.5q15 7 30 10.5t32 4.5q15 1 34.5 1.5t41.5 0.5v0z" />
    <glyph glyph-name="uniE839" unicode="&#xe839;" 
d="M512 789q-71 0 -133 -26q-62 -27 -108.5 -73.5t-73.5 -108.5q-26 -62 -26 -133t26 -133q27 -62 73.5 -108.5t108.5 -73.5q62 -26 133 -26t133 26q62 27 108.5 73.5t73.5 108.5q26 62 26 133t-26 133q-27 62 -73.5 108.5t-108.5 73.5q-62 26 -133 26v0zM85 448
q0 88 34 166q33 78 91 136t136 91q78 34 166 34t166 -34q78 -33 136 -91t91 -136q34 -78 34 -166t-34 -166q-33 -78 -91 -136t-136 -91q-78 -34 -166 -34t-166 34q-78 33 -136 91t-91 136q-34 78 -34 166v0zM512 644q18 0 30.5 -12.5t12.5 -29.5v-205l80 81q13 13 30.5 13
t30.5 -13q12 -12 12 -30t-12 -30l-154 -154q-12 -12 -30 -12t-30 12l-154 154q-12 12 -12 30t12 30q13 13 30.5 13t30.5 -13l80 -81v205q0 17 12.5 29.5t30.5 12.5v0z" />
    <glyph glyph-name="uniE83A" unicode="&#xe83a;" 
d="M512 789q-71 0 -133 -26q-62 -27 -108.5 -73.5t-73.5 -108.5q-26 -62 -26 -133t26 -133q27 -62 73.5 -108.5t108.5 -73.5q62 -26 133 -26t133 26q62 27 108.5 73.5t73.5 108.5q26 62 26 133t-26 133q-27 62 -73.5 108.5t-108.5 73.5q-62 26 -133 26v0zM85 448
q0 88 34 166q33 78 91 136t136 91q78 34 166 34t166 -34q78 -33 136 -91t91 -136q34 -78 34 -166t-34 -166q-33 -78 -91 -136t-136 -91q-78 -34 -166 -34t-166 34q-78 33 -136 91t-91 136q-34 78 -34 166v0zM328 478l154 154q12 12 30 12t30 -12l154 -154q12 -12 12 -30
t-12 -30q-13 -13 -30.5 -13t-30.5 13l-80 81v-205q0 -17 -12.5 -29.5t-30.5 -12.5t-30.5 12.5t-12.5 29.5v205l-80 -81q-13 -13 -30.5 -13t-30.5 13q-12 12 -12 30t12 30v0z" />
    <glyph glyph-name="uniE83B" unicode="&#xe83b;" 
d="M495 664q-42 -13 -86 -24t-89 -11q-30 0 -56.5 3t-48.5 7q-15 3 -25.5 5t-17.5 3h-1v0v-14v-20v-401q15 -6 50.5 -13t98.5 -7q53 0 100.5 11t93.5 25q4 1 7.5 2t7.5 2q42 13 86 24t89 11q30 0 56.5 -3t48.5 -7q15 -3 25.5 -5t17.5 -3h1v0v14v20v401q-15 6 -50.5 13
t-98.5 7q-53 0 -100.5 -11t-93.5 -25q-4 -1 -7.5 -2t-7.5 -2v0zM861 249v0v0v0zM163 647v0v0v0zM485 750q47 14 101.5 26.5t117.5 12.5q74 0 118.5 -9t68.5 -19v0v0q2 -1 4.5 -2t6.5 -3q3 -3 6 -5t5 -5q4 -3 7 -7t5 -7q2 -2 4.5 -6.5t4.5 -9.5q3 -10 4 -17.5t1 -13.5v-403
q0 -12 -0.5 -22.5t-0.5 -18.5q-1 -8 -2.5 -18.5t-8.5 -20.5q-3 -6 -7.5 -11.5t-10.5 -10.5t-12.5 -8t-12.5 -5q-11 -4 -22.5 -3.5t-19.5 1.5q-10 1 -21.5 3t-25.5 5h-2q-19 4 -41.5 6t-47.5 2q-35 0 -72 -9t-82 -23q-3 -1 -5.5 -1.5t-5.5 -1.5q-47 -14 -101.5 -26.5
t-117.5 -12.5q-74 0 -118.5 9t-68.5 19v0v0q-2 1 -4.5 2t-6.5 3q-3 3 -6 5t-5 5q-4 3 -7 7t-5 7q-2 2 -4.5 6.5t-4.5 9.5q-3 10 -4 17.5t-1 13.5v403q0 12 0.5 22.5t0.5 18.5q1 8 2.5 18.5t8.5 20.5q3 6 7.5 11.5t10.5 10.5t12.5 8t12.5 5q11 4 22.5 3.5t19.5 -1.5
q10 -1 21.5 -3t25.5 -5h2q19 -4 41.5 -6t47.5 -2q35 0 72 9t82 23q3 1 5.5 1.5t5.5 1.5v0zM742 603q18 0 30.5 -12.5t12.5 -30.5v-149q0 -18 -12.5 -30.5t-30.5 -12.5q-17 0 -29.5 12.5t-12.5 30.5v149q0 18 12.5 30.5t29.5 12.5v0zM512 499q-23 0 -38 -15.5t-15 -35.5
t15 -35.5t38 -15.5t38 15.5t15 35.5t-15 35.5t-38 15.5v0zM373 448q0 57 41 96.5t98 39.5t98 -39.5t41 -96.5t-41 -96.5t-98 -39.5t-98 39.5t-41 96.5zM282 528q17 0 29.5 -12.5t12.5 -30.5v-149q0 -18 -12.5 -30.5t-29.5 -12.5q-18 0 -30.5 12.5t-12.5 30.5v149
q0 18 12.5 30.5t30.5 12.5z" />
    <glyph glyph-name="uniE83C" unicode="&#xe83c;" 
d="M341 875h342q24 0 44.5 -0.5t36.5 -1.5q17 -2 33 -5.5t31 -11.5q23 -12 41.5 -30.5t30.5 -41.5q7 -15 10.5 -31.5t5.5 -33.5q1 -17 1 -37.5v-45.5v-237v-38t-1 -31q-1 -15 -3.5 -28.5t-7.5 -26.5q-12 -30 -35 -53.5t-53 -36.5q-13 -6 -26.5 -8.5t-28.5 -3.5
q-13 0 -30 -0.5t-37 -0.5h-2h-21t-7 -1q-5 -1 -8.5 -3t-7.5 -5q-2 -1 -5 -5t-13 -18l-60 -81q-2 -4 -5.5 -8t-6.5 -7q-3 -4 -9 -9.5t-15 -8.5q-11 -5 -23 -5t-23 5q-9 3 -15 8.5t-9 9.5q-3 3 -6.5 7t-5.5 8l-60 81q-10 14 -13 18t-5 5q-4 3 -7.5 5t-8.5 3q-2 1 -7 1h-21h-2
q-20 0 -37 0.5t-30 0.5q-15 1 -28.5 3.5t-26.5 8.5q-30 13 -53 36.5t-35 53.5q-5 13 -7.5 26.5t-3.5 28.5q-1 14 -1 31v38v237v45.5t1 37.5q2 17 5.5 33.5t10.5 31.5q12 23 30.5 41.5t41.5 30.5q15 8 31 11.5t33 5.5q16 1 36.5 1.5t44.5 0.5v0zM267 788q-13 -1 -20.5 -3
t-11.5 -4q-11 -6 -20 -15t-14 -20q-3 -5 -4.5 -12.5t-2.5 -21.5q-2 -14 -2 -32.5v-44.5v-235v-37.5t1 -27.5q1 -11 2 -17.5t3 -10.5q6 -15 17 -26t26 -17q3 -2 9.5 -3.5t16.5 -1.5q12 -1 27 -1h37h1.5h1.5q12 0 23.5 -0.5t21.5 -3.5q14 -3 27 -9.5t24 -16.5q8 -7 15 -15.5
t15 -18.5q0 -1 0.5 -2t1.5 -1l50 -69l50 69q1 0 1.5 1t0.5 2q8 10 15 18.5t15 15.5q11 10 24 16.5t27 9.5q10 3 21.5 3.5t23.5 0.5h1.5h1.5h37t27 1q10 0 16.5 1.5t9.5 3.5q15 6 26 17t17 26q2 4 3 10.5t2 17.5q1 12 1 27.5v37.5v235v44.5t-2 32.5q-1 14 -2.5 21.5
t-4.5 12.5q-5 11 -14 20t-20 15q-4 2 -11.5 4t-20.5 3t-31.5 1h-44.5h-338h-44.5t-31.5 -1v0zM512 668q34 22 75.5 21.5t77.5 -30.5q45 -37 50 -92.5t-29 -98.5q-16 -21 -47.5 -51t-56.5 -53l-1 -1q-5 -4 -9.5 -8.5t-9.5 -7.5q-5 -4 -11.5 -8t-14.5 -6q-12 -4 -24.5 -4
t-23.5 4q-8 2 -14.5 6t-11.5 8q-5 3 -9.5 7.5t-9.5 8.5l-1 1q-25 23 -56.5 53t-47.5 51q-35 44 -29 99t49 91q36 31 78 31.5t76 -21.5v0zM480 585q-15 17 -33.5 19t-33.5 -11q-17 -14 -19 -35t11 -38q12 -15 40 -42t54 -51q5 -4 8 -6.5t5 -4.5q2 2 5 4.5t8 6.5q26 24 54 51
t40 42q13 17 11 38t-19 35q-15 13 -33.5 11t-33.5 -19q-6 -7 -14.5 -11t-17.5 -4t-17.5 4t-14.5 11v0z" />
    <glyph glyph-name="uniE83D" unicode="&#xe83d;" 
d="M512 789q-5 0 -10 -2t-9 -6q-4 -3 -6 -8t-2 -11v-6q0 -15 -4.5 -29t-12.5 -26t-19 -21.5t-25 -15.5q-2 -1 -5 -1.5t-5 -1.5q-12 -4 -25 -5t-26 2q-14 2 -27.5 9t-24.5 18v0l-2 2q-2 2 -4.5 3.5t-4.5 2.5q-3 1 -5.5 1.5t-5.5 0.5q-2 0 -4.5 -0.5t-5.5 -1.5
q-2 -1 -4.5 -2.5t-4.5 -3.5v0q-2 -2 -3.5 -4t-2.5 -5q-1 -2 -1.5 -5t-0.5 -5q0 -3 0.5 -5.5t1.5 -5.5q1 -2 2.5 -4.5t3.5 -3.5l3 -3q10 -11 17 -24t10 -28q2 -15 0.5 -29.5t-7.5 -27.5q-5 -14 -14 -25.5t-21 -20.5t-26.5 -13.5t-29.5 -5.5h-1h-3q-6 0 -11 -2t-8 -6
q-4 -3 -6 -8t-2 -11q0 -5 2 -10t6 -9q3 -4 8 -6t11 -2h6q15 0 29 -4.5t26 -12.5t21.5 -19t15.5 -25q6 -13 7.5 -28t-1.5 -30q-2 -14 -9 -27.5t-18 -24.5v0l-2 -2q-2 -2 -3.5 -4.5t-2.5 -4.5q-1 -3 -1.5 -5.5t-0.5 -5.5q0 -2 0.5 -4.5t1.5 -5.5q1 -2 2.5 -4.5t3.5 -4.5v0
q2 -2 4 -3.5t5 -2.5q2 -1 5 -1.5t5 -0.5q3 0 5.5 0.5t5.5 1.5q2 1 4.5 2.5t3.5 3.5l3 3q11 10 24 17t28 10q15 2 29.5 0.5t27.5 -7.5q14 -5 25.5 -14t20.5 -21t13.5 -26.5t5.5 -29.5v-1v-3q0 -6 2 -11t6 -8q3 -4 8 -6t11 -2q5 0 10 2t9 6q4 3 6 8t2 11v6q0 15 4.5 29
t12.5 26t19 21.5t25 15.5q13 6 28 7.5t30 -1.5q14 -2 27.5 -9t24.5 -18v0l2 -2q2 -2 4.5 -3.5t4.5 -2.5q3 -1 5.5 -1.5t5.5 -0.5q2 0 4.5 0.5t5.5 1.5q2 1 4.5 2.5t4.5 3.5v0q2 2 3.5 4t2.5 5q1 2 1.5 5t0.5 5q0 3 -0.5 5.5t-1.5 5.5q-1 2 -2.5 4.5t-3.5 3.5l-3 3
q-10 11 -17 24t-10 28q-2 15 -0.5 30t7.5 28q6 14 15.5 25t21.5 19t26 12.5t29 4.5h3q6 0 11 2t8 6q4 4 6 9t2 10t-2 10t-6 9q-3 4 -8 6t-11 2h-6q-15 0 -29 4.5t-26 12.5t-21.5 19t-15.5 25q-1 2 -1.5 5t-1.5 5q-4 12 -5 25t2 26q2 14 9 27.5t18 24.5v0l2 2q2 2 3.5 4.5
t2.5 4.5q1 3 1.5 5.5t0.5 5.5q0 2 -0.5 4.5t-1.5 5.5q-1 2 -2.5 4.5t-3.5 4.5v0q-2 2 -4 3.5t-5 2.5q-2 1 -5 1.5t-5 0.5q-3 0 -5.5 -0.5t-5.5 -1.5q-2 -1 -4.5 -2.5t-3.5 -3.5l-3 -3q-11 -10 -24 -17t-28 -10q-15 -2 -30 -0.5t-28 7.5q-14 6 -25 15.5t-19 21.5t-12.5 26
t-4.5 29v3q0 6 -2 11t-6 8q-4 4 -9 6t-10 2v0zM432 842q16 16 37 24.5t43 8.5t43 -8.5t37 -24.5q15 -16 23.5 -36.5t8.5 -43.5v-3q1 -2 1.5 -4t1.5 -4t3 -3.5t4 -1.5v-1q2 -1 4 -1h5l4 2t3 2l2 2v0v0q8 8 17 14t20 11q10 4 21 6t22 2t22 -2t21 -6q10 -5 19 -11t17 -14
t14 -17t11 -19q4 -11 6 -21.5t2 -21.5q0 -12 -2 -22.5t-6 -21.5q-5 -10 -11 -19t-14 -17l-2 -2q-1 -1 -2 -3t-1 -5q-1 -2 -0.5 -4t1.5 -4q0 -2 0.5 -3.5t1.5 -3.5l1.5 -1.5l1.5 -1.5q2 -1 4 -1.5t4 -1.5h6q23 0 43.5 -8.5t36.5 -23.5q16 -16 24.5 -37t8.5 -43t-8.5 -43
t-24.5 -37q-16 -15 -36.5 -23.5t-43.5 -8.5h-3q-2 0 -4 -1l-4 -2t-3.5 -3t-1.5 -4h-1q-1 -2 -1 -4v-5l2 -4t2 -3l2 -2v0v0q8 -8 14 -17t11 -20q4 -10 6 -21t2 -22t-2 -22t-6 -21q-5 -10 -11 -19t-14 -17t-17 -14t-19 -11q-11 -4 -21.5 -6t-21.5 -2q-12 0 -22.5 2t-21.5 6
q-10 5 -19 11t-17 14l-2 2q-1 1 -3 2t-5 1q-2 1 -4 0.5t-4 -1.5h-1q-2 -1 -3.5 -2t-2.5 -3l-2 -4t-1 -4v-6q0 -23 -8.5 -43.5t-24.5 -36.5q-15 -16 -36 -24.5t-43 -8.5q-23 0 -43.5 8.5t-36.5 24.5t-24.5 36.5t-8.5 43.5v2q0 2 -0.5 4.5t-1.5 3.5l-3.5 3.5t-3.5 2.5h-1.5
t-1.5 1q-2 1 -4 1h-5l-4 -2t-3 -2l-2 -2q-8 -8 -17 -14t-20 -11q-10 -4 -21 -6t-22 -2t-22 2t-21 6q-10 5 -19 11t-17 14t-14 17t-11 19q-4 11 -6 21.5t-2 21.5q0 12 2 22.5t6 21.5q5 10 11 19t14 17l2 2q1 1 2 3t1 5q1 2 0.5 4t-1.5 4v1q-1 2 -2 3.5t-3 2.5l-4 2t-4 1h-6
q-23 0 -43.5 8.5t-36.5 24.5q-16 15 -24.5 36t-8.5 43q0 23 8.5 43.5t24.5 36.5t36.5 24.5t43.5 8.5h2q2 0 4.5 0.5t3.5 1.5l3.5 3.5t2.5 3.5v1.5t1 1.5q1 2 1 4v5l-2 4t-2 3l-2 2v0v0q-8 8 -14 17t-11 20q-4 10 -6 21t-2 22t2 22t6 21q5 10 11 19t14 17t17 14t19 11
q11 4 21.5 6t21.5 2q12 0 22.5 -2t21.5 -6q10 -5 19 -11t17 -14l2 -2q1 -1 3 -2t5 -1q2 -1 4 -0.5t4 1.5q2 0 3.5 0.5t3.5 1.5l1.5 1.5l1.5 1.5q1 2 1.5 4t1.5 4v6q0 23 8.5 43.5t23.5 36.5v0zM512 521q-30 0 -51.5 -21.5t-21.5 -51.5t21.5 -51.5t51.5 -21.5t51.5 21.5
t21.5 51.5t-21.5 51.5t-51.5 21.5zM354 448q0 65 46.5 111.5t111.5 46.5t111.5 -46.5t46.5 -111.5t-46.5 -111.5t-111.5 -46.5t-111.5 46.5t-46.5 111.5v0z" />
    <glyph glyph-name="uniE83E" unicode="&#xe83e;" 
d="M512 789q-62 0 -105.5 -43.5t-43.5 -105.5t43.5 -105.5t105.5 -43.5t105.5 43.5t43.5 105.5t-43.5 105.5t-105.5 43.5zM277 640q0 49 19 91q18 43 50 75t75 50q42 19 91 19t91 -19q43 -18 75 -50t50 -75q19 -42 19 -91t-19 -91q-18 -43 -50 -75t-75 -50q-42 -19 -91 -19
t-91 19q-43 18 -75 50t-50 75q-19 42 -19 91zM398 341h3.5h3.5h214h3.5h3.5q39 0 67.5 -1t51.5 -8q51 -15 88.5 -53t53.5 -89q7 -23 8 -51t1 -68v-3v-4q0 -18 -12.5 -30.5t-30.5 -12.5q-17 0 -29.5 12.5t-12.5 30.5q0 47 -1 68t-5 33q-9 31 -31.5 53.5t-53.5 31.5
q-13 4 -33.5 5t-67.5 1h-214q-47 0 -67.5 -1t-33.5 -5q-31 -9 -53.5 -31.5t-31.5 -53.5q-4 -12 -5 -33t-1 -68q0 -18 -12.5 -30.5t-29.5 -12.5q-18 0 -30.5 12.5t-12.5 30.5v4v3q0 40 1 68t8 51q16 51 53.5 89t88.5 53q23 7 51.5 8t67.5 1v0z" />
    <glyph glyph-name="uniE83F" unicode="&#xe83f;" 
d="M798 674l-296 -296l90 -231l206 527v0zM442 438l296 296l-527 -206l231 -90v0zM857 871q5 2 16 3.5t23 -2.5q14 -5 24.5 -15.5t15.5 -24.5q4 -12 2.5 -23t-3.5 -16q-2 -6 -4.5 -13t-5.5 -14l-264 -678q-3 -8 -6 -15.5t-6 -13.5q-3 -5 -9.5 -14.5t-18.5 -16.5
q-14 -7 -29 -7t-29 7q-12 7 -18.5 16.5t-9.5 14.5q-3 6 -6 14t-6 15l-104 267l-265 104h-0.5h-1.5q-7 3 -15 6t-14 6q-5 3 -14.5 9.5t-16.5 18.5q-7 14 -7 29t7 29q7 12 16.5 18.5t14.5 9.5q6 3 13.5 6t15.5 6q1 0 1 0.5t1 0.5l676 263q7 3 14 5.5t13 4.5v0z" />
    <glyph glyph-name="uniE840" unicode="&#xe840;" 
d="M745 760q-29 29 -70 29t-70 -29l-363 -364q-50 -50 -50 -120t50 -120q49 -49 119 -49t120 49l363 365q13 12 30.5 12t30.5 -12q12 -13 12 -30.5t-12 -30.5l-364 -364q-37 -37 -84 -56t-96 -19t-96 19t-84 56t-56 84q-18 47 -18 96t18 96q19 47 56 84l364 365
q54 54 130 54t130 -54t54 -130.5t-54 -130.5l-349 -350q-34 -33 -81 -33t-80 33q-33 34 -33 80.5t33 80.5l307 307q12 12 30 12t30 -12q13 -13 13 -30.5t-13 -29.5l-306 -308q-9 -8 -9 -19.5t9 -19.5q8 -9 19.5 -9t19.5 9l350 350q29 29 29 69.5t-29 69.5v0z" />
    <glyph glyph-name="uniE841" unicode="&#xe841;" 
d="M772 692q13 -13 13 -30.5t-12 -30.5l-423 -426q-6 -6 -13.5 -9.5t-16.5 -3.5t-16.5 3.5t-13.5 9.5l-192 194q-13 12 -13 29.5t13 30.5q13 12 30.5 12t29.5 -12l162 -164l392 396q13 13 30.5 13t29.5 -12v0zM926 645q13 -13 13 -30.5t-13 -30.5l-380 -379
q-12 -13 -29.5 -13t-30.5 13q-12 12 -12 29.5t12 30.5l380 380q12 12 30 12t30 -12v0z" />
    <glyph glyph-name="uniE842" unicode="&#xe842;" 
d="M840 692q13 -12 13.5 -30t-12.5 -30l-410 -427q-6 -6 -14 -9.5t-17 -3.5t-17 3.5t-14 9.5l-186 194q-13 13 -12.5 30.5t13.5 29.5q12 13 30 12.5t30 -13.5l156 -162l380 395q12 13 30 13t30 -12v0z" />
    <glyph glyph-name="uniE843" unicode="&#xe843;" 
d="M331 875h10q18 0 30.5 -12.5t12.5 -30.5t-12.5 -30.5t-30.5 -12.5h-8h-47t-34 -1q-14 -1 -22 -3t-13 -5q-12 -6 -21.5 -15.5t-15.5 -21.5q-3 -5 -5 -13t-3 -22q-1 -15 -1 -34v-47v-8q0 -18 -12.5 -30.5t-30.5 -12.5t-30.5 12.5t-12.5 30.5v10q0 26 0.5 47t1.5 39
q2 18 5.5 34.5t11.5 31.5q12 25 31 44t44 31q15 8 31.5 11.5t34.5 5.5q18 1 39 1.5t47 0.5v0zM772 788q-15 1 -34 1h-47h-8q-18 0 -30.5 12.5t-12.5 30.5t12.5 30.5t30.5 12.5h10q26 0 47 -0.5t39 -1.5q18 -2 34.5 -5.5t31.5 -11.5q25 -12 44 -31t31 -44q8 -15 11.5 -31.5
t5.5 -34.5q1 -18 1.5 -39t0.5 -47v-10q0 -18 -12.5 -30.5t-30.5 -12.5t-30.5 12.5t-12.5 30.5v8v47t-1 34q-1 14 -3 22t-5 13q-6 12 -15.5 21.5t-21.5 15.5q-5 3 -13 5t-22 3v0zM128 320q18 0 30.5 -12.5t12.5 -30.5v-8v-47t1 -34q1 -14 3 -22t5 -13q6 -12 15.5 -21.5
t21.5 -15.5q5 -3 13 -5t22 -3q15 -1 34 -1h47h8q18 0 30.5 -12.5t12.5 -30.5t-12.5 -30.5t-30.5 -12.5h-10q-26 0 -47 0.5t-39 1.5q-18 2 -34.5 5.5t-31.5 11.5q-25 12 -44 31t-31 44q-8 15 -11.5 31.5t-5.5 34.5q-1 18 -1.5 39t-0.5 47v10q0 18 12.5 30.5t30.5 12.5v0z
M896 320q18 0 30.5 -12.5t12.5 -30.5v-10q0 -26 -0.5 -47t-1.5 -39q-2 -18 -5.5 -34.5t-11.5 -31.5q-12 -25 -31 -44t-44 -31q-15 -8 -31.5 -11.5t-34.5 -5.5q-18 -1 -39 -1.5t-47 -0.5h-10q-18 0 -30.5 12.5t-12.5 30.5t12.5 30.5t30.5 12.5h8h47t34 1q14 1 22 3t13 5
q12 6 21.5 15.5t15.5 21.5q3 5 5 13t3 22q1 15 1 34v47v8q0 18 12.5 30.5t30.5 12.5v0z" />
    <glyph glyph-name="uniE844" unicode="&#xe844;" 
d="M916 870q11 -6 17 -16t6 -22v-614q0 -11 -5 -20.5t-14 -15.5l-231 -154q-10 -6 -22 -6.5t-23 5.5l-247 141l-248 -141q-10 -6 -21.5 -6t-20.5 6q-10 6 -16 16t-6 21v614q0 12 6 22t16 15l269 154q9 6 20.5 6t21.5 -6l246 -140l208 139q10 6 22 6.5t22 -4.5v0zM623 654
l-184 104v-516l184 -104v516v0zM708 144l145 96v512l-145 -96v-512zM354 242v516l-183 -104v-516l183 104v0z" />
    <glyph glyph-name="uniE845" unicode="&#xe845;" 
d="M775 875q17 0 29.5 -12.5t12.5 -30.5v-79h79q18 0 30.5 -12.5t12.5 -29.5q0 -18 -12.5 -30.5t-30.5 -12.5h-79v-79q0 -17 -12.5 -29.5t-29.5 -12.5q-18 0 -30.5 12.5t-12.5 29.5v79h-79q-17 0 -29.5 12.5t-12.5 30.5q0 17 12.5 29.5t29.5 12.5h79v79q0 18 12.5 30.5
t30.5 12.5zM320 834h192q18 0 30.5 -12.5t12.5 -29.5q0 -18 -12.5 -30.5t-30.5 -12.5h-190h-44.5t-31.5 -2q-13 -1 -20.5 -2.5t-11.5 -4.5q-12 -5 -20.5 -14t-14.5 -20q-2 -4 -4 -11.5t-3 -20.5q-1 -14 -1 -32v-44v-340v-44.5t1 -31.5t3 -20.5t4 -11.5q5 -10 12.5 -18.5
t17.5 -13.5q2 3 4.5 6t4.5 5q4 5 10 10.5t13 11.5l344 312q5 5 9.5 9t9.5 8t11 8t14 6q12 4 23.5 4.5t23.5 -2.5q8 -3 14.5 -6t11.5 -7q5 -3 10 -7l10 -8l114 -91l1.5 -1.5l1.5 -1.5q9 -7 17.5 -14.5t15.5 -15.5q8 -11 14 -23t9 -25q2 -11 2.5 -22t0.5 -23v-1.5v-1.5v-2
v-9.5v-9.5v-0.5v-0.5v-3.5v-2.5q0 -24 -0.5 -42.5t-4.5 -34.5q-5 -19 -14 -35.5t-22 -30.5q-4 -5 -8.5 -9.5t-10.5 -8.5q-13 -11 -28.5 -19t-32.5 -13q-16 -4 -34.5 -5t-42.5 -1h-3.5h-2.5h-18h-1.5h-1.5h-353h-1h-2h-26h-15.5t-13.5 1q-6 0 -12 0.5t-11 0.5q-17 2 -33 5.5
t-31 10.5q-23 12 -41.5 30.5t-30.5 41.5q-7 15 -10.5 31t-5.5 33q-1 16 -1.5 36.5t-0.5 44.5v343q0 25 0.5 45t1.5 37q2 17 5.5 33t10.5 31q12 23 30.5 41.5t41.5 29.5q15 8 31 11.5t33 4.5q16 2 36.5 2h44.5v0zM797 138q3 4 5.5 8t4.5 8q1 4 2.5 10.5t2.5 17.5q1 12 1 27.5
v38.5q0 16 -0.5 21t-0.5 7q-1 4 -3 8t-4 7l-5.5 5.5t-16.5 13.5l-113 90l-9 7.5t-6 4.5l-5 -5t-9 -7l-322 -293h1.5h1.5h350h38t27 1q12 1 18 2t10 3q5 2 9 4.5t8 5.5q5 3 8.5 7t6.5 8v0zM350 607q-15 0 -26.5 -11t-11.5 -27t11.5 -27t26.5 -11q16 0 27 11t11 27t-11 27
t-27 11zM227 569q0 51 36 87.5t87 36.5t87.5 -36.5t36.5 -87.5t-36.5 -87t-87.5 -36t-87 36t-36 87v0z" />
    <glyph glyph-name="uniE846" unicode="&#xe846;" 
d="M814 749q30 -30 53 -65q23 -36 39 -74.5t24 -80.5q9 -41 9 -84q0 -76 -26.5 -148t-76.5 -131q-49 -58 -116 -95.5t-142 -48.5v2v0v0v298h100l19 124h-1v1h-118v79q0 25 15 46t55 21h53v105v0v0v1q-23 4 -47 6t-48 2q-73 0 -117 -43t-44 -123v-94h-109v-124h1v-1h108v-298
v0h1v-3q-76 12 -142.5 49.5t-115.5 95.5q-50 59 -76.5 131t-26.5 148q0 43 9 84q8 42 24 80.5t39 74.5q23 35 53 65t65 53q35 24 73.5 40t79.5 24q42 9 84 9t84 -9q41 -8 79.5 -24t73.5 -40q35 -23 65 -53v0z" />
    <glyph glyph-name="uniE847" unicode="&#xe847;" 
d="M939 709q-24 -11 -49 -17.5t-52 -10.5q27 16 47 41t30 55q-25 -15 -53 -25.5t-58 -16.5q-24 25 -57 39.5t-71 14.5q-42 0 -78 -18q-35 -17 -59 -47t-33 -68q-10 -38 0 -78q-55 2 -106 16t-97 37.5t-86 55.5t-72 71q-35 -58 -20 -125t74 -105q-22 0 -42 6t-37 15
q-2 -60 37.5 -109t102.5 -62q-18 -5 -38 -6t-41 3q17 -51 61.5 -84.5t102.5 -35.5q-56 -42 -123 -60.5t-137 -10.5q58 -37 126.5 -57t142.5 -20q122 0 216 46q95 46 158.5 119t95.5 165q31 91 27 182q26 19 48 41.5t40 48.5v0v0z" />
    <glyph glyph-name="uniE848" unicode="&#xe848;" 
d="M684 875h-344q-53 0 -99 -20q-47 -20 -81.5 -54.5t-54.5 -81.5q-20 -46 -20 -99v-344q0 -53 20 -99q20 -47 54.5 -81.5t81.5 -54.5q46 -20 99 -20h344q53 0 99 20q47 20 81.5 54.5t54.5 81.5q20 46 20 99v344q0 53 -20 99q-20 47 -54.5 81.5t-81.5 54.5q-46 20 -99 20z
M853 276q0 -70 -49.5 -119.5t-119.5 -49.5h-344q-70 0 -119.5 49.5t-49.5 119.5v344q0 70 49.5 119.5t119.5 49.5h344q70 0 119.5 -49.5t49.5 -119.5v-344zM512 669q-46 0 -86 -18q-40 -17 -70 -47t-47 -70q-18 -40 -18 -86t18 -86q17 -40 47 -70t70 -47q40 -18 86 -18
t86 18q40 17 70 47t47 70q18 40 18 86t-18 86q-17 40 -47 70t-70 47q-40 18 -86 18v0zM512 313q-56 0 -95.5 39.5t-39.5 95.5t39.5 95.5t95.5 39.5t95.5 -39.5t39.5 -95.5t-39.5 -95.5t-95.5 -39.5zM733 614q22 0 37.5 15.5t15.5 37.5t-15.5 37.5t-37.5 15.5t-37.5 -15.5
t-15.5 -37.5t15.5 -37.5t37.5 -15.5z" />
    <glyph glyph-name="uniE849" unicode="&#xe849;" 
d="M939 438q0 22 -2 43.5t-6 43.5h-410v-164h235q-8 -40 -30.5 -74t-56.5 -56q-30 -20 -67 -30.5t-81 -10.5q-43 0 -82 13q-38 13 -70 37t-56 56t-37 70q-14 40 -14 82t14 81q13 38 37 71q24 32 56 55.5t70 36.5q39 14 82 14q46 0 89.5 -16.5t76.5 -47.5l125 122
q-30 27 -64 48t-71 35t-76 21q-40 7 -80 7q-62 0 -120 -17q-58 -16 -108.5 -46.5t-91.5 -74.5q-41 -43 -69 -97q-23 -46 -35 -94q-12 -49 -12 -98t12 -98q12 -48 35 -94q28 -54 69 -97q41 -44 91.5 -74.5t108.5 -46.5q58 -17 120 -17q88 0 161 27t127 76q31 28 55 62
q25 34 41.5 74t24.5 85q9 44 9 93v0v0z" />
    <glyph glyph-name="uniE84D" unicode="&#xe84d;" 
d="M718 764q1 -6 1 -15.5v-22.5v-370v-23t-1 -16q-6 3 -15.5 8t-22.5 12q-42 23 -95.5 45t-106.5 28v261q53 7 106.5 29t95.5 44q13 7 22.5 12t15.5 8v0zM804 711v16v26t-1 22q0 9 -3 21.5t-11 23.5q-10 14 -24.5 22.5t-31.5 10.5q-14 2 -26.5 -2t-20.5 -8q-9 -4 -20.5 -10
t-24.5 -13l-2 -1q-47 -25 -99.5 -45t-94.5 -20h-144q-45 0 -84 -17q-39 -16 -68.5 -45t-46.5 -68t-17 -83q0 -50 21.5 -93t57.5 -72l60 -237v-0.5v-0.5q1 -4 2 -7.5t2 -7.5q12 -34 40 -55.5t64 -24.5h7.5h8.5h0.5h0.5h0.5h1.5h10h9q42 4 72.5 34t34.5 73q1 4 1 9v10v0.5v1.5
v153q38 -6 80 -23.5t81 -38.5l2 -1q13 -7 24.5 -13t20.5 -10q8 -4 20.5 -7.5t26.5 -2.5q17 3 31.5 11t24.5 22q8 12 10.5 24t3.5 22q1 9 1 21v26v16q58 15 96.5 62t38.5 109t-38.5 109t-96.5 61v0zM804 621q22 -12 35.5 -33.5t13.5 -46.5q0 -26 -13.5 -47.5t-35.5 -32.5v160
zM393 413h-92q-54 0 -92 37.5t-38 90.5q0 52 38 90t92 38h92v-256v0zM393 327v-156q0 -8 -0.5 -10t-0.5 -3q-1 -12 -9.5 -20.5t-20.5 -9.5zM362 128h-3.5h-9.5h-8h-2q-11 1 -19 7t-11 16l-0.5 2t-1.5 7l-43 170l18 -2t19 -1h92z" />
    <glyph glyph-name="uniE84E" unicode="&#xe84e;" 
d="M216 832h0.5h1.5h590h29.5t24.5 -1q10 -1 23 -4t25 -13q14 -11 21.5 -28t7.5 -35q-1 -14 -7.5 -26t-12.5 -20q-6 -9 -15 -19t-20 -21l-227 -249q-3 -3 -4 -4.5t-2 -2.5v0v0v0v0v-3v-6v-208v-0.5v-0.5q0 -4 -0.5 -11.5t-3.5 -15.5q-2 -7 -6 -12.5t-10 -10.5t-13 -8.5
t-11 -4.5l-0.5 -0.5l-0.5 -0.5l-136 -53l-10 -4t-9 -3q-5 -1 -13 -2.5t-17 0.5q-12 2 -21.5 8.5t-16.5 16.5q-5 8 -7 15.5t-2 12.5q-1 5 -1 10v10v262v6v3v0v0v0v0q-1 1 -2 2.5t-4 4.5l-226 248l-0.5 0.5l-0.5 0.5q-11 11 -20 21t-15 19q-6 8 -12.5 20t-7.5 26q0 18 7.5 35
t21.5 28q12 10 25 13t23 4q11 1 24.5 1h29.5v0zM167 753q1 0 1 -0.5t1 -1.5q4 -6 11.5 -14.5t19.5 -21.5l226 -248q1 0 1 -0.5t1 -0.5q3 -4 7 -8.5t7 -10.5q3 -5 5 -10.5t4 -10.5q1 -7 1.5 -13t0.5 -11v-1v-1v-249l118 47v202v1v1q0 5 0.5 11t1.5 13q2 5 4 10.5t5 10.5
q3 6 7 10.5t7 8.5q1 0 1 0.5t1 0.5l226 248q12 13 19.5 21.5t11.5 14.5q1 1 1 1.5t1 0.5h-1.5h-0.5q-8 1 -19.5 1h-29.5h-588h-29.5t-19.5 -1h-0.5h-1.5v0z" />
    <glyph glyph-name="uniE84F" unicode="&#xe84f;" 
d="M479 764q-66 0 -123 -25t-100 -68t-67 -100q-25 -58 -25 -123t25 -123q24 -57 67 -100t100 -68t123 -25q74 0 137.5 32t106.5 86q11 12 27 14t29 -9q12 -10 14 -26t-9 -29q-27 -34 -60 -61q-34 -27 -73 -46t-83 -29q-43 -11 -89 -11q-82 0 -153 31q-72 31 -125.5 84.5
t-84.5 125.5t-31 154t31 154t84.5 125.5t125.5 84.5q71 31 153 31q75 0 143 -27q67 -27 119 -74t86 -111t42 -138l3 3q11 11 27.5 11t27.5 -11q12 -12 12 -28.5t-12 -27.5l-78 -79q-6 -6 -13 -9t-15 -3t-15.5 3t-12.5 9l-79 79q-11 11 -11 27.5t11 28.5q12 11 28 11t28 -11
l22 -23q-5 61 -31 114t-68.5 92.5t-96.5 61.5q-55 23 -117 23v0zM479 685q16 0 27.5 -11.5t11.5 -28.5v-176l100 -67q14 -9 17 -25t-6 -30q-9 -13 -25 -16.5t-29 5.5l-118 79q-8 6 -13 14.5t-5 18.5v197q0 17 11.5 28.5t28.5 11.5v0z" />
    <glyph glyph-name="uniE850" unicode="&#xe850;" 
d="M512 797q-72 0 -136 -27q-63 -28 -110.5 -75.5t-75.5 -110.5q-27 -64 -27 -136t27 -136q28 -63 75.5 -110.5t110.5 -75.5q64 -27 136 -27t136 27q63 28 110.5 75.5t75.5 110.5q27 64 27 136t-27 136q-28 63 -75.5 110.5t-110.5 75.5q-64 27 -136 27v0zM85 448
q0 88 34 166q33 78 91 136t136 91q78 34 166 34t166 -34q78 -33 136 -91t91 -136q34 -78 34 -166t-34 -166q-33 -78 -91 -136t-136 -91q-78 -34 -166 -34t-166 34q-78 33 -136 91t-91 136q-34 78 -34 166v0zM522 602q-14 3 -27.5 0.5t-24.5 -9.5q-12 -7 -21 -18t-13 -24
q-6 -15 -20.5 -22t-29.5 -1q-15 5 -22 19.5t-1 29.5q9 26 26.5 47.5t40.5 35.5q24 13 51 18t54 1q27 -5 51 -18.5t42 -34.5q17 -21 26.5 -47t9.5 -53q0 -45 -26 -74.5t-49 -45.5q-13 -8 -25 -14.5t-21 -10.5q-5 -2 -8.5 -3.5t-6.5 -2.5l-3 -1.5t-2 -0.5h-1l-1 -1v0v0
l0.5 0.5t1.5 0.5l-2 -1q-15 -5 -29.5 2.5t-19.5 22.5t2 29.5t23 19.5v0q1 0 1.5 0.5t1.5 0.5q2 1 5 2t6 3q8 3 16.5 7.5t18.5 11.5q20 13 30 27t10 28v0q0 13 -4.5 26t-13.5 24q-9 10 -20.5 17t-25.5 9v0zM473 254q0 16 11.5 27.5t27.5 11.5v0q16 0 27.5 -11.5t11.5 -27.5
t-11.5 -27.5t-27.5 -11.5v0q-16 0 -27.5 11.5t-11.5 27.5z" />
    <glyph glyph-name="uniE900" unicode="&#xe900;" 
d="M501 874q6 1 11 1t11 -1t12 -3t10 -4h1h1l203 -79q1 -1 2.5 -1.5t2.5 -0.5q18 -7 33 -14t27 -18q10 -9 18 -20.5t13 -25.5q6 -15 6.5 -32t0.5 -37v-2.5v-2.5v-187q0 -83 -37 -151.5t-84 -119.5t-96 -86.5t-78 -53.5h-1l-1 -1q-5 -3 -12 -6.5t-16 -5.5q-7 -2 -16 -2t-16 2
q-9 2 -16 5.5t-12 6.5l-1 1h-1q-29 18 -78 53.5t-96 86.5t-84 119.5t-37 151.5v187v2.5v2.5q0 20 0.5 37t6.5 32q5 14 13 25.5t18 20.5q12 11 27 18t33 14q1 0 2.5 0.5t2.5 1.5l203 79h1h1q4 2 10 4t12 3v0zM512 797q-1 0 -3 -1t-5 -2l-203 -79q-24 -9 -31.5 -12.5
t-9.5 -6.5q-4 -3 -6.5 -7t-4.5 -8q-1 -4 -1.5 -12.5t-0.5 -34.5v-187q0 -62 28.5 -117t71.5 -101q42 -45 86.5 -77.5t71.5 -48.5q1 -1 2.5 -1.5t2.5 -1.5q1 0 1.5 -0.5l0.5 -0.5l0.5 0.5t1.5 0.5q1 1 2.5 1.5t2.5 1.5q27 16 71.5 48.5t86.5 77.5q43 46 71.5 101t28.5 117
v187q0 26 -0.5 34.5t-1.5 12.5q-2 4 -4.5 8t-6.5 7q-3 3 -10 6.5t-31 12.5l-203 79q-3 1 -5 2t-3 1v0zM420 597q22 30 57.5 47t86.5 17q43 0 74.5 -15.5t44.5 -27.5l-50 -48q-5 4 -23.5 14t-45.5 10q-37 0 -56 -10.5t-29 -23.5h97v-68h-117v-11.5v-11.5v-11.5v-10.5h117v-68
h-97q10 -14 29 -24t56 -10q27 0 45.5 9.5t23.5 14.5l50 -48q-13 -12 -44.5 -28t-74.5 -16q-51 0 -86.5 17t-57.5 48q-6 9 -10.5 18t-7.5 19h-61v68h48q0 5 -0.5 11t-0.5 11q0 6 0.5 11.5t0.5 11.5h-48v68h61q3 9 7.5 18.5t10.5 18.5v0z" />
    <glyph glyph-name="uniE901" unicode="&#xe901;" 
d="M501 874q6 1 11 1t11 -1t12 -3t10 -4h1h1l203 -79q1 -1 2.5 -1.5t2.5 -0.5q18 -7 33 -14t27 -18q10 -9 18 -20.5t13 -25.5q6 -15 6.5 -32t0.5 -37v-2.5v-2.5v-187q0 -83 -37 -151.5t-84 -119.5t-96 -86.5t-78 -53.5h-1l-1 -1q-5 -3 -12 -6.5t-16 -5.5q-7 -2 -16 -2t-16 2
q-9 2 -16 5.5t-12 6.5l-1 1h-1q-29 18 -78 53.5t-96 86.5t-84 119.5t-37 151.5v187v2.5v2.5q0 20 0.5 37t6.5 32q5 14 13 25.5t18 20.5q12 11 27 18t33 14q1 0 2.5 0.5t2.5 1.5l203 79h1h1q4 2 10 4t12 3v0zM512 797q-1 0 -3 -1t-5 -2l-203 -79q-24 -9 -31.5 -12.5
t-9.5 -6.5q-4 -3 -6.5 -7t-4.5 -8q-1 -4 -1.5 -12.5t-0.5 -34.5v-187q0 -62 28.5 -117t71.5 -101q42 -45 86.5 -77.5t71.5 -48.5q1 -1 2.5 -1.5t2.5 -1.5q1 0 1.5 -0.5l0.5 -0.5l0.5 0.5t1.5 0.5q1 1 2.5 1.5t2.5 1.5q27 16 71.5 48.5t86.5 77.5q43 46 71.5 101t28.5 117
v187q0 26 -0.5 34.5t-1.5 12.5q-2 4 -4.5 8t-6.5 7q-3 3 -10 6.5t-31 12.5l-203 79q-3 1 -5 2t-3 1v0zM504 585q-6 -8 -10 -22t-4 -33v-30h60v-61h-60v-51q0 -14 -3.5 -27t-9.5 -23h154v-4v-26v-27v-4h-242v61h-3h-1l-0.5 -0.5l-0.5 -0.5v0v0v0.5t1 0.5t2.5 0.5t2.5 1.5
q4 1 8.5 3.5t9.5 6.5q9 7 15 16t6 22v51h-40v61h40v30q0 26 6.5 49.5t20.5 41.5q14 19 34.5 29.5t45.5 10.5q49 0 72 -30t31 -45l0.5 -1l0.5 -1l-54 -27q-9 17 -19.5 30.5t-30.5 13.5q-11 0 -18.5 -4t-13.5 -12v0z" />
    <glyph glyph-name="uniE902" unicode="&#xe902;" 
d="M516 229q-3 0 -7 1t-7 2l-6 4t-5 5l-177 189q-15 16 -25 35.5t-14 41.5t-1 44t11 42v4q8 15 18.5 27.5t23.5 21.5q13 10 28 16.5t31 8.5q33 2 64.5 -10t56.5 -34l5 -5l5 5q11 11 25 19.5t29 14.5q15 5 31.5 6.5t32.5 -0.5t32 -8.5t29 -16.5q14 -10 24.5 -23.5t17.5 -29.5
q10 -20 13 -42.5t-1 -44.5t-14.5 -42t-26.5 -35l-172 -184q-4 -5 -9.5 -8t-11.5 -4v0zM349 564q-4 -10 -5 -21.5t1 -22.5q1 -11 6 -21.5t13 -18.5l150 -163l147 158q9 8 14.5 18t7.5 22q2 11 0.5 22.5t-6.5 22.5q-4 7 -9 13.5t-12 11.5q-6 4 -13.5 7t-15.5 4t-16.5 0.5
t-15.5 -3.5q-8 -3 -15 -7t-13 -10l-29 -30q-5 -5 -11.5 -8t-13.5 -3t-13.5 3t-11.5 8l-30 30q-7 6 -15 11t-16 8q-9 3 -18 4.5t-18 0.5q-7 -2 -13 -5.5t-12 -7.5q-5 -5 -9.5 -10.5t-7.5 -12.5v0zM836 -64h-644q-21 1 -40.5 9.5t-34.5 23.5q-14 15 -22.5 35t-9.5 41v806
q1 22 9.5 41.5t22.5 35.5q15 15 34.5 23.5t40.5 8.5h505q21 0 40.5 -8.5t34.5 -23.5l135 -137q7 -8 13 -17t10 -19t6 -20.5t2 -21.5v-665q1 -11 0 -21.5t-5 -20.5q-3 -11 -8.5 -20t-12.5 -17t-16 -14t-18 -11q-10 -4 -20.5 -6t-21.5 -2v0zM192 889q-7 -1 -13.5 -4t-11.5 -8
q-6 -5 -9 -11.5t-3 -14.5v-806q0 -7 3 -14t9 -12q5 -5 11.5 -8t13.5 -3h644q4 0 7 0.5t6 2.5q3 1 6 3t5 5q5 6 7 13t2 14v666q0 3 -1 7t-2 7t-3 6.5t-5 5.5l-135 138q-5 5 -11.5 8t-13.5 3l-506 2v0z" />
    <glyph glyph-name="uniE903" unicode="&#xe903;" 
d="M205 506q16 0 27 -11.5t11 -27.5v-309q0 -7 3 -14t8 -13q6 -5 13 -8t15 -3h460q8 0 15 3t13 8q5 6 8 13t3 14v309q0 16 11 27.5t27 11.5t27.5 -11.5t11.5 -27.5v-309q0 -23 -9 -44t-25 -37q-16 -17 -37.5 -25.5t-44.5 -8.5h-460q-23 0 -44.5 8.5t-37.5 25.5
q-16 16 -25 37t-9 44v309q0 16 11.5 27.5t27.5 11.5v0zM378 776q19 0 36.5 -7.5t30.5 -20.5q14 -14 21.5 -31.5t7.5 -36.5v-20h-96q-12 0 -22.5 4.5t-18.5 12.5t-12.5 19t-4.5 22q0 12 4.5 22.5t12.5 18.5t18.5 12.5t22.5 4.5v0zM512 789q-3 3 -6 6.5t-6 6.5
q-25 25 -56.5 38t-65.5 13q-27 0 -52 -10t-43 -29q-19 -19 -29.5 -44t-10.5 -52t10.5 -51.5t29.5 -43.5q18 -19 43 -29.5t52 -10.5h268q14 0 27 2.5t25 7.5t23 12.5t20 17.5q10 9 17.5 20t12.5 24q5 12 7.5 25t2.5 26q0 27 -10.5 52t-29.5 44q-18 19 -43 29t-52 10
q-34 0 -65.5 -13t-56.5 -38q-3 -3 -6 -6.5t-6 -6.5v0zM550 680q0 19 7.5 36.5t21.5 31.5q13 13 30.5 20.5t36.5 7.5q12 0 22.5 -4.5t18.5 -12.5t12.5 -18.5t4.5 -22.5q0 -5 -1 -11t-3 -11l-6 -10t-7 -9t-8.5 -7t-10.5 -5q-5 -2 -10.5 -3.5t-11.5 -1.5h-96v20v0zM128 622
q0 16 11 27t27 11h692q16 0 27 -11t11 -27v-155q0 -16 -11 -27t-27 -11h-308v-348q0 -16 -11 -27t-27 -11t-27 11t-11 27v348h-308q-16 0 -27 11t-11 27v155v0zM819 506v77h-614v-77h614z" />
    <glyph glyph-name="uniE904" unicode="&#xe904;" 
d="M490 872q11 3 22 3t22 -3q13 -4 23.5 -11l19.5 -13l1.5 -1.5t1.5 -0.5l289 -218q1 0 2 -0.5t2 -1.5q12 -9 22.5 -17.5t18.5 -18.5q7 -10 12 -20t8 -21q4 -12 4.5 -25t0.5 -28v-2v-2v-299q0 -17 -0.5 -31t-1.5 -25q-1 -12 -3.5 -24.5t-8.5 -23.5q-9 -18 -23.5 -31.5
t-32.5 -22.5q-12 -6 -24.5 -8.5t-25.5 -3.5q-12 -1 -26.5 -1.5t-31.5 -0.5h-87h-0.5h-0.5h-8t-8 1q-5 0 -11.5 1.5t-13.5 4.5q-9 5 -16 11.5t-12 15.5q-3 7 -4.5 13t-1.5 11q-1 3 -1 7.5v7.5v273v14.5v9.5v0v0h-0.5h-0.5q-3 1 -9 1h-15h-120h-15t-9 -1h-0.5h-0.5v0v0v-9.5
v-14.5v-273v-7.5t-1 -7.5q0 -5 -1.5 -11t-4.5 -13q-5 -9 -12 -16t-16 -11q-7 -3 -13.5 -4.5t-11.5 -1.5q-4 -1 -8 -1h-8h-0.5h-0.5h-87q-17 0 -31.5 0.5t-26.5 1.5q-13 1 -25.5 3.5t-24.5 8.5q-18 9 -32.5 22.5t-23.5 31.5q-6 11 -8.5 23.5t-3.5 24.5q-1 11 -1.5 25t-0.5 31
v299v2v2q0 15 0.5 28t4.5 25q3 11 8 21t12 20q8 10 18.5 18.5t22.5 17.5q1 1 2 1.5t2 0.5l289 218q1 0 1.5 0.5l1.5 1.5l19.5 13t23.5 11v0zM512 792q-3 -2 -6.5 -4.5t-9.5 -6.5l-289 -218q-16 -12 -21 -16t-7 -6q-2 -3 -4 -6.5t-3 -7.5q-1 -3 -1 -9.5v-25.5v-298v-30t1 -21
q0 -8 1.5 -11.5t1.5 -5.5q3 -6 8 -10.5t11 -7.5q2 -1 5.5 -2t12.5 -1q9 -1 21.5 -1h31.5h76v264q0 8 0.5 15.5t0.5 13.5q1 7 2.5 15.5t6.5 16.5q6 12 15.5 21t21.5 15q9 4 17 6t16 2q6 1 14 1h16h122h16t14 -1q8 0 16 -2t17 -6q12 -6 21.5 -15t15.5 -21q5 -8 6.5 -16.5
t2.5 -15.5q0 -6 0.5 -13.5t0.5 -15.5v-264h76h31.5t21.5 1q9 0 12.5 1t5.5 2q6 3 11 7.5t8 10.5q0 2 1.5 5.5t1.5 11.5q1 9 1 21v30v298v25.5t-1 9.5q-1 4 -3 7.5t-4 6.5q-2 2 -7 6t-21 16l-289 218q-6 4 -9.5 6.5t-6.5 4.5v0v0v0v0v0z" />
    <glyph glyph-name="uniE905" unicode="&#xe905;" 
d="M822 681q7 4 9 12t-2 15l-41 71q-2 4 -5 6.5t-7 3.5t-7.5 0.5t-7.5 -2.5q-36 -21 -72 -42.5t-73 -42.5q-7 -4 -9 -12.5t3 -15.5q20 -30 30 -71t10 -84t-11 -84q-11 -40 -32 -70q-19 -30 -43.5 -45.5t-51.5 -15.5t-51.5 15.5t-43.5 45.5q-21 30 -32 70q-11 41 -11 84
t10 84t31 71q4 7 2 15.5t-9 12.5q-18 11 -36.5 21.5t-36.5 20.5q-18 11 -36 21.5t-36 21.5q-4 2 -7.5 2.5t-7.5 -0.5t-7 -3.5t-5 -6.5l-41 -71q-4 -7 -2 -15t9 -12l43 -25q-47 -82 -48 -177q-1 -96 35.5 -178t108.5 -138q72 -55 171 -56q99 1 171 56q72 56 108.5 138
t35.5 178q-1 95 -48 177zM787 465q0 -66 -21 -124q-22 -58 -59.5 -101t-87.5 -68t-107 -25q-87 0 -151 51q-63 51 -95.5 127.5t-28.5 164.5t52 162q2 4 2.5 8t-0.5 8t-3 7t-6 5l-43 25l21 37q28 -16 55.5 -32t55.5 -32q-20 -36 -29 -80q-9 -45 -7.5 -90.5t13.5 -89.5
q13 -43 36 -76q25 -38 58 -58t70 -20t70 20t58 58q23 33 36 76q12 44 13.5 89.5t-7.5 90.5q-9 44 -29 80q28 16 55.5 32t55.5 32l21 -37l-43 -25q-4 -2 -6 -5t-3 -7t-0.5 -8t2.5 -8q26 -41 39 -88.5t13 -98.5v0zM512 220q-8 0 -14 -6t-6 -14q1 -20 20 -20t20 20q0 8 -6 14
t-14 6v0zM428 242q-9 0 -14.5 -6t-5.5 -14q1 -20 20 -20t20 20q0 8 -6 14t-14 6v0zM361 299q-8 0 -14 -6t-6 -14q1 -20 20 -20t20 20q0 8 -6 14t-14 6zM316 375q-8 0 -13.5 -6t-5.5 -14q0 -20 19.5 -20t19.5 20q0 8 -5.5 14t-14.5 6v0zM313 440q0 9 -5.5 15t-14.5 6
q-19 -1 -19 -20.5t19 -19.5q9 0 14.5 5.5t5.5 13.5zM291 509q8 0 13.5 6t5.5 14q0 20 -19 20t-20 -20q0 -8 5.5 -14t14.5 -6v0zM596 242q-8 0 -14 -6t-6 -14q1 -20 20 -20t20 20q0 8 -5.5 14t-14.5 6v0zM663 299q-8 0 -14 -6t-6 -14q1 -20 20 -20t20 20q0 8 -6 14t-14 6v0z
M708 375q-9 0 -14.5 -6t-5.5 -14q1 -20 20 -20t19 20q0 8 -5.5 14t-13.5 6v0zM731 461q-9 0 -14.5 -6t-5.5 -15q0 -19 19.5 -19t19.5 19q0 9 -5.5 15t-13.5 6v0zM714 529q0 -8 5.5 -14t13.5 -6q20 1 20 20t-20 20q-8 0 -13.5 -6t-5.5 -14v0z" />
    <glyph glyph-name="uniE911" unicode="&#xe911;" 
d="M85 832q0 18 12.5 30.5t30.5 12.5h768q18 0 30.5 -12.5t12.5 -30.5t-12.5 -30.5t-30.5 -12.5h-768q-18 0 -30.5 12.5t-12.5 30.5zM489 739q10 7 23 7t24 -7l128 -85q15 -10 18 -27.5t-6 -31.5q-10 -15 -27.5 -18.5t-31.5 6.5l-62 41v-352l62 41q14 10 31.5 6.5
t27.5 -18.5t6.5 -32.5t-18.5 -27.5l-128 -85q-11 -7 -24 -7t-23 7l-128 85q-15 10 -18.5 27.5t6.5 32.5t27 18t32 -6l62 -41v352l-62 -41q-15 -10 -32 -6.5t-27 18.5t-6.5 32.5t18.5 27.5l128 85v-1v0zM85 64q0 18 12.5 30.5t30.5 12.5h768q18 0 30.5 -12.5t12.5 -30.5
t-12.5 -30.5t-30.5 -12.5h-768q-18 0 -30.5 12.5t-12.5 30.5z" />
    <glyph glyph-name="uniE935" unicode="&#xe935;" 
d="M238 720q56 56 128 84t146 28t146 -28t128 -84q41 -40 67 -87.5t38 -99.5q4 -17 -5.5 -32t-26.5 -19q-18 -4 -33 5.5t-19 26.5q-9 40 -29 77t-52 68q-44 44 -100 66t-114 22t-114 -22t-100 -66q-31 -30 -52.5 -53t-35.5 -39h148q18 0 30.5 -12.5t12.5 -30.5t-12.5 -30.5
t-30.5 -12.5h-230q-18 0 -30.5 12.5t-12.5 30.5v227q0 18 12.5 30.5t30.5 12.5t30.5 -12.5t12.5 -30.5v-100q13 14 29.5 31.5t37.5 37.5v0zM165 414q18 4 33 -5.5t19 -26.5q9 -40 29 -77t52 -68q44 -44 100 -66t114 -22t114 22t100 66q31 30 52.5 53t35.5 39h-148
q-18 0 -30.5 12.5t-12.5 30.5t12.5 30.5t30.5 12.5h230q18 0 30.5 -12.5t12.5 -30.5v-227q0 -18 -12.5 -30.5t-30.5 -12.5t-30.5 12.5t-12.5 30.5v100q-13 -14 -29.5 -31.5t-37.5 -37.5q-56 -56 -128 -84t-146 -28t-146 28t-128 84q-41 40 -67 87.5t-38 99.5q-4 17 5.5 32
t26.5 19v0z" />
    <glyph glyph-name="uniE940" unicode="&#xe940;" 
d="M512 704q0 18 12.5 30.5t30.5 12.5h64q17 0 29.5 -12.5t12.5 -30.5t-12.5 -30.5t-29.5 -12.5h-64q-18 0 -30.5 12.5t-12.5 30.5zM512 533q0 18 12.5 30.5t30.5 12.5h170q18 0 30.5 -12.5t12.5 -30.5q0 -17 -12.5 -29.5t-30.5 -12.5h-170q-18 0 -30.5 12.5t-12.5 29.5v0z
M512 363q0 17 12.5 29.5t30.5 12.5h256q17 0 29.5 -12.5t12.5 -29.5q0 -18 -12.5 -30.5t-29.5 -12.5h-256q-18 0 -30.5 12.5t-12.5 30.5zM512 192q0 18 12.5 30.5t30.5 12.5h341q18 0 30.5 -12.5t12.5 -30.5t-12.5 -30.5t-30.5 -12.5h-341q-18 0 -30.5 12.5t-12.5 30.5v0z
M256 832q18 0 30.5 -12.5t12.5 -30.5v-579l55 55q12 12 30 12t30 -12q13 -13 13 -30.5t-13 -30.5l-128 -128q-6 -6 -14 -9t-16 -3t-16 3t-14 9l-128 128q-13 13 -13 30.5t13 30.5q12 12 30 12t30 -12l55 -55v579q0 18 12.5 30.5t30.5 12.5z" />
    <glyph glyph-name="uniE941" unicode="&#xe941;" 
d="M512 192q0 18 12.5 30.5t30.5 12.5h64q17 0 29.5 -12.5t12.5 -30.5t-12.5 -30.5t-29.5 -12.5h-64q-18 0 -30.5 12.5t-12.5 30.5zM512 363q0 17 12.5 29.5t30.5 12.5h170q18 0 30.5 -12.5t12.5 -29.5q0 -18 -12.5 -30.5t-30.5 -12.5h-170q-18 0 -30.5 12.5t-12.5 30.5z
M512 533q0 18 12.5 30.5t30.5 12.5h256q17 0 29.5 -12.5t12.5 -30.5q0 -17 -12.5 -29.5t-29.5 -12.5h-256q-18 0 -30.5 12.5t-12.5 29.5zM512 704q0 18 12.5 30.5t30.5 12.5h341q18 0 30.5 -12.5t12.5 -30.5t-12.5 -30.5t-30.5 -12.5h-341q-18 0 -30.5 12.5t-12.5 30.5v0z
M256 64q-18 0 -30.5 12.5t-12.5 30.5v579l-55 -55q-12 -12 -30 -12t-30 12q-13 13 -13 30.5t13 30.5l128 128q6 6 14 9t16 3t16 -3t14 -9l128 -128q13 -13 13 -30.5t-13 -30.5q-12 -12 -30 -12t-30 12l-55 55v-579q0 -18 -12.5 -30.5t-30.5 -12.5z" />
    <glyph glyph-name="uniE94A" unicode="&#xe94a;" 
d="M672 875q-34 -3 -70 -22.5t-60 -48.5q-21 -25 -35 -61t-7 -74q37 -1 72.5 18.5t58.5 48.5q21 27 34 63.5t7 75.5v0zM852 588q-33 41 -76.5 64t-86.5 23q-58 0 -90 -18.5t-72 -18.5q-41 0 -77 18.5t-86 18.5q-49 0 -97 -28.5t-81 -79.5q-23 -36 -33 -86q-9 -50 -3.5 -107
t26.5 -117q21 -61 59 -119q27 -41 63 -78.5t83 -38.5q41 0 65.5 18t80.5 18q57 1 80.5 -17.5t65.5 -18.5q47 1 84.5 42t63.5 82q20 30 30.5 50t24.5 54q-54 20 -85 65q-30 44 -34.5 95.5t18.5 100.5t77 78z" />
    <glyph glyph-name="uniE94B" unicode="&#xe94b;" 
d="M242 657q-33 -43 -52 -96.5t-19 -112.5q0 -71 26 -133q27 -62 73.5 -108.5t108.5 -73.5q62 -26 133 -26q59 0 112.5 19t96.5 52l-479 479v0zM303 718l479 -479q33 43 52 96.5t19 112.5q0 71 -26 133q-27 62 -73.5 108.5t-108.5 73.5q-62 26 -133 26q-59 0 -112.5 -19
t-96.5 -52v0zM85 448q0 88 34 166q33 78 91 136t136 91q78 34 166 34t166 -34q78 -33 136 -91t91 -136q34 -78 34 -166t-34 -166q-33 -78 -91 -136t-136 -91q-78 -34 -166 -34t-166 34q-78 33 -136 91t-91 136q-34 78 -34 166v0z" />
    <glyph glyph-name="uniE94C" unicode="&#xe94c;" 
d="M429 790q-53 0 -90.5 -37.5t-37.5 -91.5q0 -53 37.5 -91t90.5 -38t90 38t37 91q0 54 -37 91.5t-90 37.5v0zM217 662q0 44 17 83q16 38 45 67t67 46q39 17 83 17t82 -17q39 -17 67.5 -46t44.5 -67q17 -39 17 -83t-17 -83q-16 -39 -45 -68t-67 -45q-39 -17 -82 -17
q-44 0 -82 17q-39 16 -67.5 45t-45.5 68t-17 83zM327 400h3.5h3.5h169q18 0 30 -12t12 -30t-12 -30t-30 -12h-169q-42 0 -60 -1t-28 -4q-26 -8 -45.5 -27.5t-27.5 -45.5q-3 -10 -3.5 -28.5t-0.5 -60.5q0 -17 -12.5 -29.5t-29.5 -12.5q-18 0 -30 12t-12 30v3.5v3.5
q0 35 1 60.5t7 45.5q15 47 49 81.5t80 48.5q20 6 45.5 7t59.5 1v0zM924 179q-3 6 -3 13t3 13l12 30q3 6 3 13t-3 14q-2 6 -7 11t-12 7l-30 13q-6 2 -11 7t-7 11l-13 30q-2 7 -7 12t-11 7q-7 3 -14 3t-13 -3l-30 -12q-6 -3 -13 -3t-13 3l-30 12q-6 3 -13 3t-14 -3
q-6 -2 -11 -7t-7 -12l-13 -30q-2 -6 -7 -11t-11 -7l-30 -13q-4 -1 -6.5 -3t-4.5 -4q-3 -3 -5 -5.5t-3 -5.5q-1 -4 -2 -7t-1 -7q0 -3 1 -6.5t2 -6.5l12 -30q3 -6 3 -13t-3 -13l-12 -30q-3 -6 -3 -13t3 -14q2 -6 7 -11t12 -7l30 -13q6 -2 11 -7t7 -11l13 -30q2 -7 7 -12t11 -7
q7 -3 14 -3t13 3l30 12q6 3 13 3t13 -3l30 -12q6 -3 13 -3t14 3q6 2 11 7t7 12l13 30q2 6 7 11t11 7l30 13q4 1 6.5 3t4.5 4q3 3 5 5.5t3 5.5q1 4 2 7t1 7q0 3 -1 6.5t-2 6.5zM841 221l-76 -76q-3 -3 -6.5 -4.5t-7.5 -1.5t-7.5 1.5t-6.5 4.5l-34 34q-5 5 -5 13t5 14
q6 5 13.5 5t13.5 -5l21 -21l63 63q5 6 13 6t14 -6q5 -5 5 -13t-5 -14v0v0z" />
    <glyph glyph-name="uniE950" unicode="&#xe950;" 
d="M173 530q8 55 33 102q26 48 65.5 83t90.5 54q51 20 107 20q62 0 117 -23q54 -24 94.5 -64.5t64.5 -94.5q23 -54 23 -116q0 -61 -22.5 -114t-61.5 -94q-1 0 -2 -1l-2 -2l-2 -2t-1 -2q-12 -11 -24 -20.5t-25 -18.5q-6 -17 -14.5 -33.5t-20.5 -31.5q-9 -12 -22.5 -27
t-29.5 -32q47 9 89.5 29t78.5 49l157 -157q12 -13 30 -13t30 13q13 12 13 30t-13 30l-157 157q40 49 62 110.5t22 129.5q0 79 -30 149t-82 122t-122 82q-70 31 -150 31q-79 0 -149 -31q-70 -30 -122 -82t-82 -122q-31 -70 -31 -149v-1v-1q21 17 43.5 27t44.5 14v0zM320 423
q39 25 87 25t90 -35q51 -43 57 -107.5t-34 -115.5q-22 -29 -69.5 -73.5t-75.5 -69.5l-0.5 -0.5l-0.5 -0.5q-3 -2 -6 -5t-6 -5q-4 -3 -9.5 -6.5t-12.5 -5.5q-10 -3 -20 -3t-20 3q-7 2 -12.5 5.5t-9.5 6.5q-3 2 -6.5 5t-5.5 5q-1 0 -1 0.5v0.5q-28 25 -75.5 69.5t-70.5 73.5
q-40 51 -33 115.5t57 106.5q42 36 90 36t87 -25v0zM285 328q-18 20 -41 23t-41 -13q-21 -18 -23.5 -43t13.5 -45q16 -21 56 -59t71 -65q30 27 70 65t57 59q16 21 13.5 45.5t-22.5 42.5q-20 16 -42.5 13t-40.5 -23q-7 -8 -16 -12.5t-19 -4.5t-19.5 4.5t-15.5 12.5z" />
    <glyph glyph-name="uniE952" unicode="&#xe952;" 
d="M317 497q-60 0 -103 43t-43 103t43 103t103 43t103 -43t43 -103t-43 -103t-103 -43v0zM317 704q-25 0 -43 -18t-18 -43t18 -43t43 -18t43 18t18 43t-18 43t-43 18v0zM317 107q-60 0 -103 43t-43 103t43 103t103 43t103 -43t43 -103t-43 -103t-103 -43v0zM317 314
q-25 0 -43 -18t-18 -43t18 -43t43 -18t43 18t18 43t-18 43t-43 18v0zM707 497q-60 0 -103 43t-43 103t43 103t103 43t103 -43t43 -103t-43 -103t-103 -43zM707 704q-25 0 -43 -18t-18 -43t18 -43t43 -18t43 18t18 43t-18 43t-43 18v0zM707 107q-60 0 -103 43t-43 103t43 103
t103 43t103 -43t43 -103t-43 -103t-103 -43zM707 314q-25 0 -43 -18t-18 -43t18 -43t43 -18t43 18t18 43t-18 43t-43 18z" />
    <glyph glyph-name="uniE953" unicode="&#xe953;" 
d="M953 108l-126 254q31 46 48 100.5t17 114.5q0 79 -30 149q-30 69 -81.5 121.5t-120.5 82.5t-148 30t-148 -30t-120.5 -82.5t-81.5 -121.5q-30 -70 -30 -149q0 -60 17 -114.5t48 -100.5l-126 -254q-3 -7 -2.5 -15t4.5 -14q4 -7 10.5 -10.5t14.5 -3.5h144l87 -117
q4 -6 10.5 -9t13.5 -3q9 0 16 5t10 12l120 240h6.5h6.5h6.5h6.5l120 -240q3 -7 10 -12t16 -5q7 0 13.5 3t10.5 9l87 117h144q8 0 14.5 3.5t10.5 10.5q4 6 4.5 14t-2.5 15v0v0zM348 23l-67 90q-4 5 -10.5 8.5t-13.5 3.5h-111l92 186q40 -41 90 -69.5t108 -40.5l-88 -178v0z
M191 577q0 66 26 125q25 59 68.5 103t101.5 70q59 25 125 25t125 -25q58 -26 101.5 -70t68.5 -103q26 -59 26 -125q0 -67 -26 -126q-25 -59 -68.5 -103t-101.5 -69q-59 -26 -125 -26t-125 26q-58 25 -101.5 69t-68.5 103q-26 59 -26 126v0v0zM767 125q-7 0 -13.5 -3.5
t-10.5 -8.5l-67 -90l-88 178q58 12 108 40.5t90 69.5l92 -186h-111v0zM664 527l83 100q5 6 6.5 13.5t-1.5 14.5q-2 8 -7.5 13t-13.5 7l-125 32l-69 110q-4 7 -10.5 10.5t-14.5 3.5t-14.5 -3.5t-10.5 -10.5l-69 -110l-125 -32q-8 -2 -13.5 -7t-7.5 -13q-3 -7 -1.5 -14.5
t6.5 -13.5l83 -100l-9 -130q0 -8 3 -15t9 -12q10 -7 18.5 -5.5t10.5 2.5l120 49l120 -49q7 -3 14.5 -2t14.5 5q6 5 9 12t3 15l-9 130v0zM610 556q-3 -4 -5 -9.5t-1 -11.5l6 -95l-87 36q-7 3 -13 2t-9 -2l-87 -36l6 95q1 6 -1 11.5t-5 9.5l-61 73l91 23q6 1 10.5 4.5t7.5 8.5
l50 80l50 -80q3 -5 7.5 -8.5t10.5 -4.5l91 -23l-61 -73v0z" />
    <glyph glyph-name="uniE954" unicode="&#xe954;" 
d="M847 741q-5 6 -13.5 6t-14.5 -6l-39 -39q-17 20 -42.5 32.5t-54.5 12.5v0q-24 0 -46.5 -9.5t-40.5 -26.5l-419 -420q-5 -5 -6 -11t1 -11q3 -6 8 -9t11 -3h248l68 -68h-16q-9 0 -14.5 -5.5t-5.5 -14.5q0 -8 5.5 -14t14.5 -6h128q8 0 14 6t6 14q0 9 -6 14.5t-14 5.5h-56
l-67 68h80q49 0 91 18q43 18 75 50t50 75q18 42 18 91v128q0 13 -2 25t-7 22l46 47q6 5 6 13.5t-6 14.5v0zM239 297l317 317v-80q0 -49 -18 -93q-19 -43 -51 -75t-76 -51q-43 -18 -92 -18h-80v0zM770 491q0 -40 -15 -76q-15 -35 -41.5 -61.5t-61.5 -41.5q-36 -15 -76 -15
h-114q61 36 97.5 98.5t36.5 138.5v80q0 19 7.5 37t20.5 31q12 12 27.5 18.5t31.5 6.5q36 0 61.5 -26t25.5 -62v-128v0zM705 619q8 0 14 6t6 14q0 9 -6 14.5t-14 5.5t-14 -5.5t-6 -14.5q0 -8 6 -14t14 -6z" />
    <glyph glyph-name="uniE955" unicode="&#xe955;" 
d="M567 871q13 -5 20 -17.5t5 -26.5l-32 -260h229h0.5h0.5h14h13l15 -3t20 -10q11 -9 17 -22t6 -27q-1 -13 -5.5 -22t-7.5 -14t-7.5 -10t-8.5 -11h-0.5t-0.5 -1l-338 -410q-9 -11 -23 -14.5t-27 2.5q-13 5 -20 17.5t-5 26.5l32 260h-229h-0.5h-0.5h-14h-13l-15 3t-20 10
q-11 9 -17 22t-6 27q1 13 5.5 22t7.5 14t7.5 10t8.5 11h0.5t0.5 1l338 410q9 11 23 14.5t27 -2.5v0zM261 414h251q9 0 17.5 -4t14.5 -11q6 -6 8.5 -15t1.5 -18l-20 -162l229 278h-251q-9 0 -17.5 4t-14.5 11q-6 6 -8.5 15t-1.5 18l20 162l-229 -278v0z" />
    <glyph glyph-name="uniE956" unicode="&#xe956;" 
d="M238 720q56 56 128 84t146 28t146 -28t128 -84q41 -40 67 -87.5t38 -99.5q4 -17 -5.5 -32t-26.5 -19q-18 -4 -33 5.5t-19 26.5q-9 40 -29 77t-52 68q-44 44 -100 66t-114 22t-114 -22t-100 -66q-31 -30 -52.5 -53t-35.5 -39h148q18 0 30.5 -12.5t12.5 -30.5t-12.5 -30.5
t-30.5 -12.5h-230q-18 0 -30.5 12.5t-12.5 30.5v227q0 18 12.5 30.5t30.5 12.5t30.5 -12.5t12.5 -30.5v-100q13 14 29.5 31.5t37.5 37.5v0zM165 414q18 4 33 -5.5t19 -26.5q9 -40 29 -77t52 -68q44 -44 100 -66t114 -22t114 22t100 66q31 30 52.5 53t35.5 39h-148
q-18 0 -30.5 12.5t-12.5 30.5t12.5 30.5t30.5 12.5h230q18 0 30.5 -12.5t12.5 -30.5v-227q0 -18 -12.5 -30.5t-30.5 -12.5t-30.5 12.5t-12.5 30.5v100q-13 -14 -29.5 -31.5t-37.5 -37.5q-56 -56 -128 -84t-146 -28t-146 28t-128 84q-41 40 -67 87.5t-38 99.5q-4 17 5.5 32
t26.5 19v0z" />
    <glyph glyph-name="uniE957" unicode="&#xe957;" 
d="M773 373v275q0 25 -17.5 42.5t-42.5 17.5h-20v21q0 25 -17.5 42.5t-42.5 17.5t-42.5 -17.5t-17.5 -42.5v-21h-40v21q0 25 -18 42.5t-42 17.5q-25 0 -43 -17.5t-18 -42.5v-21h-40v21q0 25 -17.5 42.5t-42.5 17.5t-42.5 -17.5t-17.5 -42.5v-21h-21q-25 0 -42.5 -17.5
t-17.5 -42.5v-400q0 -25 17.5 -42.5t42.5 -17.5h354q17 -36 51 -58.5t77 -22.5q58 0 99 41t41 99q0 41 -22 75t-58 51v0zM613 729q0 9 6 14.5t14 5.5t14 -5.5t6 -14.5v-21h-40v21v0zM452 729q0 9 6 14.5t15 5.5q8 0 14 -5.5t6 -14.5v-21h-41v21zM292 729q0 9 6 14.5t14 5.5
t14 -5.5t6 -14.5v-21h-40v21zM231 668h101v-20q0 -8 -6 -14t-14 -6t-14 -6t-6 -14t6 -14t14 -6q25 0 42.5 17.5t17.5 42.5v20h121v-20q0 -8 -6 -14t-14 -6q-9 0 -15 -6t-6 -14t6 -14t15 -6q24 0 42 17.5t18 42.5v20h120v-20q0 -8 -6 -14t-14 -6t-14 -6t-6 -14t6 -14t14 -6
q25 0 42.5 17.5t17.5 42.5v20h20q8 0 14 -6t6 -14v-100h-522v100q0 8 6 14t14 6v0zM231 228q-8 0 -14 6t-6 14v260h522v-123q-69 10 -119 -39t-41 -118h-342v0zM713 147q-42 0 -71.5 29t-29.5 71q0 41 29.5 70.5t71.5 29.5q41 0 70.5 -29.5t29.5 -70.5q0 -42 -29.5 -71
t-70.5 -29zM753 268h-20v20q0 8 -6 14t-14 6q-9 0 -14.5 -6t-5.5 -14v-40q0 -8 5.5 -14t14.5 -6h40q8 0 14 6t6 14t-6 14t-14 6v0zM311 468h-40q-8 0 -14 -6t-6 -14t6 -14t14 -6h40q9 0 14.5 6t5.5 14t-5.5 14t-14.5 6v0zM311 388h-40q-8 0 -14 -6t-6 -14t6 -14t14 -6h40
q9 0 14.5 6t5.5 14t-5.5 14t-14.5 6zM311 308h-40q-8 0 -14 -6t-6 -14t6 -14t14 -6h40q9 0 14.5 6t5.5 14t-5.5 14t-14.5 6zM432 468h-40q-9 0 -15 -6t-6 -14t6 -14t15 -6h40q8 0 14 6t6 14t-6 14t-14 6v0zM432 388h-40q-9 0 -15 -6t-6 -14t6 -14t15 -6h40q8 0 14 6t6 14
t-6 14t-14 6zM432 308h-40q-9 0 -15 -6t-6 -14t6 -14t15 -6h40q8 0 14 6t6 14t-6 14t-14 6zM512 428h40q8 0 14 6t6 14t-6 14t-14 6h-40q-8 0 -14 -6t-6 -14t6 -14t14 -6zM552 388h-40q-8 0 -14 -6t-6 -14t6 -14t14 -6h40q8 0 14 6t6 14t-6 14t-14 6zM632 428h41q8 0 14 6
t6 14t-6 14t-14 6h-41q-8 0 -14 -6t-6 -14t6 -14t14 -6z" />
    <glyph glyph-name="uniE958" unicode="&#xe958;" 
d="M853 652v117q0 9 -5.5 14.5t-14.5 5.5q-23 0 -37 -12.5t-24 -24.5q-11 -13 -23 -23t-34 -10t-33.5 10t-22.5 23q-11 12 -25 24.5t-37 12.5q-8 0 -14 -5.5t-6 -14.5v-117q0 -30 11.5 -55.5t31.5 -44.5q-1 -26 -20 -44.5t-45 -18.5h-22q-74 0 -128.5 -49.5t-61.5 -121.5
h-67q-53 -2 -79 -34q-26 -33 -26 -71.5t26 -71.5q26 -32 79 -34h488q17 0 31.5 9.5t21.5 25.5q6 14 4 29t-11 27v354q20 19 31.5 44.5t11.5 55.5v0zM362 147h-86q-65 2 -65.5 65.5t65.5 65.5h66v-46h-66q-20 0 -20 -19.5t20 -20.5l86 1q22 -1 22 -23t-22 -23v0zM420 147
q10 24 -2 49.5t-36 32.5v69q1 43 28 65t59 22t58 -22q27 -22 29 -65q0 -27 -19.5 -46.5t-46.5 -19.5q-8 0 -14 -5.5t-6 -14.5q0 -8 6 -14t14 -6h43q22 0 39 -12.5t24 -32.5h-176zM691 177q3 -4 4 -9.5t-1 -9.5q-2 -5 -6.5 -8t-9.5 -3h-41q-5 28 -24 49t-45 30q28 32 28 70
q0 37 -19 68t-54 49q-34 18 -75 11q19 12 40.5 18.5t44.5 6.5h22q36 0 64 22t37 56q26 -13 57 -13.5t57 11.5v-184q0 -27 -19 -46.5t-46 -19.5q-9 0 -14.5 -6t-5.5 -14v-64q0 -4 1.5 -8t4.5 -6v0zM780 158q-2 -5 -6.5 -8t-9.5 -3h-31q4 13 2 26.5t-10 24.5v39q12 2 23.5 7.5
t21.5 13.5v-67q0 -4 2 -8t5 -6q3 -4 4 -9.5t-1 -9.5zM715 554q-40 0 -69 28.5t-29 69.5v87q3 -3 5.5 -6t5.5 -6q12 -16 31.5 -32t55.5 -16q37 0 56.5 16t31.5 32q3 3 5.5 6t4.5 6v-87q0 -41 -28.5 -69.5t-69.5 -28.5z" />
    <glyph glyph-name="uniE959" unicode="&#xe959;" 
d="M833 789h-121q-25 0 -42.5 -17.5t-17.5 -42.5q0 -24 17.5 -42t42.5 -18h20q16 0 28 -12t12 -29t-12 -29t-28 -12h-20q-42 55 -104.5 87.5t-135.5 32.5q-62 0 -117 -24t-96 -64.5t-65 -95.5q-23 -54 -23 -116t23 -117q24 -55 65 -95.5t96 -64.5q55 -23 117 -23t117 23
q55 24 95.5 65t64.5 95q23 55 23 117q0 37 -9 72.5t-26 67.5q31 2 53 25.5t22 55.5q0 33 -23.5 57t-56.5 24h-20q-8 0 -14 6t-6 14q0 9 6 14.5t14 5.5h121q9 0 14.5 6t5.5 14q0 9 -5.5 14.5t-14.5 5.5zM211 407q0 53 20 101q21 47 56.5 82.5t82.5 55.5q48 21 102 21
q14 0 28 -1.5t28 -4.5q-58 -11 -109 -41q-50 -30 -87 -74.5t-59 -100.5q-21 -55 -21 -118q0 -18 2 -36t6 -36q-24 32 -36.5 70.5t-12.5 81.5v0zM323 193q-15 31 -23 64.5t-8 69.5q0 62 24 116q23 55 64 95.5t95 64.5q55 24 117 24q5 0 10 -0.5t9 -0.5q14 -8 26 -18t23 -22
q-78 -2 -143 -37q-66 -34 -110.5 -89.5t-63.5 -127.5q-20 -71 -5 -148q-4 2 -7.5 4t-7.5 5v0zM472 147q-23 0 -45 3.5t-43 11.5q-12 41 -12 85t13 87q59 -20 98.5 -69t46.5 -112q-14 -3 -28.5 -4.5t-29.5 -1.5v0zM611 187q-10 -6 -20.5 -11.5t-21.5 -9.5q-11 72 -57.5 127
t-112.5 79q7 13 14.5 26t16.5 25q39 -6 72 -26q34 -20 58 -48.5t38 -65.5q14 -36 14 -76v-10t-1 -10v0zM691 267q-8 -13 -18 -25t-21 -23q-2 43 -17 81q-16 39 -41 70.5t-60 53.5q-34 23 -75 34q13 13 27 24t29 20q77 -15 127 -75.5t50 -139.5v-10t-1 -10v0zM725 347
q-15 62 -57 110t-100 71q25 9 51 14t53 5q5 0 10 -0.5t9 -0.5q20 -30 30.5 -65.5t10.5 -73.5q0 -16 -1.5 -31t-5.5 -29z" />
    <glyph glyph-name="uniE95A" unicode="&#xe95a;" 
d="M851 250l-40 118q15 29 22 62t8 66q0 58 -21.5 111t-61.5 95q-40 41 -92 63.5t-109 23.5q-59 1 -113 -21t-96 -64q-40 -41 -61.5 -93.5t-22.5 -110.5q-40 -30 -62 -75t-22 -96q0 -23 5 -46.5t15 -44.5l-27 -81q-4 -10 -1.5 -20.5t10.5 -18.5q5 -6 12 -8.5t14 -2.5
q3 0 6 0.5t6 1.5l80 28q21 -11 43.5 -16t46.5 -5v0v0q51 0 95.5 23t74.5 65q31 0 61 7.5t58 21.5l115 -40q4 -1 7.5 -2t7.5 -1q9 0 17 3.5t14 10.5q9 9 12 21.5t-1 24.5v0zM390 157v0v0q-21 0 -41 5t-38 15q-4 2 -8 2.5t-8 -1.5l-82 -28l28 83q2 4 1.5 8t-2.5 8
q-10 18 -15 38.5t-5 41.5q0 34 12.5 65t35.5 55q7 -46 28 -87t54 -74t73.5 -53.5t85.5 -27.5q-24 -24 -54.5 -37t-64.5 -13v0zM812 233q-1 -1 -2 -1h-3l-123 43q-2 1 -3.5 1h-3.5t-4.5 -0.5t-4.5 -1.5q-27 -14 -56 -21.5t-59 -7.5h-1v0q-50 0 -95 19q-45 20 -78.5 53.5
t-53.5 78.5t-21 96q0 52 18.5 99t54.5 83q36 37 82 56t97 18t95 -21t77.5 -54.5t52.5 -79.5q19 -46 19 -97q0 -31 -7.5 -60.5t-21.5 -56.5q-2 -4 -2 -8t1 -8l42 -126q1 -1 0.5 -2t-0.5 -2v0zM673 606h-242q-8 0 -14 -6t-6 -15q0 -8 6 -14.5t14 -6.5h242q9 0 15 6.5t6 14.5
q0 9 -6 15t-15 6zM673 521h-242q-8 0 -14 -6t-6 -15q0 -8 6 -14t14 -6h242q9 0 15 6t6 14q0 9 -6 15t-15 6zM580 436h-149q-8 0 -14 -6t-6 -15q0 -8 6 -14t14 -6h149q8 0 14 6t6 14q0 9 -6 15t-14 6z" />
    <glyph glyph-name="uniE95B" unicode="&#xe95b;" 
d="M271 281h-20v20q0 9 -6 14.5t-14 5.5q-9 0 -14.5 -5.5t-5.5 -14.5v-20h-20q-9 0 -14.5 -5.5t-5.5 -14.5q0 -8 5.5 -14t14.5 -6h20v-20q0 -8 5.5 -14t14.5 -6q8 0 14 6t6 14v20h20q8 0 14 6t6 14q0 9 -6 14.5t-14 5.5zM833 187h-20v20q0 8 -5.5 14t-14.5 6q-8 0 -14 -6
t-6 -14v-20h-20q-8 0 -14 -6t-6 -14q0 -9 6 -14.5t14 -5.5h20v-20q0 -9 6 -14.5t14 -5.5q9 0 14.5 5.5t5.5 14.5v20h20q9 0 14.5 5.5t5.5 14.5q0 8 -5.5 14t-14.5 6zM753 709h20v-20q0 -8 6 -14t14 -6q9 0 14.5 6t5.5 14v20h20q9 0 14.5 6t5.5 14q0 9 -5.5 14.5t-14.5 5.5
h-20v20q0 9 -5.5 14.5t-14.5 5.5q-8 0 -14 -5.5t-6 -14.5v-20h-20q-8 0 -14 -5.5t-6 -14.5q0 -8 6 -14t14 -6zM706 474q33 16 46 50t1 68l-19 53q-14 37 -49.5 53.5t-72.5 3.5q-10 -4 -19 -9.5t-16 -13.5q-15 7 -31.5 11t-33.5 4t-33.5 -4t-31.5 -11q-7 8 -16 13.5t-19 9.5
q-37 13 -72.5 -3.5t-49.5 -53.5l-19 -53q-12 -34 1 -68t46 -50l0.5 -0.5t1.5 -0.5l11 -4l-11 -35q-4 -11 -6 -23.5t-2 -24.5q0 -30 10.5 -57t29.5 -49q-3 -5 -5 -11.5t-2 -12.5v-101q0 -12 6 -22.5t16 -16.5q6 -4 12.5 -5.5t12.5 -1.5q5 0 10.5 1t10.5 4l64 31h70l64 -31
q5 -3 10.5 -4t10.5 -1q6 0 12.5 1.5t12.5 5.5q10 6 16 16.5t6 22.5v101q0 6 -2 12.5t-5 11.5q19 22 29.5 49t10.5 57q0 12 -2 24.5t-6 23.5l-11 35l11 4q1 0 1.5 0.5l0.5 0.5v0v0zM335 510q-18 10 -25.5 29.5t-0.5 38.5l19 53q8 22 28.5 31.5t42.5 1.5q4 -1 7.5 -3t6.5 -5
q-14 -12 -25 -28.5t-17 -35.5l-28 -85l-8 3v0zM452 178l-57 -29q-2 -1 -4 -0.5t-3 1.5l-1.5 1.5t-1.5 3.5v101q0 2 1.5 3.5l1.5 1.5q1 1 2 1h2h1.5h1.5l57 -29v-55v0zM532 185h-40v40h40v-40zM639 155q0 -2 -1.5 -3.5l-1.5 -1.5q-1 -1 -3 -1.5t-4 0.5l-57 29v55l57 29
q2 1 4 0.5t3 -1.5l1.5 -1.5t1.5 -3.5v-101v0v0zM637 302q-6 1 -13 0t-13 -5l-64 -32h-70l-64 32q-6 4 -13 5t-13 0q-17 17 -26 38.5t-9 45.5q0 9 1.5 18t4.5 18l51 157q11 34 39.5 54.5t63.5 20.5t63.5 -20.5t39.5 -54.5l51 -157q3 -9 4.5 -18t1.5 -18q0 -24 -9 -45.5
t-26 -38.5v0v0zM689 510l-8 -3l-28 85q-6 19 -17 35.5t-25 28.5q3 3 6.5 5t7.5 3q22 8 42.5 -1.5t28.5 -31.5l19 -53q7 -19 -0.5 -38.5t-25.5 -29.5v0v0zM557 475q-8 4 -19 5.5t-26 1.5t-26 -1.5t-19 -5.5q-14 -5 -21 -15.5t-7 -24.5q0 -20 15 -41t38 -29v-36q0 -9 6 -14.5
t14 -5.5t14 5.5t6 14.5v36q23 8 38 29t15 41q0 14 -7 24.5t-21 15.5v0zM512 402q-14 0 -23.5 12.5t-9.5 20.5v1.5v0.5l6 2.5t27 2.5t27 -2.5l6 -2.5v-0.5v-1.5q0 -8 -9.5 -20.5t-23.5 -12.5v0zM596 547l-20 13q-5 4 -11 4t-11 -4l-20 -13q-7 -5 -8.5 -13t3.5 -15
q4 -7 12.5 -8.5t14.5 3.5l9 6l9 -6q3 -2 5.5 -3t5.5 -1q5 0 9.5 2.5t7.5 6.5q5 7 3 15t-9 13v0v0zM450 514l9 6l9 -6q6 -5 14.5 -3.5t12.5 8.5q5 7 3.5 15t-8.5 13l-20 13q-5 4 -11 4t-11 -4l-20 -13q-7 -5 -9 -13t3 -15q3 -4 7.5 -6.5t9.5 -2.5q3 0 5.5 1t5.5 3v0v0z
M224 749q8 0 14 6t6 14q0 9 -6 14.5t-14 5.5t-14 -5.5t-6 -14.5q0 -8 6 -14t14 -6zM801 368q9 0 14.5 6t5.5 14t-5.5 14t-14.5 6q-8 0 -14 -6t-6 -14t6 -14t14 -6z" />
    <glyph glyph-name="uniE95D" unicode="&#xe95d;" 
d="M769 407q-4 0 -8.5 0.5t-8.5 0.5q10 24 15 49t5 51q0 54 -21 101q-20 48 -55.5 83t-82.5 56q-47 20 -101 20t-101 -20q-47 -21 -82.5 -56t-55.5 -83q-21 -47 -21 -101q0 -26 5 -51t15 -49q-4 0 -8.5 -0.5t-8.5 -0.5q-48 -8 -72 -51t-4 -88q-20 -45 4.5 -88t71.5 -51
q32 -5 61 9t44 43q7 12 20.5 19.5t29.5 7.5h204q16 0 29.5 -7.5t20.5 -19.5q15 -29 44 -43t61 -9q47 8 71.5 51t4.5 88q20 45 -4 88t-72 51v0v0zM700 393q-4 -2 -7 -4t-6 -5q-35 18 -55 51.5t-20 72.5q0 41 22 75t58 51q38 -54 40 -119.5t-32 -121.5v0v0zM665 666
q-42 -24 -67.5 -66t-25.5 -92q0 -49 24 -90.5t66 -65.5q-9 -11 -19.5 -17.5t-22.5 -6.5h-216q-12 0 -22.5 6.5t-19.5 17.5q42 24 66 65.5t24 90.5q0 50 -25.5 92t-67.5 66q30 29 69 45.5t84 16.5t84 -16.5t69 -45.5v0zM332 634q36 -17 58 -51t22 -75q0 -39 -20 -72.5
t-55 -51.5q-3 3 -6 5t-7 4q-34 56 -32 121.5t40 119.5v0zM762 169q-19 -3 -36.5 5t-26.5 26q-12 22 -35 35t-50 13h-204q-27 0 -50 -13t-35 -35q-9 -18 -26.5 -26t-36.5 -5q-30 5 -45 32.5t2 56.5q3 5 3 10t-3 10q-18 31 0.5 60.5t52.5 29.5q16 0 30 -8t22 -22
q14 -23 35 -36.5t45 -13.5h216q24 0 45 13.5t35 36.5q9 16 26 24t36 5q31 -5 45 -33t-2 -56q-3 -5 -3 -10t3 -10q17 -29 2 -56.5t-45 -32.5v0v0z" />
    <glyph glyph-name="uniE95E" unicode="&#xe95e;" 
d="M728 319q0 26 18.5 44.5t44.5 18.5t44 -18.5t18 -44.5t-18 -44.5t-44 -18.5q-8 0 -15 2t-14 5q-19 -20 -66.5 -56t-98.5 -36q-44 0 -61 19t-20 31q-8 24 -0.5 51.5t27.5 41.5l8 6t8 7v0q58 43 107.5 91t49.5 116q0 49 -30.5 87t-76.5 49q24 -24 37.5 -56.5t13.5 -69.5
q0 -74 -53 -127t-127 -53q-11 0 -22 1t-22 4l-31 -31q-19 -19 -44 -29.5t-53 -10.5t-53 10.5t-44 29.5q-20 20 -30 45t-10 53t10 53t30 45l108 108q48 48 82 65.5t79 17.5q16 0 31.5 -2.5t29.5 -7.5h35q74 0 127 -53t53 -128q0 -38 -14 -72.5t-43 -67.5q-24 -28 -54.5 -52.5
t-61.5 -47.5l-8 -6l-8 -6q-8 -6 -13 -21t0 -28q3 -11 14 -16.5t29 -5.5q37 0 76.5 29.5t60.5 51.5q-3 6 -4.5 13t-1.5 14v0zM542 714h-1h1v0zM480 404q58 0 99 41t41 99q0 59 -41 100t-99 41q-33 0 -60 -12.5t-73 -58.5l-108 -109q-14 -14 -21 -31.5t-7 -37.5t7 -37.5
t21 -31.5t32 -21.5t37 -7.5q20 0 37.5 7.5t31.5 21.5l39 39q4 4 9.5 5.5t10.5 -0.5q11 -4 22 -5.5t22 -1.5v0zM768 319q0 -9 6.5 -15.5t16.5 -6.5q9 0 15.5 6.5t6.5 15.5q0 10 -6.5 16.5t-15.5 6.5q-10 0 -16.5 -6.5t-6.5 -16.5zM372 589q8 9 20 13.5t24 4.5t24 -4.5
t20 -13.5q18 -18 18 -44.5t-18 -44.5l-108 -109q-18 -18 -44 -18t-44 18t-18 44.5t18 44.5l108 109v0zM324 420l108 108q7 7 6.5 16.5t-6.5 16.5q-7 6 -16 6t-16 -6l-108 -109q-7 -7 -7 -16.5t7 -15.5q6 -7 16 -7t16 7v0z" />
    <glyph glyph-name="uniE95F" unicode="&#xe95f;" 
d="M598 684q57 -11 100 -37q44 -27 75.5 -65.5t51.5 -88.5q19 -49 28 -106q1 -4 0 -7.5t-3 -6.5q-2 -4 -5.5 -6t-8.5 -4h-0.5h-1.5q-62 -27 -137 -25.5t-142 14.5q-65 13 -109.5 28.5t-47.5 16.5q-37 15 -71 9t-63 -32q-17 -15 -27.5 -30t-16.5 -24q21 -33 49.5 -50.5
t64.5 -18.5q30 -1 52 5.5t22 7.5q9 3 17.5 -1.5t10.5 -13.5q7 -37 2.5 -65t-21.5 -47q-18 -22 -39.5 -26t-25.5 -4q-3 0 -5.5 0.5t-4.5 2.5q-2 1 -24 16q-21 14 -48.5 40.5t-53.5 64.5q-26 37 -38 84v0q-10 40 -6 83q3 43 21.5 85.5t52.5 82.5q35 40 88 75q21 14 42 23
t51 16q-9 15 -26 31t-52 24q-15 3 -16.5 18t13.5 20q50 18 99 16t92 -32q24 -17 38.5 -37.5t22.5 -35.5v0zM387 163q8 9 11 23t2 33q-32 -9 -65 -8.5t-64 13.5q26 -31 51 -50.5t35 -26.5q6 1 14.5 4t15.5 12v0zM585 540q-13 -45 1 -89t27 -68q48 -6 100.5 -5t97.5 18
q-14 75 -51 135.5t-105 92.5q-28 -16 -45.5 -37.5t-24.5 -46.5zM468 687q17 2 37 3t43 0q-17 23 -48.5 43t-81.5 16q21 -15 32.5 -32t17.5 -30v0zM211 377q43 52 96 65.5t106 -8.5q1 0 44.5 -15t106.5 -28q-30 70 -22.5 136.5t66.5 113.5q-27 7 -56 9t-58 0q-24 -2 -50.5 -7
t-48.5 -14q-10 -4 -19 -9t-20 -12q-90 -59 -117 -122.5t-28 -108.5v0zM684 512q0 8 6 14t14 6t14 -6t6 -14t-6 -14t-14 -6t-14 6t-6 14z" />
    </font>
</defs>
</svg>
