<svg width="161" height="30" viewBox="0 0 161 30" fill="none" xmlns="http://www.w3.org/2000/svg">
<path d="M26 13H32.2283C35.6463 13 38.0026 15.1664 38.0026 18.3145C38.0143 21.4627 35.6603 23.6291 32.2283 23.6291H29.1083V29.7598H26V13ZM31.8698 20.938C33.616 20.938 34.7267 19.9213 34.7267 18.3169C34.7267 16.7125 33.616 15.7191 31.8698 15.7191H29.1083V20.938H31.8698Z" fill="#0A6638"/>
<path d="M38.0376 23.7271C38.0376 20.1125 40.7152 17.5497 44.4918 17.5497C48.2684 17.5497 50.7318 19.9329 50.6247 23.6921H40.9294C40.9783 25.9914 42.4242 27.4745 44.4918 27.4745C46.3335 27.4745 47.684 26.3855 47.826 24.8277H50.8738C50.6829 27.9176 48.0402 30 44.5616 30C40.678 30 38.0353 27.3789 38.0353 23.7271H38.0376ZM47.4558 21.5723C46.9785 20.411 45.9261 19.765 44.4685 19.765C43.011 19.765 41.898 20.4483 41.3485 21.5723H47.4558Z" fill="#0A6638"/>
<path d="M53.3022 20.2547H51.1019V18.051L51.868 18.002C53.0275 17.9297 53.542 17.3444 53.6002 16.0268L53.6957 14.3385H56.2546V17.7875H59.314V20.2547H56.2546V29.7598H53.3022V20.2547Z" fill="#0A6638"/>
<path d="M59.0532 25.0679H62.1243C62.136 26.6117 63.4026 27.6541 65.3048 27.6541C66.8113 27.6541 67.8521 27.0081 67.8521 25.9657C67.8521 24.9956 66.9673 24.8044 66.3945 24.7205L63.6214 24.373C62.1266 24.1818 60.0707 23.5592 60.0707 21.2715C60.0707 18.9839 61.9823 17.5474 64.9486 17.5474C67.9149 17.5474 69.7427 18.7926 70.0407 20.9963H67.0045C66.7647 20.2058 66.001 19.7627 64.9253 19.7627C63.8496 19.7627 62.9765 20.2664 62.9765 21.1153C62.9765 21.9641 63.8496 22.181 64.3991 22.2533L67.1372 22.5891C68.7042 22.7919 70.8184 23.4519 70.8184 25.8328C70.8184 28.2138 68.5948 30 65.2606 30C61.6982 30 59.1394 28.0598 59.0579 25.0679H59.0532Z" fill="#0A6638"/>
<path d="M85.8828 26.7866H83.3775V29.7598H80.2691V26.7866H72.2643V24.2867H72.2876L80.3157 13H83.3798V23.9486H85.8851V26.7889L85.8828 26.7866ZM80.2715 23.9462V17.6826L75.822 23.9462H80.2715Z" fill="#0A6638"/>
<path d="M97.1753 22.2299H90.3858V29.7598H87.2775V13H90.3858V19.3802H97.1753V13H100.284V29.7598H97.1753V22.2299Z" fill="#0A6638"/>
<path d="M101.683 23.7737C101.683 20.1452 104.444 17.5474 108.316 17.5474C112.188 17.5474 114.95 20.1452 114.95 23.7737C114.95 27.4022 112.188 30 108.316 30C104.444 30 101.683 27.4022 101.683 23.7737ZM108.316 27.4489C110.421 27.4489 111.951 25.9051 111.951 23.7737C111.951 21.6423 110.421 20.0985 108.316 20.0985C106.212 20.0985 104.694 21.6423 104.694 23.7737C104.694 25.9051 106.212 27.4489 108.316 27.4489Z" fill="#0A6638"/>
<path d="M129.428 20.1218C127.933 20.1218 126.99 21.2225 126.99 23.1138V29.7575H124.014V22.7057C124.014 21.0663 123.202 20.1195 121.828 20.1195C120.333 20.1195 119.39 21.2319 119.39 23.1604V29.7575H116.414V17.7852H119.39V20.0006H119.402C120.072 18.4452 121.351 17.5474 123.048 17.5474C124.745 17.5474 126.024 18.4568 126.622 20.0146C127.339 18.4592 128.689 17.5474 130.482 17.5474C132.992 17.5474 134.594 19.343 134.594 22.2276V29.7575H131.607V22.7057C131.607 21.0663 130.806 20.1195 129.432 20.1195L129.428 20.1218Z" fill="#0A6638"/>
<path d="M135.8 23.7271C135.8 20.1125 138.478 17.5497 142.254 17.5497C146.031 17.5497 148.494 19.9329 148.387 23.6921H138.692C138.741 25.9914 140.187 27.4745 142.254 27.4745C144.096 27.4745 145.447 26.3855 145.589 24.8277H148.636C148.446 27.9176 145.803 30 142.324 30C138.441 30 135.798 27.3789 135.798 23.7271H135.8ZM145.218 21.5723C144.741 20.411 143.689 19.765 142.231 19.765C140.774 19.765 139.661 20.4483 139.111 21.5723H145.218Z" fill="#0A6638"/>
<path d="M149.235 25.0679H152.306C152.318 26.6117 153.584 27.6541 155.486 27.6541C156.993 27.6541 158.034 27.0081 158.034 25.9657C158.034 24.9956 157.149 24.8044 156.576 24.7205L153.803 24.373C152.308 24.1818 150.252 23.5592 150.252 21.2715C150.252 18.9839 152.164 17.5474 155.13 17.5474C158.097 17.5474 159.924 18.7926 160.222 20.9963H157.186C156.946 20.2058 156.183 19.7627 155.107 19.7627C154.031 19.7627 153.158 20.2664 153.158 21.1153C153.158 21.9641 154.031 22.181 154.581 22.2533L157.319 22.5891C158.886 22.7919 161 23.4519 161 25.8328C161 28.2138 158.776 30 155.442 30C151.88 30 149.321 28.0598 149.24 25.0679H149.235Z" fill="#0A6638"/>
<path d="M22.7136 3.05735L19.6645 0L15.2647 4.41176L13.9755 3.11912C12.2574 1.39632 9.47229 1.39632 7.75416 3.11912L2.06517 8.82353C2.06517 8.88971 2.06737 10.1846 2.06517 12.3529C2.06517 14.7926 4.0363 16.7713 6.46941 16.7713H6.46281C5.25065 16.7713 4.15069 17.2632 3.35652 18.0596L1.183 15.8801L1.03121 16.0324C-0.343737 17.411 -0.343737 19.6456 1.03121 21.0243L2.06297 22.0588V30H9.10271V23.8235C9.10271 23.336 9.49649 22.9412 9.98267 22.9412C10.4689 22.9412 10.8626 23.336 10.8626 23.8235V30H17.9024V14.1176L22.7114 9.29559C24.4295 7.57279 24.4295 4.78015 22.7114 3.05735H22.7136ZM9.10271 16.7735V10.5904C9.10271 10.1029 9.49649 9.70809 9.98048 9.70809C10.4667 9.70809 10.8604 10.1029 10.8604 10.5904V16.7757H9.10051L9.10271 16.7735ZM12.6556 7.06103C12.1694 7.06103 11.7756 6.66618 11.7756 6.17868C11.7756 5.69118 12.1694 5.29632 12.6556 5.29632C13.1418 5.29632 13.5355 5.69118 13.5355 6.17868C13.5355 6.66618 13.1418 7.06103 12.6556 7.06103Z" fill="#0A6638"/>
</svg>
