<svg xmlns="http://www.w3.org/2000/svg" width="280" height="256" viewBox="0 0 280 256" fill="none"><rect width="280" height="256" fill="#916EFF"></rect><g clip-path="url(#clip0_266_13288)"><path d="M209.339 79.2185C209.416 79.1647 209.472 79.131 209.523 79.0899C210.082 78.6381 210.628 78.1678 211.202 77.7376C212.332 76.8935 213.594 76.3912 215.003 76.347C215.915 76.317 216.797 76.4827 217.63 76.8692C218.79 77.4065 219.676 78.238 220.248 79.3861C220.906 80.7075 221.009 82.1051 220.687 83.5474C220.463 84.5481 220.053 85.4709 219.52 86.3452C219.013 87.1802 218.42 87.9465 217.722 88.6275C216.985 89.3474 216.185 89.9928 215.281 90.4827C214.406 90.9558 213.516 91.4014 212.616 91.8198C211.657 92.2651 210.684 92.6819 209.706 93.0803C208.842 93.4329 207.966 93.7574 207.086 94.0687C206.115 94.4125 205.137 94.7394 204.157 95.0544C203.075 95.402 201.987 95.7303 200.9 96.0614C200.76 96.104 200.611 96.1341 200.465 96.1391C200.187 96.1481 200.02 96.0305 199.935 95.7633C199.886 95.6077 199.857 95.4402 199.85 95.2765C199.794 93.9813 199.531 92.7325 199.088 91.5216C198.944 91.1272 198.834 90.7209 198.69 90.3274C198.482 89.7585 198.256 89.1959 198.042 88.6292C197.629 87.5385 197.255 86.4352 196.971 85.3006C196.718 84.2908 196.48 83.2796 196.343 82.2446C196.162 80.8682 196.183 79.4981 196.477 78.1328C196.599 77.5637 196.775 77.0127 196.999 76.4775C197.474 75.3439 198.225 74.42 199.155 73.6321C200.171 72.7697 201.327 72.1688 202.591 71.7935C203.739 71.453 204.894 71.4258 206.03 71.8217C206.851 72.1073 207.506 72.628 208.04 73.3124C208.712 74.172 209.058 75.1647 209.219 76.2365C209.331 76.9793 209.324 77.7277 209.321 78.4774C209.32 78.7113 209.331 78.9443 209.337 79.219L209.339 79.2185Z" fill="#FF88FF"></path></g><g clip-path="url(#clip1_266_13288)"><path d="M56.5736 71.893C56.5922 71.8003 56.6091 71.7372 56.617 71.6724C56.7059 70.959 56.7724 70.2415 56.8872 69.5331C57.1139 68.1417 57.6737 66.9039 58.6571 65.8941C59.2931 65.239 60.043 64.746 60.9109 64.446C62.1184 64.0277 63.3333 64.0112 64.5425 64.4402C65.9336 64.9342 66.978 65.8687 67.7472 67.1306C68.2805 68.0065 68.626 68.9555 68.8497 69.9544C69.0638 70.9078 69.1695 71.8706 69.1398 72.8454C69.1088 73.8754 68.9813 74.895 68.6702 75.8758C68.3692 76.8234 68.0378 77.762 67.6804 78.6881C67.2997 79.6739 66.8884 80.6496 66.4612 81.6151C66.0839 82.4688 65.6786 83.3106 65.2616 84.1452C64.801 85.0672 64.3243 85.9811 63.8371 86.8886C63.2998 87.8897 62.7448 88.8812 62.1923 89.874C62.1208 90.0021 62.0346 90.1271 61.9329 90.2321C61.7389 90.4317 61.5372 90.4629 61.2909 90.3293C61.1474 90.2514 61.0098 90.1514 60.8916 90.0379C59.9521 89.1447 58.8956 88.4287 57.7365 87.8642C57.3592 87.6801 56.9977 87.4644 56.6207 87.2813C56.0765 87.0157 55.5229 86.768 54.9753 86.5089C53.9211 86.0103 52.8858 85.4759 51.8936 84.8565C51.0111 84.3047 50.1372 83.7428 49.3203 83.0927C48.2344 82.2278 47.2984 81.2271 46.5624 80.04C46.2553 79.5456 45.9992 79.0271 45.7893 78.486C45.3439 77.3406 45.2435 76.1539 45.3655 74.9415C45.4985 73.6152 45.9129 72.3806 46.5626 71.2326C47.1522 70.1909 47.9647 69.3694 49.0572 68.8658C49.8462 68.5016 50.6791 68.4217 51.5391 68.543C52.6196 68.6952 53.5573 69.17 54.4174 69.8296C55.0134 70.2868 55.5284 70.8298 56.0463 71.372C56.2079 71.541 56.3775 71.7011 56.5729 71.8942L56.5736 71.893Z" fill="#FF88FF"></path></g><g clip-path="url(#clip2_266_13288)"><path d="M37.3122 57.2526C37.3293 57.2207 37.3425 57.1994 37.3526 57.1766C37.4647 56.925 37.569 56.6694 37.6901 56.4226C37.9282 55.9379 38.2713 55.5466 38.7443 55.2861C39.0504 55.1168 39.3802 55.0197 39.7317 55.0064C40.2209 54.9877 40.668 55.117 41.0634 55.409C41.5182 55.7451 41.7969 56.204 41.9382 56.7522C42.0361 57.1327 42.0569 57.519 42.0276 57.91C41.9998 58.2833 41.9313 58.648 41.8118 59.002C41.6856 59.376 41.5253 59.7355 41.302 60.0603C41.086 60.3741 40.86 60.6812 40.6258 60.9808C40.3764 61.2997 40.1169 61.6115 39.8528 61.9178C39.6193 62.1886 39.377 62.452 39.1311 62.7114C38.8596 62.998 38.583 63.2799 38.3033 63.5582C37.9949 63.8652 37.6809 64.1668 37.3678 64.4691C37.3273 64.5081 37.2818 64.5443 37.2328 64.5714C37.1395 64.623 37.0621 64.6119 36.9867 64.5355C36.9428 64.491 36.9035 64.439 36.8728 64.3842C36.628 63.9521 36.3205 63.572 35.9586 63.2359C35.8409 63.1264 35.7324 63.0071 35.6146 62.8979C35.4448 62.7399 35.2694 62.5875 35.0976 62.4315C34.7668 62.1313 34.4469 61.82 34.1523 61.4824C33.8903 61.1819 33.6326 60.8785 33.4056 60.5492C33.104 60.1112 32.8725 59.6401 32.735 59.123C32.6775 58.9076 32.6414 58.689 32.6248 58.4673C32.5892 57.9979 32.6846 57.5517 32.8645 57.121C33.061 56.6496 33.3505 56.2433 33.7165 55.895C34.0487 55.5789 34.438 55.3683 34.8946 55.3055C35.2244 55.2599 35.5385 55.3234 35.8402 55.4637C36.2193 55.6399 36.5101 55.9185 36.7518 56.256C36.9193 56.49 37.0475 56.7464 37.1769 57.0028C37.2173 57.0828 37.2616 57.1604 37.3118 57.253L37.3122 57.2526Z" fill="#FF88FF"></path></g><g clip-path="url(#clip3_266_13288)"><path d="M240.412 28.7533C240.441 28.7002 240.463 28.6647 240.48 28.6266C240.667 28.207 240.841 27.7809 241.043 27.3692C241.44 26.5609 242.012 25.9083 242.801 25.4738C243.311 25.1916 243.861 25.0296 244.447 25.0075C245.263 24.9762 246.009 25.1919 246.668 25.6788C247.427 26.2393 247.891 27.0046 248.127 27.9189C248.29 28.5534 248.325 29.1976 248.276 29.8498C248.23 30.4724 248.116 31.0805 247.916 31.6708C247.706 32.2946 247.438 32.8941 247.066 33.4358C246.706 33.9591 246.329 34.4712 245.938 34.9709C245.523 35.5027 245.09 36.0227 244.649 36.5334C244.26 36.9851 243.856 37.4244 243.446 37.857C242.993 38.3349 242.532 38.805 242.065 39.2691C241.551 39.7812 241.027 40.2841 240.505 40.7883C240.438 40.8533 240.362 40.9137 240.28 40.9589C240.124 41.0449 239.995 41.0265 239.869 40.899C239.796 40.8248 239.731 40.7381 239.68 40.6468C239.271 39.9262 238.759 39.2922 238.155 38.7318C237.959 38.5491 237.778 38.3501 237.581 38.1681C237.298 37.9046 237.006 37.6503 236.719 37.3902C236.167 36.8895 235.634 36.3705 235.143 35.8075C234.706 35.3062 234.276 34.8003 233.897 34.2512C233.394 33.5207 233.008 32.7351 232.779 31.8727C232.683 31.5134 232.623 31.1489 232.595 30.7791C232.536 29.9962 232.695 29.2522 232.995 28.5338C233.323 27.7478 233.805 27.0703 234.416 26.4893C234.97 25.9621 235.619 25.611 236.381 25.5062C236.93 25.4302 237.454 25.5361 237.958 25.7701C238.59 26.0639 239.075 26.5284 239.478 27.0914C239.757 27.4816 239.971 27.9093 240.187 28.3369C240.254 28.4702 240.328 28.5996 240.412 28.754L240.412 28.7533Z" fill="#FF88FF"></path></g><g clip-path="url(#clip4_266_13288)"><path d="M234.965 53.1973C234.968 53.1725 234.972 53.1555 234.973 53.1382C234.986 52.9478 234.993 52.7566 235.013 52.5671C235.053 52.1949 235.183 51.8585 235.429 51.5764C235.588 51.3934 235.779 51.2516 236.005 51.1593C236.319 51.0307 236.641 51.0084 236.968 51.1044C237.344 51.2148 237.634 51.4472 237.857 51.7704C238.011 51.9948 238.117 52.2413 238.191 52.5028C238.261 52.7524 238.304 53.006 238.31 53.2649C238.317 53.5384 238.298 53.8106 238.23 54.0751C238.164 54.3308 238.09 54.5845 238.009 54.8352C237.923 55.1022 237.828 55.3669 237.729 55.6291C237.642 55.861 237.546 56.0901 237.448 56.3175C237.34 56.5687 237.227 56.818 237.111 57.0657C236.983 57.339 236.851 57.61 236.719 57.8813C236.702 57.9163 236.681 57.9507 236.655 57.9801C236.607 58.0359 236.554 58.0471 236.487 58.0153C236.447 57.9968 236.409 57.9723 236.376 57.9439C236.114 57.721 235.824 57.5467 235.508 57.4141C235.405 57.3709 235.306 57.319 235.204 57.276C235.056 57.2136 234.905 57.1561 234.756 57.0954C234.469 56.9788 234.187 56.8523 233.915 56.7027C233.673 56.5695 233.433 56.4334 233.207 56.273C232.906 56.0597 232.643 55.8082 232.431 55.5043C232.342 55.3778 232.267 55.2441 232.203 55.1038C232.068 54.8067 232.024 54.4936 232.038 54.1704C232.054 53.8168 232.146 53.4834 232.301 53.1695C232.442 52.8847 232.645 52.655 232.928 52.5054C233.131 52.3973 233.351 52.3638 233.581 52.3833C233.87 52.4078 234.125 52.5198 234.363 52.682C234.528 52.7945 234.672 52.9308 234.817 53.0669C234.863 53.1094 234.91 53.1493 234.965 53.1976L234.965 53.1973Z" fill="#FF88FF"></path></g><g clip-path="url(#clip5_266_13288)"><path d="M187.898 94.0948C187.913 94.0653 187.924 94.0456 187.932 94.0245C188.025 93.7926 188.111 93.5573 188.212 93.3294C188.411 92.8818 188.709 92.5152 189.128 92.2627C189.4 92.0988 189.696 91.9993 190.014 91.9752C190.457 91.9413 190.866 92.0431 191.235 92.2941C191.659 92.583 191.927 92.9894 192.074 93.4814C192.176 93.8229 192.208 94.1724 192.195 94.5279C192.183 94.8672 192.133 95.2001 192.037 95.5251C191.936 95.8686 191.803 96.2 191.612 96.5021C191.427 96.794 191.233 97.0802 191.031 97.3598C190.816 97.6575 190.591 97.9491 190.362 98.2358C190.16 98.4894 189.949 98.7365 189.736 98.9802C189.499 99.2493 189.258 99.5144 189.014 99.7763C188.745 100.065 188.471 100.349 188.198 100.634C188.163 100.671 188.122 100.705 188.079 100.732C187.996 100.782 187.926 100.774 187.855 100.708C187.813 100.669 187.776 100.623 187.746 100.575C187.509 100.191 187.218 99.8573 186.878 99.5652C186.767 99.47 186.665 99.3656 186.554 99.2707C186.395 99.1334 186.231 99.0012 186.07 98.8657C185.759 98.605 185.459 98.334 185.18 98.0381C184.932 97.7747 184.688 97.5087 184.471 97.218C184.182 96.8314 183.956 96.4124 183.814 95.9484C183.754 95.7551 183.714 95.5582 183.691 95.3578C183.643 94.9335 183.714 94.5258 183.862 94.1291C184.024 93.6951 184.272 93.3168 184.592 92.9884C184.882 92.6903 185.228 92.486 185.639 92.4133C185.937 92.3606 186.224 92.4074 186.502 92.5241C186.852 92.6707 187.125 92.9132 187.356 93.2108C187.516 93.4171 187.641 93.6451 187.767 93.8731C187.806 93.9442 187.849 94.013 187.898 94.0952L187.898 94.0948Z" fill="#FF88FF"></path></g><defs><clipPath id="clip0_266_13288"><rect width="24.5951" height="25.0592" fill="white" transform="translate(201.1 68.4141) rotate(27.074)"></rect></clipPath><clipPath id="clip1_266_13288"><rect width="24.5951" height="25.0592" fill="white" transform="translate(43.1426 69.8359) rotate(-16.8896)"></rect></clipPath><clipPath id="clip2_266_13288"><rect width="9.42203" height="9.5998" fill="white" transform="translate(32.6191 55) rotate(0.0214701)"></rect></clipPath><clipPath id="clip3_266_13288"><rect width="15.7131" height="16.0095" fill="white" transform="translate(232.585 25) rotate(0.0214701)"></rect></clipPath><clipPath id="clip4_266_13288"><rect width="6.53011" height="6.65332" fill="white" transform="translate(231.375 52.8496) rotate(-20.0664)"></rect></clipPath><clipPath id="clip5_266_13288"><rect width="8.54691" height="8.70817" fill="white" transform="translate(183.565 92.2168) rotate(-2.16072)"></rect></clipPath></defs></svg>