<svg width="201" height="200" viewBox="0 0 201 200" fill="none" xmlns="http://www.w3.org/2000/svg">
<path d="M154.4 122.272L120.41 127.339C118.77 119.996 117.899 116.336 117.325 113.707C114.927 102.786 105.438 99.0388 102.81 98.209C102.48 100.189 90.946 107.048 85.7113 103.912C66.5486 128.932 54.73 145.282 29.4053 169.252C25.5108 172.863 36.8538 185.264 40.7672 181.709C65.1387 159.871 78.0956 147.919 96.4772 125.546L92.9241 113.749L108.161 139.928C109.244 141.785 110.871 143.265 112.821 144.168C114.772 145.07 116.952 145.352 119.069 144.976L157.256 138.095C160.679 137.536 157.906 121.639 154.4 122.272Z" fill="#FF88FF"/>
<path d="M69.1804 39.6038L63.4711 13.082L54.6803 14.9725C54.2244 15.0787 53.808 15.3122 53.4796 15.6457C53.1512 15.9794 52.9242 16.3994 52.8252 16.8569C52.7262 17.3144 52.7591 17.7906 52.9202 18.2302C53.0812 18.6697 53.3638 19.0544 53.735 19.3396C54.5814 19.9917 55.2237 20.8722 55.5864 21.8771C55.9491 22.8822 56.017 23.9699 55.7822 25.0123C55.5474 26.0545 55.0196 27.0081 54.261 27.7605C53.5023 28.5128 52.5445 29.0327 51.5002 29.2589C50.456 29.4851 49.3689 29.4082 48.3669 29.0372C47.3649 28.6661 46.4898 28.0165 45.8448 27.1648C45.1996 26.313 44.8114 25.2948 44.7257 24.2297C44.64 23.1648 44.8604 22.0974 45.3611 21.1535C45.5798 20.7409 45.6769 20.2749 45.6411 19.8093C45.6054 19.3438 45.4381 18.898 45.1588 18.5238C44.8796 18.1496 44.4998 17.8624 44.0637 17.6955C43.6277 17.5288 43.1532 17.4892 42.6955 17.5814L34.4907 19.3396L40.203 45.8613C40.3384 46.4881 40.7172 47.0353 41.2561 47.3828C41.795 47.7301 42.4498 47.8493 43.0766 47.714L56.5548 44.8215C56.6812 43.4544 56.927 40.6585 57.5757 39.7928C58.313 38.8107 58.8424 42.0813 59.2015 44.2355L67.3307 42.4773C67.9568 42.341 68.5031 41.9618 68.8499 41.4231C69.1966 40.8844 69.3155 40.2301 69.1804 39.6038Z" fill="#FF88FF"/>
<path d="M93.0563 66.1816L91.2464 68.2423C91.1783 67.7688 91.0526 67.3053 90.8723 66.8622C91.6199 66.7037 92.3511 66.4759 93.0563 66.1816Z" fill="#916EFF"/>
<path d="M106.213 84.1602C105.644 85.6968 105.176 87.2693 104.814 88.8675C107.158 88.961 107.31 89.0177 109.54 89.0177L106.213 84.1602Z" fill="#916EFF"/>
<path d="M98.4104 123.14C97.7676 123.953 97.106 124.747 96.4821 125.541L92.929 113.744L98.4104 123.14Z" fill="#916EFF"/>
<path d="M100.239 54.6317C94.2313 47.7503 90.5608 50.9263 88.5598 54.8586C90.6772 50.8507 94.0224 52.0606 94.7786 56.4844C94.8542 56.9948 95.1378 56.957 95.1945 56.9192C95.4973 56.8389 95.7804 56.6974 96.0263 56.5033C97.7845 55.2745 98.9944 58.356 96.3666 59.2445C96.0251 61.1549 95.8292 63.0884 95.7805 65.0285C95.7805 65.0285 106.686 61.9897 100.239 54.6317Z" fill="#916EFF"/>
<path d="M107.196 52.9498C104.965 55.2751 101.473 55.5537 99.3885 53.5548C97.304 51.5558 97.4224 48.0534 99.6532 45.7281C101.884 43.4028 105.376 43.1242 107.461 45.1231C109.545 47.1221 109.427 50.6245 107.196 52.9498Z" fill="#916EFF"/>
<path d="M28.8599 172.859C17.3717 181.888 10.3529 185.627 10.539 187.132C10.937 190.364 22.8084 185.071 28.7624 185.563C30.1726 185.711 31.5984 185.582 32.9593 185.184C34.4907 184.712 35.6458 183.426 37.1184 181.933C33.3375 180.034 30.3949 176.802 28.8599 172.859Z" fill="#916EFF"/>
<path d="M166.369 124.823C162.181 121.92 160.399 122.933 156.558 123.935C158.356 127.651 159.096 131.791 158.695 135.901C163.552 135.221 169.299 134.52 172.853 134.309C178.015 134.01 182.532 133.553 182.892 132.702C184.18 129.72 171.245 128.263 166.369 124.823Z" fill="#916EFF"/>
<path d="M149.314 71.512L145.307 71.91C146.214 69.3021 147.934 69.111 149.314 71.512Z" fill="#916EFF"/>
<path d="M150.071 83.0078C149.182 84.9739 147.764 85.0496 146.554 83.2914L150.071 83.0078Z" fill="#916EFF"/>
<path d="M124.134 34.5936C124.05 34.6117 123.962 34.6129 123.877 34.597C123.793 34.5811 123.711 34.5484 123.64 34.5009C123.567 34.4533 123.505 34.3919 123.458 34.3203C123.409 34.2486 123.376 34.168 123.359 34.0832L121.752 26.2227C121.717 26.0547 121.75 25.8797 121.844 25.7361C121.938 25.5926 122.085 25.4922 122.253 25.457C122.421 25.4219 122.596 25.4551 122.74 25.549C122.883 25.6429 122.984 25.7901 123.019 25.958L124.626 33.8185C124.648 33.9018 124.653 33.9889 124.64 34.074C124.627 34.1592 124.596 34.2408 124.549 34.3136C124.503 34.3864 124.443 34.4489 124.371 34.497C124.299 34.5453 124.219 34.5781 124.134 34.5936Z" fill="#916EFF"/>
<path d="M80.8436 81.4004L77.8586 88.6778C78.5392 88.7345 79.2387 88.7723 79.9193 88.8102C79.5406 86.3022 79.8604 83.7384 80.8436 81.4004Z" fill="#916EFF"/>
<path d="M7.49529 108.773C7.33046 108.932 7.11047 109.02 6.88171 109.02C6.65294 109.019 6.43327 108.931 6.26901 108.771C6.10475 108.612 6.00873 108.395 6.00121 108.166C5.99368 107.938 6.07523 107.716 6.22866 107.546C6.39349 107.387 6.61347 107.299 6.84225 107.299C7.07102 107.3 7.29068 107.388 7.45494 107.548C7.6192 107.707 7.71521 107.924 7.72274 108.153C7.73027 108.381 7.64872 108.603 7.49529 108.773Z" fill="#916EFF"/>
<path d="M92.9997 78.394C93.0183 78.5958 92.9766 78.7986 92.88 78.9767C92.7834 79.1549 92.6361 79.3004 92.4568 79.3948C92.2775 79.4893 92.0743 79.5285 91.8727 79.5074C91.6711 79.4864 91.4803 79.406 91.3244 79.2765C91.1685 79.147 91.0545 78.9742 90.9968 78.7799C90.9391 78.5857 90.9403 78.3786 91.0002 78.1851C91.0601 77.9915 91.1761 77.82 91.3335 77.6923C91.4908 77.5646 91.6825 77.4864 91.8843 77.4676C92.0184 77.4547 92.1539 77.4683 92.2827 77.5079C92.4116 77.5476 92.5314 77.6123 92.635 77.6985C92.7387 77.7845 92.8243 77.8904 92.887 78.0097C92.9496 78.1291 92.9879 78.2597 92.9997 78.394Z" fill="#916EFF"/>
<path d="M91.3359 85.2945C91.3545 85.4963 91.3128 85.699 91.2162 85.8772C91.1196 86.0554 90.9723 86.2008 90.793 86.2953C90.6137 86.3898 90.4104 86.429 90.2089 86.4079C90.0073 86.3868 89.8165 86.3065 89.6606 86.177C89.5047 86.0475 89.3907 85.8748 89.333 85.6804C89.2752 85.4862 89.2764 85.2791 89.3363 85.0855C89.3962 84.892 89.5123 84.7205 89.6697 84.5928C89.827 84.465 90.0187 84.3869 90.2205 84.3681C90.3547 84.355 90.4901 84.3686 90.6191 84.4081C90.748 84.4477 90.8677 84.5124 90.9714 84.5986C91.0752 84.6847 91.1608 84.7906 91.2234 84.91C91.2859 85.0295 91.3242 85.1601 91.3359 85.2945Z" fill="#916EFF"/>
<path d="M91.3359 93.0073C91.3545 93.2091 91.3128 93.4119 91.2162 93.5901C91.1196 93.7682 90.9723 93.9137 90.793 94.0082C90.6137 94.1026 90.4104 94.1418 90.2089 94.1207C90.0073 94.0997 89.8165 94.0193 89.6606 93.8899C89.5047 93.7603 89.3907 93.5876 89.333 93.3933C89.2752 93.199 89.2764 92.992 89.3363 92.7983C89.3962 92.6048 89.5123 92.4333 89.6697 92.3056C89.827 92.1779 90.0187 92.0998 90.2205 92.0809C90.3546 92.0679 90.49 92.0816 90.6189 92.1212C90.7478 92.1608 90.8675 92.2256 90.9712 92.3117C91.0749 92.3979 91.1605 92.5036 91.2232 92.623C91.2857 92.7424 91.3241 92.8731 91.3359 93.0073Z" fill="#916EFF"/>
<path d="M42.4915 180.174L67.665 189.967L74.6021 172.103C75.006 171.119 75.68 170.27 76.5464 169.653C77.4128 169.036 78.436 168.678 79.4977 168.618C80.5595 168.558 81.6163 168.801 82.546 169.318C83.4757 169.834 84.2402 170.603 84.7511 171.535C85.9165 173.676 87.6691 175.438 89.8025 176.616C91.936 177.793 94.3614 178.337 96.7934 178.183C99.2254 178.028 101.563 177.182 103.53 175.744C105.498 174.307 107.013 172.336 107.899 170.067C108.784 167.796 109.003 165.32 108.529 162.93C108.054 160.54 106.907 158.335 105.222 156.575C103.537 154.814 101.384 153.572 99.0166 152.994C96.6493 152.416 94.1661 152.526 91.8594 153.312C90.8515 153.659 89.7658 153.713 88.7286 153.467C87.6913 153.222 86.7452 152.686 86.0004 151.924C85.2556 151.161 84.7427 150.203 84.5215 149.16C84.3004 148.117 84.38 147.033 84.7511 146.034L89.4395 133.994" stroke="#191250" stroke-linecap="round" stroke-linejoin="round"/>
<path d="M27.1367 174.202L9.49928 167.336C8.82438 167.074 8.20782 166.681 7.68483 166.18C7.16183 165.679 6.74265 165.08 6.45122 164.417C6.15979 163.754 6.00183 163.04 5.98637 162.316C5.97089 161.592 6.09821 160.872 6.36105 160.197L26.8909 107.433C27.1535 106.757 27.5467 106.139 28.0481 105.616C28.5496 105.092 29.1493 104.672 29.8131 104.381C30.4769 104.089 31.1916 103.932 31.9163 103.917C32.6412 103.902 33.3618 104.031 34.037 104.294L73.638 119.682" stroke="#191250" stroke-linecap="round" stroke-linejoin="round"/>
<path d="M167.141 73.5566C167.259 74.0072 167.437 74.4397 167.67 74.8422" stroke="#191250" stroke-linecap="round" stroke-linejoin="round"/>
<path d="M167.088 70.9293C167.255 70.133 167.594 69.3825 168.079 68.7296C168.565 68.0768 169.187 67.5372 169.901 67.1483C172.04 65.9827 173.804 64.2302 174.981 62.0969C176.158 59.9635 176.701 57.5383 176.547 55.1066C176.392 52.6749 175.546 50.338 174.108 48.3709C172.67 46.4038 170.7 44.8883 168.431 44.003C166.16 43.1176 163.684 42.8992 161.294 43.3735C158.904 43.8477 156.7 44.9948 154.939 46.6797C153.179 48.3648 151.937 50.5175 151.359 52.8846C150.782 55.2517 150.892 57.7345 151.678 60.041C152.026 61.0488 152.08 62.1348 151.835 63.1723C151.589 64.2098 151.054 65.1561 150.291 65.9011C149.528 66.6459 148.569 67.1586 147.526 67.3795C146.483 67.6003 145.398 67.5201 144.399 67.1483L125.268 59.7196L120.293 72.5173" stroke="#191250" stroke-linecap="round" stroke-linejoin="round"/>
<path d="M145.59 140.198L158.426 145.173C159.101 145.437 159.822 145.565 160.546 145.55C161.271 145.535 161.986 145.377 162.65 145.085C163.313 144.794 163.912 144.375 164.414 143.852C164.915 143.327 165.308 142.71 165.571 142.035L168.468 134.58M169.068 76.4941C169.5 76.8309 169.978 77.1046 170.486 77.3071L182.945 82.1278C183.62 82.3903 184.237 82.7835 184.76 83.2849C185.284 83.7863 185.704 84.386 185.995 85.0497C186.287 85.7133 186.444 86.428 186.459 87.1527C186.474 87.8773 186.346 88.5978 186.082 89.2729L171.367 127.126" stroke="#191250" stroke-linecap="round" stroke-linejoin="round"/>
<path d="M103.286 96.0508C104.561 96.1483 105.768 96.6676 106.716 97.5268C107.663 98.3859 108.298 99.5362 108.52 100.796" stroke="#191250" stroke-linecap="round" stroke-linejoin="round"/>
<path d="M82.167 72.5733C84.5532 70.1655 87.7949 68.7996 91.1847 68.7734" stroke="#191250" stroke-linecap="round" stroke-linejoin="round"/>
<path d="M98.0652 48.6403L68.6699 37.2227" stroke="#191250" stroke-linecap="round" stroke-linejoin="round"/>
<path d="M113.378 72.8194L119.559 57.0158L107.763 52.4219" stroke="#191250" stroke-linecap="round" stroke-linejoin="round"/>
<path d="M78.3295 113.576L36.8539 97.4513C35.4918 96.9178 34.3966 95.8661 33.8083 94.5266C33.2201 93.1873 33.1869 91.6692 33.7157 90.3052L39.236 75.9952C39.5922 74.9951 39.6612 73.9152 39.4354 72.8778C39.2095 71.8405 38.6977 70.8871 37.9579 70.1256C37.2181 69.3643 36.2798 68.8252 35.2495 68.5695C34.2191 68.3138 33.1376 68.3517 32.1277 68.6789C29.8267 69.4561 27.3516 69.5605 24.9933 68.9799C22.635 68.3992 20.4914 67.1578 18.8141 65.4012C17.1368 63.6446 15.9957 61.4459 15.5246 59.0632C15.0535 56.6806 15.2721 54.2131 16.1548 51.9504C17.0373 49.6878 18.5472 47.7238 20.5072 46.2895C22.4671 44.8551 24.7956 44.0098 27.2193 43.8529C29.643 43.6959 32.0611 44.2338 34.1896 45.4033C36.3182 46.5729 38.0688 48.3256 39.236 50.4555C41.4339 54.4922 47.6377 54.4355 49.385 49.9072L50.1412 47.96" stroke="#191250" stroke-linecap="round" stroke-linejoin="round"/>
<path d="M90.8674 66.8664C91.6203 66.715 92.3544 66.4814 93.0564 66.1699L91.2465 68.2246" stroke="#191250" stroke-linecap="round" stroke-linejoin="round"/>
<path d="M104.361 72.667C102.247 72.6218 100.161 72.1727 98.2166 71.3436C96.9529 70.6581 95.7221 69.4153 95.7778 65.0294C95.828 63.0894 96.0239 61.1559 96.3639 59.2454C98.9917 58.3758 97.8056 55.3092 96.0236 56.5042C95.3679 56.944 94.8923 57.2176 94.7758 56.5042C94.0555 52.0556 90.6745 50.8705 88.5571 54.8784L87.8954 56.4097C86.3631 60.722 86.1343 67.6084 90.8675 66.8632C91.0524 67.2982 91.1781 67.7559 91.2416 68.2243C91.2665 68.6969 90.7491 71.2292 90.1829 71.5516C89.0277 72.2103 87.0258 72.8371 83.4338 72.667" stroke="#191250" stroke-linecap="round" stroke-linejoin="round"/>
<path d="M146.525 83.3377C156.862 82.4333 158.87 81.8094 165.529 80.8144C166.21 80.7199 167.005 80.5706 167.911 80.3796C171.259 79.6712 171.503 78.5886 167.59 78.6403C165.603 78.6666 163.623 78.4055 161.71 77.8652" stroke="#191250" stroke-linecap="round" stroke-linejoin="round"/>
<path d="M163.133 78.2096C163.152 78.3041 165.63 77.5489 168.635 76.6176C172 75.5788 172.207 74.2107 168.124 74.7838C166.066 75.1751 163.956 75.2135 161.885 74.8972" stroke="#191250" stroke-linecap="round" stroke-linejoin="round"/>
<path d="M161.168 72.5717C161.168 72.5717 168.558 70.526 169.013 70.3827C172.495 69.2554 173.021 70.516 170.053 72.103C167.33 73.5587 163.7 75.088 163.7 75.088" stroke="#191250" stroke-linecap="round" stroke-linejoin="round"/>
<path d="M145.21 71.5464C145.005 71.5671 144.856 71.7502 144.877 71.9552C144.898 72.1602 145.081 72.3096 145.286 72.2889L145.21 71.5464ZM150.014 71.4391V71.8122C150.023 71.8122 150.031 71.8119 150.04 71.8113L150.014 71.4391ZM159.731 70.0212L159.875 70.3656L159.876 70.3653L159.731 70.0212ZM164.948 67.7715L164.792 67.4327L164.791 67.433L164.948 67.7715ZM166.082 69.3028L166.275 69.622L166.283 69.6172L166.082 69.3028ZM162.243 71.9455C162.102 72.0962 162.11 72.3323 162.261 72.4729C162.411 72.6136 162.648 72.6055 162.788 72.455L162.243 71.9455ZM145.248 71.9177L145.286 72.2889C145.285 72.2889 145.286 72.2888 145.286 72.2889C145.286 72.2888 145.288 72.2886 145.289 72.2885C145.292 72.2883 145.295 72.288 145.299 72.2875L145.339 72.2835C145.373 72.28 145.424 72.2749 145.489 72.2683C145.618 72.2553 145.803 72.2366 146.025 72.2141C146.469 72.1692 147.061 72.1094 147.654 72.0496C148.248 71.9898 148.842 71.93 149.291 71.8851C149.515 71.8626 149.703 71.844 149.835 71.8309C149.902 71.8244 149.953 71.8194 149.99 71.8159C150.008 71.8141 150.021 71.8129 150.031 71.812C150.054 71.8099 150.035 71.8122 150.014 71.8122V71.0659C150.004 71.0659 149.996 71.0663 149.995 71.0664C149.991 71.0665 149.989 71.0667 149.987 71.0668C149.984 71.067 149.981 71.0673 149.979 71.0674C149.974 71.0678 149.969 71.0683 149.963 71.0688C149.952 71.0698 149.938 71.0712 149.919 71.073C149.882 71.0766 149.828 71.0818 149.762 71.0883C149.629 71.1014 149.441 71.1201 149.216 71.1426C148.767 71.1874 148.173 71.2472 147.579 71.3071C146.986 71.3669 146.394 71.4267 145.95 71.4716C145.728 71.4941 145.544 71.5128 145.414 71.5258C145.35 71.5324 145.298 71.5376 145.264 71.5411C145.246 71.5427 145.233 71.5441 145.224 71.545L145.214 71.546C145.213 71.5462 145.211 71.5463 145.21 71.5464L145.248 71.9177ZM150.04 71.8113C150.804 71.759 151.652 71.4446 152.336 70.9861C153.011 70.5343 153.602 69.8908 153.728 69.1376L152.992 69.0142C152.916 69.4718 152.524 69.9627 151.922 70.3661C151.329 70.7629 150.603 71.0246 149.987 71.0668L150.04 71.8113ZM153.728 69.1376C153.817 68.6108 153.892 68.0199 153.97 67.4468C154.049 66.8685 154.13 66.3058 154.232 65.8156C154.334 65.3178 154.452 64.9303 154.588 64.6843C154.727 64.4332 154.81 64.4499 154.834 64.4536L154.95 63.7165C154.454 63.6381 154.127 63.9779 153.936 64.3225C153.742 64.6724 153.607 65.1532 153.501 65.664C153.393 66.1824 153.309 66.7683 153.23 67.3463C153.151 67.9293 153.078 68.5023 152.992 69.0142L153.728 69.1376ZM154.834 64.4536C155.032 64.4851 155.22 64.6481 155.388 65.0891C155.553 65.5225 155.654 66.1128 155.74 66.7836C155.825 67.4358 155.898 68.1662 156.013 68.8105C156.127 69.4484 156.296 70.0784 156.61 70.5209L157.219 70.0887C157.007 69.7914 156.861 69.3058 156.747 68.6786C156.636 68.0578 156.569 67.3735 156.481 66.6875C156.394 66.0202 156.286 65.3489 156.086 64.8234C155.889 64.3055 155.554 63.8124 154.95 63.7165L154.834 64.4536ZM156.61 70.5209C156.8 70.7885 157.126 70.865 157.379 70.8866C157.653 70.9099 157.965 70.8796 158.267 70.8276C158.871 70.7235 159.511 70.5169 159.875 70.3656L159.588 69.6767C159.271 69.8091 158.684 69.9985 158.139 70.0922C157.867 70.1394 157.625 70.1586 157.443 70.1431C157.241 70.1259 157.209 70.0752 157.219 70.0887L156.61 70.5209ZM159.876 70.3653C160.991 69.8969 164.738 68.2804 165.105 68.1099L164.791 67.433C164.438 67.5969 160.704 69.2082 159.587 69.6771L159.876 70.3653ZM165.104 68.1103C165.925 67.7317 166.542 67.545 166.96 67.4907C167.17 67.4634 167.308 67.4725 167.389 67.4926C167.467 67.5121 167.455 67.531 167.438 67.4996C167.422 67.4699 167.444 67.4719 167.418 67.5497C167.392 67.6278 167.329 67.7445 167.206 67.8963C166.96 68.198 166.525 68.577 165.881 68.9883L166.283 69.6172C166.965 69.1818 167.47 68.7529 167.785 68.3673C167.941 68.1754 168.062 67.9786 168.126 67.7835C168.191 67.5882 168.209 67.3575 168.094 67.1456C167.979 66.932 167.775 66.8194 167.568 66.7682C167.364 66.7176 167.124 66.7168 166.863 66.7507C166.34 66.8187 165.647 67.0387 164.792 67.4327L165.104 68.1103ZM165.889 68.9837C164.543 69.7991 163.316 70.7958 162.243 71.9455L162.788 72.455C163.815 71.3552 164.989 70.402 166.275 69.622L165.889 68.9837Z" fill="#191250"/>
<path d="M160.525 71.0977C161.771 73.4724 162.138 76.2105 161.564 78.8298" stroke="#191250" stroke-linecap="round" stroke-linejoin="round"/>
<path d="M158.729 72.5918C158.484 75.6544 157.137 77.7718 154.268 78.3389" stroke="#191250" stroke-linecap="round" stroke-linejoin="round"/>
<path d="M104.814 88.8695C105.176 87.2713 105.644 85.6988 106.213 84.1621L109.515 88.9829" stroke="#191250" stroke-linecap="round" stroke-linejoin="round"/>
<path d="M96.4703 125.518L92.9241 113.746L98.4055 123.142" stroke="#191250" stroke-linecap="round" stroke-linejoin="round"/>
<path d="M85.7213 103.897C66.2123 129.342 55.1747 145.239 29.4042 169.249C25.5237 172.868 36.822 185.249 40.7472 181.706L47.5132 175.601C65.874 159.003 77.7244 148.001 92.2415 130.666C92.2415 130.666 97.7607 123.954 98.4035 123.142L108.177 139.909C109.257 141.769 110.883 143.251 112.834 144.155C114.786 145.057 116.968 145.338 119.085 144.957L157.293 138.091C160.714 137.521 157.881 121.66 154.4 122.271L120.41 127.337C120.41 127.337 117.766 115.696 117.325 113.688C116.539 110.034 114.777 106.661 112.228 103.928C109.678 101.195 106.436 99.2039 102.845 98.166" stroke="#191250" stroke-linecap="round" stroke-linejoin="round"/>
<path d="M88.5601 54.8601C90.564 50.9279 94.2316 47.7528 100.242 54.6332C106.669 61.9873 95.7808 65.0489 95.7808 65.0489" stroke="#191250" stroke-linecap="round" stroke-linejoin="round"/>
<path d="M107.196 52.9498C104.965 55.2751 101.473 55.5537 99.3885 53.5548C97.304 51.5558 97.4224 48.0534 99.6532 45.7281C101.884 43.4028 105.376 43.1242 107.461 45.1231C109.545 47.1221 109.427 50.6245 107.196 52.9498Z" stroke="#191250" stroke-linecap="round" stroke-linejoin="round"/>
<path d="M37.1186 181.933C35.644 183.425 34.4878 184.703 32.9595 185.184C31.5983 185.581 30.1728 185.71 28.7626 185.563C22.8065 185.088 10.9401 190.363 10.5392 187.132C10.4267 186.224 14.0744 183.54 18.3847 180.664C21.107 178.849 25.2283 175.712 28.8571 172.857" stroke="#191250" stroke-linecap="round" stroke-linejoin="round"/>
<path d="M156.555 123.936C158.956 123.312 160.808 122.616 162.566 123.029C163.936 123.377 165.226 123.985 166.366 124.82C171.258 128.24 184.164 129.711 182.889 132.702C182.527 133.552 178.014 134.007 172.851 134.309C169.296 134.518 163.549 135.216 158.692 135.901" stroke="#191250" stroke-linecap="round" stroke-linejoin="round"/>
<path d="M147.156 69.8323C147.864 69.7736 148.632 70.3298 149.314 71.5119" stroke="#191250" stroke-linecap="round" stroke-linejoin="round"/>
<path d="M150.071 83.0078C149.655 83.9153 149.088 84.4824 148.445 84.5391" stroke="#191250" stroke-linecap="round" stroke-linejoin="round"/>
<path d="M124.645 33.8185C124.672 33.9861 124.635 34.1581 124.539 34.2983C124.443 34.4385 124.295 34.536 124.129 34.5703C123.963 34.6045 123.79 34.573 123.646 34.4821C123.502 34.3913 123.4 34.2483 123.359 34.0832L121.752 26.2227C121.717 26.0547 121.75 25.8796 121.844 25.7361C121.938 25.5925 122.085 25.4921 122.254 25.4571C122.421 25.4219 122.596 25.455 122.74 25.5489C122.883 25.6429 122.984 25.79 123.019 25.958L124.645 33.8185Z" stroke="#191250" stroke-linecap="round" stroke-linejoin="round"/>
<path d="M121.45 21.5117L122.395 26.0867" stroke="#191250" stroke-linecap="round" stroke-linejoin="round"/>
<path d="M119.124 10.1513C118.001 10.3814 116.971 10.9393 116.165 11.7547C115.358 12.5701 114.812 13.6061 114.595 14.732C114.377 15.8578 114.499 17.0229 114.943 18.0798C115.388 19.1367 116.136 20.0379 117.094 20.6698C118.05 21.3015 119.173 21.6353 120.319 21.629C121.467 21.6228 122.585 21.2766 123.535 20.6343C124.486 19.9922 125.223 19.0827 125.657 18.021C126.089 16.9593 126.198 15.793 125.968 14.6696C125.816 13.9235 125.517 13.2146 125.091 12.5837C124.665 11.9528 124.118 11.4121 123.483 10.9925C122.847 10.5729 122.135 10.2826 121.387 10.1383C120.64 9.99393 119.871 9.99836 119.124 10.1513Z" stroke="#191250" stroke-linecap="round" stroke-linejoin="round"/>
<path d="M188.673 116.242L186.461 115.58" stroke="#191250" stroke-linecap="round" stroke-linejoin="round"/>
<path d="M191.357 114.767L192 112.555" stroke="#191250" stroke-linecap="round" stroke-linejoin="round"/>
<path d="M189.486 121.119L190.148 118.926" stroke="#191250" stroke-linecap="round" stroke-linejoin="round"/>
<path d="M192.832 117.451L195.025 118.094" stroke="#191250" stroke-linecap="round" stroke-linejoin="round"/>
<path d="M192.836 117.45C192.285 117.288 191.821 116.915 191.544 116.411C191.268 115.908 191.202 115.316 191.361 114.764C191.199 115.315 190.826 115.779 190.323 116.055C189.819 116.332 189.227 116.397 188.675 116.238C189.226 116.4 189.69 116.774 189.966 117.277C190.243 117.781 190.309 118.373 190.149 118.925C190.312 118.374 190.685 117.91 191.188 117.633C191.692 117.357 192.284 117.291 192.836 117.45Z" stroke="#191250" stroke-linecap="round" stroke-linejoin="round"/>
<path d="M52.3172 54.7273C51.1818 52.0025 50.3451 49.1628 49.8218 46.2578" stroke="#191250" stroke-linecap="round" stroke-linejoin="round"/>
<path d="M56.5141 44.8026L43.0547 47.6951C42.4279 47.8304 41.7731 47.7112 41.2342 47.3638C40.6953 47.0163 40.3165 46.4691 40.1811 45.8424L34.4907 19.3197L42.6955 17.5615C43.1533 17.4671 43.6284 17.5056 44.065 17.6724C44.5016 17.8392 44.8814 18.1274 45.1596 18.503C45.4378 18.8785 45.6029 19.3259 45.6352 19.7921C45.6676 20.2584 45.5659 20.7241 45.3422 21.1346C44.8414 22.0773 44.6202 23.1434 44.7047 24.2075C44.7891 25.2717 45.1756 26.2897 45.8188 27.1417C46.462 27.9936 47.335 28.6443 48.3353 29.0171C49.3355 29.3899 50.4215 29.4693 51.4653 29.2461C52.5093 29.0228 53.4677 28.5061 54.228 27.7568C54.9883 27.0075 55.5189 26.0566 55.7573 25.0161C55.9957 23.9756 55.932 22.8886 55.5737 21.883C55.2155 20.8774 54.5776 19.995 53.735 19.3396C53.3654 19.0553 53.084 18.6719 52.9238 18.234C52.7636 17.7961 52.7312 17.3217 52.8303 16.866C52.9293 16.4104 53.1558 15.9922 53.4833 15.6604C53.8108 15.3284 54.226 15.0965 54.6803 14.9914L63.4711 13.082L69.1804 39.6038C69.3157 40.2304 69.1965 40.8852 68.8491 41.4241C68.5017 41.963 67.9545 42.3418 67.3277 42.4773L59.1797 44.2355" stroke="#191250" stroke-linecap="round" stroke-linejoin="round"/>
<path d="M55.9468 52.3076C54.8692 50.9842 54.51 47.7893 56.4005 46.3376C56.4005 46.3376 56.6522 40.9924 57.5726 39.7785C58.493 38.5646 59.0084 43.5934 59.4064 45.5018C59.6681 46.7505 60.3516 49.642 61.0322 52.024" stroke="#191250" stroke-linecap="round" stroke-linejoin="round"/>
<path d="M77.8647 88.6561L80.8627 81.3926C79.8805 83.7308 79.5538 86.2924 79.9174 88.8023" stroke="#191250" stroke-linecap="round" stroke-linejoin="round"/>
<path d="M147.156 69.8324C130.597 71.9866 113.68 73.4045 104.361 72.6672C96.8742 74.5199 89.8425 74.7278 83.4338 72.6672C80.1254 72.5159 75.4937 71.6463 68.9724 69.4722L63.6223 52.4209C63.0552 50.5682 49.9351 54.5761 50.5022 56.4288L59.1796 83.3107C65.6196 86.6054 72.6911 88.481 79.9174 88.8111C80.3711 92.0627 81.9403 96.6566 85.7213 103.897C89.7858 106.317 98.5568 102.857 102.736 98.5093C103.473 95.1064 104.135 91.7224 104.815 88.8688C119.481 89.3655 134.146 87.9096 148.427 84.5395C144.531 84.8758 143.185 70.1677 147.156 69.8324Z" stroke="#191250" stroke-linecap="round" stroke-linejoin="round"/>
<path d="M34.0341 164.824C31.066 167.411 42.2925 180.247 45.2447 177.679" stroke="#191250" stroke-linecap="round" stroke-linejoin="round"/>
<path d="M147.481 123.311C150.09 122.838 153.001 138.869 150.392 139.341" stroke="#191250" stroke-linecap="round" stroke-linejoin="round"/>
<path d="M135.969 168.172L128.823 186.565" stroke="#191250" stroke-linecap="round" stroke-linejoin="round"/>
<path d="M141.601 180.931L123.189 173.805" stroke="#191250" stroke-linecap="round" stroke-linejoin="round"/>
<path d="M8.08139 104.56C8.45949 103.482 9.14007 102.839 11.1062 101.497C15.2683 98.6554 14.4892 95.3968 12.0325 94.4267C11.5983 94.259 11.1326 94.1886 10.6681 94.2203C10.2037 94.2521 9.75189 94.3854 9.34454 94.6107C8.93718 94.836 8.58419 95.1478 8.31042 95.5244C8.03665 95.9009 7.84877 96.3328 7.76001 96.7898" stroke="#191250" stroke-linecap="round" stroke-linejoin="round"/>
<path d="M39.3872 175.221C58.6504 157.175 76.9735 138.151 94.2843 118.225" stroke="#191250" stroke-linecap="round" stroke-linejoin="round"/>
<path d="M98.4104 101.818C98.4104 101.818 108.522 106.28 109.47 114.389C109.997 118.907 112.986 128.247 114.574 133.01C114.849 133.835 115.403 134.541 116.141 135.003C116.88 135.465 117.755 135.656 118.619 135.543L150.964 131.308" stroke="#191250" stroke-linecap="round" stroke-linejoin="round"/>
</svg>
