<svg width="30" height="30" viewBox="0 0 30 30" fill="none" xmlns="http://www.w3.org/2000/svg">
<path d="M8.54639 12.3262C8.54639 12.061 8.59864 11.7983 8.70015 11.5532C8.80166 11.3081 8.95046 11.0855 9.13803 10.8979C9.32561 10.7103 9.54829 10.5615 9.79337 10.46C10.0384 10.3585 10.3011 10.3062 10.5664 10.3062C10.8317 10.3062 11.0943 10.3585 11.3394 10.46C11.5845 10.5615 11.8072 10.7103 11.9947 10.8979C12.1823 11.0855 12.3311 11.3081 12.4326 11.5532C12.5341 11.7983 12.5864 12.061 12.5864 12.3262C12.5864 12.862 12.3736 13.3758 11.9947 13.7546C11.6159 14.1334 11.1021 14.3462 10.5664 14.3462C10.0306 14.3462 9.51685 14.1334 9.13803 13.7546C8.75921 13.3758 8.54639 12.862 8.54639 12.3262Z" fill="#916EFF"/>
<path fill-rule="evenodd" clip-rule="evenodd" d="M9.05 15.1087C8.30783 15.1087 7.59601 15.4034 7.07098 15.928C6.54595 16.4525 6.25066 17.1641 6.25 17.9062V19.0687C6.25 19.5875 6.67 20.0062 7.1875 20.0062H13.9437C14.1924 20.0062 14.4308 19.9075 14.6067 19.7317C14.7825 19.5558 14.8812 19.3174 14.8812 19.0687V17.9062C14.8806 17.1645 14.5856 16.4533 14.0612 15.9288C13.5367 15.4044 12.8255 15.1094 12.0837 15.1087H9.05ZM8.125 17.9062C8.125 17.3975 8.5375 16.9837 9.0475 16.9837H12.0837C12.5925 16.9837 13.0062 17.3962 13.0062 17.9062V18.1312H8.12625L8.125 17.9062Z" fill="#916EFF"/>
<path d="M23.75 13.1263C23.75 13.3749 23.6512 13.6133 23.4754 13.7892C23.2996 13.965 23.0611 14.0638 22.8125 14.0638H17.6875C17.4389 14.0638 17.2004 13.965 17.0246 13.7892C16.8488 13.6133 16.75 13.3749 16.75 13.1263C16.75 12.8776 16.8488 12.6392 17.0246 12.4633C17.2004 12.2875 17.4389 12.1888 17.6875 12.1888H22.8125C23.0611 12.1888 23.2996 12.2875 23.4754 12.4633C23.6512 12.6392 23.75 12.8776 23.75 13.1263ZM20.1875 17.8138C20.4361 17.8138 20.6746 17.715 20.8504 17.5392C21.0262 17.3633 21.125 17.1249 21.125 16.8763C21.125 16.6276 21.0262 16.3892 20.8504 16.2133C20.6746 16.0375 20.4361 15.9388 20.1875 15.9388H17.6875C17.4389 15.9388 17.2004 16.0375 17.0246 16.2133C16.8488 16.3892 16.75 16.6276 16.75 16.8763C16.75 17.1249 16.8488 17.3633 17.0246 17.5392C17.2004 17.715 17.4389 17.8138 17.6875 17.8138H20.1875Z" fill="#916EFF"/>
<path fill-rule="evenodd" clip-rule="evenodd" d="M5.3125 5.62625C4.56658 5.62625 3.85121 5.92257 3.32376 6.45001C2.79632 6.97746 2.5 7.69283 2.5 8.43875V21.5638C2.5 22.3097 2.79632 23.025 3.32376 23.5525C3.85121 24.0799 4.56658 24.3763 5.3125 24.3763H24.6875C25.4334 24.3763 26.1488 24.0799 26.6762 23.5525C27.2037 23.025 27.5 22.3097 27.5 21.5638V8.43875C27.5 7.69283 27.2037 6.97746 26.6762 6.45001C26.1488 5.92257 25.4334 5.62625 24.6875 5.62625H5.3125ZM4.375 8.43875C4.375 8.19011 4.47377 7.95165 4.64959 7.77584C4.8254 7.60002 5.06386 7.50125 5.3125 7.50125H24.6875C24.9361 7.50125 25.1746 7.60002 25.3504 7.77584C25.5262 7.95165 25.625 8.19011 25.625 8.43875V21.5638C25.625 21.8124 25.5262 22.0508 25.3504 22.2267C25.1746 22.4025 24.9361 22.5013 24.6875 22.5013H5.3125C5.06386 22.5013 4.8254 22.4025 4.64959 22.2267C4.47377 22.0508 4.375 21.8124 4.375 21.5638V8.43875Z" fill="#916EFF"/>
</svg>
