<svg width="24" height="24" viewBox="0 0 24 24" fill="none" xmlns="http://www.w3.org/2000/svg">
<path d="M12 20.02C11.8413 20.02 11.682 19.988 11.522 19.924C11.362 19.8607 11.2253 19.7653 11.112 19.638L4.796 13.298C4.21267 12.7147 3.76733 12.0577 3.46 11.327C3.15333 10.5963 3 9.84834 3 9.083C3 7.64767 3.44933 6.429 4.348 5.427C5.24667 4.425 6.35 3.92367 7.658 3.923C8.342 3.923 9 4.06534 9.632 4.35C10.2633 4.63467 10.8283 5.03467 11.327 5.55L12 6.262L12.635 5.589C13.1423 5.04767 13.715 4.63467 14.353 4.35C14.991 4.06534 15.6457 3.923 16.317 3.923C17.625 3.923 18.7327 4.42434 19.64 5.427C20.5473 6.42967 21.0007 7.63967 21 9.057C21 9.83567 20.8457 10.5903 20.537 11.321C20.2277 12.0517 19.7833 12.7087 19.204 13.292L12.864 19.639C12.7367 19.7657 12.6007 19.8607 12.456 19.924C12.3113 19.9873 12.1593 20.019 12 20.019M13 8.5C13.09 8.5 13.1713 8.51934 13.244 8.558C13.3173 8.59667 13.3763 8.65034 13.421 8.719L15.256 11.5H19.329C19.561 11.114 19.735 10.7143 19.851 10.301C19.967 9.88767 20.0187 9.47334 20.006 9.058C19.9853 7.908 19.621 6.93334 18.913 6.134C18.2057 5.334 17.3403 4.934 16.317 4.934C15.775 4.934 15.2473 5.044 14.734 5.264C14.2207 5.48267 13.776 5.803 13.4 6.225L12.494 7.2C12.424 7.28667 12.348 7.34667 12.266 7.38C12.184 7.41334 12.0953 7.42967 12 7.429C11.9047 7.42834 11.813 7.40867 11.725 7.37C11.637 7.33134 11.5557 7.27467 11.481 7.2L10.575 6.225C10.1997 5.803 9.75633 5.48067 9.245 5.258C8.733 5.03467 8.204 4.923 7.658 4.923C6.63467 4.923 5.76933 5.32467 5.062 6.128C4.35467 6.93134 4.00067 7.908 4 9.058C4 9.486 4.057 9.90367 4.171 10.311C4.285 10.7183 4.45167 11.1147 4.671 11.5H9C9.09 11.5 9.16833 11.5193 9.235 11.558C9.30167 11.5967 9.35733 11.6503 9.402 11.719L10.854 13.885L12.531 8.854C12.5717 8.744 12.6317 8.65734 12.711 8.594C12.7903 8.53067 12.8867 8.49934 13 8.5ZM13.146 10.116L11.469 15.146C11.4283 15.2567 11.3643 15.3433 11.277 15.406C11.1897 15.4687 11.089 15.5 10.975 15.5C10.8857 15.5 10.8077 15.4807 10.741 15.442C10.6743 15.4033 10.6183 15.3497 10.573 15.281L8.719 12.5H5.419L11.825 18.925C11.8583 18.9583 11.8877 18.9793 11.913 18.988C11.9383 18.9967 11.9673 19.0007 12 19C12.0327 18.9993 12.062 18.9953 12.088 18.988C12.114 18.9807 12.143 18.9597 12.175 18.925L18.575 12.5H15C14.9107 12.5 14.8293 12.4777 14.756 12.433C14.6827 12.3883 14.6217 12.3313 14.573 12.262L13.146 10.116Z" fill="white"/>
</svg>
