<svg xmlns="http://www.w3.org/2000/svg" width="54" height="77" viewBox="0 0 54 77" fill="none"><g clip-path="url(#clip0_2132_19736)"><path d="M34.2884 43.797C34.4253 43.7638 34.5213 43.7469 34.6138 43.7169C35.6342 43.3882 36.6459 43.0267 37.6758 42.7362C39.6994 42.1675 41.725 42.1455 43.7087 42.8396C44.9943 43.2872 46.1326 43.9907 47.0842 44.9752C48.4093 46.3445 49.1959 47.9766 49.3767 49.881C49.5841 52.0724 48.9778 54.0721 47.7559 55.9059C46.9074 57.1779 45.8417 58.2419 44.6322 59.1728C43.478 60.0621 42.2429 60.8106 40.9064 61.3837C39.4945 61.9899 38.036 62.4589 36.5144 62.6554C35.044 62.8446 33.5667 62.9871 32.0899 63.0866C30.5178 63.1921 28.9399 63.25 27.366 63.28C25.9745 63.307 24.5816 63.2887 23.191 63.25C21.6549 63.2074 20.1194 63.1379 18.5862 63.0502C16.8948 62.9537 15.2053 62.8271 13.5155 62.7048C13.2975 62.6888 13.0743 62.6509 12.8683 62.5794C12.4764 62.4428 12.3074 62.1898 12.333 61.7727C12.348 61.5297 12.3967 61.2809 12.4757 61.0497C13.0921 59.2176 13.3953 57.3389 13.4293 55.417C13.4407 54.7911 13.505 54.1667 13.5153 53.5418C13.532 52.639 13.5185 51.7348 13.5244 50.8315C13.5352 49.0928 13.6062 47.357 13.8194 45.626C14.0101 44.0859 14.2198 42.5509 14.5847 41.0376C15.0709 39.0256 15.8348 37.1306 16.9766 35.3888C17.4517 34.6626 17.9915 33.9902 18.591 33.366C19.8592 32.0434 21.4002 31.161 23.1159 30.5632C24.9926 29.9086 26.9222 29.6922 28.8829 29.8482C30.6621 29.9899 32.2838 30.5715 33.6519 31.7315C34.6406 32.569 35.2726 33.6447 35.6496 34.8837C36.1237 36.4401 36.0717 38.0064 35.7212 39.584C35.4781 40.6774 35.068 41.7152 34.6609 42.7563C34.5341 43.0812 34.4243 43.4112 34.2862 43.7969L34.2884 43.797Z" fill="#FF88FF"></path></g><g clip-path="url(#clip1_2132_19736)"><path d="M41.9633 8.54988C42.0172 8.55296 42.0542 8.55747 42.0915 8.55678C42.5021 8.55002 42.9132 8.53026 43.323 8.53856C44.1281 8.55559 44.873 8.77325 45.5227 9.24871C45.944 9.55604 46.2828 9.94075 46.5219 10.4076C46.855 11.0572 46.9614 11.743 46.8155 12.4611C46.6473 13.2874 46.2022 13.9528 45.55 14.4888C45.0973 14.8604 44.5881 15.1317 44.0411 15.338C43.5189 15.5354 42.9829 15.6721 42.4291 15.7332C41.8441 15.7981 41.2573 15.8074 40.6777 15.7099C40.1177 15.6154 39.5603 15.503 39.008 15.3749C38.42 15.2384 37.8352 15.0838 37.255 14.9194C36.742 14.7742 36.2335 14.6123 35.7281 14.4431C35.1699 14.2564 34.6148 14.0598 34.0626 13.8568C33.4535 13.6329 32.8484 13.3983 32.2427 13.1651C32.1645 13.135 32.0869 13.0962 32.0194 13.0471C31.891 12.9533 31.8572 12.8417 31.9131 12.6917C31.9457 12.6043 31.9913 12.5186 32.046 12.4426C32.4761 11.8398 32.7965 11.185 33.0231 10.4844C33.0971 10.2563 33.1902 10.0346 33.2637 9.80668C33.3704 9.47766 33.4662 9.14473 33.569 8.81431C33.7667 8.17825 33.9862 7.54998 34.2572 6.93929C34.4987 6.39604 34.7466 5.85684 35.049 5.34284C35.4514 4.65957 35.9425 4.05014 36.5551 3.53898C36.8102 3.32576 37.083 3.13947 37.3723 2.97749C37.9845 2.63404 38.6476 2.48237 39.3431 2.45445C40.1039 2.42365 40.8352 2.55935 41.5365 2.83501C42.1728 3.08523 42.7023 3.47908 43.0745 4.05673C43.3435 4.47386 43.4553 4.93854 43.4555 5.43466C43.4558 6.05794 43.2622 6.62624 42.9579 7.16542C42.747 7.53907 42.481 7.87373 42.2158 8.20996C42.1331 8.3149 42.0561 8.4236 41.9625 8.5496L41.9633 8.54988Z" fill="#FF88FF"></path></g><defs><clipPath id="clip0_2132_19736"><rect width="36.673" height="37.365" fill="white" transform="translate(28.6201 24.3457) rotate(48.1541)"></rect></clipPath><clipPath id="clip1_2132_19736"><rect width="14.0489" height="14.3139" fill="white" transform="translate(42.0535 0.789062) rotate(65.0652)"></rect></clipPath></defs></svg>