<svg xmlns="http://www.w3.org/2000/svg" width="62" height="58" viewBox="0 0 62 58" fill="none"><g clip-path="url(#clip0_2132_19735)"><path d="M35.7224 25.1868C35.75 25.0486 35.7752 24.9545 35.7871 24.858C35.9196 23.7941 36.0187 22.7244 36.1899 21.668C36.528 19.5934 37.3628 17.7477 38.829 16.2421C39.7773 15.2653 40.8954 14.5302 42.1895 14.0828C43.99 13.4592 45.8016 13.4346 47.6045 14.0742C49.6788 14.8108 51.236 16.2042 52.383 18.0858C53.1782 19.3918 53.6932 20.8068 54.0268 22.2962C54.3462 23.7179 54.5036 25.1534 54.4594 26.6069C54.4132 28.1428 54.2231 29.663 53.7592 31.1254C53.3103 32.5384 52.8162 33.9379 52.2833 35.3188C51.7157 36.7887 51.1024 38.2436 50.4655 39.6832C49.9029 40.9561 49.2986 42.2113 48.6767 43.4557C47.99 44.8304 47.2792 46.1932 46.5527 47.5463C45.7516 49.039 44.924 50.5174 44.1002 51.9978C43.9936 52.1887 43.8652 52.3751 43.7134 52.5317C43.4242 52.8293 43.1235 52.8758 42.7561 52.6766C42.5422 52.5605 42.3371 52.4113 42.1608 52.2422C40.7599 50.9103 39.1846 49.8427 37.4564 49.0011C36.8938 48.7266 36.3548 48.4048 35.7926 48.1318C34.9811 47.7358 34.1556 47.3665 33.3392 46.9801C31.7674 46.2367 30.2236 45.4399 28.7442 44.5163C27.4283 43.6936 26.1252 42.8558 24.9072 41.8864C23.2881 40.5967 21.8923 39.1046 20.795 37.3345C20.337 36.5973 19.9552 35.8242 19.6422 35.0174C18.9781 33.3096 18.8284 31.5401 19.0103 29.7324C19.2086 27.7547 19.8266 25.9139 20.7953 24.2021C21.6745 22.6489 22.8859 21.424 24.5149 20.6731C25.6914 20.1301 26.9333 20.0109 28.2156 20.1918C29.8268 20.4187 31.2249 21.1267 32.5073 22.1102C33.3961 22.7919 34.1639 23.6016 34.9361 24.4099C35.1771 24.6619 35.4299 24.9007 35.7214 25.1887L35.7224 25.1868Z" fill="#FF88FF"></path></g><g clip-path="url(#clip1_2132_19735)"><path d="M7.00347 3.35631C7.029 3.30876 7.04872 3.27706 7.06381 3.24301C7.23094 2.86786 7.38647 2.48683 7.56693 2.11873C7.92204 1.39603 8.43366 0.812553 9.13886 0.424097C9.59527 0.171775 10.087 0.0269236 10.6112 0.00715558C11.3406 -0.0207563 12.0073 0.172092 12.5968 0.607422C13.275 1.10855 13.6905 1.79278 13.9012 2.61023C14.0471 3.17751 14.0782 3.75356 14.0345 4.33662C13.9931 4.89326 13.8909 5.43696 13.7127 5.96478C13.5246 6.52254 13.2855 7.05856 12.9525 7.54287C12.6306 8.01074 12.2935 8.46862 11.9443 8.91534C11.5725 9.39083 11.1855 9.85574 10.7917 10.3124C10.4436 10.7163 10.0823 11.109 9.71568 11.4958C9.31081 11.9231 8.89841 12.3434 8.48137 12.7584C8.0214 13.2162 7.55332 13.6658 7.08641 14.1166C7.02608 14.1747 6.95822 14.2287 6.88515 14.2692C6.74597 14.3461 6.63059 14.3296 6.51815 14.2156C6.45266 14.1493 6.39413 14.0717 6.34835 13.9901C5.98331 13.3458 5.52489 12.779 4.98527 12.2779C4.80965 12.1146 4.64795 11.9366 4.47233 11.7739C4.21903 11.5384 3.95762 11.311 3.70143 11.0784C3.20818 10.6308 2.73117 10.1667 2.29186 9.66333C1.90123 9.21515 1.51699 8.76287 1.17856 8.27186C0.728868 7.61873 0.383562 6.91632 0.178597 6.14526C0.0929049 5.82404 0.0391044 5.49813 0.0142963 5.16753C-0.0387842 4.46758 0.103519 3.80234 0.371634 3.16006C0.664703 2.4573 1.09631 1.85148 1.64211 1.33202C2.13745 0.860692 2.71796 0.546762 3.39869 0.453067C3.8904 0.385137 4.35885 0.47985 4.80871 0.689059C5.37393 0.951745 5.80748 1.36705 6.16793 1.87041C6.4177 2.21929 6.6089 2.60163 6.80183 2.98396C6.86209 3.10318 6.92814 3.21888 7.00289 3.3569L7.00347 3.35631Z" fill="#FF88FF"></path></g><defs><clipPath id="clip0_2132_19735"><rect width="36.673" height="37.365" fill="white" transform="translate(15.6958 22.1187) rotate(-16.8896)"></rect></clipPath><clipPath id="clip1_2132_19735"><rect width="14.0489" height="14.3139" fill="white" transform="translate(0.00537109) rotate(0.0214701)"></rect></clipPath></defs></svg>