<svg xmlns="http://www.w3.org/2000/svg" width="169" height="30" viewBox="0 0 169 30" fill="none"><g clip-path="url(#clip0_230_2180)"><path d="M168.233 18.344C168.233 18.5382 168.194 18.6548 168.076 18.7713C167.959 18.8878 167.802 18.9267 167.568 18.9267H157.277V18.4217H162.833C163.068 18.4217 163.185 18.2663 163.185 17.9944C163.185 16.0135 162.951 14.5374 162.481 13.6441C162.012 12.7118 161.503 12.2846 160.877 12.2846C160.407 12.2846 159.977 12.4788 159.625 12.8284C159.273 13.178 158.96 13.7606 158.764 14.5763C158.568 15.392 158.451 16.4407 158.451 17.7225C158.451 19.9754 158.921 21.6456 159.86 22.6944C160.799 23.7432 162.051 24.287 163.616 24.287C164.75 24.287 165.729 24.0151 166.472 23.4324C167.255 22.8498 167.685 22.0729 167.802 21.1019C167.841 21.0242 167.881 20.9853 167.92 20.9465C167.959 20.9076 167.998 20.9076 168.037 20.9076C168.076 20.9076 168.154 20.9465 168.154 20.9853C168.194 21.0242 168.194 21.1019 168.194 21.1795C168.154 22.306 167.841 23.3547 167.215 24.2481C166.589 25.1803 165.768 25.8795 164.75 26.4233C163.733 26.9671 162.559 27.2002 161.229 27.2002C159.781 27.2002 158.451 26.8894 157.356 26.2679C156.221 25.6464 155.321 24.7531 154.695 23.6266C154.069 22.5002 153.717 21.2184 153.717 19.7035C153.717 18.0721 154.03 16.6738 154.656 15.4697C155.282 14.2655 156.221 13.3333 157.356 12.7118C158.529 12.0515 159.899 11.7019 161.464 11.7019C162.872 11.7019 164.046 11.9738 165.063 12.5565C166.081 13.1003 166.863 13.8771 167.411 14.887C167.959 15.9358 168.233 17.0622 168.233 18.344Z" fill="#322977"></path><path d="M144.561 12.8672L143.348 12.5565C143.231 12.5176 143.192 12.4788 143.113 12.44C143.074 12.4011 143.074 12.3623 143.074 12.2846C143.074 12.2069 143.113 12.1681 143.152 12.1292C143.192 12.0904 143.27 12.0515 143.348 12.0515H144.678C144.757 12.0515 144.835 12.0515 144.874 12.0127C144.952 11.9738 145.031 11.935 145.109 11.8185L148.865 8.63337C148.982 8.51685 149.1 8.43916 149.178 8.40032C149.295 8.36148 149.374 8.32263 149.491 8.32263C149.608 8.32263 149.687 8.36148 149.726 8.43916C149.804 8.51685 149.843 8.59453 149.843 8.7499V22.3837C149.843 23.3159 150 23.9762 150.352 24.4423C150.704 24.9084 151.173 25.1027 151.721 25.1027C151.956 25.1027 152.152 25.0638 152.347 24.9861C152.543 24.9084 152.738 24.7919 152.895 24.6365C153.051 24.4812 153.208 24.287 153.325 24.0539C153.443 23.8208 153.599 23.549 153.677 23.2382C153.717 23.1605 153.795 23.1605 153.834 23.1605C153.912 23.1605 153.912 23.2382 153.912 23.3547C153.756 24.2093 153.482 24.9084 153.13 25.4522C152.778 25.996 152.308 26.4233 151.682 26.734C151.095 27.0059 150.352 27.1613 149.452 27.1613C147.965 27.1613 146.83 26.8117 146.009 26.1126C145.226 25.4134 144.835 24.3646 144.835 22.9275V13.2557C144.835 13.1391 144.835 13.0614 144.796 12.9837C144.757 12.9449 144.678 12.9061 144.561 12.8672ZM148.239 12.7119L148.356 12.1292H153.638C153.717 12.1292 153.795 12.1292 153.834 12.1681C153.873 12.2069 153.912 12.2457 153.912 12.3234C153.912 12.44 153.834 12.5176 153.717 12.5953C153.599 12.673 153.443 12.7119 153.208 12.7119H148.239Z" fill="#322977"></path><path d="M134.467 25.491L134.545 25.2968L134.232 25.3745L138.693 15.0812C138.927 14.5374 139.006 14.0713 138.849 13.644C138.732 13.2556 138.458 12.9449 138.027 12.7507C137.558 12.5564 137.088 12.5176 136.736 12.673C136.384 12.8283 136.11 13.0614 135.954 13.4498L135.328 14.887C135.054 15.5085 134.623 15.8969 133.997 16.13C133.371 16.363 132.706 16.3242 131.963 16.0134C131.454 15.7804 131.063 15.4696 130.867 15.0424C130.672 14.6151 130.711 14.1102 130.946 13.5664C131.18 12.9837 131.65 12.5564 132.354 12.2069C133.058 11.8573 133.958 11.7019 135.054 11.7408C136.149 11.7796 137.401 12.0903 138.771 12.673C140.61 13.4498 141.823 14.4209 142.41 15.5085C142.996 16.6349 143.036 17.839 142.449 19.1985L139.123 26.8894C139.006 27.1613 138.966 27.3943 139.006 27.5886C139.045 27.7828 139.162 27.8993 139.358 27.977C139.553 28.0547 139.71 28.0547 139.905 28.0158C140.101 27.977 140.258 27.8216 140.414 27.5886C140.453 27.5497 140.492 27.5109 140.531 27.5109C140.571 27.5109 140.61 27.5109 140.61 27.5109C140.649 27.5109 140.688 27.5497 140.688 27.5886C140.688 27.6274 140.688 27.6662 140.649 27.7051C140.531 27.9381 140.336 28.1712 139.945 28.4431C139.592 28.6761 139.084 28.8704 138.497 28.9092C137.91 28.948 137.167 28.8315 136.384 28.4819C135.445 28.0935 134.819 27.5885 134.506 27.0836C134.271 26.501 134.232 25.996 134.467 25.491ZM127.033 20.4803C127.542 19.3151 128.441 18.5771 129.772 18.3052C131.063 18.0333 132.824 18.3828 135.054 19.3151C135.602 19.5481 136.032 19.7812 136.345 20.0531C136.658 20.325 136.932 20.5969 137.128 20.9076L136.854 21.1018C136.619 20.8299 136.384 20.5969 136.11 20.4027C135.875 20.2084 135.562 20.0531 135.171 19.8977C134.545 19.6258 133.997 19.6647 133.41 20.0142C132.863 20.325 132.393 20.9465 132.002 21.8787C131.611 22.7332 131.493 23.4712 131.65 24.0539C131.806 24.6365 132.158 25.0249 132.667 25.258C133.019 25.4134 133.41 25.4522 133.802 25.4134C134.232 25.3745 134.584 25.258 134.936 25.0249L135.015 25.3357C134.271 25.8406 133.41 26.1514 132.432 26.1902C131.454 26.2291 130.515 26.0348 129.576 25.6464C128.402 25.1415 127.542 24.4035 127.033 23.4712C126.642 22.4225 126.603 21.4514 127.033 20.4803Z" fill="#322977"></path><path d="M104.3 26.6564C104.3 26.501 104.379 26.4233 104.574 26.3845L105.748 26.1902C105.983 26.1514 106.139 26.0737 106.257 25.996C106.374 25.9183 106.413 25.763 106.413 25.6076C106.413 24.0539 106.413 22.5002 106.413 20.9465C106.413 17.6449 106.413 14.3432 106.413 11.0028C106.413 9.64328 106.413 8.32263 106.413 6.96313C106.413 6.53586 106.413 6.1086 106.413 5.68133C106.374 4.67142 105.67 4.36068 104.887 5.25406C104.457 5.72017 104.3 6.34165 104.144 6.96313C104.066 7.27387 103.987 7.54577 103.909 7.85651C103.714 6.73008 104.261 5.13753 104.966 4.51605C105.944 3.70035 107.587 3.73919 108.8 3.77804C110.365 3.81688 111.891 3.81688 113.456 3.81688C115.451 3.81688 117.29 4.08878 118.973 4.67142C120.655 5.25406 122.103 6.06975 123.277 7.19619C124.49 8.32263 125.429 9.64328 126.094 11.2747C126.759 12.9061 127.111 14.6928 127.111 16.7515C127.111 18.8878 126.602 20.7134 125.624 22.2283C124.607 23.7432 123.198 24.9084 121.399 25.7241C119.599 26.5398 117.447 26.9283 114.982 26.9283H104.653C104.535 26.9283 104.457 26.8894 104.418 26.8506C104.34 26.7729 104.3 26.734 104.3 26.6564ZM114.825 26.3068C115.999 26.3068 117.017 25.9572 117.916 25.2969C118.816 24.5977 119.56 23.5489 120.068 22.0341C120.577 20.5192 120.851 18.5771 120.851 16.1688C120.851 14.2267 120.655 12.5565 120.303 11.0805C119.951 9.60444 119.442 8.36147 118.777 7.3904C118.112 6.41934 117.33 5.64248 116.43 5.13753C115.491 4.63258 114.473 4.36068 113.339 4.36068H112.36V25.5688C112.36 25.8018 112.439 25.996 112.595 26.1126C112.752 26.2291 112.947 26.3068 113.221 26.3068H114.825Z" fill="#322977"></path><path d="M103.204 18.3441C103.204 18.5383 103.165 18.6548 103.048 18.7713C102.93 18.8878 102.774 18.9267 102.539 18.9267H92.249V18.4217H97.8049C98.0397 18.4217 98.1571 18.2664 98.1571 17.9945C98.1571 16.0135 97.9223 14.5375 97.4528 13.6441C96.9833 12.7119 96.4746 12.2846 95.8486 12.2846C95.3791 12.2846 94.9487 12.4788 94.5966 12.8284C94.2444 13.178 93.9314 13.7606 93.7358 14.5763C93.5401 15.392 93.4228 16.4408 93.4228 17.7226C93.4228 19.9754 93.8923 21.6457 94.8313 22.6944C95.7703 23.7432 97.0224 24.287 98.5874 24.287C99.7221 24.287 100.7 24.0151 101.444 23.4324C103.635 21.801 104.222 16.9069 104.183 14.4209C104.143 12.5565 103.752 10.7309 103.791 8.86644C103.83 7.002 103.791 7.35158 104.456 5.56482C103.752 7.35158 104.065 7.5458 104.143 9.56561C104.183 10.6532 104.339 11.702 104.456 12.7507C104.613 14.2267 104.535 15.7804 104.339 17.2565C104.222 18.0722 104.183 18.9655 103.987 19.7812C103.596 21.3349 103.087 22.9275 102.187 24.2481C101.561 25.1804 100.739 25.8795 99.7221 26.4233C98.7048 26.9671 97.531 27.2002 96.2007 27.2002C94.7531 27.2002 93.4228 26.8894 92.3272 26.268C91.1926 25.6465 90.2927 24.7531 89.6666 23.6267C89.0406 22.5002 88.6885 21.2184 88.6885 19.7035C88.6885 18.0722 89.0015 16.6738 89.6275 15.4697C90.2535 14.2656 91.1926 13.3334 92.3272 12.7119C93.501 12.0515 94.8704 11.702 96.4355 11.702C97.844 11.702 99.0178 11.9739 100.035 12.5565C101.052 13.1003 101.835 13.8771 102.344 14.8871C102.93 15.9358 103.204 17.0622 103.204 18.3441Z" fill="#322977"></path><path d="M82.8979 26.9283H80.7851C80.6677 26.9283 80.5503 26.8894 80.4329 26.8506C80.3547 26.7729 80.2764 26.6952 80.1982 26.5399L75.1509 13.4111C75.0726 13.2168 74.9944 13.0615 74.9161 12.9449C74.8379 12.8284 74.7205 12.7507 74.564 12.7119L73.9379 12.5954C73.8206 12.5565 73.7814 12.5177 73.7423 12.4788C73.7032 12.44 73.6641 12.4011 73.6641 12.3235C73.6641 12.2458 73.7032 12.2069 73.7423 12.1681C73.7814 12.1292 73.8597 12.1292 73.9379 12.1292H82.2719C82.4675 12.1292 82.5457 12.2069 82.5457 12.3623C82.5457 12.4011 82.5066 12.4788 82.4675 12.4788C82.4284 12.5177 82.3501 12.5565 82.2719 12.5954L81.4893 12.7507C80.9807 12.8673 80.6677 12.9838 80.5503 13.1392C80.4329 13.2945 80.472 13.5664 80.5894 13.8772L84.2282 23.6655L83.2109 25.4911L87.0844 14.421C87.2409 13.9548 87.2409 13.5664 87.0844 13.2945C86.9279 13.0226 86.6149 12.8284 86.1845 12.7507L85.402 12.5954C85.2846 12.5565 85.2455 12.5177 85.1672 12.4788C85.1281 12.44 85.1281 12.4011 85.1281 12.3623C85.1281 12.2846 85.1672 12.2458 85.2063 12.2069C85.2455 12.1681 85.3237 12.1681 85.402 12.1681H89.5885C89.6667 12.1681 89.745 12.1681 89.7841 12.2069C89.8232 12.2458 89.8624 12.2846 89.8624 12.3623C89.8624 12.4011 89.8232 12.4788 89.7841 12.5177C89.745 12.5565 89.6667 12.5954 89.5494 12.5954L89.0798 12.7119C88.7668 12.7896 88.4929 12.9449 88.2973 13.2168C88.1017 13.4499 87.906 13.8772 87.7104 14.421L83.4456 26.6176C83.4065 26.7341 83.3283 26.8506 83.2109 26.8894C83.1326 26.8894 83.0153 26.9283 82.8979 26.9283Z" fill="#322977"></path><path d="M66.4255 11.7796C67.9905 11.7796 69.3599 12.0903 70.5337 12.7895C71.7466 13.4498 72.6857 14.3821 73.3508 15.5473C74.0551 16.7126 74.3681 18.0721 74.3681 19.6258C74.3681 21.1407 74.016 22.4613 73.3117 23.5878C72.6074 24.7142 71.6684 25.6464 70.4163 26.3068C69.2034 26.9671 67.7557 27.3167 66.1907 27.3167C64.6256 27.3167 63.2562 27.0059 62.0433 26.3456C60.8304 25.6853 59.8914 24.7919 59.2262 23.6266C58.5611 22.4613 58.248 21.1407 58.248 19.6258C58.248 18.111 58.6002 16.7903 59.3045 15.625C60.0087 14.4597 60.9478 13.5275 62.1998 12.8672C63.4127 12.0903 64.8213 11.7796 66.4255 11.7796ZM67.3254 26.6952C67.8731 26.6175 68.3035 26.3068 68.6165 25.7241C68.9295 25.1415 69.1252 24.3258 69.2034 23.2382C69.2817 22.1506 69.2034 20.7911 68.9687 19.1597C68.7339 17.5283 68.46 16.2077 68.0688 15.1978C67.7166 14.149 67.2862 13.411 66.8167 12.906C66.3472 12.4399 65.8386 12.2457 65.2517 12.2846C64.7039 12.3622 64.2735 12.673 63.9214 13.2945C63.6084 13.8771 63.4127 14.6928 63.3736 15.7804C63.3345 16.868 63.4127 18.1886 63.6084 19.82C63.8431 21.4126 64.117 22.7721 64.5083 23.782C64.8604 24.8307 65.2908 25.5687 65.7212 26.0737C66.2689 26.5787 66.7776 26.7729 67.3254 26.6952Z" fill="#322977"></path><path d="M49.7584 4.28297L48.6629 4.47718C48.4281 4.51603 48.2716 4.59371 48.1151 4.6714C47.9977 4.74908 47.9195 4.86561 47.9195 5.02098V25.5299C47.9195 25.8018 47.9977 26.0349 48.1542 26.1514C48.3107 26.2679 48.5455 26.3068 48.8194 26.3068H50.8539C51.4017 26.3068 51.9104 26.1902 52.4581 25.996C53.0059 25.763 53.5145 25.3745 54.0623 24.7919C54.6101 24.2092 55.197 23.3547 55.7447 22.2671L57.5054 18.9655C57.5445 18.849 57.6228 18.8101 57.6619 18.7713C57.7011 18.7324 57.7793 18.7324 57.8576 18.7713C57.9358 18.8101 58.0141 18.849 58.0141 18.8878C58.0532 18.9655 58.0532 19.0432 58.0141 19.1985L56.449 26.8117C56.4099 27.0059 56.3316 27.1613 56.2925 27.239C56.2534 27.3167 56.1751 27.3555 56.0969 27.3555C56.0186 27.3555 55.8621 27.3167 55.7056 27.239C55.5491 27.1613 55.3535 27.0836 55.0796 27.0059C54.8448 26.9282 54.5709 26.8894 54.2188 26.8894H40.1333C40.0159 26.8894 39.9377 26.8506 39.8986 26.8117C39.8594 26.7729 39.8203 26.6952 39.8203 26.6563C39.8203 26.5398 39.9377 26.4233 40.1333 26.3844L41.2289 26.1902C41.4636 26.1514 41.6201 26.0737 41.7766 25.996C41.894 25.9183 41.9723 25.8018 41.9723 25.6464V5.02098C41.9723 4.86561 41.894 4.74908 41.7766 4.6714C41.6593 4.59371 41.4636 4.51603 41.2289 4.47718L40.1333 4.28297C39.9377 4.24413 39.8203 4.16644 39.8203 4.01107C39.8203 3.93339 39.8594 3.89454 39.8986 3.8557C39.9377 3.81686 40.0551 3.77802 40.1333 3.77802H49.6802C49.7975 3.77802 49.8758 3.81686 49.9149 3.8557C49.954 3.89454 49.9932 3.97223 49.9932 4.01107C50.0714 4.16644 49.954 4.24413 49.7584 4.28297Z" fill="#322977"></path><path d="M-0.161859 4.26667C-0.161859 2 1.70104 0 4.09621 0H27.5156C29.9107 0 31.7736 2 31.7736 4.26667V21.6C31.7736 24 29.9107 25.8667 27.5156 25.8667H14.7414L12.7454 30.1333C12.4793 30.8 11.4148 30.8 11.1486 30.1333L9.28572 25.8667H3.96314C1.56798 25.8667 -0.294922 23.8667 -0.294922 21.6V4.26667H-0.161859Z" fill="#FF88FF"></path><path d="M16.4715 9.73335C16.8707 9.33335 17.1368 8.93335 17.536 8.66668C18.2013 8.00002 18.9997 7.60002 19.7981 7.46668C20.3303 7.33335 20.9957 7.46668 21.5279 7.60002C22.3263 7.86668 22.9916 8.40002 23.3908 9.06668C23.9231 9.86668 24.0561 10.8 23.9231 11.7333C23.79 12.4 23.6569 13.0667 23.3908 13.6C23.1247 14.1333 22.8586 14.6667 22.4594 15.2C22.0602 15.7333 21.5279 16.2667 20.9957 16.5333C20.4634 16.9333 19.9311 17.2 19.3989 17.6C18.8666 18 18.2013 18.2667 17.669 18.6667C17.1368 18.9333 16.6045 19.2 16.0723 19.4667C15.54 19.7333 14.8747 20 14.2094 20.2667C13.544 20.5333 12.8787 20.9333 12.2134 21.2C12.0803 21.2 12.0803 21.3333 11.9473 21.3333C11.8142 21.3333 11.6811 21.3333 11.5481 21.0667C11.5481 20.9333 11.415 20.8 11.415 20.8C11.2819 20 11.0158 19.2 10.6166 18.4C10.4836 18.1333 10.3505 17.8667 10.2174 17.6C10.0844 17.2 9.81824 16.9333 9.68517 16.5333C9.28598 15.8667 9.01985 15.2 8.75372 14.4C8.48759 13.7333 8.35452 13.0667 8.0884 12.4C7.82227 11.4667 7.82227 10.6667 7.82227 9.73335C7.82227 9.33335 7.95533 8.93335 8.0884 8.66668C8.35452 7.86668 8.75372 7.20002 9.28597 6.66668C9.81823 6.00002 10.6166 5.60002 11.2819 5.20002C11.9473 4.93335 12.7457 4.80002 13.411 4.93335C13.9432 5.06668 14.3424 5.33335 14.7416 5.73335C15.2739 6.26668 15.54 6.80002 15.6731 7.60002C15.8061 8.13335 15.8061 8.53335 15.9392 9.06668C16.3384 9.46668 16.4715 9.60002 16.4715 9.73335Z" fill="white"></path></g><defs><clipPath id="clip0_230_2180"><rect width="169" height="30" fill="white"></rect></clipPath></defs></svg>