<svg xmlns="http://www.w3.org/2000/svg" width="169" height="30" viewBox="0 0 169 30" fill="none"><g clip-path="url(#clip0_138_1267)"><path d="M168.233 18.344C168.233 18.5382 168.194 18.6548 168.076 18.7713C167.959 18.8878 167.802 18.9267 167.568 18.9267H157.277V18.4217H162.833C163.068 18.4217 163.185 18.2663 163.185 17.9944C163.185 16.0135 162.951 14.5374 162.481 13.6441C162.012 12.7118 161.503 12.2846 160.877 12.2846C160.407 12.2846 159.977 12.4788 159.625 12.8284C159.273 13.178 158.96 13.7606 158.764 14.5763C158.568 15.392 158.451 16.4407 158.451 17.7225C158.451 19.9754 158.921 21.6456 159.86 22.6944C160.799 23.7432 162.051 24.287 163.616 24.287C164.75 24.287 165.729 24.0151 166.472 23.4324C167.255 22.8498 167.685 22.0729 167.802 21.1019C167.841 21.0242 167.881 20.9853 167.92 20.9465C167.959 20.9076 167.998 20.9076 168.037 20.9076C168.076 20.9076 168.154 20.9465 168.154 20.9853C168.194 21.0242 168.194 21.1019 168.194 21.1795C168.154 22.306 167.841 23.3547 167.215 24.2481C166.589 25.1803 165.768 25.8795 164.75 26.4233C163.733 26.9671 162.559 27.2002 161.229 27.2002C159.781 27.2002 158.451 26.8894 157.356 26.2679C156.221 25.6464 155.321 24.7531 154.695 23.6266C154.069 22.5002 153.717 21.2184 153.717 19.7035C153.717 18.0721 154.03 16.6738 154.656 15.4697C155.282 14.2655 156.221 13.3333 157.356 12.7118C158.529 12.0515 159.899 11.7019 161.464 11.7019C162.872 11.7019 164.046 11.9738 165.063 12.5565C166.081 13.1003 166.863 13.8771 167.411 14.887C167.959 15.9358 168.233 17.0622 168.233 18.344Z" fill="white"></path><path d="M144.561 12.8672L143.348 12.5565C143.231 12.5176 143.192 12.4788 143.113 12.44C143.074 12.4011 143.074 12.3623 143.074 12.2846C143.074 12.2069 143.113 12.1681 143.152 12.1292C143.192 12.0904 143.27 12.0515 143.348 12.0515H144.678C144.757 12.0515 144.835 12.0515 144.874 12.0127C144.952 11.9738 145.031 11.935 145.109 11.8185L148.865 8.63337C148.982 8.51685 149.1 8.43916 149.178 8.40032C149.295 8.36148 149.374 8.32263 149.491 8.32263C149.608 8.32263 149.687 8.36148 149.726 8.43916C149.804 8.51685 149.843 8.59453 149.843 8.7499V22.3837C149.843 23.3159 150 23.9762 150.352 24.4423C150.704 24.9084 151.173 25.1027 151.721 25.1027C151.956 25.1027 152.152 25.0638 152.347 24.9861C152.543 24.9084 152.738 24.7919 152.895 24.6365C153.051 24.4812 153.208 24.287 153.325 24.0539C153.443 23.8208 153.599 23.549 153.677 23.2382C153.717 23.1605 153.795 23.1605 153.834 23.1605C153.912 23.1605 153.912 23.2382 153.912 23.3547C153.756 24.2093 153.482 24.9084 153.13 25.4522C152.778 25.996 152.308 26.4233 151.682 26.734C151.095 27.0059 150.352 27.1613 149.452 27.1613C147.965 27.1613 146.83 26.8117 146.009 26.1126C145.226 25.4134 144.835 24.3646 144.835 22.9275V13.2557C144.835 13.1391 144.835 13.0614 144.796 12.9837C144.757 12.9449 144.678 12.9061 144.561 12.8672ZM148.239 12.7119L148.356 12.1292H153.638C153.717 12.1292 153.795 12.1292 153.834 12.1681C153.873 12.2069 153.912 12.2457 153.912 12.3234C153.912 12.44 153.834 12.5176 153.717 12.5953C153.599 12.673 153.443 12.7119 153.208 12.7119H148.239Z" fill="white"></path><path d="M134.466 25.491L134.545 25.2968L134.232 25.3745L138.692 15.0812C138.927 14.5374 139.005 14.0713 138.849 13.644C138.731 13.2556 138.457 12.9449 138.027 12.7507C137.557 12.5564 137.088 12.5176 136.736 12.673C136.384 12.8283 136.11 13.0614 135.953 13.4498L135.327 14.887C135.053 15.5085 134.623 15.8969 133.997 16.13C133.371 16.363 132.706 16.3242 131.962 16.0134C131.454 15.7804 131.062 15.4696 130.867 15.0424C130.671 14.6151 130.71 14.1102 130.945 13.5664C131.18 12.9837 131.649 12.5564 132.354 12.2069C133.058 11.8573 133.958 11.7019 135.053 11.7408C136.149 11.7796 137.401 12.0903 138.77 12.673C140.609 13.4498 141.822 14.4209 142.409 15.5085C142.996 16.6349 143.035 17.839 142.448 19.1985L139.122 26.8894C139.005 27.1613 138.966 27.3943 139.005 27.5886C139.044 27.7828 139.162 27.8993 139.357 27.977C139.553 28.0547 139.709 28.0547 139.905 28.0158C140.101 27.977 140.257 27.8216 140.414 27.5886C140.453 27.5497 140.492 27.5109 140.531 27.5109C140.57 27.5109 140.609 27.5109 140.609 27.5109C140.648 27.5109 140.688 27.5497 140.688 27.5886C140.688 27.6274 140.688 27.6662 140.648 27.7051C140.531 27.9381 140.335 28.1712 139.944 28.4431C139.592 28.6761 139.083 28.8704 138.496 28.9092C137.91 28.948 137.166 28.8315 136.384 28.4819C135.445 28.0935 134.819 27.5885 134.506 27.0836C134.271 26.501 134.232 25.996 134.466 25.491ZM127.032 20.4803C127.541 19.3151 128.441 18.5771 129.771 18.3052C131.062 18.0333 132.823 18.3828 135.053 19.3151C135.601 19.5481 136.031 19.7812 136.344 20.0531C136.657 20.325 136.931 20.5969 137.127 20.9076L136.853 21.1018C136.618 20.8299 136.384 20.5969 136.11 20.4027C135.875 20.2084 135.562 20.0531 135.171 19.8977C134.545 19.6258 133.997 19.6647 133.41 20.0142C132.862 20.325 132.393 20.9465 132.001 21.8787C131.61 22.7332 131.493 23.4712 131.649 24.0539C131.806 24.6365 132.158 25.0249 132.667 25.258C133.019 25.4134 133.41 25.4522 133.801 25.4134C134.232 25.3745 134.584 25.258 134.936 25.0249L135.014 25.3357C134.271 25.8406 133.41 26.1514 132.432 26.1902C131.454 26.2291 130.515 26.0348 129.576 25.6464C128.402 25.1415 127.541 24.4035 127.032 23.4712C126.641 22.4225 126.602 21.4514 127.032 20.4803Z" fill="white"></path><path d="M104.3 26.6564C104.3 26.501 104.378 26.4233 104.574 26.3845L105.748 26.1902C105.982 26.1514 106.139 26.0737 106.256 25.996C106.374 25.9183 106.413 25.763 106.413 25.6076C106.413 24.0539 106.413 22.5002 106.413 20.9465C106.413 17.6449 106.413 14.3432 106.413 11.0028C106.413 9.64328 106.413 8.32263 106.413 6.96313C106.413 6.53586 106.413 6.1086 106.413 5.68133C106.374 4.67142 105.669 4.36068 104.887 5.25406C104.456 5.72017 104.3 6.34165 104.143 6.96313C104.065 7.27387 103.987 7.54577 103.909 7.85651C103.713 6.73008 104.261 5.13753 104.965 4.51605C105.943 3.70035 107.587 3.73919 108.8 3.77804C110.365 3.81688 111.89 3.81688 113.456 3.81688C115.451 3.81688 117.29 4.08878 118.972 4.67142C120.655 5.25406 122.102 6.06975 123.276 7.19619C124.489 8.32263 125.428 9.64328 126.093 11.2747C126.759 12.9061 127.111 14.6928 127.111 16.7515C127.111 18.8878 126.602 20.7134 125.624 22.2283C124.607 23.7432 123.198 24.9084 121.398 25.7241C119.598 26.5398 117.446 26.9283 114.981 26.9283H104.652C104.535 26.9283 104.456 26.8894 104.417 26.8506C104.339 26.7729 104.3 26.734 104.3 26.6564ZM114.825 26.3068C115.999 26.3068 117.016 25.9572 117.916 25.2969C118.816 24.5977 119.559 23.5489 120.068 22.0341C120.577 20.5192 120.85 18.5771 120.85 16.1688C120.85 14.2267 120.655 12.5565 120.303 11.0805C119.951 9.60444 119.442 8.36147 118.777 7.3904C118.112 6.41934 117.329 5.64248 116.429 5.13753C115.49 4.63258 114.473 4.36068 113.338 4.36068H112.36V25.5688C112.36 25.8018 112.438 25.996 112.595 26.1126C112.751 26.2291 112.947 26.3068 113.221 26.3068H114.825Z" fill="white"></path><path d="M103.204 18.3441C103.204 18.5383 103.165 18.6548 103.048 18.7713C102.93 18.8878 102.774 18.9267 102.539 18.9267H92.249V18.4217H97.8049C98.0397 18.4217 98.1571 18.2664 98.1571 17.9945C98.1571 16.0135 97.9223 14.5375 97.4528 13.6441C96.9833 12.7119 96.4746 12.2846 95.8486 12.2846C95.3791 12.2846 94.9487 12.4788 94.5966 12.8284C94.2444 13.178 93.9314 13.7606 93.7358 14.5763C93.5401 15.392 93.4228 16.4408 93.4228 17.7226C93.4228 19.9754 93.8923 21.6457 94.8313 22.6944C95.7703 23.7432 97.0224 24.287 98.5874 24.287C99.7221 24.287 100.7 24.0151 101.444 23.4324C103.635 21.801 104.222 16.9069 104.183 14.4209C104.143 12.5565 103.752 10.7309 103.791 8.86644C103.83 7.002 103.791 7.35158 104.456 5.56482C103.752 7.35158 104.065 7.5458 104.143 9.56561C104.183 10.6532 104.339 11.702 104.456 12.7507C104.613 14.2267 104.535 15.7804 104.339 17.2565C104.222 18.0722 104.183 18.9655 103.987 19.7812C103.596 21.3349 103.087 22.9275 102.187 24.2481C101.561 25.1804 100.739 25.8795 99.7221 26.4233C98.7048 26.9671 97.531 27.2002 96.2007 27.2002C94.7531 27.2002 93.4228 26.8894 92.3272 26.268C91.1926 25.6465 90.2927 24.7531 89.6666 23.6267C89.0406 22.5002 88.6885 21.2184 88.6885 19.7035C88.6885 18.0722 89.0015 16.6738 89.6275 15.4697C90.2535 14.2656 91.1926 13.3334 92.3272 12.7119C93.501 12.0515 94.8704 11.702 96.4355 11.702C97.844 11.702 99.0178 11.9739 100.035 12.5565C101.052 13.1003 101.835 13.8771 102.344 14.8871C102.93 15.9358 103.204 17.0622 103.204 18.3441Z" fill="white"></path><path d="M82.8979 26.9283H80.7851C80.6677 26.9283 80.5503 26.8894 80.4329 26.8506C80.3547 26.7729 80.2764 26.6952 80.1982 26.5399L75.1509 13.4111C75.0726 13.2168 74.9944 13.0615 74.9161 12.9449C74.8379 12.8284 74.7205 12.7507 74.564 12.7119L73.9379 12.5954C73.8206 12.5565 73.7814 12.5177 73.7423 12.4788C73.7032 12.44 73.6641 12.4011 73.6641 12.3235C73.6641 12.2458 73.7032 12.2069 73.7423 12.1681C73.7814 12.1292 73.8597 12.1292 73.9379 12.1292H82.2719C82.4675 12.1292 82.5457 12.2069 82.5457 12.3623C82.5457 12.4011 82.5066 12.4788 82.4675 12.4788C82.4284 12.5177 82.3501 12.5565 82.2719 12.5954L81.4893 12.7507C80.9807 12.8673 80.6677 12.9838 80.5503 13.1392C80.4329 13.2945 80.472 13.5664 80.5894 13.8772L84.2282 23.6655L83.2109 25.4911L87.0844 14.421C87.2409 13.9548 87.2409 13.5664 87.0844 13.2945C86.9279 13.0226 86.6149 12.8284 86.1845 12.7507L85.402 12.5954C85.2846 12.5565 85.2455 12.5177 85.1672 12.4788C85.1281 12.44 85.1281 12.4011 85.1281 12.3623C85.1281 12.2846 85.1672 12.2458 85.2063 12.2069C85.2455 12.1681 85.3237 12.1681 85.402 12.1681H89.5885C89.6667 12.1681 89.745 12.1681 89.7841 12.2069C89.8232 12.2458 89.8624 12.2846 89.8624 12.3623C89.8624 12.4011 89.8232 12.4788 89.7841 12.5177C89.745 12.5565 89.6667 12.5954 89.5494 12.5954L89.0798 12.7119C88.7668 12.7896 88.4929 12.9449 88.2973 13.2168C88.1017 13.4499 87.906 13.8772 87.7104 14.421L83.4456 26.6176C83.4065 26.7341 83.3283 26.8506 83.2109 26.8894C83.1326 26.8894 83.0153 26.9283 82.8979 26.9283Z" fill="white"></path><path d="M66.4259 11.7796C67.991 11.7796 69.3604 12.0903 70.5342 12.7895C71.7471 13.4498 72.6862 14.3821 73.3513 15.5473C74.0556 16.7126 74.3686 18.0721 74.3686 19.6258C74.3686 21.1407 74.0165 22.4613 73.3122 23.5878C72.6079 24.7142 71.6689 25.6464 70.4168 26.3068C69.2039 26.9671 67.7562 27.3167 66.1912 27.3167C64.6261 27.3167 63.2567 27.0059 62.0438 26.3456C60.8309 25.6853 59.8918 24.7919 59.2267 23.6266C58.5615 22.4613 58.2485 21.1407 58.2485 19.6258C58.2485 18.111 58.6007 16.7903 59.3049 15.625C60.0092 14.4597 60.9483 13.5275 62.2003 12.8672C63.4132 12.0903 64.8218 11.7796 66.4259 11.7796ZM67.3258 26.6952C67.8736 26.6175 68.304 26.3068 68.617 25.7241C68.93 25.1415 69.1257 24.3258 69.2039 23.2382C69.2822 22.1506 69.2039 20.7911 68.9692 19.1597C68.7344 17.5283 68.4605 16.2077 68.0692 15.1978C67.7171 14.149 67.2867 13.411 66.8172 12.906C66.3477 12.4399 65.839 12.2457 65.2522 12.2846C64.7044 12.3622 64.274 12.673 63.9219 13.2945C63.6088 13.8771 63.4132 14.6928 63.3741 15.7804C63.335 16.868 63.4132 18.1886 63.6088 19.82C63.8436 21.4126 64.1175 22.7721 64.5087 23.782C64.8609 24.8307 65.2913 25.5687 65.7217 26.0737C66.2694 26.5787 66.7781 26.7729 67.3258 26.6952Z" fill="white"></path><path d="M49.7579 4.28297L48.6624 4.47718C48.4276 4.51603 48.2711 4.59371 48.1146 4.6714C47.9972 4.74908 47.919 4.86561 47.919 5.02098V25.5299C47.919 25.8018 47.9972 26.0349 48.1537 26.1514C48.3102 26.2679 48.545 26.3068 48.8189 26.3068H50.8535C51.4012 26.3068 51.9099 26.1902 52.4576 25.996C53.0054 25.763 53.514 25.3745 54.0618 24.7919C54.6096 24.2092 55.1965 23.3547 55.7442 22.2671L57.5049 18.9655C57.5441 18.849 57.6223 18.8101 57.6614 18.7713C57.7006 18.7324 57.7788 18.7324 57.8571 18.7713C57.9353 18.8101 58.0136 18.849 58.0136 18.8878C58.0527 18.9655 58.0527 19.0432 58.0136 19.1985L56.4485 26.8117C56.4094 27.0059 56.3311 27.1613 56.292 27.239C56.2529 27.3167 56.1746 27.3555 56.0964 27.3555C56.0181 27.3555 55.8616 27.3167 55.7051 27.239C55.5486 27.1613 55.353 27.0836 55.0791 27.0059C54.8443 26.9282 54.5705 26.8894 54.2183 26.8894H40.1328C40.0155 26.8894 39.9372 26.8506 39.8981 26.8117C39.859 26.7729 39.8198 26.6952 39.8198 26.6563C39.8198 26.5398 39.9372 26.4233 40.1328 26.3844L41.2284 26.1902C41.4631 26.1514 41.6196 26.0737 41.7761 25.996C41.8935 25.9183 41.9718 25.8018 41.9718 25.6464V5.02098C41.9718 4.86561 41.8935 4.74908 41.7761 4.6714C41.6588 4.59371 41.4631 4.51603 41.2284 4.47718L40.1328 4.28297C39.9372 4.24413 39.8198 4.16644 39.8198 4.01107C39.8198 3.93339 39.859 3.89454 39.8981 3.8557C39.9372 3.81686 40.0546 3.77802 40.1328 3.77802H49.6797C49.797 3.77802 49.8753 3.81686 49.9144 3.8557C49.9535 3.89454 49.9927 3.97223 49.9927 4.01107C50.0709 4.16644 49.9535 4.24413 49.7579 4.28297Z" fill="white"></path><path d="M-0.161371 4.26667C-0.161371 2 1.70153 0 4.09669 0H27.516C29.9112 0 31.7741 2 31.7741 4.26667V21.6C31.7741 24 29.9112 25.8667 27.516 25.8667H14.7419L12.7459 30.1333C12.4798 30.8 11.4152 30.8 11.1491 30.1333L9.28621 25.8667H3.96363C1.56847 25.8667 -0.294434 23.8667 -0.294434 21.6V4.26667H-0.161371Z" fill="#FF88FF"></path><path d="M16.4719 9.73335C16.8711 9.33335 17.1373 8.93335 17.5365 8.66668C18.2018 8.00002 19.0002 7.60002 19.7986 7.46668C20.3308 7.33335 20.9961 7.46668 21.5284 7.60002C22.3268 7.86668 22.9921 8.40002 23.3913 9.06668C23.9236 9.86668 24.0566 10.8 23.9236 11.7333C23.7905 12.4 23.6574 13.0667 23.3913 13.6C23.1252 14.1333 22.859 14.6667 22.4599 15.2C22.0607 15.7333 21.5284 16.2667 20.9961 16.5333C20.4639 16.9333 19.9316 17.2 19.3994 17.6C18.8671 18 18.2018 18.2667 17.6695 18.6667C17.1373 18.9333 16.605 19.2 16.0728 19.4667C15.5405 19.7333 14.8752 20 14.2098 20.2667C13.5445 20.5333 12.8792 20.9333 12.2139 21.2C12.0808 21.2 12.0808 21.3333 11.9478 21.3333C11.8147 21.3333 11.6816 21.3333 11.5486 21.0667C11.5486 20.9333 11.4155 20.8 11.4155 20.8C11.2824 20 11.0163 19.2 10.6171 18.4C10.484 18.1333 10.351 17.8667 10.2179 17.6C10.0848 17.2 9.81872 16.9333 9.68566 16.5333C9.28647 15.8667 9.02034 15.2 8.75421 14.4C8.48808 13.7333 8.35501 13.0667 8.08888 12.4C7.82275 11.4667 7.82275 10.6667 7.82275 9.73335C7.82275 9.33335 7.95582 8.93335 8.08888 8.66668C8.35501 7.86668 8.7542 7.20002 9.28646 6.66668C9.81872 6.00002 10.6171 5.60002 11.2824 5.20002C11.9478 4.93335 12.7461 4.80002 13.4115 4.93335C13.9437 5.06668 14.3429 5.33335 14.7421 5.73335C15.2744 6.26668 15.5405 6.80002 15.6736 7.60002C15.8066 8.13335 15.8066 8.53335 15.9397 9.06668C16.3389 9.46668 16.4719 9.60002 16.4719 9.73335Z" fill="white"></path></g><defs><clipPath id="clip0_138_1267"><rect width="169" height="30" fill="white"></rect></clipPath></defs></svg>