<svg width="24" height="24" viewBox="0 0 24 24" fill="none" xmlns="http://www.w3.org/2000/svg">
<path d="M5.45 16.92C4.34883 15.8762 3.47995 14.6121 2.9 13.21C2.80095 12.9794 2.74988 12.731 2.74988 12.48C2.74988 12.229 2.80095 11.9806 2.9 11.75C3.67019 9.87639 4.96114 8.26271 6.62 7.10001C8.1945 5.99972 10.0797 5.43205 12 5.48001C13.3816 5.44532 14.7519 5.73651 16 6.33001M18.56 8.05001C19.6553 9.09285 20.5204 10.3531 21.1 11.75C21.199 11.9806 21.2501 12.229 21.2501 12.48C21.2501 12.731 21.199 12.9794 21.1 13.21C20.3298 15.0836 19.0388 16.6973 17.38 17.86C15.8055 18.9603 13.9203 19.528 12 19.48C10.6184 19.5147 9.24809 19.2235 8 18.63" stroke="#757575" stroke-width="1.5" stroke-linecap="round" stroke-linejoin="round"/>
<path d="M8.71 13.65C8.56976 13.2759 8.4986 12.8795 8.5 12.48C8.5 11.5517 8.86875 10.6615 9.52513 10.0051C10.1815 9.34875 11.0717 8.98 12 8.98C12.4 8.978 12.796 9.05 13.17 9.19M15.29 11.31C15.43 11.684 15.502 12.08 15.5 12.48C15.5 13.4083 15.1313 14.2985 14.4749 14.9549C13.8185 15.6113 12.9283 15.98 12 15.98C11.6005 15.9814 11.2041 15.9102 10.83 15.77M3 20L19 4" stroke="#757575" stroke-width="1.5" stroke-linecap="round" stroke-linejoin="round"/>
</svg>
