<svg width="24" height="24" viewBox="0 0 24 24" fill="none" xmlns="http://www.w3.org/2000/svg">
<path d="M12 11.25C12.1989 11.25 12.3897 11.329 12.5303 11.4697C12.671 11.6103 12.75 11.8011 12.75 12V14.5C12.75 14.6989 12.671 14.8897 12.5303 15.0303C12.3897 15.171 12.1989 15.25 12 15.25C11.8011 15.25 11.6103 15.171 11.4697 15.0303C11.329 14.8897 11.25 14.6989 11.25 14.5V12C11.25 11.8011 11.329 11.6103 11.4697 11.4697C11.6103 11.329 11.8011 11.25 12 11.25Z" fill="white"/>
<path fill-rule="evenodd" clip-rule="evenodd" d="M6.265 6.492C6.065 6.55467 5.86933 6.628 5.678 6.712C3.66 7.606 2.25 9.687 2.25 12.1C2.25 14.461 3.267 16.257 4.587 17.696C5.643 18.847 6.935 19.81 8.07 20.656C8.32733 20.8473 8.574 21.033 8.81 21.213C9.271 21.564 9.77 21.943 10.276 22.229C10.783 22.516 11.366 22.751 12 22.751C12.634 22.751 13.217 22.516 13.724 22.229C14.231 21.942 14.729 21.564 15.19 21.213C15.426 21.033 15.6727 20.8473 15.93 20.656C17.065 19.81 18.357 18.847 19.413 17.696C20.733 16.257 21.75 14.461 21.75 12.1C21.75 9.687 20.34 7.606 18.322 6.714C18.1303 6.63015 17.9344 6.55638 17.735 6.493C17.641 4.917 17.103 3.63 16.148 2.716C15.098 1.711 13.642 1.25 12 1.25C10.358 1.25 8.902 1.711 7.852 2.715C6.897 3.629 6.359 4.915 6.265 6.492ZM7.79 6.25C9.171 6.232 10.637 6.742 12 7.908C13.363 6.742 14.829 6.232 16.21 6.25C16.085 5.143 15.681 4.345 15.111 3.8C14.414 3.132 13.371 2.75 12 2.75C10.63 2.75 9.586 3.132 8.889 3.8C8.319 4.345 7.915 5.143 7.79 6.25ZM3.75 12.1C3.75 10.275 4.815 8.735 6.285 8.084C7.714 7.452 9.637 7.618 11.468 9.459C11.5377 9.52915 11.6206 9.58481 11.7119 9.6228C11.8032 9.66079 11.9011 9.68035 12 9.68035C12.0989 9.68035 12.1968 9.66079 12.2881 9.6228C12.3794 9.58481 12.4623 9.52915 12.532 9.459C14.362 7.618 16.286 7.452 17.715 8.084C19.185 8.734 20.25 10.274 20.25 12.099C20.25 13.976 19.458 15.427 18.308 16.681C17.358 17.717 16.208 18.575 15.079 19.418C14.8097 19.618 14.543 19.8183 14.279 20.019C13.805 20.381 13.387 20.695 12.985 20.922C12.583 21.15 12.265 21.25 12 21.25C11.734 21.25 11.417 21.15 11.015 20.922C10.613 20.695 10.195 20.381 9.721 20.019C9.4554 19.8172 9.18873 19.6169 8.921 19.418C7.793 18.576 6.643 17.718 5.692 16.681C4.542 15.427 3.75 13.976 3.75 12.099" fill="#FF88FF"/>
</svg>
