<svg width="30" height="30" viewBox="0 0 30 30" fill="none" xmlns="http://www.w3.org/2000/svg">
<path d="M23.5548 9.84375C23.3832 12.2268 21.6154 14.0625 19.6876 14.0625C17.7599 14.0625 15.9892 12.2273 15.8205 9.84375C15.6447 7.36465 17.3656 5.625 19.6876 5.625C22.0097 5.625 23.7306 7.40977 23.5548 9.84375Z" stroke="#191250" stroke-linecap="round" stroke-linejoin="round"/>
<path d="M19.6873 17.8125C15.8687 17.8125 12.1966 19.7092 11.2767 23.4029C11.1548 23.8916 11.4613 24.375 11.9634 24.375H27.4117C27.9138 24.375 28.2185 23.8916 28.0984 23.4029C27.1785 19.65 23.5064 17.8125 19.6873 17.8125Z" stroke="#191250" stroke-miterlimit="10"/>
<path d="M11.7187 10.8949C11.5816 12.798 10.1531 14.2969 8.61323 14.2969C7.07339 14.2969 5.64253 12.7986 5.50776 10.8949C5.36772 8.91504 6.75815 7.5 8.61323 7.5C10.4683 7.5 11.8587 8.95137 11.7187 10.8949Z" stroke="#191250" stroke-linecap="round" stroke-linejoin="round"/>
<path d="M12.0704 17.9297C11.0128 17.4451 9.84794 17.2588 8.61337 17.2588C5.56649 17.2588 2.63094 18.7734 1.89559 21.7236C1.79891 22.1139 2.04383 22.5 2.44462 22.5H9.02352" stroke="#191250" stroke-miterlimit="10" stroke-linecap="round"/>
</svg>
