<svg width="30" height="30" viewBox="0 0 30 30" fill="none" xmlns="http://www.w3.org/2000/svg">
<path d="M26.5627 15C26.5646 16.5181 26.267 18.0216 25.6867 19.4245C25.1065 20.8273 24.2551 22.1018 23.1814 23.175C22.1072 24.2495 20.8317 25.1017 19.4279 25.683C18.0241 26.2642 16.5196 26.5631 15.0002 26.5625C13.3649 26.5661 11.7477 26.2209 10.2564 25.55L5.42268 26.265C5.18268 26.3042 4.93674 26.2842 4.70623 26.2067C4.47571 26.1293 4.26759 25.9967 4.09994 25.8206C3.93229 25.6444 3.81018 25.43 3.74422 25.196C3.67825 24.9619 3.67043 24.7153 3.72143 24.4775L4.39268 19.5738C3.75417 18.134 3.42866 16.575 3.43768 15C3.43574 13.4819 3.73341 11.9784 4.31363 10.5755C4.89386 9.17272 5.74522 7.89819 6.81893 6.825C7.89317 5.75052 9.16864 4.8983 10.5724 4.31705C11.9762 3.7358 13.4808 3.43692 15.0002 3.4375C18.0685 3.43771 21.0111 4.65613 23.1814 6.825C24.2546 7.8986 25.1056 9.1732 25.6858 10.5759C26.266 11.9787 26.5639 13.482 26.5627 15Z" stroke="#191250" stroke-width="1.5" stroke-linecap="round" stroke-linejoin="round"/>
<path d="M9.8501 14.8587L12.7488 17.7587C12.8506 17.8623 12.972 17.9446 13.106 18.0007C13.2399 18.0568 13.3836 18.0858 13.5288 18.0858C13.6741 18.0858 13.8178 18.0568 13.9517 18.0007C14.0857 17.9446 14.2071 17.8623 14.3088 17.7587L20.1501 11.9162" stroke="#191250" stroke-width="1.5" stroke-linecap="round" stroke-linejoin="round"/>
</svg>
