<svg width="40" height="40" viewBox="0 0 40 40" fill="none" xmlns="http://www.w3.org/2000/svg">
<path d="M35 20C35.0047 22.9779 34.119 25.8893 32.4567 28.36C31.0857 30.405 29.2319 32.0807 27.0593 33.2388C24.8866 34.397 22.462 35.0018 20 35C17.538 35.0018 15.1134 34.397 12.9407 33.2388C10.7681 32.0807 8.9143 30.405 7.54334 28.36C6.23788 26.414 5.4065 24.1893 5.11584 21.8641C4.82518 19.5389 5.08333 17.1779 5.86958 14.9705C6.65583 12.763 7.94833 10.7705 9.64345 9.15259C11.3386 7.5347 13.3892 6.33645 15.6308 5.6539C17.8725 4.97135 20.2429 4.82349 22.5521 5.22218C24.8612 5.62086 27.0448 6.555 28.9278 7.9497C30.8109 9.3444 32.341 11.1609 33.3954 13.2535C34.4499 15.3461 34.9995 17.6567 35 20Z" stroke="white" stroke-width="1.5"/>
<path d="M22.0833 15C22.0833 16.15 21.15 17.0834 20 17.0834V19.5834C21.2156 19.5834 22.3814 19.1005 23.2409 18.2409C24.1005 17.3814 24.5833 16.2156 24.5833 15H22.0833ZM20 17.0834C18.85 17.0834 17.9167 16.15 17.9167 15H15.4167C15.4167 16.2156 15.8996 17.3814 16.7591 18.2409C17.6186 19.1005 18.7844 19.5834 20 19.5834V17.0834ZM17.9167 15C17.9167 13.85 18.85 12.9167 20 12.9167V10.4167C18.7844 10.4167 17.6186 10.8996 16.7591 11.7591C15.8996 12.6187 15.4167 13.7844 15.4167 15H17.9167ZM20 12.9167C21.15 12.9167 22.0833 13.85 22.0833 15H24.5833C24.5833 13.7844 24.1005 12.6187 23.2409 11.7591C22.3814 10.8996 21.2156 10.4167 20 10.4167V12.9167ZM8.61001 29.76L7.41167 29.4034L7.21667 30.0567L7.66168 30.5734L8.61001 29.76ZM31.39 29.76L32.34 30.575L32.7833 30.0584L32.5883 29.4034L31.39 29.76ZM15 26.25H25V23.75H15V26.25ZM15 23.75C13.295 23.7496 11.6355 24.2996 10.2682 25.3182C8.90099 26.3368 7.89912 27.7696 7.41167 29.4034L9.80834 30.1167C10.1421 28.9991 10.8276 28.0192 11.763 27.3225C12.6984 26.6258 13.8337 26.2497 15 26.25V23.75ZM20 33.75C18.0157 33.7523 16.0545 33.324 14.2518 32.4947C12.4491 31.6655 10.8478 30.4549 9.55834 28.9467L7.66168 30.5734C9.18578 32.355 11.0781 33.7866 13.2082 34.7663C15.3382 35.7461 17.6554 36.2523 20 36.25V33.75ZM25 26.25C27.45 26.25 29.525 27.88 30.1917 30.1167L32.5883 29.4034C32.1009 27.7696 31.099 26.3368 29.7318 25.3182C28.3645 24.2996 26.705 23.7496 25 23.75V26.25ZM30.4417 28.9467C29.1522 30.4549 27.5509 31.6655 25.7482 32.4947C23.9455 33.324 21.9843 33.7523 20 33.75V36.25C22.3446 36.2523 24.6618 35.7461 26.7919 34.7663C28.9219 33.7866 30.8159 32.3566 32.34 30.575L30.4417 28.9467Z" fill="white"/>
</svg>
