<svg width="30" height="30" viewBox="0 0 30 30" fill="none" xmlns="http://www.w3.org/2000/svg">
<path fill-rule="evenodd" clip-rule="evenodd" d="M15.7037 4H14.2963L13.49 7.2225L12.6813 7.4725C12.21 7.61772 11.7534 7.80688 11.3175 8.0375L10.5688 8.43375L7.71875 6.72375L6.72375 7.72L8.43375 10.57L8.0375 11.3175C7.80645 11.7533 7.61687 12.2099 7.47125 12.6813L7.2225 13.49L4 14.2963V15.7037L7.2225 16.51L7.4725 17.3187C7.61667 17.7921 7.805 18.2467 8.0375 18.6825L8.43375 19.4312L6.72375 22.2812L7.72 23.2763L10.57 21.5662L11.3175 21.9625C11.7533 22.1942 12.2079 22.3829 12.6813 22.5288L13.49 22.7775L14.2963 26H15.7037L16.51 22.7775L17.3187 22.5275C17.79 22.3823 18.2466 22.1931 18.6825 21.9625L19.4312 21.5662L22.2812 23.2763L23.2763 22.28L21.5662 19.43L21.9625 18.6825C22.1942 18.2467 22.3829 17.7921 22.5288 17.3187L22.7775 16.51L26 15.7037V14.2963L22.7775 13.49L22.5275 12.6813C22.3823 12.21 22.1931 11.7534 21.9625 11.3175L21.5662 10.5688L23.2763 7.71875L22.28 6.72375L19.43 8.43375L18.6825 8.0375C18.2467 7.80645 17.7901 7.61687 17.3187 7.47125L16.51 7.2225L15.7037 4ZM19.385 6.7125L21.6763 5.3375C21.9152 5.1942 22.1951 5.13482 22.4716 5.16879C22.7481 5.20276 23.0054 5.32814 23.2025 5.525L24.475 6.7975C24.6719 6.99463 24.7972 7.25187 24.8312 7.52838C24.8652 7.8049 24.8058 8.08484 24.6625 8.32375L23.2875 10.615C23.5625 11.1317 23.7875 11.6733 23.9625 12.24L26.5537 12.8888C26.8241 12.9565 27.064 13.1126 27.2354 13.3322C27.4069 13.5519 27.5 13.8226 27.5 14.1012V15.8988C27.5 16.1774 27.4069 16.4481 27.2354 16.6678C27.064 16.8874 26.8241 17.0435 26.5537 17.1112L23.9625 17.76C23.7875 18.3267 23.5625 18.8683 23.2875 19.385L24.6625 21.6763C24.8058 21.9152 24.8652 22.1951 24.8312 22.4716C24.7972 22.7481 24.6719 23.0054 24.475 23.2025L23.2025 24.475C23.0054 24.6719 22.7481 24.7972 22.4716 24.8312C22.1951 24.8652 21.9152 24.8058 21.6763 24.6625L19.385 23.2875C18.8683 23.5625 18.3267 23.7875 17.76 23.9625L17.1112 26.5537C17.0435 26.8241 16.8874 27.064 16.6678 27.2354C16.4481 27.4069 16.1774 27.5 15.8988 27.5H14.1012C13.8226 27.5 13.5519 27.4069 13.3322 27.2354C13.1126 27.064 12.9565 26.8241 12.8888 26.5537L12.24 23.9625C11.6784 23.7889 11.1343 23.5629 10.615 23.2875L8.32375 24.6625C8.08484 24.8058 7.8049 24.8652 7.52838 24.8312C7.25187 24.7972 6.99463 24.6719 6.7975 24.475L5.525 23.2025C5.32814 23.0054 5.20276 22.7481 5.16879 22.4716C5.13482 22.1951 5.1942 21.9152 5.3375 21.6763L6.7125 19.385C6.43705 18.8657 6.21106 18.3216 6.0375 17.76L3.44625 17.1112C3.17615 17.0436 2.93637 16.8877 2.76495 16.6683C2.59353 16.4488 2.50029 16.1784 2.5 15.9V14.1025C2.50001 13.8238 2.59313 13.5532 2.76457 13.3335C2.93601 13.1138 3.17594 12.9577 3.44625 12.89L6.0375 12.2413C6.2125 11.6746 6.4375 11.1329 6.7125 10.6163L5.3375 8.325C5.1942 8.08609 5.13482 7.80615 5.16879 7.52963C5.20276 7.25312 5.32814 6.99588 5.525 6.79875L6.7975 5.525C6.99463 5.32814 7.25187 5.20276 7.52838 5.16879C7.8049 5.13482 8.08484 5.1942 8.32375 5.3375L10.615 6.7125C11.1317 6.4375 11.6733 6.2125 12.24 6.0375L12.8888 3.44625C12.9564 3.17615 13.1123 2.93637 13.3317 2.76495C13.5512 2.59353 13.8216 2.50029 14.1 2.5H15.8975C16.1762 2.50001 16.4468 2.59313 16.6665 2.76457C16.8862 2.93601 17.0423 3.17594 17.11 3.44625L17.7587 6.0375C18.3254 6.2125 18.8671 6.4375 19.3838 6.7125H19.385ZM15 18.5C15.9283 18.5 16.8185 18.1313 17.4749 17.4749C18.1313 16.8185 18.5 15.9283 18.5 15C18.5 14.0717 18.1313 13.1815 17.4749 12.5251C16.8185 11.8687 15.9283 11.5 15 11.5C14.0717 11.5 13.1815 11.8687 12.5251 12.5251C11.8687 13.1815 11.5 14.0717 11.5 15C11.5 15.9283 11.8687 16.8185 12.5251 17.4749C13.1815 18.1313 14.0717 18.5 15 18.5ZM15 20C13.6739 20 12.4021 19.4732 11.4645 18.5355C10.5268 17.5979 10 16.3261 10 15C10 13.6739 10.5268 12.4021 11.4645 11.4645C12.4021 10.5268 13.6739 10 15 10C16.3261 10 17.5979 10.5268 18.5355 11.4645C19.4732 12.4021 20 13.6739 20 15C20 16.3261 19.4732 17.5979 18.5355 18.5355C17.5979 19.4732 16.3261 20 15 20Z" fill="#916EFF"/>
</svg>
