<svg width="231" height="230" viewBox="0 0 231 230" fill="none" xmlns="http://www.w3.org/2000/svg">
<path d="M224.496 38.9366C223.956 38.7526 223.289 39.5921 222.507 41.4206C222.164 42.207 221.781 42.9747 221.357 43.7206C221.782 42.0761 222.254 39.7761 222.415 38.9366C222.576 38.0971 222.932 35.8201 222.081 35.5901C221.529 35.4406 220.931 36.3031 220.207 38.1776C219.482 40.0521 218.999 41.3976 218.436 42.5476C218.666 41.0411 219.034 38.6836 219.379 36.6251C219.62 35.1416 219.632 33.4971 218.907 33.3246C218.183 33.1521 217.516 34.6931 217.113 36.0271C217.021 36.3376 215.963 39.4771 215.308 41.7771V37.5911C215.308 36.0731 215.066 34.4516 214.319 34.3941C213.571 34.3366 213.1 36.4756 212.985 37.3496C212.985 37.6946 212.03 43.5366 212.03 43.5366C211.92 44.2526 211.699 44.947 211.375 45.5951C211.122 46.0551 211.007 45.9976 210.834 45.9516C208.983 45.5261 205.694 41.6391 204.452 42.9961C204.222 43.2606 203.497 44.0426 207.43 48.7461C207.847 49.2462 208.104 49.8593 208.17 50.5068C208.236 51.1543 208.106 51.8066 207.798 52.3801L206.142 55.4506C205.682 55.0366 205.222 54.6226 204.774 54.1856C204.753 54.1613 204.728 54.1419 204.699 54.1285C204.67 54.1152 204.639 54.1083 204.607 54.1083C204.575 54.1083 204.544 54.1152 204.515 54.1285C204.487 54.1419 204.461 54.1613 204.44 54.1856C203.9 55.0251 203.382 55.8301 202.888 56.6236L200.99 34.6931C200.854 32.6514 199.916 30.7467 198.379 29.3954C196.842 28.0442 194.833 27.3564 192.791 27.4826L166.743 29.7826C166.96 28.3235 166.929 26.8383 166.651 25.3896C167.633 25.3318 168.593 25.0778 169.475 24.6426C170.357 24.2074 171.143 23.5999 171.786 22.8559C172.43 22.1119 172.917 21.2465 173.22 20.3109C173.524 19.3753 173.636 18.3884 173.551 17.4086C172.861 9.35857 161.43 8.09357 159.153 16.0056C157.193 15.1519 155.052 14.7986 152.921 14.9776C150.791 15.1567 148.738 15.8623 146.948 17.0311C145.157 18.1999 143.686 19.7953 142.665 21.6738C141.644 23.5523 141.105 25.655 141.098 27.7931C141.098 27.9196 141.098 30.4956 141.202 31.9906L125.907 33.3476C125.309 25.8266 118.547 20.1111 110.324 20.1111C106.048 20.0685 101.923 21.6938 98.8245 24.6421C97.368 25.9937 96.2273 27.6496 95.4834 29.4921C94.7396 31.3346 94.4109 33.3184 94.5207 35.3023C94.6305 37.2863 95.1761 39.2216 96.1187 40.9708C97.0613 42.72 98.3778 44.2399 99.9745 45.4226C101.891 46.8865 104.099 47.9214 106.451 48.4571C108.802 48.9929 111.241 49.0169 113.602 48.5276L117.374 92.0896C117.366 92.1216 117.366 92.155 117.373 92.1871C117.381 92.2192 117.395 92.2493 117.415 92.2751C117.436 92.3009 117.462 92.3218 117.492 92.3361C117.521 92.3504 117.554 92.3579 117.587 92.3579C117.62 92.3579 117.652 92.3504 117.682 92.3361C117.711 92.3218 117.737 92.3009 117.758 92.2751C117.778 92.2493 117.793 92.2192 117.8 92.1871C117.807 92.155 117.807 92.1216 117.799 92.0896L113.981 48.4011C115.991 47.962 117.899 47.1465 119.605 45.9976L126.068 48.4126C126.107 48.431 126.15 48.437 126.192 48.4298C126.234 48.4226 126.273 48.4024 126.304 48.3722C126.334 48.3419 126.354 48.303 126.361 48.2608C126.368 48.2186 126.362 48.1752 126.344 48.1366L123.733 41.7886C125.301 39.4269 126.074 36.6272 125.941 33.7961L141.225 32.4736C141.581 38.0741 142.754 41.3516 144.675 42.2371C146.377 43.0076 148.309 41.8116 149.735 40.6156C150.13 41.5962 150.393 42.6248 150.517 43.6746C151 47.9986 148.527 50.4021 145.721 53.0816C142.099 56.5316 136.625 61.7641 134.221 71.2516C134.208 71.308 134.217 71.3676 134.247 71.4172C134.277 71.4668 134.326 71.5023 134.382 71.5161C134.439 71.5298 134.498 71.5205 134.548 71.4903C134.598 71.4602 134.633 71.4115 134.647 71.3551C137.016 61.9826 142.432 56.8191 146.02 53.3921L146.883 52.5756C147.078 53.0816 147.297 53.6221 147.538 54.1741C147.889 55.0007 148.449 55.7224 149.161 56.2687C149.874 56.815 150.716 57.1672 151.606 57.2911C152.495 57.4151 153.402 57.3064 154.237 56.9758C155.072 56.6452 155.807 56.1038 156.37 55.4046C159.788 50.9881 163.718 46.9927 168.077 43.5021C177.404 43.5596 179.738 39.7416 194.7 71.5276L192.135 77.2776C192.125 77.3265 192.132 77.3775 192.155 77.422C192.178 77.4665 192.215 77.5018 192.261 77.522C192.307 77.5422 192.358 77.546 192.407 77.533C192.455 77.5199 192.497 77.4906 192.526 77.4501C195.832 69.5041 199.886 61.8912 204.636 54.7146C208.5 58.5145 213.239 61.3065 218.436 62.8451C215.25 68.1466 213.445 73.3446 209.799 80.9116C205.452 89.9161 200.277 91.9171 196.712 92.0206C191.192 92.2161 186.5 87.9266 183.763 83.0851C183.476 82.5676 180.785 78.0366 175.897 69.7681C177.047 67.3186 178.197 65.2601 178.945 64.0181C178.968 63.9697 178.972 63.9146 178.957 63.8633C178.942 63.812 178.908 63.7679 178.863 63.7396C178.818 63.7112 178.764 63.7005 178.711 63.7094C178.658 63.7184 178.61 63.7464 178.577 63.7881C176.392 67.2381 171.677 77.3696 168.848 84.3271C162.626 88.7891 151.345 90.9856 146.929 87.2251C140.834 67.6751 143.295 63.2361 145.675 58.9236L145.905 58.5096C145.924 58.4604 145.923 58.4063 145.905 58.3573C145.886 58.3082 145.851 58.2675 145.805 58.2424C145.759 58.2173 145.706 58.2095 145.654 58.2206C145.603 58.2316 145.558 58.2607 145.526 58.3026L145.296 58.7166C142.869 63.0981 140.362 67.6406 146.515 87.3631C145.238 92.1471 144.951 95.2636 144.318 98.1501L133.083 99.1276C133.035 99.1388 132.992 99.1659 132.962 99.2046C132.931 99.2432 132.914 99.291 132.914 99.3403C132.914 99.3896 132.931 99.4375 132.962 99.4761C132.992 99.5147 133.035 99.5418 133.083 99.5531L198.495 93.8951C199.973 93.7607 201.377 93.189 202.528 92.2529C203.679 91.3168 204.525 90.0588 204.958 88.6396C210.88 82.8896 213.456 71.8036 218.93 62.7991C218.948 62.7704 218.958 62.7382 218.961 62.7049C218.963 62.6716 218.959 62.6381 218.946 62.607C218.934 62.5759 218.915 62.548 218.89 62.5255C218.866 62.503 218.836 62.4864 218.804 62.4771C218.344 62.3544 217.884 62.2164 217.424 62.0631C222.518 50.7126 221.656 51.9891 223.875 44.9166C224.289 43.6976 225.669 39.3276 224.496 38.9366ZM123.296 41.6391C123.296 41.8116 123.135 41.4091 125.757 47.7916C120.007 45.6181 119.72 45.4916 119.57 45.4916C117.871 46.6706 115.963 47.5137 113.947 47.9756L113.452 42.3176C113.246 40.3956 113.808 38.4699 115.017 36.9614C116.226 35.453 117.983 34.4844 119.904 34.2676L125.504 33.7846C125.615 36.5701 124.843 39.3194 123.296 41.6391ZM156.071 55.0941C155.552 55.7351 154.876 56.2307 154.109 56.5326C153.341 56.8344 152.508 56.9322 151.692 56.8164C150.875 56.7006 150.103 56.3751 149.449 55.8717C148.796 55.3683 148.284 54.7042 147.964 53.9441C147.699 53.3231 147.469 52.7941 147.251 52.1731C147.573 51.8626 147.872 51.5636 148.136 51.2646C149.274 50.1759 150.119 48.8182 150.593 47.3168C151.068 45.8154 151.156 44.2187 150.85 42.6741C151.497 41.2875 151.887 39.7952 152 38.2696C152.001 38.2254 151.988 38.1822 151.963 38.1456C151.938 38.1089 151.903 38.0807 151.862 38.0645C151.821 38.0483 151.776 38.0449 151.733 38.0549C151.69 38.0648 151.651 38.0875 151.621 38.1201C144.019 46.6531 141.581 39.9256 141.57 28.4946C144.07 27.8172 146.64 27.4313 149.229 27.3446C149.562 28.8511 149.654 30.2886 150.379 30.3576C150.712 30.3576 151.046 30.1046 151.529 29.4491C152.805 27.5976 155.347 30.5301 152.184 32.8301C152.146 32.8706 152.125 32.924 152.125 32.9796C152.125 33.0351 152.146 33.0886 152.184 33.1291C156.232 39.4886 159.728 43.2031 167.537 43.4791C163.293 46.9098 159.447 50.8058 156.071 55.0941ZM194.964 70.9641C179.278 37.6831 177.289 43.5366 166.686 42.9846C163.652 42.8952 160.722 41.8621 158.302 40.0291C160.442 39.2809 162.345 37.9789 163.818 36.2557C165.291 34.5325 166.28 32.4498 166.686 30.2196L192.837 27.9196C193.797 27.8573 194.76 27.9854 195.671 28.2965C196.582 28.6077 197.422 29.0958 198.143 29.7327C198.865 30.3697 199.453 31.1429 199.874 32.008C200.296 32.8731 200.542 33.8129 200.599 34.7736L202.554 57.2791C199.761 61.6896 197.227 66.259 194.964 70.9641ZM169.078 84.7641C174.155 86.7749 178.452 90.3626 181.337 94.9991L174.08 95.6201C172.346 91.9736 169.806 88.7687 166.651 86.2476C167.495 85.7947 168.306 85.2836 169.078 84.7181V84.7641ZM146.894 87.7311C148.905 89.0532 151.289 89.6905 153.691 89.5481C158.054 89.455 162.341 88.3862 166.237 86.4201C169.357 88.8947 171.88 92.0389 173.62 95.6201L144.79 98.1156C145.319 95.6546 145.79 91.9976 146.894 87.7311ZM198.552 93.4811L181.866 94.9186C178.949 90.1458 174.569 86.4429 169.377 84.3616C171.159 80.0491 173.609 74.5636 175.736 70.2166C181.003 79.1406 183.246 82.8666 183.418 83.2346C188.26 91.8251 197.046 95.6431 204.383 89.2721C203.889 90.4375 203.083 91.4445 202.055 92.1829C201.026 92.9212 199.815 93.3623 198.552 93.4581V93.4811ZM220.621 38.3731C221.368 36.3376 221.874 36.0731 221.978 36.0731C222.081 36.0731 222.392 36.8551 221.978 38.9251C221.603 41.0531 221.104 43.1574 220.483 45.2271C220.379 45.3306 220.057 46.0206 219.333 46.9751C218.787 46.42 218.194 45.9122 217.562 45.4571C218.709 43.145 219.73 40.7725 220.621 38.3501V38.3731ZM217.527 36.1996C218.16 34.1066 218.677 33.7731 218.804 33.8076C218.93 33.8421 219.287 34.5781 218.953 36.6136C218.424 39.7646 217.803 43.6171 217.803 44.0311C217.746 44.1806 217.746 44.1461 217.24 45.1811C216.558 44.7296 215.834 44.3446 215.078 44.0311L217.527 36.1996ZM224.197 42.3291C223.565 44.8821 223.047 46.1816 221.679 50.8851C221.127 52.8401 217.642 60.6486 217.079 61.9481C213.201 60.5685 209.616 58.4738 206.51 55.7726L208.212 52.6216C208.561 51.9721 208.708 51.2333 208.634 50.4999C208.56 49.7664 208.269 49.0717 207.798 48.5046C205.073 45.2386 204.463 43.6861 204.808 43.3181C205.659 42.3981 208.983 46.0091 210.8 46.4116C211.076 46.4116 211.329 46.4806 211.651 46.0321C212.073 45.288 212.358 44.4737 212.49 43.6286C212.49 43.6286 213.399 37.7866 213.445 37.4301C213.744 35.2796 214.204 34.8541 214.33 34.8541C214.457 34.8541 214.928 35.5326 214.917 37.6026V43.1686C214.917 43.4676 214.756 43.6631 214.687 43.8701C214.376 43.7436 214.054 43.6286 213.709 43.5251C213.683 43.5159 213.655 43.5122 213.626 43.5142C213.598 43.5161 213.571 43.5237 213.546 43.5364C213.521 43.5491 213.498 43.5667 213.48 43.5882C213.462 43.6096 213.448 43.6346 213.44 43.6614C213.431 43.6883 213.428 43.7166 213.431 43.7446C213.434 43.7727 213.442 43.7999 213.455 43.8247C213.469 43.8495 213.487 43.8714 213.509 43.8891C213.531 43.9067 213.556 43.9198 213.583 43.9276C217.033 45.0776 218.93 46.8256 221.058 49.5511C221.074 49.5771 221.095 49.5995 221.121 49.6168C221.146 49.634 221.174 49.6458 221.204 49.6514C221.234 49.6569 221.265 49.6561 221.295 49.6489C221.325 49.6418 221.353 49.6285 221.377 49.6099C221.401 49.5913 221.421 49.5678 221.436 49.541C221.451 49.5141 221.459 49.4845 221.462 49.454C221.464 49.4235 221.46 49.3929 221.45 49.364C221.44 49.3352 221.424 49.3088 221.403 49.2866C220.828 48.5506 220.253 47.8721 219.689 47.2626C220.989 45.5125 222.081 43.6177 222.944 41.6161C223.795 39.6266 224.312 39.3161 224.416 39.3161C224.519 39.3161 224.749 40.2476 224.197 42.3061V42.3291Z" fill="#916EFF"/>
<path d="M107.449 60.6264C107.329 59.1629 106.633 57.8069 105.514 56.8561C104.395 55.9052 102.945 55.4373 101.481 55.5549L95.616 56.0494C95.568 56.0607 95.5252 56.0878 95.4946 56.1264C95.4639 56.1651 95.4473 56.2129 95.4473 56.2622C95.4473 56.3115 95.4639 56.3593 95.4946 56.398C95.5252 56.4366 95.568 56.4637 95.616 56.4749C95.731 56.4749 101.366 56.0149 101.458 55.9919C102.128 55.9336 102.803 56.0083 103.444 56.2116C104.085 56.415 104.68 56.743 105.194 57.1769C105.708 57.6107 106.131 58.1419 106.439 58.7398C106.747 59.3377 106.934 59.9906 106.989 60.6609L108.599 79.7969C108.611 79.8449 108.638 79.8877 108.676 79.9184C108.715 79.949 108.763 79.9656 108.812 79.9656C108.862 79.9656 108.909 79.949 108.948 79.9184C108.987 79.8877 109.014 79.8449 109.025 79.7969L107.449 60.6264Z" fill="#916EFF"/>
<path d="M107.347 100.854C106.795 101.395 105.162 101.464 104.38 101.521C104.322 101.521 104.266 101.544 104.225 101.585C104.184 101.626 104.161 101.682 104.161 101.74C104.161 101.798 104.184 101.853 104.225 101.894C104.266 101.935 104.322 101.958 104.38 101.958C105.334 101.878 106.956 101.832 107.634 101.165C107.66 101.124 107.672 101.076 107.668 101.027C107.664 100.979 107.644 100.934 107.611 100.898C107.578 100.863 107.534 100.839 107.486 100.831C107.438 100.823 107.389 100.831 107.347 100.854Z" fill="#916EFF"/>
<path d="M82.3799 57.1651C74.1114 57.8551 48.3859 60.0056 48.2709 60.0286C47.5437 60.0895 46.8355 60.2931 46.187 60.6278C45.5384 60.9625 44.9622 61.4217 44.4912 61.9792C44.0202 62.5367 43.6637 63.1815 43.442 63.8769C43.2204 64.5722 43.138 65.3044 43.1994 66.0316L46.1664 101.291C46.2923 102.758 46.9948 104.116 48.12 105.067C49.2452 106.017 50.7014 106.483 52.1694 106.362L63.9224 105.362C63.9507 105.36 63.9783 105.353 64.0037 105.341C64.0291 105.328 64.0516 105.31 64.07 105.289C64.0883 105.267 64.102 105.242 64.1102 105.215C64.1185 105.188 64.1211 105.16 64.1179 105.132C64.1179 105.017 64.0029 104.902 63.8879 104.936L52.1349 105.925C50.781 106.04 49.4368 105.613 48.3976 104.737C47.3584 103.862 46.7089 102.61 46.5919 101.256L43.6249 65.9971C43.5682 65.3264 43.6444 64.6511 43.849 64.0099C44.0537 63.3687 44.3828 62.7742 44.8176 62.2603C45.2524 61.7465 45.7842 61.3235 46.3827 61.0156C46.9812 60.7076 47.6346 60.5207 48.3054 60.4656L82.4144 57.5906C82.7249 57.5676 82.6444 57.1076 82.3799 57.1651Z" fill="#916EFF"/>
<path d="M178.404 159.735L174.333 112.056C174.251 111.082 173.977 110.134 173.527 109.265C173.078 108.397 172.462 107.626 171.714 106.995C170.967 106.365 170.102 105.889 169.17 105.593C168.238 105.297 167.257 105.188 166.283 105.271L128.954 108.434C128.906 108.445 128.863 108.472 128.833 108.511C128.802 108.549 128.785 108.597 128.785 108.647C128.785 108.696 128.802 108.744 128.833 108.782C128.863 108.821 128.906 108.848 128.954 108.859L166.318 105.708C167.234 105.63 168.158 105.732 169.035 106.01C169.912 106.288 170.726 106.737 171.429 107.329C172.133 107.922 172.713 108.648 173.137 109.465C173.56 110.282 173.818 111.174 173.896 112.091L177.956 159.77C178.115 161.614 177.538 163.447 176.351 164.867C175.164 166.287 173.462 167.179 171.619 167.348C171.493 167.348 104.551 172.995 101.653 173.248C101.605 173.259 101.562 173.286 101.532 173.325C101.501 173.363 101.484 173.411 101.484 173.461C101.484 173.51 101.501 173.558 101.532 173.596C101.562 173.635 101.605 173.662 101.653 173.673L171.585 167.785C172.561 167.706 173.513 167.434 174.384 166.986C175.256 166.538 176.031 165.923 176.664 165.175C177.298 164.427 177.777 163.562 178.076 162.628C178.374 161.695 178.486 160.712 178.404 159.735Z" fill="#916EFF"/>
<path d="M103.759 110.996C103.701 110.996 103.645 110.973 103.604 110.932C103.563 110.891 103.54 110.836 103.54 110.778C103.54 110.72 103.563 110.664 103.604 110.623C103.645 110.582 103.701 110.559 103.759 110.559L115.374 109.57C115.431 109.57 115.487 109.593 115.528 109.634C115.569 109.675 115.592 109.731 115.592 109.789C115.592 109.847 115.569 109.902 115.528 109.943C115.487 109.984 115.431 110.007 115.374 110.007L103.759 110.996Z" fill="#916EFF"/>
<path d="M138.591 79.7532C143.088 74.8312 145.295 74.3942 148.734 72.0482C149.125 71.7837 149.067 70.8982 146.284 71.8067L145.134 72.1517C146.376 70.9327 148.642 69.1732 149.93 67.9312C150.275 67.5977 150.091 66.7812 147.48 68.0922C146.905 68.3797 144.95 69.3687 144.03 69.9092C144.835 68.8925 145.695 67.9212 146.607 66.9997C149.562 63.9982 149.252 62.8367 145.296 65.1712C141.942 67.4165 138.856 70.0362 136.096 72.9797C134.095 74.2447 134.854 68.8857 134.647 67.5862C134.359 65.8037 133.98 63.8372 132.554 68.6097C132.163 69.9092 130.564 73.9687 127.562 81.2597C130.835 81.2733 134.047 82.1457 136.877 83.7897C137.498 82.1337 138.028 80.8227 138.43 79.6957L138.591 79.7532Z" fill="#FFD1D0"/>
<path d="M70.5463 76.0383C70.5463 71.5303 69.7298 73.1288 69.0053 74.5893C68.4763 75.6588 67.6943 80.5003 66.3143 78.8673C66.1993 78.6833 63.0368 72.4618 60.4953 69.6673C57.7008 66.5968 57.1258 67.5168 58.8738 70.8978C59.4062 71.941 59.8822 73.012 60.2998 74.1063C59.6673 73.4048 58.2413 72.0248 57.8273 71.6223C55.9183 69.8053 55.5273 70.4723 55.7458 70.8288C55.9643 71.1853 58.7703 75.6588 58.7588 75.7623L57.9998 75.1758C55.8148 73.6808 55.5503 74.3938 55.8148 74.7273C58.1148 77.6713 59.9203 78.6028 62.4848 84.0193C62.5883 84.2723 62.7493 87.3658 62.7953 88.0443C64.5051 87.458 66.326 87.2692 68.1198 87.4923C68.6572 85.2503 69.6089 83.1286 70.9258 81.2363C70.6498 79.2698 70.5348 77.2688 70.5463 76.0383Z" fill="#FFD1D0"/>
<path d="M94.237 60.6738C96.1 67.8383 96.33 70.5523 95.7665 71.8748C95.203 73.1973 92.8455 71.8748 90.5455 70.1498C90.7985 71.2998 91.063 72.3808 91.339 73.2548C91.4097 73.6406 91.6017 73.9938 91.8872 74.2627C92.1727 74.5316 92.5367 74.7023 92.926 74.7498C90.5709 76.2534 87.7866 76.9403 85.0025 76.7048C83.6729 76.6233 82.4128 76.0827 81.4375 75.1753C82.7945 74.4393 83.8985 74.7153 87.0955 70.5063C88.2455 69.0458 89.3955 67.7808 90.2925 66.5733C87.9925 63.9628 89.89 62.2378 91.132 63.9743C91.799 64.9058 92.7535 64.6413 92.1785 61.8468C92.9012 61.5237 93.5906 61.1309 94.237 60.6738Z" fill="#FFD1D0"/>
<path d="M79.6893 82.7193C79.7037 82.9598 79.6472 83.1994 79.5267 83.4081C79.4062 83.6169 79.2271 83.7856 79.0115 83.8935C78.796 84.0013 78.5535 84.0435 78.3142 84.0147C78.0749 83.986 77.8493 83.8876 77.6654 83.7317C77.4815 83.5759 77.3475 83.3695 77.2799 83.1382C77.2123 82.9068 77.2141 82.6607 77.2851 82.4304C77.3561 82.2001 77.4932 81.9957 77.6794 81.8426C77.8655 81.6895 78.0926 81.5945 78.3323 81.5693C78.4976 81.5519 78.6647 81.5682 78.8236 81.6171C78.9824 81.6661 79.1297 81.7468 79.2565 81.8543C79.3833 81.9617 79.4871 82.0938 79.5614 82.2425C79.6358 82.3911 79.6793 82.5533 79.6893 82.7193Z" fill="#191250"/>
<path d="M70.9607 92.8841C70.9752 93.1247 70.9187 93.3643 70.7982 93.573C70.6777 93.7818 70.4986 93.9505 70.283 94.0584C70.0674 94.1662 69.825 94.2084 69.5857 94.1796C69.3464 94.1509 69.1208 94.0525 68.9369 93.8966C68.753 93.7408 68.619 93.5344 68.5514 93.3031C68.4837 93.0717 68.4856 92.8256 68.5566 92.5953C68.6276 92.365 68.7647 92.1606 68.9509 92.0075C69.137 91.8544 69.364 91.7593 69.6037 91.7341C69.7688 91.7184 69.9353 91.7358 70.0934 91.7854C70.2516 91.8351 70.3983 91.9158 70.5247 92.023C70.6512 92.1302 70.7549 92.2616 70.8298 92.4095C70.9047 92.5574 70.9492 92.7188 70.9607 92.8841Z" fill="#191250"/>
<path d="M76.1347 106.283C76.1683 106.607 76.0714 106.932 75.8655 107.186C75.6595 107.439 75.3613 107.6 75.0365 107.634C74.7117 107.667 74.3868 107.57 74.1334 107.364C73.88 107.159 73.7188 106.86 73.6852 106.536C73.6517 106.211 73.7485 105.886 73.9545 105.632C74.1605 105.379 74.4587 105.218 74.7835 105.184C75.1083 105.151 75.4332 105.248 75.6866 105.454C75.94 105.659 76.1012 105.958 76.1347 106.283Z" fill="#191250"/>
<path d="M64.7841 90.5735C64.8177 90.8983 64.7208 91.2232 64.5149 91.4766C64.3089 91.73 64.0107 91.8912 63.6859 91.9248C63.3611 91.9583 63.0362 91.8615 62.7828 91.6555C62.5294 91.4495 62.3682 91.1513 62.3346 90.8265C62.3011 90.5017 62.398 90.1768 62.6039 89.9234C62.8099 89.67 63.1081 89.5088 63.4329 89.4753C63.7577 89.4417 64.0826 89.5386 64.336 89.7445C64.5894 89.9505 64.7506 90.2487 64.7841 90.5735Z" fill="#191250"/>
<path d="M90.0738 87.5365C90.0908 87.7802 90.0355 88.0235 89.9149 88.2359C89.7943 88.4484 89.6138 88.6206 89.3958 88.7309C89.1779 88.8413 88.9322 88.8849 88.6896 88.8563C88.447 88.8278 88.2182 88.7283 88.0318 88.5704C87.8454 88.4124 87.7098 88.203 87.6418 87.9684C87.5738 87.7337 87.5766 87.4843 87.6497 87.2512C87.7228 87.0181 87.863 86.8117 88.0528 86.6579C88.2426 86.5041 88.4736 86.4097 88.7168 86.3865C88.8818 86.3707 89.0483 86.3882 89.2065 86.4378C89.3646 86.4874 89.5113 86.5682 89.6378 86.6753C89.7642 86.7825 89.868 86.9139 89.9428 87.0618C90.0177 87.2097 90.0622 87.3711 90.0738 87.5365Z" fill="#191250"/>
<path d="M82.9656 97.4849C82.9801 97.7255 82.9235 97.965 82.8031 98.1738C82.6826 98.3825 82.5034 98.5513 82.2879 98.6591C82.0723 98.7669 81.8299 98.8091 81.5906 98.7803C81.3513 98.7516 81.1257 98.6532 80.9418 98.4974C80.7579 98.3415 80.6239 98.1352 80.5562 97.9038C80.4886 97.6725 80.4904 97.4264 80.5615 97.196C80.6325 96.9657 80.7696 96.7613 80.9557 96.6082C81.1419 96.4551 81.3689 96.3601 81.6086 96.3349C81.7739 96.3175 81.9411 96.3338 82.0999 96.3828C82.2588 96.4317 82.4061 96.5124 82.5329 96.6199C82.6597 96.7274 82.7634 96.8594 82.8378 97.0081C82.9122 97.1567 82.9557 97.3189 82.9656 97.4849Z" fill="#191250"/>
<path d="M95.7427 102.109C95.7597 102.352 95.7044 102.596 95.5839 102.808C95.4633 103.021 95.2827 103.193 95.0648 103.303C94.8468 103.414 94.6012 103.457 94.3585 103.429C94.1159 103.4 93.8871 103.301 93.7007 103.143C93.5144 102.985 93.3787 102.775 93.3108 102.541C93.2428 102.306 93.2455 102.057 93.3186 101.823C93.3918 101.59 93.532 101.384 93.7218 101.23C93.9116 101.076 94.1425 100.982 94.3857 100.959C94.5507 100.943 94.7172 100.96 94.8754 101.01C95.0336 101.06 95.1802 101.14 95.3067 101.248C95.4332 101.355 95.5369 101.486 95.6118 101.634C95.6867 101.782 95.7312 101.943 95.7427 102.109Z" fill="#191250"/>
<path d="M101.032 80.9365C101.061 81.1814 101.016 81.4292 100.903 81.6483C100.79 81.8675 100.615 82.0481 100.399 82.1673C100.183 82.2864 99.9366 82.3386 99.691 82.3172C99.4455 82.2959 99.2118 82.2019 99.0198 82.0473C98.8278 81.8927 98.6861 81.6845 98.6128 81.4492C98.5395 81.2138 98.5379 80.962 98.6082 80.7257C98.6785 80.4894 98.8175 80.2794 99.0076 80.1224C99.1976 79.9654 99.4301 79.8685 99.6753 79.844C99.9996 79.8117 100.324 79.9081 100.578 80.1125C100.831 80.3168 100.995 80.6128 101.032 80.9365Z" fill="#191250"/>
<path d="M112.463 101.589C112.48 101.833 112.425 102.076 112.305 102.289C112.184 102.501 112.003 102.673 111.785 102.784C111.568 102.894 111.322 102.938 111.079 102.909C110.837 102.881 110.608 102.781 110.421 102.623C110.235 102.465 110.099 102.256 110.031 102.021C109.963 101.786 109.966 101.537 110.039 101.304C110.112 101.071 110.253 100.864 110.442 100.711C110.632 100.557 110.863 100.462 111.106 100.439C111.271 100.423 111.438 100.441 111.596 100.491C111.754 100.54 111.901 100.621 112.027 100.728C112.154 100.835 112.258 100.967 112.332 101.115C112.407 101.262 112.452 101.424 112.463 101.589Z" fill="#191250"/>
<path d="M112.234 87.6869C112.249 87.9275 112.192 88.167 112.072 88.3757C111.951 88.5845 111.772 88.7532 111.556 88.8611C111.341 88.9689 111.098 89.0111 110.859 88.9823C110.62 88.9536 110.394 88.8552 110.21 88.6994C110.026 88.5435 109.892 88.3371 109.825 88.1058C109.757 87.8745 109.759 87.6283 109.83 87.398C109.901 87.1677 110.038 86.9633 110.224 86.8102C110.41 86.6571 110.637 86.5621 110.877 86.5369C111.042 86.5211 111.209 86.5386 111.367 86.5882C111.525 86.6378 111.672 86.7186 111.798 86.8257C111.925 86.9329 112.028 87.0643 112.103 87.2122C112.178 87.3601 112.223 87.5215 112.234 87.6869Z" fill="#191250"/>
<path d="M125.851 104.178C125.87 104.343 125.855 104.511 125.806 104.671C125.758 104.83 125.677 104.978 125.57 105.105C125.462 105.232 125.329 105.336 125.18 105.41C125.03 105.484 124.867 105.526 124.701 105.535C124.54 105.551 124.377 105.536 124.222 105.49C124.067 105.444 123.923 105.367 123.797 105.265C123.672 105.163 123.568 105.038 123.491 104.895C123.414 104.753 123.366 104.597 123.349 104.436C123.333 104.275 123.348 104.113 123.394 103.958C123.44 103.803 123.517 103.659 123.619 103.533C123.721 103.408 123.846 103.304 123.988 103.227C124.131 103.15 124.287 103.102 124.448 103.085C124.612 103.059 124.78 103.067 124.942 103.109C125.103 103.151 125.254 103.225 125.386 103.328C125.517 103.43 125.626 103.558 125.706 103.704C125.786 103.851 125.835 104.012 125.851 104.178Z" fill="#191250"/>
<path d="M127.368 91.1819C127.384 91.3469 127.367 91.5134 127.317 91.6716C127.267 91.8297 127.187 91.9764 127.079 92.1029C126.972 92.2293 126.841 92.3331 126.693 92.4079C126.545 92.4828 126.384 92.5273 126.218 92.5389C125.978 92.5533 125.738 92.4968 125.529 92.3763C125.321 92.2558 125.152 92.0767 125.044 91.8611C124.936 91.6456 124.894 91.4031 124.923 91.1638C124.952 90.9245 125.05 90.6989 125.206 90.515C125.362 90.3312 125.568 90.1971 125.799 90.1295C126.031 90.0619 126.277 90.0637 126.507 90.1347C126.737 90.2057 126.942 90.3428 127.095 90.529C127.248 90.7151 127.343 90.9422 127.368 91.1819Z" fill="#191250"/>
<path d="M136.936 85.7311C136.969 86.0559 136.872 86.3808 136.666 86.6342C136.46 86.8876 136.162 87.0488 135.837 87.0824C135.512 87.1159 135.188 87.0191 134.934 86.8131C134.681 86.6071 134.52 86.3089 134.486 85.9841C134.467 85.823 134.48 85.6597 134.525 85.5037C134.57 85.3478 134.645 85.2023 134.747 85.0759C134.849 84.9496 134.975 84.8448 135.118 84.7677C135.26 84.6906 135.417 84.6428 135.579 84.6271C135.905 84.5949 136.23 84.6929 136.484 84.8997C136.739 85.1065 136.901 85.4053 136.936 85.7311Z" fill="#191250"/>
<path d="M89.269 128.88C87.1589 127.637 85.3269 125.974 83.887 123.993C83.3567 121.374 83.3567 118.676 83.887 116.058C83.9098 116.015 83.9451 115.98 83.9882 115.957C84.0313 115.935 84.0802 115.926 84.1285 115.931C87.0518 116.322 90.0142 116.322 92.9375 115.931C92.9647 115.928 92.9923 115.93 93.0186 115.938C93.045 115.945 93.0695 115.958 93.0909 115.975C93.1123 115.992 93.1301 116.014 93.1433 116.038C93.1564 116.062 93.1646 116.088 93.1675 116.115C93.478 119.025 93.7425 120.566 93.961 123.28C93.961 123.671 92.489 124.292 89.637 128.88C89.6234 128.918 89.5984 128.951 89.5655 128.974C89.5325 128.997 89.4933 129.01 89.453 129.01C89.4127 129.01 89.3734 128.997 89.3405 128.974C89.3076 128.951 89.2826 128.918 89.269 128.88ZM84.255 123.774C85.619 125.625 87.3346 127.188 89.3035 128.374C90.4609 126.465 91.8473 124.704 93.432 123.13C93.225 120.497 92.972 118.979 92.6845 116.23C89.8486 116.604 86.9759 116.604 84.14 116.23C83.7208 118.731 83.7597 121.287 84.255 123.774Z" fill="#191250"/>
<path d="M216.297 54.8658C216.239 54.8658 216.184 54.8427 216.143 54.8018C216.102 54.7608 216.079 54.7052 216.079 54.6473C216.176 52.958 215.92 51.2671 215.326 49.6828C214.732 48.0985 213.813 46.6558 212.629 45.4473C212.608 45.4279 212.591 45.4046 212.579 45.3786C212.568 45.3526 212.561 45.3245 212.561 45.296C212.56 45.2675 212.565 45.2391 212.576 45.2127C212.586 45.1862 212.602 45.1622 212.623 45.1421C212.643 45.1219 212.667 45.106 212.693 45.0954C212.72 45.0847 212.748 45.0795 212.776 45.0801C212.805 45.0807 212.833 45.087 212.859 45.0987C212.885 45.1105 212.908 45.1273 212.928 45.1483C214.159 46.387 215.117 47.8705 215.739 49.5029C216.361 51.1352 216.634 52.88 216.539 54.6243C216.54 54.6564 216.535 54.6885 216.524 54.7186C216.512 54.7486 216.494 54.7759 216.472 54.7987C216.449 54.8215 216.422 54.8392 216.392 54.8507C216.362 54.8623 216.329 54.8674 216.297 54.8658Z" fill="#916EFF"/>
<path d="M185.512 113.114C185.598 113.938 185.927 114.717 186.456 115.354C186.986 115.991 187.692 116.456 188.486 116.691C189.281 116.926 190.127 116.921 190.917 116.675C191.708 116.429 192.408 115.954 192.929 115.31C193.28 114.886 193.542 114.396 193.7 113.868C193.858 113.341 193.909 112.787 193.849 112.24L193.217 106.271C193.164 105.72 193.002 105.185 192.742 104.697C192.481 104.209 192.126 103.777 191.697 103.427C191.269 103.076 190.775 102.815 190.245 102.656C189.714 102.497 189.158 102.446 188.607 102.503C188.057 102.561 187.523 102.727 187.037 102.992C186.551 103.257 186.123 103.616 185.776 104.048C185.429 104.479 185.172 104.975 185.018 105.507C184.864 106.038 184.817 106.595 184.879 107.145L185.512 113.114ZM188.651 102.971C189.143 102.917 189.641 102.96 190.116 103.1C190.591 103.239 191.034 103.471 191.418 103.782C191.803 104.093 192.123 104.477 192.358 104.912C192.594 105.348 192.741 105.825 192.791 106.317L193.412 112.286C193.484 112.786 193.453 113.296 193.323 113.785C193.193 114.273 192.965 114.731 192.654 115.129C192.343 115.528 191.955 115.86 191.513 116.105C191.071 116.35 190.584 116.504 190.081 116.556C189.578 116.609 189.069 116.559 188.586 116.411C188.103 116.263 187.654 116.018 187.267 115.693C186.881 115.367 186.564 114.967 186.335 114.516C186.106 114.065 185.971 113.572 185.937 113.068L185.305 107.099C185.205 106.109 185.501 105.119 186.128 104.346C186.754 103.572 187.662 103.078 188.651 102.971Z" fill="#916EFF"/>
<path d="M196.816 112.194L196.506 109.25C196.493 109.195 196.462 109.146 196.419 109.111C196.375 109.076 196.321 109.056 196.264 109.055C196.236 109.058 196.208 109.066 196.182 109.08C196.157 109.094 196.134 109.112 196.116 109.135C196.098 109.157 196.084 109.183 196.076 109.211C196.068 109.238 196.066 109.267 196.069 109.296L196.379 112.252C196.502 113.143 196.445 114.051 196.21 114.92C195.975 115.789 195.568 116.602 195.013 117.311C194.458 118.019 193.766 118.609 192.978 119.045C192.19 119.481 191.323 119.754 190.428 119.848C189.533 119.942 188.628 119.855 187.767 119.592C186.906 119.33 186.106 118.897 185.416 118.319C184.726 117.741 184.158 117.031 183.748 116.229C183.338 115.428 183.093 114.553 183.028 113.655L182.717 110.699C182.717 110.641 182.694 110.586 182.653 110.545C182.612 110.504 182.557 110.481 182.499 110.481C182.441 110.481 182.385 110.504 182.344 110.545C182.303 110.586 182.28 110.641 182.28 110.699L182.591 113.655C182.789 115.503 183.697 117.201 185.124 118.392C186.551 119.583 188.385 120.173 190.238 120.037L190.767 125.109L188.042 125.385C187.984 125.385 187.928 125.408 187.887 125.449C187.846 125.49 187.823 125.545 187.823 125.603C187.823 125.661 187.846 125.717 187.887 125.758C187.928 125.799 187.984 125.822 188.042 125.822L193.941 125.201C193.973 125.208 194.007 125.208 194.039 125.201C194.071 125.194 194.101 125.18 194.127 125.159C194.153 125.139 194.173 125.113 194.188 125.083C194.202 125.053 194.21 125.021 194.21 124.988C194.21 124.955 194.202 124.923 194.188 124.893C194.173 124.863 194.153 124.837 194.127 124.817C194.101 124.796 194.071 124.782 194.039 124.775C194.007 124.768 193.973 124.768 193.941 124.775L191.227 125.063L190.687 119.991C192.517 119.733 194.176 118.778 195.319 117.325C196.461 115.872 196.998 114.034 196.816 112.194Z" fill="#916EFF"/>
<path d="M149.678 145.716L148.402 130.766C148.399 130.728 148.386 130.691 148.363 130.659C148.341 130.627 148.311 130.601 148.276 130.585C148.241 130.569 148.202 130.562 148.164 130.565C148.125 130.569 148.088 130.583 148.057 130.605L141.95 134.849C141.639 133.46 140.837 132.23 139.692 131.385C138.547 130.54 137.136 130.137 135.717 130.249C135.522 130.249 122.239 131.399 122.09 131.399C120.537 131.531 119.101 132.273 118.096 133.463C117.091 134.654 116.6 136.194 116.731 137.747L117.271 144.106C117.406 145.659 118.151 147.096 119.343 148.101C120.535 149.105 122.077 149.596 123.631 149.465L137.258 148.315C138.675 148.19 140 147.556 140.986 146.531C141.973 145.506 142.557 144.159 142.629 142.738L149.379 145.9C149.411 145.916 149.446 145.923 149.481 145.922C149.516 145.92 149.55 145.91 149.58 145.891C149.61 145.873 149.634 145.847 149.652 145.816C149.669 145.786 149.678 145.751 149.678 145.716ZM137.212 147.901C137.097 147.901 123.723 149.051 123.585 149.051C122.873 149.113 122.155 149.033 121.474 148.818C120.792 148.602 120.16 148.254 119.613 147.793C119.067 147.333 118.616 146.769 118.287 146.135C117.958 145.5 117.757 144.807 117.697 144.095L117.156 137.735C117.095 137.023 117.174 136.306 117.39 135.624C117.606 134.943 117.954 134.311 118.414 133.764C118.874 133.217 119.438 132.766 120.073 132.438C120.707 132.109 121.4 131.908 122.113 131.847L135.74 130.697C137.178 130.582 138.603 131.04 139.706 131.97C140.809 132.9 141.499 134.228 141.628 135.665L142.169 142.013C142.287 143.45 141.832 144.875 140.903 145.978C139.975 147.081 138.648 147.773 137.212 147.901ZM142.617 142.289C142.617 142.163 142.042 135.389 142.019 135.32L147.999 131.146L149.218 145.383L142.617 142.289Z" fill="#916EFF"/>
<path d="M20.5105 100.624C20.4525 100.624 20.397 100.601 20.356 100.56C20.315 100.519 20.292 100.463 20.292 100.405C20.292 100.347 20.315 100.292 20.356 100.251C20.397 100.21 20.4525 100.187 20.5105 100.187L25.053 99.7266C25.1109 99.7266 25.1665 99.7496 25.2075 99.7906C25.2485 99.8315 25.2715 99.8871 25.2715 99.9451C25.2715 100.003 25.2485 100.059 25.2075 100.1C25.1665 100.141 25.1109 100.164 25.053 100.164L20.5105 100.624Z" fill="#916EFF"/>
<path d="M33.1365 99.3365C33.0785 99.3365 33.0229 99.3134 32.982 99.2725C32.941 99.2315 32.918 99.1759 32.918 99.118C32.918 99.06 32.941 99.0044 32.982 98.9635C33.0229 98.9225 33.0785 98.8995 33.1365 98.8995L37.7365 98.4395C37.7944 98.4395 37.85 98.4625 37.891 98.5034C37.9319 98.5444 37.955 98.6 37.955 98.658C37.955 98.7159 37.9319 98.7715 37.891 98.8125C37.85 98.8534 37.7944 98.8765 37.7365 98.8765L33.1365 99.3365Z" fill="#916EFF"/>
<path d="M28.4687 95.5187L28.0087 90.9187C28.0012 90.8866 28.001 90.8533 28.0082 90.8212C28.0154 90.789 28.0298 90.7589 28.0502 90.7331C28.0707 90.7073 28.0967 90.6865 28.1264 90.6722C28.156 90.6578 28.1885 90.6504 28.2214 90.6504C28.2544 90.6504 28.2869 90.6578 28.3165 90.6722C28.3462 90.6865 28.3722 90.7073 28.3926 90.7331C28.4131 90.7589 28.4275 90.789 28.4347 90.8212C28.4418 90.8533 28.4417 90.8866 28.4342 90.9187L28.9057 95.5187C28.9057 95.5766 28.8827 95.6322 28.8417 95.6732C28.8007 95.7142 28.7451 95.7372 28.6872 95.7372C28.6292 95.7372 28.5737 95.7142 28.5327 95.6732C28.4917 95.6322 28.4687 95.5766 28.4687 95.5187Z" fill="#916EFF"/>
<path d="M29.7559 108.099L29.2959 103.499C29.3071 103.451 29.3343 103.408 29.3729 103.377C29.4115 103.347 29.4594 103.33 29.5086 103.33C29.5579 103.33 29.6058 103.347 29.6444 103.377C29.683 103.408 29.7102 103.451 29.7214 103.499L30.1929 108.099C30.1929 108.157 30.1699 108.212 30.1289 108.253C30.0879 108.294 30.0323 108.317 29.9744 108.317C29.9164 108.317 29.8609 108.294 29.8199 108.253C29.7789 108.212 29.7559 108.157 29.7559 108.099Z" fill="#916EFF"/>
<path d="M25.9486 97.1866C25.8336 97.1866 26.0751 97.3591 22.2686 94.2426C22.0386 94.0586 22.3261 93.7251 22.5331 93.9091L26.0866 96.7956C26.1228 96.8238 26.1492 96.8626 26.1621 96.9066C26.1751 96.9507 26.1738 96.9976 26.1585 97.0409C26.1433 97.0841 26.1148 97.1215 26.0771 97.1477C26.0394 97.1738 25.9944 97.1875 25.9486 97.1866Z" fill="#916EFF"/>
<path d="M35.7933 105.202C35.6783 105.202 35.9083 105.363 32.1133 102.269C32.0836 102.255 32.0574 102.235 32.0367 102.209C32.0161 102.184 32.0015 102.154 31.994 102.122C31.9865 102.09 31.9864 102.056 31.9936 102.024C32.0008 101.992 32.0151 101.962 32.0356 101.936C32.056 101.91 32.082 101.89 32.1116 101.875C32.1413 101.861 32.1737 101.854 32.2066 101.854C32.2395 101.853 32.272 101.861 32.3016 101.875C32.3313 101.889 32.3573 101.91 32.3778 101.936L35.9313 104.823C35.9632 104.852 35.9857 104.89 35.996 104.932C36.0063 104.974 36.0039 105.018 35.9891 105.058C35.9744 105.099 35.9479 105.134 35.913 105.16C35.8781 105.185 35.8365 105.2 35.7933 105.202Z" fill="#916EFF"/>
<path d="M31.665 96.6001C31.6234 96.6007 31.5825 96.5894 31.5471 96.5675C31.5117 96.5457 31.4833 96.5142 31.4652 96.4768C31.4471 96.4393 31.44 96.3975 31.4448 96.3562C31.4497 96.3149 31.4662 96.2758 31.4925 96.2436L34.3905 92.7016C34.563 92.4716 34.8965 92.7016 34.724 92.9776C31.55 96.8186 31.803 96.6001 31.665 96.6001Z" fill="#916EFF"/>
<path d="M23.637 106.443C23.5964 106.442 23.557 106.429 23.5233 106.406C23.4896 106.384 23.4628 106.352 23.4461 106.315C23.4294 106.278 23.4233 106.237 23.4286 106.197C23.4339 106.156 23.4503 106.118 23.476 106.087L26.3625 102.545C26.3789 102.518 26.4008 102.496 26.4268 102.478C26.4527 102.461 26.4821 102.449 26.5129 102.444C26.5437 102.439 26.5752 102.441 26.6054 102.449C26.6355 102.457 26.6635 102.472 26.6876 102.492C26.7116 102.511 26.7311 102.536 26.7448 102.564C26.7584 102.592 26.7659 102.623 26.7667 102.654C26.7675 102.686 26.7616 102.717 26.7494 102.745C26.7372 102.774 26.719 102.8 26.696 102.821C23.5565 106.662 23.7865 106.443 23.637 106.443Z" fill="#916EFF"/>
<path d="M71.7306 44.9285C71.2092 44.3401 70.9363 43.5723 70.9695 42.7868C71.0027 42.0013 71.3393 41.2593 71.9084 40.717C72.4776 40.1746 73.235 39.8742 74.0212 39.879C74.8074 39.8837 75.5611 40.1933 76.1236 40.7425C76.4155 41.0274 76.647 41.3683 76.8042 41.7447C76.9614 42.1211 77.0412 42.5254 77.0387 42.9333C77.0363 43.3412 76.9516 43.7444 76.7898 44.1189C76.6281 44.4934 76.3925 44.8314 76.0972 45.1128C75.8018 45.3942 75.4528 45.6133 75.071 45.7568C74.6892 45.9003 74.2823 45.9654 73.8747 45.9482C73.4672 45.931 73.0673 45.8318 72.6989 45.6566C72.3305 45.4814 72.0012 45.2338 71.7306 44.9285ZM72.1331 40.961C71.8813 41.1954 71.6786 41.4774 71.5366 41.7908C71.3946 42.1041 71.3163 42.4425 71.3061 42.7863C71.2959 43.1302 71.3541 43.4726 71.4772 43.7938C71.6004 44.115 71.7861 44.4086 72.0236 44.6575C72.261 44.9064 72.5456 45.1056 72.8606 45.2437C73.1757 45.3818 73.515 45.456 73.859 45.4619C74.2029 45.4679 74.5446 45.4055 74.8643 45.2784C75.1839 45.1513 75.4752 44.962 75.7211 44.7215C75.9729 44.4871 76.1757 44.2051 76.3176 43.8917C76.4596 43.5784 76.538 43.24 76.5481 42.8961C76.5583 42.5523 76.5002 42.2098 76.377 41.8886C76.2538 41.5674 76.0681 41.2739 75.8307 41.025C75.5932 40.7761 75.3087 40.5768 74.9936 40.4388C74.6786 40.3007 74.3392 40.2265 73.9953 40.2205C73.6513 40.2146 73.3096 40.277 72.99 40.4041C72.6703 40.5312 72.3791 40.7205 72.1331 40.961Z" fill="#916EFF"/>
<path d="M198.991 12.9023L193.241 13.3738L192.758 7.62378C192.746 7.57579 192.719 7.533 192.681 7.50237C192.642 7.47175 192.594 7.45508 192.545 7.45508C192.496 7.45508 192.448 7.47175 192.409 7.50237C192.371 7.533 192.343 7.57579 192.332 7.62378L192.815 13.3738L187.065 13.8453C187.007 13.8453 186.952 13.8683 186.911 13.9093C186.87 13.9503 186.847 14.0058 186.847 14.0638C186.847 14.1217 186.87 14.1773 186.911 14.2183C186.952 14.2593 187.007 14.2823 187.065 14.2823L192.815 13.7993L193.287 19.5493C193.287 19.6072 193.31 19.6628 193.351 19.7038C193.392 19.7448 193.447 19.7678 193.505 19.7678C193.563 19.7678 193.619 19.7448 193.66 19.7038C193.701 19.6628 193.724 19.6072 193.724 19.5493L193.241 13.7993L198.991 13.3163C199.024 13.3274 199.059 13.3305 199.093 13.3254C199.127 13.3203 199.16 13.307 199.188 13.2868C199.216 13.2666 199.239 13.2399 199.255 13.209C199.271 13.1782 199.279 13.144 199.279 13.1093C199.279 13.0746 199.271 13.0404 199.255 13.0095C199.239 12.9786 199.216 12.952 199.188 12.9318C199.16 12.9115 199.127 12.8983 199.093 12.8932C199.059 12.8881 199.024 12.8912 198.991 12.9023Z" fill="#916EFF"/>
<path d="M150.253 67.401C149.942 66.9525 148.976 67.125 147.435 67.8955C147.148 68.045 146.009 68.62 145.032 69.149C145.641 68.436 146.251 67.746 146.837 67.148C148.493 65.4805 149.137 64.388 148.769 63.9165C148.631 63.744 148.229 63.238 145.262 64.9745C142.051 67.1587 139.089 69.6885 136.43 72.5185C134.475 74.577 135.211 68.85 135.004 67.539C134.797 66.228 134.624 65.446 134.13 65.4115C133.635 65.377 133.267 65.906 132.485 68.5395C132.106 69.793 130.588 73.657 127.563 81.086C126.991 81.0957 126.419 81.134 125.85 81.201C125.413 81.201 126.011 81.914 120.813 93.69L119.95 95.6795C109.094 77.1645 106.967 75.313 92.9368 74.485C92.6252 74.4443 92.3322 74.3139 92.0933 74.1097C91.8545 73.9056 91.6801 73.6364 91.5913 73.335C92.2583 73.427 95.1333 73.2545 95.7543 72.3575C96.3753 71.4605 96.5478 69.8735 95.5818 65.3425C95.8877 65.2265 96.1576 65.0321 96.3645 64.7788C96.5714 64.5254 96.708 64.222 96.7604 63.8992C96.8129 63.5763 96.7794 63.2453 96.6633 62.9395C96.5473 62.6336 96.3528 62.3638 96.0993 62.157C96.4318 61.9979 96.71 61.7444 96.8992 61.4281C97.0884 61.1118 97.1801 60.7467 97.163 60.3786C97.1458 60.0104 97.0204 59.6555 96.8026 59.3582C96.5848 59.0609 96.2842 58.8344 95.9383 58.707C96.1573 58.4427 96.299 58.1232 96.3478 57.7835C96.3966 57.4439 96.3507 57.0974 96.2151 56.7822C96.0795 56.467 95.8595 56.1953 95.5793 55.9972C95.2992 55.7991 94.9697 55.6822 94.6273 55.6595C94.7338 55.3363 94.7498 54.9902 94.6735 54.6586C94.5973 54.327 94.4316 54.0227 94.1946 53.7786C93.9576 53.5345 93.6583 53.3599 93.3291 53.2739C92.9999 53.1878 92.6535 53.1936 92.3273 53.2905C92.3229 52.9393 92.2193 52.5965 92.0285 52.3016C91.8377 52.0067 91.5674 51.7718 91.2488 51.624C90.9302 51.4761 90.5764 51.4213 90.228 51.4659C89.8796 51.5105 89.5509 51.6526 89.2798 51.876C89.1514 51.5403 88.9325 51.2469 88.6473 51.0282C88.3621 50.8095 88.0219 50.6742 87.6644 50.6372C87.307 50.6003 86.9462 50.6632 86.6224 50.8189C86.2985 50.9747 86.0242 51.2172 85.8298 51.5195C85.6091 51.2473 85.3161 51.0429 84.9845 50.9297C84.6529 50.8165 84.296 50.7991 83.955 50.8796C83.6139 50.9601 83.3025 51.1351 83.0564 51.3845C82.8103 51.634 82.6396 51.9478 82.5638 52.29C82.2598 52.1242 81.9154 52.0471 81.5697 52.0673C81.224 52.0875 80.8909 52.2043 80.6082 52.4043C80.3256 52.6043 80.1046 52.8796 79.9706 53.1989C79.8365 53.5181 79.7947 53.8686 79.8498 54.2105C79.51 54.1623 79.1634 54.209 78.8484 54.3454C78.5334 54.4817 78.2622 54.7025 78.0647 54.9832C77.8672 55.264 77.7512 55.5938 77.7293 55.9364C77.7075 56.279 77.7806 56.6209 77.9408 56.9245C77.591 56.9912 77.2674 57.1562 77.0079 57.4002C76.7485 57.6442 76.5639 57.9571 76.4758 58.3022C76.3877 58.6473 76.3998 59.0103 76.5106 59.3488C76.6213 59.6873 76.8263 59.9872 77.1013 60.2135C76.7856 60.3786 76.5238 60.6309 76.347 60.9403C76.1703 61.2497 76.086 61.6034 76.1042 61.9592C76.1223 62.3151 76.2422 62.6584 76.4495 62.9482C76.6568 63.238 76.9429 63.4623 77.2738 63.5945C77.0573 63.8604 76.9184 64.1808 76.8724 64.5206C76.8264 64.8604 76.875 65.2063 77.0129 65.5202C77.1508 65.8341 77.3727 66.1039 77.6541 66.2998C77.9355 66.4957 78.2656 66.6101 78.6078 66.6305C78.5041 66.9529 78.4903 67.2976 78.5678 67.6273C78.6453 67.9571 78.8113 68.2594 79.0478 68.5019C79.2844 68.7443 79.5826 68.9177 79.9103 69.0034C80.238 69.089 80.5829 69.0837 80.9078 68.988C80.9144 69.3382 81.0195 69.6795 81.2111 69.9727C81.4028 70.2659 81.6732 70.4991 81.9914 70.6455C82.3096 70.792 82.6626 70.8458 83.01 70.8008C83.3574 70.7558 83.685 70.6137 83.9553 70.391C84.0838 70.7983 84.3508 71.1478 84.71 71.3789C85.0692 71.6099 85.4979 71.708 85.9218 71.656C83.1158 74.991 80.9193 74.8415 75.4338 77.2795C73.7144 78.0558 72.2103 79.2401 71.0523 80.7295C70.8683 78.7285 70.7763 77.084 70.7878 76.1295C70.7878 73.6225 70.5578 73.0475 70.1783 72.967C69.7988 72.8865 69.3388 73.565 68.8328 74.5885C68.3268 75.612 67.3953 80.718 66.3373 78.556C64.7881 75.3771 62.8905 72.3802 60.6793 69.6205C58.7933 67.5505 58.1953 67.562 57.9078 67.769C57.0798 68.3555 58.7013 70.9085 59.6903 73.2085C58.9773 72.484 58.1493 71.6905 58.0228 71.564C56.8728 70.414 56.0908 70.069 55.7228 70.414C55.634 70.4936 55.5769 70.6026 55.5622 70.7209C55.5474 70.8393 55.5758 70.959 55.6423 71.058C56.2748 72.208 57.4018 73.864 58.1723 75.1635C57.5628 74.738 56.1253 73.7835 55.6308 74.324C55.5531 74.4155 55.5103 74.5316 55.5103 74.6517C55.5103 74.7718 55.5531 74.888 55.6308 74.9795C58.0458 78.0155 59.7133 78.832 62.2778 84.1795C62.3813 84.8235 62.4733 86.4795 62.5538 87.9975C61.6798 88.216 61.0588 88.4 60.9898 88.423C60.9435 88.4402 60.904 88.4718 60.877 88.5132C60.8501 88.5547 60.8372 88.6037 60.8403 88.653C61.6568 98.566 63.3243 105.339 66.0958 109.951C66.8517 111.304 68.083 112.329 69.5511 112.826C71.0193 113.323 72.6198 113.258 74.0423 112.642C70.7733 115.166 68.2724 118.551 66.8203 122.417C64.2328 129.409 55.5618 137.953 54.5383 138.942C41.8883 127.051 41.0603 126.223 40.9338 126.143C40.6364 125.887 40.2784 125.711 39.8939 125.633C39.5095 125.554 39.1113 125.576 38.7373 125.694L32.9873 118.679C28.7093 112.596 2.56983 134.285 6.53734 139.759C6.93469 140.198 7.42446 140.543 7.97132 140.77C8.51819 140.996 9.10855 141.099 9.69984 141.07C12.6438 141.07 16.6803 139.092 20.4063 138.045C22.5798 137.447 24.7303 136.723 26.7428 137.378C26.6427 137.719 26.6314 138.08 26.7099 138.426C26.7884 138.772 26.9541 139.092 27.1913 139.356C27.2948 139.471 27.1913 139.356 49.9728 159.056C51.5963 160.455 53.6819 161.2 55.8243 161.147C57.9666 161.094 60.0127 160.246 61.5648 158.768C66.9353 154.03 79.3208 143.071 84.1508 138.793C84.3463 139.046 84.5418 139.299 84.7488 139.529C87.8597 143.215 89.4981 147.921 89.3488 152.742L79.3668 181.343C79.3668 181.492 79.3668 181.573 79.5048 181.642C80.0568 181.987 80.6548 182.32 81.1608 182.642C79.0448 187.633 76.6643 192.992 76.0318 194.43C75.3993 195.867 75.8478 198.156 76.2273 199.639C77.9245 205.445 80.6512 210.898 84.2773 215.739C86.8648 219.408 91.5798 225.158 93.7418 221.236C95.3403 218.338 94.0523 212.036 92.3618 207.919C88.4748 198.351 93.3968 191.003 94.4548 187.369C95.1448 187.484 95.8463 187.576 96.5593 187.656C96.6318 187.666 96.7054 187.651 96.7681 187.613C96.8308 187.576 96.8789 187.518 96.9043 187.449C97.4908 185.816 107.047 158.929 107.082 158.826C108.213 155.186 108.692 151.374 108.496 147.567C108.255 133.399 107.783 123.739 103.54 109.249C104.69 106.949 104.414 99.5665 104.31 97.1975C107.752 101.949 111.6 106.393 115.81 110.48C116.798 111.429 117.997 112.13 119.309 112.525C120.62 112.92 122.007 112.997 123.355 112.752C124.702 112.506 125.972 111.943 127.06 111.11C128.147 110.278 129.021 109.198 129.61 107.961C132.727 101.383 136.867 91.321 138.281 84.628C138.29 84.5848 138.285 84.5403 138.269 84.4995C138.253 84.4588 138.225 84.4235 138.189 84.398L137.292 83.8345C138.017 81.8565 138.546 80.4535 138.856 79.8325C143.261 75.0255 145.48 74.5655 148.896 72.231C149.003 72.1644 149.084 72.0624 149.124 71.9427C149.163 71.823 149.16 71.6931 149.114 71.5755C148.758 70.851 146.814 71.426 146.078 71.6675C147.228 70.6095 149.126 69.0915 150.172 68.091C150.269 68.0064 150.331 67.889 150.346 67.7615C150.36 67.634 150.327 67.5055 150.253 67.401ZM85.4158 72.829C86.1173 72.1275 89.8548 67.4355 90.4643 66.6535C90.4942 66.6137 90.5103 66.5652 90.5103 66.5155C90.5103 66.4657 90.4942 66.4173 90.4643 66.3775C88.3713 64.0775 89.8893 62.548 90.9703 64.0775C91.7063 65.1125 93.0058 64.94 92.4308 61.95C93.0181 61.6936 93.5835 61.3898 94.1213 61.0415C95.9268 68.1025 96.1108 70.6325 95.5933 71.794C95.0758 72.9555 91.8328 70.8855 90.6828 70.046C90.6488 70.0162 90.606 69.9985 90.5609 69.9953C90.5158 69.9922 90.471 70.0039 90.4332 70.0287C90.3954 70.0535 90.3667 70.0899 90.3516 70.1325C90.3365 70.1751 90.3357 70.2214 90.3493 70.2645C90.7173 72.0125 91.0278 74.4505 92.5343 74.8645C86.0138 77.9925 82.6673 75.888 81.8393 75.221C83.1806 74.673 84.3972 73.8594 85.4158 72.829ZM59.8053 79.085C58.7243 77.6475 55.9183 74.761 55.8838 74.485C55.9413 74.485 56.4473 74.4045 57.8158 75.336C58.3313 75.719 58.762 76.2045 59.0808 76.762C59.7823 78.1995 60.7943 80.0395 61.4498 81.707C60.9535 80.8015 60.4044 79.926 59.8053 79.085ZM59.4603 76.578C58.8436 75.3634 58.1523 74.1881 57.3903 73.059C56.8618 72.2782 56.378 71.4681 55.9413 70.6325C55.9413 70.6325 56.5048 70.6325 57.7008 71.7825C57.8733 71.955 59.4258 73.4385 60.1273 74.209C61.1492 76.7035 61.8001 79.3343 62.0593 82.0175C61.2944 80.1576 60.4267 78.3416 59.4603 76.578ZM59.0693 70.828C57.9193 68.735 58.0573 68.1025 58.1378 68.0565C58.2183 68.0105 58.5633 67.8495 60.2998 69.8275C63.0413 73.2587 65.2973 77.0509 67.0043 81.0975C67.011 81.1294 67.0246 81.1594 67.0444 81.1853C67.0641 81.2112 67.0893 81.2324 67.1183 81.2473C67.1473 81.2622 67.1792 81.2704 67.2117 81.2714C67.2443 81.2724 67.2767 81.266 67.3065 81.2529C67.3363 81.2397 67.3627 81.2201 67.384 81.1954C67.4052 81.1707 67.4206 81.1416 67.4291 81.1101C67.4377 81.0787 67.439 81.0458 67.4332 81.0137C67.4273 80.9817 67.4144 80.9514 67.3953 80.925C67.1883 80.419 66.9583 79.913 66.7283 79.407C68.0738 79.6025 68.6718 75.6925 69.1663 74.6805C69.3273 74.3585 69.8333 73.335 70.0173 73.289C70.2013 73.243 70.3163 73.611 70.2933 76.0375C70.2933 77.1875 70.3968 78.97 70.6038 81.201C69.3257 83.0491 68.4051 85.1203 67.8898 87.3075C66.2096 87.1962 64.5226 87.3673 62.8988 87.8135C62.5998 81.3505 62.2663 77.0495 59.0693 70.805V70.828ZM71.7193 115.241C72.6646 115.249 73.5961 115.469 74.4448 115.885C72.6278 117.15 70.9373 121.06 70.6843 121.635L66.7513 123.498C67.8033 120.415 69.5009 117.592 71.7308 115.218L71.7193 115.241ZM27.0993 137.091C24.9028 136.297 22.7293 137.01 20.3143 137.689C16.3583 138.839 12.1033 140.932 9.20534 140.656C16.2663 139.828 33.3553 125.315 33.2633 119.772C33.9303 120.6 39.3008 127.086 40.8073 128.972C39.5308 132.778 34.1028 138.252 30.2158 139.322C29.3816 138.319 28.316 137.533 27.1108 137.033L27.0993 137.091ZM28.5023 139.954C33.3668 140.472 42.0723 130.961 41.4858 127.304L46.2353 131.778C43.8318 138.551 39.8183 142.783 33.9648 144.704L28.5023 139.954ZM61.3003 158.515C60.1934 159.553 58.8265 160.272 57.3443 160.597C56.1008 160.848 54.8161 160.807 53.591 160.478C52.3659 160.148 51.2337 159.54 50.2833 158.699L34.3558 144.899C37.0104 144.016 39.4235 142.527 41.4053 140.552L51.0653 149.005C52.6412 150.389 54.6666 151.152 56.7636 151.152C58.8606 151.152 60.886 150.389 62.4618 149.005L80.6663 132.905L80.8963 141.139L61.3003 158.515ZM89.7858 152.535C89.865 147.703 88.1992 143.003 85.0938 139.299C81.9897 135.544 80.051 130.963 79.5163 126.12C79.5238 126.088 79.524 126.055 79.5168 126.022C79.5096 125.99 79.4952 125.96 79.4748 125.934C79.4543 125.909 79.4283 125.888 79.3987 125.873C79.369 125.859 79.3365 125.852 79.3036 125.852C79.2707 125.852 79.2382 125.859 79.2085 125.873C79.1789 125.888 79.1528 125.909 79.1324 125.934C79.1119 125.96 79.0976 125.99 79.0904 126.022C79.0832 126.055 79.0833 126.088 79.0908 126.12C79.267 128.278 79.7752 130.396 80.5973 132.399L62.1973 148.74C60.6993 150.055 58.7741 150.78 56.7808 150.78C54.7876 150.78 52.8624 150.055 51.3643 148.74L41.7043 140.299C43.8934 137.911 45.5582 135.09 46.5918 132.019L57.7928 142.599C57.9883 142.795 58.2873 142.473 58.0803 142.277L54.8028 139.149C55.8263 138.16 63.2783 130.789 66.4753 124.13C71.1443 121.922 71.0753 122.014 71.0753 121.899C71.0753 121.784 73.0993 116.966 75.0083 116.023C75.0418 116.004 75.0696 115.976 75.089 115.943C75.1083 115.91 75.1185 115.872 75.1185 115.833C75.1185 115.795 75.1083 115.757 75.089 115.724C75.0696 115.69 75.0418 115.663 75.0083 115.643C74.1248 115.166 73.1555 114.869 72.1563 114.769C73.6553 113.278 75.3315 111.977 77.1473 110.894C77.3083 110.79 77.2968 110.744 77.2968 110.572C83.3573 112.389 92.3158 111.722 98.5258 110.572C101.228 121.175 102.344 132.744 103.264 147.935C103.47 151.189 103.052 154.452 102.033 157.549C101.182 160.171 98.5833 168.336 95.2138 179.1C90.6379 178.202 86.3178 176.301 82.5638 173.534C90.1998 151.73 89.7743 152.949 89.7973 152.478L89.7858 152.535ZM91.9823 208.138C93.7648 212.496 94.6503 217.809 93.6153 220.558C94.0868 213.922 81.0573 191.716 76.8483 193.694C77.8028 191.543 79.7578 187.093 81.5288 182.918C85.418 185.096 89.6489 186.597 94.0408 187.357C93.0173 190.773 88.0838 198.478 91.9938 208.08L91.9823 208.138ZM96.5823 187.277C90.6227 186.605 84.8975 184.57 79.8498 181.331L82.4258 173.96C87.2813 177.589 93.1145 179.676 99.1698 179.951L96.5823 187.277ZM108.082 147.636C108.269 151.376 107.802 155.12 106.702 158.699C106.461 159.401 102.229 171.349 99.2848 179.572C98.0595 179.538 96.8379 179.423 95.6278 179.227C97.3298 173.856 101.746 159.838 102.413 157.768C103.458 154.605 103.887 151.271 103.678 147.947C102.746 132.732 101.631 121.152 98.9283 110.514C100.343 110.238 101.757 109.916 103.137 109.548C107.358 123.866 107.829 133.491 108.105 147.579L108.082 147.636ZM137.764 84.7315C136.326 91.39 132.244 101.314 129.162 107.823C128.605 109.004 127.774 110.035 126.739 110.83C125.703 111.625 124.493 112.161 123.208 112.394C121.923 112.627 120.602 112.55 119.353 112.169C118.104 111.788 116.965 111.114 116.029 110.204C110.381 104.675 105.367 98.5346 101.079 91.896C101.05 91.8554 101.007 91.8262 100.959 91.8131C100.911 91.8 100.859 91.8039 100.814 91.8241C100.768 91.8443 100.73 91.8795 100.707 91.924C100.685 91.9685 100.678 92.0195 100.688 92.0685L104 102.073C104 104.799 103.793 107.766 103.206 109.042C93.8913 111.549 83.2998 111.986 77.3083 110.123C77.3083 102.97 73.7663 88.515 73.7318 88.3655C73.7309 88.3328 73.7227 88.3007 73.7077 88.2717C73.6928 88.2426 73.6715 88.2172 73.6455 88.1975C73.6194 88.1777 73.5893 88.1641 73.5573 88.1575C73.5252 88.1509 73.4921 88.1517 73.4604 88.1596C73.4287 88.1675 73.3992 88.1825 73.374 88.2033C73.3488 88.2242 73.3287 88.2504 73.315 88.2801C73.3013 88.3098 73.2944 88.3422 73.2949 88.3749C73.2954 88.4076 73.3033 88.4397 73.3178 88.469C73.3178 88.607 76.7678 102.418 76.8713 109.652C74.1803 113.527 68.8213 113.711 66.4293 109.652C63.7038 105.121 62.0593 98.4625 61.2543 88.7105C62.0708 88.4575 65.8543 87.434 67.8208 87.7445C66.7894 92.9861 66.7231 98.372 67.6253 103.637C67.6297 103.666 67.6397 103.692 67.6547 103.716C67.6697 103.741 67.6894 103.761 67.7126 103.778C67.7358 103.794 67.7621 103.805 67.7899 103.811C67.8176 103.817 67.8463 103.818 67.8741 103.812C67.902 103.807 67.9285 103.796 67.952 103.78C67.9755 103.764 67.9956 103.743 68.011 103.72C68.0264 103.696 68.0369 103.669 68.0417 103.641C68.0466 103.613 68.0458 103.585 68.0393 103.557C68.0393 103.35 64.1983 82.7535 75.6063 77.682C78.2628 76.532 79.6313 76.1065 81.3563 75.382C82.6716 76.4947 84.3625 77.0625 86.0828 76.969C88.6141 76.8739 91.0861 76.1761 93.2933 74.9335C107.461 75.8075 109.106 77.9465 121.342 98.9455C121.371 98.9958 121.419 99.0325 121.475 99.0476C121.531 99.0627 121.591 99.0549 121.641 99.026C121.691 98.997 121.728 98.9492 121.743 98.8931C121.758 98.8371 121.75 98.7773 121.721 98.727C121.192 97.8415 120.698 96.979 120.203 96.151C120.87 94.403 124.079 87.779 125.953 81.6035C130.139 81.1672 134.341 82.2576 137.787 84.674L137.764 84.7315ZM136.855 83.6505C134.176 82.0506 131.121 81.1858 128 81.1435C131.036 73.7145 132.497 69.9885 132.876 68.7235C133.658 66.113 134.026 65.906 134.026 65.8945C134.026 65.883 134.44 67.2515 134.509 67.6655C134.705 68.919 134.038 73.3005 135.556 73.4155C135.142 73.8755 134.728 74.3585 134.325 74.8415C134.298 74.8863 134.287 74.9398 134.296 74.9918C134.304 75.0439 134.331 75.0911 134.372 75.1248C134.412 75.1584 134.464 75.1762 134.517 75.1749C134.569 75.1735 134.62 75.1531 134.659 75.1175C137.78 71.3968 141.398 68.1231 145.411 65.3885C147.987 63.8705 148.355 64.2385 148.355 64.2385C148.355 64.2385 148.275 65.0665 146.469 66.9065C141.11 72.3575 139.351 76.9345 136.878 83.593L136.855 83.6505ZM146.331 72.07C148.378 71.4375 148.631 71.8055 148.631 71.8055C148.631 71.8055 148.631 71.8745 148.551 71.9205C145.158 74.2205 143.755 74.37 140.121 77.8775C141.737 75.9629 143.448 74.132 145.25 72.392L146.331 72.07ZM147.481 69.8275C144.592 72.2661 141.929 74.9604 139.523 77.8775C140.698 75.0485 142.291 72.4123 144.25 70.0575C145.193 69.5055 147.217 68.482 147.608 68.2865C149.528 67.3205 149.908 67.6425 149.908 67.6425C149.177 68.4058 148.393 69.1167 147.562 69.77L147.481 69.8275Z" fill="#191250"/>
</svg>
