<svg width="93" height="100" viewBox="0 0 93 100" fill="none" xmlns="http://www.w3.org/2000/svg">
<path fill-rule="evenodd" clip-rule="evenodd" d="M50.4042 52.2018C50.2485 48.3202 49.665 44.5059 48.6292 40.883C47.8513 38.1622 46.2187 34.8999 43.9918 32.2907C41.7556 29.6708 39.0247 27.826 36.0637 27.672C34.1356 27.5716 32.6403 28.1825 31.5055 29.2303C30.3523 30.2951 29.5253 31.8565 29.0587 33.7054C27.2955 40.6917 31.7423 46.7768 37.9129 50.3996C41.5457 52.5324 46.1203 53.0605 50.4042 52.2018ZM52.156 51.7682C51.9737 47.8707 51.3726 44.0412 50.3306 40.3965C49.487 37.4462 47.7385 33.9547 45.3377 31.1419C42.9462 28.3399 39.8027 26.0945 36.1557 25.9048C33.7584 25.78 31.7953 26.5542 30.305 27.9302C28.8331 29.2893 27.8683 31.1907 27.3429 33.2723C25.2998 41.3676 30.5363 48.1208 37.017 51.9256C40.9628 54.2422 45.8473 54.851 50.4458 53.9956C50.5363 68.2221 44.9825 83.0901 34.9766 92.573C34.6219 92.9091 34.6068 93.4691 34.943 93.8238C35.2791 94.1785 35.8391 94.1935 36.1938 93.8574C46.6679 83.9308 52.41 68.404 52.2108 53.5913C55.1737 52.7824 57.9445 51.3536 60.1744 49.374C69.5329 41.0664 71.9791 27.5609 71.7329 15.9313C71.7225 15.4428 71.3181 15.0551 70.8295 15.0654C70.341 15.0758 69.9533 15.4802 69.9637 15.9688C70.2065 27.4371 67.7649 40.2696 58.9996 48.0507C57.0743 49.7598 54.7005 51.0153 52.156 51.7682Z" fill="white"/>
<path fill-rule="evenodd" clip-rule="evenodd" d="M49.6491 88.9289C49.8385 89.3793 49.6268 89.8981 49.1764 90.0874C47.6719 90.72 45.1878 91.702 42.6091 92.5992C40.0467 93.4907 37.3292 94.3204 35.3838 94.6204C34.9008 94.6949 34.4489 94.3638 34.3744 93.8809C34.3 93.3979 34.6311 92.946 35.114 92.8715C36.8867 92.5981 39.472 91.817 42.0276 90.9279C44.5669 90.0444 47.016 89.0761 48.4905 88.4562C48.941 88.2668 49.4597 88.4784 49.6491 88.9289Z" fill="white"/>
<path fill-rule="evenodd" clip-rule="evenodd" d="M35.1655 94.6286C35.6521 94.6735 36.0829 94.3154 36.1278 93.8288C36.2777 92.2037 36.4657 89.5391 36.5442 86.8099C36.6223 84.0979 36.5947 81.2568 36.2947 79.3113C36.2202 78.8284 35.7683 78.4972 35.2854 78.5717C34.8024 78.6462 34.4713 79.0981 34.5458 79.581C34.8192 81.3537 34.8532 84.0543 34.7754 86.759C34.698 89.4464 34.5126 92.0735 34.3657 93.6663C34.3208 94.1529 34.6789 94.5837 35.1655 94.6286Z" fill="white"/>
</svg>
