<svg width="75" height="56" viewBox="0 0 75 56" fill="none" xmlns="http://www.w3.org/2000/svg">
    <g clip-path="url(#clip0_2503_18419)">
        <path d="M75 0H0.359619V47.3907H75V0Z" fill="#E0922F"/>
        <path d="M75 48.9704H0.359619V56H75V48.9704Z" fill="#272425"/>
        <path d="M2.79956 50.9782C3.05258 50.9371 3.3086 50.9173 3.56492 50.9189C3.95984 50.9189 4.24735 51.0105 4.43375 51.1748C4.52313 51.2563 4.59362 51.3564 4.64028 51.468C4.68694 51.5796 4.70864 51.7001 4.70388 51.8209C4.71002 51.9411 4.69224 52.0612 4.65157 52.1745C4.61089 52.2877 4.54813 52.3917 4.46692 52.4804C4.25603 52.7048 3.91403 52.8193 3.51911 52.8193C3.41153 52.8229 3.3039 52.8139 3.19843 52.7924V54.0293H2.80351L2.79956 50.9782ZM3.19448 52.467C3.30254 52.4912 3.41317 52.5018 3.52385 52.4986C4.00486 52.4986 4.29869 52.2656 4.29869 51.8391C4.29869 51.4315 4.0096 51.2349 3.56966 51.2349C3.44381 51.2314 3.31797 51.242 3.19448 51.2664V52.467Z" fill="#E0922F"/>
        <path d="M6.8584 52.5816H5.65783V53.6945H6.99425V54.0294H5.25659V50.945H6.92711V51.2791H5.65783V52.2546H6.8584V52.5816Z" fill="#E0922F"/>
        <path d="M8.19566 51.2807H7.25732V50.945H9.54313V51.2838H8.59532V54.0325H8.19566V51.2807Z" fill="#E0922F"/>
        <path d="M11.4024 53.0578L11.0817 54.0294H10.6694L11.7191 50.945H12.2002L13.2538 54.0325H12.8273L12.4979 53.061L11.4024 53.0578ZM12.415 52.7466L12.1125 51.8573C12.0438 51.6559 11.998 51.4726 11.9545 51.2941H11.9458C11.9 51.4774 11.8495 51.6653 11.7879 51.8533L11.4853 52.7466H12.415Z" fill="white"/>
        <path d="M13.7302 50.9829C14.0107 50.9403 14.294 50.9189 14.5777 50.9189C15.1504 50.9189 15.5579 51.0516 15.8281 51.3036C16.0982 51.5555 16.2633 51.9125 16.2633 52.4094C16.2633 52.9062 16.1053 53.3256 15.8194 53.6099C15.5334 53.8943 15.054 54.0538 14.4537 54.0538C14.2121 54.0553 13.9705 54.0432 13.7302 54.0175V50.9829ZM14.1251 53.7126C14.2588 53.7313 14.3938 53.739 14.5288 53.7355C15.381 53.7355 15.8431 53.2616 15.8431 52.4259C15.8478 51.6969 15.4355 51.2349 14.5927 51.2349C14.4359 51.2324 14.2792 51.2461 14.1251 51.2759V53.7126Z" fill="white"/>
        <path d="M17.4818 54.0294L16.4724 50.945H16.9029L17.3839 52.4655C17.5166 52.8825 17.6311 53.2553 17.714 53.6202H17.7227C17.8104 53.2624 17.9384 52.873 18.0758 52.4702L18.5995 50.945H19.0252L17.9194 54.0325L17.4818 54.0294Z" fill="white"/>
        <path d="M20.9816 52.5816H19.7818V53.6945H21.119V54.0294H19.3813V50.945H21.0534V51.2791H19.7818V52.2546H20.9816V52.5816Z" fill="white"/>
        <path d="M21.6593 50.9829C21.9119 50.9381 22.1681 50.9167 22.4247 50.9189C22.8504 50.9189 23.1252 50.9979 23.318 51.1701C23.3978 51.245 23.4607 51.3362 23.5025 51.4374C23.5443 51.5386 23.5641 51.6475 23.5605 51.7569C23.5633 51.9341 23.508 52.1072 23.403 52.2499C23.298 52.3926 23.1491 52.4969 22.9791 52.5468V52.561C23.2161 52.64 23.359 52.8635 23.4325 53.1842C23.5336 53.6147 23.6063 53.9124 23.6694 54.0317H23.2572C23.2066 53.944 23.1379 53.6786 23.051 53.294C22.9594 52.8675 22.7943 52.7071 22.4326 52.6937H22.0566V54.0317H21.6577L21.6593 50.9829ZM22.0582 52.3888H22.4657C22.8922 52.3888 23.1624 52.1519 23.1624 51.8028C23.1624 51.4039 22.8733 51.2301 22.4515 51.2254C22.3189 51.2216 22.1863 51.2338 22.0566 51.2617L22.0582 52.3888Z" fill="white"/>
        <path d="M24.7746 51.2807H23.8354V50.945H26.1221V51.2838H25.1782V54.0325H24.7746V51.2807Z" fill="white"/>
        <path d="M26.8866 50.945V54.0325H26.4917V50.945H26.8866Z" fill="white"/>
        <path d="M27.5508 53.5436C27.7669 53.6732 28.0137 53.7427 28.2656 53.745C28.6732 53.745 28.9117 53.5294 28.9117 53.2182C28.9117 52.9299 28.7466 52.7648 28.3296 52.6044C27.8257 52.4259 27.5145 52.1645 27.5145 51.7293C27.5145 51.2483 27.9094 50.8913 28.5128 50.8913C28.7494 50.8835 28.9841 50.9353 29.1953 51.0421L29.0855 51.3675C28.9055 51.2703 28.704 51.2198 28.4994 51.2206C28.0776 51.2206 27.9173 51.4726 27.9173 51.6835C27.9173 51.9718 28.1053 52.114 28.531 52.279C29.0539 52.4804 29.3208 52.7324 29.3208 53.1858C29.3208 53.6597 28.9678 54.0751 28.2396 54.0751C27.9418 54.0751 27.6164 53.9875 27.4497 53.8777L27.5508 53.5436Z" fill="white"/>
        <path d="M30.2861 50.945V54.0325H29.8872V50.945H30.2861Z" fill="white"/>
        <path d="M31.0056 54.0294V50.945H31.4408L32.4273 52.5034C32.6332 52.8254 32.8179 53.1604 32.9802 53.5065H32.9889C32.9526 53.0942 32.9431 52.7166 32.9431 52.2372V50.945H33.3191V54.0325H32.9163L31.9353 52.4655C31.7227 52.1337 31.5301 51.7895 31.3587 51.4347L31.3445 51.4395C31.3674 51.8288 31.3768 52.2001 31.3768 52.7127V54.0325L31.0056 54.0294Z" fill="white"/>
        <path d="M36.3923 53.8919C36.0881 54.001 35.7677 54.0581 35.4445 54.0609C34.9777 54.0609 34.5931 53.9417 34.2906 53.6534C34.0244 53.3967 33.8601 52.9844 33.8601 52.5034C33.8641 51.5824 34.4967 50.9095 35.5322 50.9095C35.7957 50.9033 36.0576 50.9517 36.3015 51.0516L36.2052 51.3763C35.99 51.2829 35.7572 51.2376 35.5227 51.2436C34.7716 51.2436 34.2811 51.7112 34.2811 52.4852C34.2811 53.2593 34.755 53.7316 35.4722 53.7316C35.6529 53.7426 35.834 53.7157 36.0037 53.6526V52.7277H35.3758V52.407H36.3923V53.8919Z" fill="white"/>
        <path d="M38.5179 53.0578L38.1972 54.0294H37.7849L38.8338 50.945H39.3148L40.3685 54.0325H39.9428L39.615 53.0578H38.5179ZM39.5305 52.7466L39.228 51.8573C39.1592 51.6559 39.1134 51.4726 39.07 51.2941H39.0621C39.0163 51.4774 38.9657 51.6653 38.9041 51.8533L38.6024 52.7466H39.5305Z" fill="white"/>
        <path d="M40.8455 50.9829C41.1259 50.9403 41.4093 50.9189 41.693 50.9189C42.2656 50.9189 42.6732 51.0516 42.9433 51.3036C43.2134 51.5555 43.3785 51.9125 43.3785 52.4094C43.3785 52.9062 43.2205 53.3256 42.9338 53.6099C42.6471 53.8943 42.1692 54.0538 41.569 54.0538C41.3273 54.0553 41.0858 54.0432 40.8455 54.0175V50.9829ZM41.2404 53.7126C41.3741 53.7313 41.5091 53.739 41.644 53.7355C42.4954 53.7355 42.9583 53.2616 42.9583 52.4259C42.963 51.6969 42.5507 51.2349 41.708 51.2349C41.5511 51.2324 41.3944 51.2461 41.2404 51.2759V53.7126Z" fill="white"/>
        <path d="M44.5972 54.0294L43.5894 50.945H44.0198L44.5008 52.4655C44.6335 52.8825 44.7481 53.2553 44.8302 53.6202H44.8397C44.9266 53.2624 45.0553 52.873 45.1927 52.4702L45.7148 50.945H46.1406L45.0348 54.0325L44.5972 54.0294Z" fill="white"/>
        <path d="M46.8964 50.945V54.0325H46.5015V50.945H46.8964Z" fill="white"/>
        <path d="M47.5607 53.5436C47.7756 53.6724 48.0209 53.7419 48.2715 53.745C48.6791 53.745 48.9176 53.5294 48.9176 53.2182C48.9176 52.9299 48.7526 52.7648 48.3355 52.6045C47.8316 52.426 47.5204 52.1645 47.5204 51.7293C47.5204 51.2483 47.9193 50.8913 48.5188 50.8913C48.7553 50.8832 48.9901 50.9351 49.2012 51.0421L49.093 51.3676C48.913 51.2703 48.7115 51.2198 48.5069 51.2207C48.0851 51.2207 47.9248 51.4726 47.9248 51.6835C47.9248 51.9718 48.1128 52.114 48.5393 52.279C49.0614 52.4805 49.3292 52.7324 49.3292 53.1858C49.3292 53.6597 48.9769 54.0752 48.2479 54.0752C47.9501 54.0752 47.6255 53.9875 47.458 53.8777L47.5607 53.5436Z" fill="white"/>
        <path d="M52.536 52.4528C52.536 53.516 51.8899 54.0791 51.1024 54.0791C50.2865 54.0791 49.7139 53.4472 49.7139 52.5128C49.7139 51.5326 50.3236 50.8913 51.1482 50.8913C51.991 50.8913 52.536 51.5374 52.536 52.4528ZM50.1404 52.5034C50.1404 53.1629 50.4974 53.7545 51.1253 53.7545C51.7532 53.7545 52.1142 53.1724 52.1142 52.4718C52.1142 51.8573 51.7935 51.2159 51.1301 51.2159C50.4666 51.2159 50.1404 51.8257 50.1404 52.5034Z" fill="white"/>
        <path d="M53.0769 50.9829C53.3292 50.9381 53.5852 50.9167 53.8415 50.9189C54.2672 50.9189 54.5429 50.9979 54.7348 51.1701C54.8146 51.2451 54.8775 51.3362 54.9193 51.4374C54.9611 51.5386 54.9809 51.6475 54.9773 51.757C54.9801 51.9341 54.9248 52.1072 54.8198 52.2499C54.7148 52.3926 54.5659 52.4969 54.3959 52.5468V52.561C54.6329 52.64 54.7759 52.8635 54.8493 53.1842C54.9504 53.6147 55.0231 53.9124 55.0863 54.0317H54.674C54.6234 53.944 54.5547 53.6786 54.4678 53.294C54.3762 52.8675 54.2111 52.7071 53.8494 52.6937H53.4734V54.0317H53.0785L53.0769 50.9829ZM53.4718 52.3888H53.8794C54.3059 52.3888 54.576 52.1519 54.576 51.8028C54.576 51.4039 54.2869 51.2301 53.8652 51.2254C53.7325 51.2216 53.5999 51.2338 53.4702 51.2617L53.4718 52.3888Z" fill="white"/>
        <path d="M56.2016 54.0294V52.719L55.2253 50.945H55.6787L56.1139 51.7965C56.2332 52.0334 56.3248 52.2182 56.4212 52.4331H56.4299C56.5167 52.2317 56.6226 52.0303 56.7411 51.7965L57.1857 50.945H57.6391L56.6044 52.7143V54.0294H56.2016Z" fill="white"/>
        <path d="M61.3592 53.8919C61.055 54.001 60.7346 54.0581 60.4114 54.0609C59.9446 54.0609 59.5591 53.9417 59.2574 53.6534C58.9913 53.3967 58.8262 52.9844 58.8262 52.5034C58.8309 51.5824 59.4636 50.9094 60.4983 50.9094C60.762 50.9032 61.0242 50.9516 61.2684 51.0516L61.172 51.3762C60.9569 51.2829 60.724 51.2376 60.4896 51.2436C59.7384 51.2436 59.248 51.7111 59.248 52.4852C59.248 53.2592 59.7219 53.7316 60.439 53.7316C60.6198 53.7426 60.8009 53.7157 60.9706 53.6526V52.7277H60.3387V52.407H61.3592V53.8919Z" fill="white"/>
        <path d="M61.9912 50.9829C62.2438 50.9381 62.5 50.9167 62.7566 50.9189C63.1823 50.9189 63.4572 50.9979 63.6499 51.1701C63.7297 51.2451 63.7926 51.3362 63.8344 51.4374C63.8762 51.5386 63.896 51.6475 63.8924 51.757C63.8951 51.934 63.8397 52.1072 63.7347 52.2498C63.6298 52.3924 63.4809 52.4968 63.311 52.5468V52.561C63.548 52.64 63.691 52.8635 63.7644 53.1842C63.8647 53.6147 63.9382 53.9124 64.0014 54.0317H63.5891C63.5393 53.944 63.4706 53.6786 63.3829 53.294C63.2913 52.8675 63.127 52.7071 62.7645 52.6937H62.3893V54.0317H61.9912V50.9829ZM62.3901 52.3888H62.7976C63.2234 52.3888 63.4943 52.1519 63.4943 51.8028C63.4943 51.4039 63.2052 51.2301 62.7834 51.2254C62.6508 51.2216 62.5182 51.2338 62.3885 51.2617L62.3901 52.3888Z" fill="white"/>
        <path d="M67.1314 52.4528C67.1314 53.516 66.4853 54.0791 65.6971 54.0791C64.882 54.0791 64.3093 53.4472 64.3093 52.5128C64.3093 51.5326 64.9183 50.8913 65.7429 50.8913C66.5864 50.8913 67.1314 51.5374 67.1314 52.4528ZM64.735 52.5034C64.735 53.1629 65.0929 53.7545 65.72 53.7545C66.3471 53.7545 66.7065 53.1724 66.7065 52.4718C66.7065 51.8573 66.3858 51.2159 65.7216 51.2159C65.0573 51.2159 64.7319 51.8257 64.7319 52.5034H64.735Z" fill="white"/>
        <path d="M68.0706 50.945V52.7695C68.0706 53.4607 68.377 53.7545 68.7893 53.7545C69.2474 53.7545 69.5413 53.452 69.5413 52.7695V50.945H69.9449V52.7451C69.9449 53.6929 69.4457 54.0823 68.7767 54.0823C68.1448 54.0823 67.6709 53.7205 67.6709 52.7632V50.945H68.0706Z" fill="white"/>
        <path d="M70.6558 50.9782C70.9085 50.9371 71.1643 50.9173 71.4203 50.9189C71.8153 50.9189 72.1035 51.0105 72.2892 51.1748C72.3784 51.2564 72.4488 51.3565 72.4955 51.4681C72.5421 51.5797 72.5639 51.7001 72.5593 51.8209C72.5654 51.9411 72.5476 52.0612 72.5069 52.1744C72.4662 52.2876 72.4035 52.3917 72.3223 52.4804C72.1114 52.7048 71.7694 52.8193 71.3745 52.8193C71.2669 52.8229 71.1593 52.8139 71.0538 52.7924V54.0293H70.6589L70.6558 50.9782ZM71.0507 52.467C71.159 52.4912 71.2699 52.5018 71.3808 52.4986C71.8619 52.4986 72.1549 52.2656 72.1549 51.8391C72.1549 51.4315 71.8666 51.2349 71.4267 51.2349C71.3005 51.2314 71.1744 51.242 71.0507 51.2665V52.467Z" fill="white"/>
        <path d="M21.8182 12.1312L20.6492 8.89285L18.9906 11.1368C17.5214 10.7419 15.9228 10.4386 13.9008 10.5594C13.2879 10.5958 11.228 11.0491 11.1419 11.1984C11.1331 11.2144 11.123 11.2298 11.1119 11.2442L9.28494 8.90549L8.26762 11.993C6.94937 13.1683 6.00234 14.8712 5.60742 16.3987V43.4059L9.80545 43.169V28.3989C10.7706 28.6406 11.8883 29.0797 13.1844 29.2416C17.2545 29.7503 20.0521 29.1334 22.5725 27.0917C24.3315 25.6699 25.8717 22.8494 25.8717 19.9041C25.8717 17.0085 24.5384 14.7701 22.8703 13.0996C22.5378 12.7576 22.1865 12.4343 21.8182 12.1312ZM13.3724 19.4894C13.2787 19.4894 13.187 19.4616 13.1091 19.4095C13.0312 19.3575 12.9704 19.2835 12.9346 19.1969C12.8987 19.1103 12.8893 19.015 12.9076 18.9231C12.9259 18.8311 12.971 18.7467 13.0373 18.6804C13.1036 18.6141 13.188 18.569 13.2799 18.5507C13.3719 18.5324 13.4671 18.5418 13.5537 18.5777C13.6403 18.6135 13.7144 18.6743 13.7664 18.7522C13.8185 18.8302 13.8463 18.9218 13.8463 19.0155C13.8463 19.1412 13.7964 19.2617 13.7075 19.3506C13.6186 19.4395 13.4981 19.4894 13.3724 19.4894ZM15.9394 23.1093V25.5815H15.4655V23.212L14.0043 21.5628L16.9859 21.3653L15.9394 23.1093ZM17.6375 19.4894C17.5438 19.4894 17.4522 19.4616 17.3743 19.4095C17.2963 19.3575 17.2356 19.2835 17.1997 19.1969C17.1638 19.1103 17.1545 19.015 17.1727 18.9231C17.191 18.8311 17.2362 18.7467 17.3024 18.6804C17.3687 18.6141 17.4532 18.569 17.5451 18.5507C17.637 18.5324 17.7323 18.5418 17.8189 18.5777C17.9055 18.6135 17.9795 18.6743 18.0316 18.7522C18.0837 18.8302 18.1115 18.9218 18.1115 19.0155C18.1115 19.1412 18.0615 19.2617 17.9727 19.3506C17.8838 19.4395 17.7632 19.4894 17.6375 19.4894Z" fill="white"/>
        <path d="M33.1936 17.9832C34.2994 17.3948 34.436 15.4841 33.4961 13.718C32.5562 11.9519 30.8967 10.9915 29.7893 11.5791C28.682 12.1668 28.5477 14.0782 29.4876 15.8443C30.4275 17.6104 32.087 18.5708 33.1936 17.9832Z" fill="white"/>
        <path d="M48.3097 16.8728C49.8925 15.6506 50.5559 13.8572 49.7914 12.8672C49.0269 11.8771 47.124 12.0652 45.5412 13.2874C43.9584 14.5096 43.295 16.3029 44.0595 17.293C44.824 18.2831 46.7269 18.0949 48.3097 16.8728Z" fill="white"/>
        <path d="M39.1284 16.3837C40.3819 16.3837 41.3976 14.7598 41.3976 12.756C41.3976 10.7522 40.3819 9.12823 39.1284 9.12823C37.8749 9.12823 36.8584 10.7529 36.8584 12.756C36.8584 14.759 37.8773 16.3837 39.1284 16.3837Z" fill="white"/>
        <path d="M39.0621 17.6301C31.8903 17.6301 27.5154 23.4797 27.5154 30.9058C27.5154 38.332 32.0428 43.3167 39.6213 43.3167C43.5382 43.3167 46.2339 42.5031 47.8112 41.7907L47.0482 38.5863C45.3698 39.2972 43.4363 39.8579 40.2319 39.8579C35.7558 39.8579 31.8903 37.366 31.7884 31.3126H49.086C49.1788 30.6202 49.2286 29.9228 49.2353 29.2243C49.2353 24.7 47.0988 17.6301 39.0621 17.6301ZM44.9117 28.1082H31.839C32.1952 25.0057 34.1793 20.8345 38.7059 20.8345C43.742 20.8345 44.9623 25.26 44.9117 28.1082Z" fill="white"/>
        <path d="M72.9274 15.7408H70.3667L68.0414 9.20011C68.0801 9.14562 68.1156 9.08875 68.1314 9.06426C68.2236 8.92166 68.2986 8.76869 68.355 8.60852C68.4856 8.283 68.5257 7.9282 68.4711 7.58172C68.408 7.24003 68.2775 6.91433 68.0872 6.62364C67.9577 6.4322 67.8043 6.25808 67.6307 6.1055C67.4577 5.94753 67.2192 5.8338 67.0106 5.73033C66.8041 5.63908 66.589 5.56844 66.3685 5.51944C66.2453 5.49046 66.1197 5.47248 65.9933 5.46573C65.8596 5.44835 65.7242 5.44835 65.5905 5.46573C65.2395 5.5326 64.9125 5.6912 64.6427 5.92542C64.4023 6.13292 64.2049 6.3854 64.0614 6.66866C63.992 6.7902 63.9389 6.92032 63.9034 7.05569C63.877 7.15007 63.8635 7.24757 63.8631 7.34556C63.5677 7.58725 63.2755 7.81947 62.9801 8.05642C62.9753 8.06353 62.9714 8.06827 62.9801 8.07932C63.1242 8.25514 63.308 8.39427 63.5164 8.48531C63.7304 8.56735 63.9558 8.61584 64.1846 8.62906C63.8571 8.91827 63.5935 9.27254 63.4105 9.66928C63.1594 10.204 62.9556 11.17 62.9556 11.7529C62.9556 13.0561 63.296 13.9921 63.7454 14.5174C63.9034 14.7053 64.3726 15.0995 65.0487 15.3664C65.3422 15.4711 65.6458 15.5452 65.9546 15.5876C66.315 15.6441 66.6785 15.6781 67.043 15.6895C67.7444 15.7124 68.5437 15.7021 68.6164 15.7021C68.6891 15.7021 68.791 15.6966 68.9063 15.6895L68.9173 15.7369H59.8049V9.22302L55.4299 10.7095V15.7408H51.615V19.4649H55.4299V35.1828C55.4299 38.0824 55.8881 40.2695 57.1597 41.5924C58.2276 42.8127 59.906 43.4738 61.992 43.4738C63.7209 43.4738 65.0945 43.2195 65.9594 42.8641L65.7587 39.1123C65.1995 39.2656 64.3275 39.5483 63.1649 39.418C60.6674 39.1368 60.0355 37.9915 59.808 35.0312V19.4649H69.7759L70.5507 22.821L72.3405 21.2942L71.6905 19.4649H72.6904L72.9274 15.7408ZM65.6008 7.92136C65.5345 7.92135 65.4697 7.90174 65.4146 7.865C65.3595 7.82825 65.3165 7.77601 65.291 7.71485C65.2655 7.6537 65.2586 7.58637 65.2713 7.52134C65.284 7.45631 65.3157 7.39649 65.3623 7.34942C65.4089 7.30235 65.4685 7.27013 65.5334 7.25683C65.5983 7.24352 65.6657 7.24972 65.7271 7.27464C65.7885 7.29957 65.8411 7.3421 65.8784 7.39689C65.9156 7.45167 65.9358 7.51626 65.9365 7.58251C65.9367 7.62673 65.9281 7.67055 65.9114 7.71146C65.8946 7.75237 65.8699 7.78956 65.8387 7.8209C65.8075 7.85224 65.7704 7.87711 65.7296 7.89407C65.6888 7.91104 65.645 7.91978 65.6008 7.91978V7.92136Z" fill="white"/>
    </g>
    <defs>
        <clipPath id="clip0_2503_18419">
            <rect width="74.6403" height="56" fill="white" transform="translate(0.359619)"/>
        </clipPath>
    </defs>
</svg>
