<svg xmlns="http://www.w3.org/2000/svg" width="16" height="16" viewBox="0 0 16 16" fill="none">
																<path fill-rule="evenodd" clip-rule="evenodd" d="M7.99941 1.60002C4.46479 1.60002 1.59941 4.4654 1.59941 8.00002C1.59941 11.5346 4.46479 14.4 7.99941 14.4C11.534 14.4 14.3994 11.5346 14.3994 8.00002C14.3994 4.4654 11.534 1.60002 7.99941 1.60002ZM0.399414 8.00002C0.399414 3.80266 3.80205 0.400024 7.99941 0.400024C12.1968 0.400024 15.5994 3.80266 15.5994 8.00002C15.5994 12.1974 12.1968 15.6 7.99941 15.6C3.80205 15.6 0.399414 12.1974 0.399414 8.00002ZM7.99941 3.20002C8.33078 3.20002 8.59941 3.46865 8.59941 3.80002V7.6292L11.0677 8.86337C11.3641 9.01156 11.4843 9.37196 11.3361 9.66835C11.1879 9.96474 10.8275 10.0848 10.5311 9.93668L7.73108 8.53668C7.52781 8.43505 7.39941 8.22729 7.39941 8.00002V3.80002C7.39941 3.46865 7.66804 3.20002 7.99941 3.20002Z" fill="#797979"/>
															</svg>