<svg width="16" height="16" viewBox="0 0 16 16" fill="none" xmlns="http://www.w3.org/2000/svg">
																		<path d="M6.4 2.73171H9.6C9.6 2.31771 9.43143 1.92067 9.13137 1.62793C8.83131 1.33519 8.42435 1.17073 8 1.17073C7.57565 1.17073 7.16869 1.33519 6.86863 1.62793C6.56857 1.92067 6.4 2.31771 6.4 2.73171ZM5.2 2.73171C5.2 2.37297 5.27242 2.01775 5.41314 1.68633C5.55385 1.3549 5.7601 1.05376 6.0201 0.800099C6.28011 0.546436 6.58878 0.34522 6.92849 0.207939C7.2682 0.0706577 7.6323 0 8 0C8.3677 0 8.7318 0.0706577 9.07151 0.207939C9.41123 0.34522 9.7199 0.546436 9.9799 0.800099C10.2399 1.05376 10.4461 1.3549 10.5869 1.68633C10.7276 2.01775 10.8 2.37297 10.8 2.73171H15.4C15.5591 2.73171 15.7117 2.79338 15.8243 2.90316C15.9368 3.01293 16 3.16182 16 3.31707C16 3.47232 15.9368 3.62121 15.8243 3.73099C15.7117 3.84077 15.5591 3.90244 15.4 3.90244H14.344L13.408 13.3549C13.3362 14.0792 12.9904 14.7514 12.4381 15.2404C11.8859 15.7295 11.1666 16.0003 10.4208 16H5.5792C4.83349 16.0001 4.11448 15.7292 3.56236 15.2402C3.01024 14.7512 2.66459 14.0791 2.5928 13.3549L1.656 3.90244H0.6C0.44087 3.90244 0.288258 3.84077 0.175736 3.73099C0.063214 3.62121 0 3.47232 0 3.31707C0 3.16182 0.063214 3.01293 0.175736 2.90316C0.288258 2.79338 0.44087 2.73171 0.6 2.73171H5.2ZM6.8 6.43902C6.8 6.28378 6.73679 6.13489 6.62426 6.02511C6.51174 5.91533 6.35913 5.85366 6.2 5.85366C6.04087 5.85366 5.88826 5.91533 5.77574 6.02511C5.66321 6.13489 5.6 6.28378 5.6 6.43902V12.2927C5.6 12.4479 5.66321 12.5968 5.77574 12.7066C5.88826 12.8164 6.04087 12.878 6.2 12.878C6.35913 12.878 6.51174 12.8164 6.62426 12.7066C6.73679 12.5968 6.8 12.4479 6.8 12.2927V6.43902ZM9.8 5.85366C9.95913 5.85366 10.1117 5.91533 10.2243 6.02511C10.3368 6.13489 10.4 6.28378 10.4 6.43902V12.2927C10.4 12.4479 10.3368 12.5968 10.2243 12.7066C10.1117 12.8164 9.95913 12.878 9.8 12.878C9.64087 12.878 9.48826 12.8164 9.37574 12.7066C9.26321 12.5968 9.2 12.4479 9.2 12.2927V6.43902C9.2 6.28378 9.26321 6.13489 9.37574 6.02511C9.48826 5.91533 9.64087 5.85366 9.8 5.85366ZM3.7872 13.2425C3.83035 13.677 4.0378 14.0802 4.36909 14.3735C4.70039 14.6669 5.1318 14.8294 5.5792 14.8293H10.4208C10.8682 14.8294 11.2996 14.6669 11.6309 14.3735C11.9622 14.0802 12.1697 13.677 12.2128 13.2425L13.1392 3.90244H2.8608L3.7872 13.2425Z" fill="#646464"></path>
																	</svg>