<svg width="16" height="16" viewBox="0 0 16 16" fill="none" 		
																		xmlns="http://www.w3.org/2000/svg">
																		<path d="M11.5 16H1.83337C0.822021 16 0 15.1779 0 14.1665V4.49906C0 3.48762 0.822021 2.66553 1.83337 2.66553H7.5C7.776 2.66553 8 2.88955 8 3.16557C8 3.4416 7.776 3.66561 7.5 3.66561H1.83337C1.37402 3.66561 1 4.03967 1 4.49906V14.1665C1 14.6259 1.37402 14.9999 1.83337 14.9999H11.5C11.9594 14.9999 12.3334 14.6259 12.3334 14.1665V8.49938C12.3334 8.22336 12.5574 7.99934 12.8334 7.99934C13.1094 7.99934 13.3334 8.22275 13.3334 8.49938V14.1665C13.3334 15.1779 12.5114 16 11.5 16Z" fill="#646464"></path>
																		<path d="M5.84802 10.6515C5.71667 10.6515 5.58862 10.5995 5.49463 10.5049C5.37598 10.3869 5.32532 10.2168 5.35803 10.0535L5.82935 7.69597C5.84863 7.59868 5.89661 7.50992 5.96594 7.44058L12.8707 0.536085C13.5853 -0.178695 14.748 -0.178695 15.4634 0.536085C15.8093 0.882061 16 1.34218 16 1.83221C16 2.32224 15.8093 2.78224 15.4626 3.12834L8.55872 10.0336C8.48938 10.1035 8.40002 10.1509 8.30334 10.1702L5.94666 10.6415C5.91394 10.6482 5.88062 10.6515 5.84802 10.6515ZM6.78003 8.04073L6.48596 9.51412L7.95862 9.21941L14.756 2.42162C14.9133 2.26352 15 2.05489 15 1.83221C15 1.60954 14.9133 1.40078 14.756 1.24281C14.432 0.918075 13.9033 0.918075 13.5774 1.24281L6.78003 8.04073Z" fill="#646464"></path>
																		<path d="M14.1666 4.21839C14.0387 4.21839 13.9106 4.16968 13.8134 4.07165L11.928 2.18551C11.7327 1.99018 11.7327 1.67351 11.928 1.47818C12.1233 1.28285 12.4399 1.28285 12.6354 1.47818L14.5206 3.36432C14.7159 3.55965 14.7159 3.87633 14.5206 4.07165C14.4226 4.16907 14.2947 4.21839 14.1666 4.21839Z" fill="#646464"></path>
																	</svg>