<svg xmlns="http://www.w3.org/2000/svg" width="16" height="12" viewBox="0 0 16 12" fill="none">
																<path fill-rule="evenodd" clip-rule="evenodd" d="M1.68652 6.00002C1.75679 6.11959 1.85087 6.27339 1.96807 6.45162C2.26198 6.89859 2.69741 7.49325 3.26297 8.08573C4.40426 9.28133 6.00763 10.4 7.99941 10.4C9.9912 10.4 11.5946 9.28133 12.7358 8.08573C13.3014 7.49325 13.7368 6.89859 14.0307 6.45162C14.1479 6.27339 14.242 6.11959 14.3123 6.00002C14.242 5.88045 14.1479 5.72666 14.0307 5.54843C13.7368 5.10146 13.3014 4.5068 12.7358 3.91431C11.5946 2.71868 9.9912 1.60002 7.99941 1.60002C6.00763 1.60002 4.40426 2.71868 3.26297 3.91431C2.69741 4.5068 2.26198 5.10146 1.96807 5.54843C1.85087 5.72666 1.75679 5.88045 1.68652 6.00002ZM14.9994 6.00002C15.5341 5.72781 15.534 5.72761 15.5339 5.72739L15.5329 5.72542L15.5307 5.7212L15.5235 5.70742C15.5175 5.6959 15.509 5.67975 15.4979 5.65928C15.4759 5.61834 15.4438 5.56009 15.402 5.48699C15.3183 5.34086 15.195 5.13494 15.0334 4.88912C14.7108 4.39859 14.2315 3.74325 13.6039 3.08574C12.3588 1.78137 10.4622 0.400024 7.99941 0.400024C5.53665 0.400024 3.64002 1.78137 2.39494 3.08574C1.76732 3.74325 1.28798 4.39859 0.96542 4.88912C0.803772 5.13494 0.680525 5.34086 0.596835 5.48699C0.554968 5.56009 0.522933 5.61834 0.500878 5.65928C0.489848 5.67975 0.481309 5.6959 0.475277 5.70742L0.468111 5.7212L0.465942 5.72542L0.465211 5.72684C0.465097 5.72706 0.464716 5.72781 0.999414 6.00002L0.464716 5.72781C0.377647 5.89884 0.377647 6.1012 0.464716 6.27223L0.999414 6.00002C0.464716 6.27223 0.464602 6.27201 0.464716 6.27223L0.465211 6.2732L0.465942 6.27463L0.468111 6.27885L0.475277 6.29263C0.481309 6.30415 0.489848 6.3203 0.500878 6.34077C0.522933 6.3817 0.554968 6.43996 0.596835 6.51306C0.680525 6.65919 0.803772 6.86511 0.96542 7.11093C1.28798 7.60146 1.76732 8.25683 2.39494 8.91433C3.64002 10.2186 5.53665 11.6 7.99941 11.6C10.4622 11.6 12.3588 10.2186 13.6039 8.91433C14.2315 8.25683 14.7108 7.60146 15.0334 7.11093C15.195 6.86511 15.3183 6.65919 15.402 6.51306C15.4438 6.43996 15.4759 6.3817 15.4979 6.34077C15.509 6.3203 15.5175 6.30415 15.5235 6.29263L15.5307 6.27885L15.5329 6.27463L15.5336 6.2732C15.5337 6.27298 15.5341 6.27223 14.9994 6.00002ZM14.9994 6.00002L15.5341 6.27223C15.6212 6.1012 15.621 5.89842 15.5339 5.72739L14.9994 6.00002ZM7.99941 4.72502C7.26618 4.72502 6.69032 5.30601 6.69032 6.00002C6.69032 6.69404 7.26618 7.27502 7.99941 7.27502C8.73264 7.27502 9.3085 6.69404 9.3085 6.00002C9.3085 5.30601 8.73264 4.72502 7.99941 4.72502ZM5.49032 6.00002C5.49032 4.62297 6.62392 3.52502 7.99941 3.52502C9.37491 3.52502 10.5085 4.62297 10.5085 6.00002C10.5085 7.37707 9.37491 8.47503 7.99941 8.47503C6.62392 8.47503 5.49032 7.37707 5.49032 6.00002Z" fill="#797979"/>
															</svg>