<svg width="17" height="24" viewBox="0 0 17 24" fill="none" xmlns="http://www.w3.org/2000/svg">
																<path d="M10.7895 6.89375C10.7581 6.9499 10.7057 6.99128 10.6438 7.00878C10.5819 7.02628 10.5156 7.01848 10.4595 6.98708C10.4033 6.95569 10.3619 6.90328 10.3444 6.84138C10.3269 6.77948 10.3347 6.71316 10.3661 6.65701C10.8051 5.87839 11.0255 4.99555 11.0038 4.10195C10.9822 3.20835 10.7194 2.33722 10.2432 1.58075C10.2262 1.55385 10.2146 1.52385 10.2091 1.49247C10.2037 1.4611 10.2045 1.42895 10.2115 1.39788C10.2184 1.36681 10.2315 1.33742 10.2498 1.31138C10.2681 1.28534 10.2914 1.26317 10.3183 1.24613C10.3452 1.22909 10.3752 1.21752 10.4066 1.21207C10.438 1.20662 10.4701 1.20741 10.5012 1.21439C10.5323 1.22136 10.5617 1.23439 10.5877 1.25272C10.6137 1.27106 10.6359 1.29434 10.6529 1.32125C11.1785 2.15055 11.4688 3.10707 11.4929 4.08859C11.5169 5.0701 11.2738 6.0397 10.7895 6.89375Z" fill="#797979"></path>
																<path d="M13.9311 21.5537C15.4198 18.9906 15.3561 18.1847 15.2013 16.1315C15.1218 15.1651 15.0747 14.1964 15.0601 13.2269L15.0237 10.7229C15.0213 10.5401 14.9467 10.3658 14.8162 10.2378C14.6857 10.1099 14.5099 10.0387 14.3271 10.04C14.2359 10.0394 14.1454 10.0568 14.0609 10.0913C13.9764 10.1258 13.8996 10.1767 13.8349 10.241C13.7701 10.3053 13.7188 10.3818 13.6837 10.4661C13.6486 10.5504 13.6306 10.6407 13.6306 10.732V11.2783C13.6306 11.4522 13.5615 11.6189 13.4386 11.7419C13.3156 11.8648 13.1489 11.9339 12.975 11.9339C12.8011 11.9339 12.6344 11.8648 12.5114 11.7419C12.3885 11.6189 12.3194 11.4522 12.3194 11.2783V9.57559C12.3207 9.43364 12.2794 9.29456 12.2009 9.17629C12.1224 9.05803 12.0102 8.96601 11.8789 8.91211C11.7476 8.85821 11.6031 8.8449 11.4641 8.8739C11.3252 8.90289 11.1981 8.97287 11.0993 9.07479C10.9659 9.20741 10.8906 9.38751 10.8899 9.57559V10.7957C10.8939 10.9216 10.8583 11.0456 10.788 11.1502C10.7178 11.2548 10.6164 11.3346 10.4983 11.3785C10.4217 11.4094 10.3397 11.4294 10.257 11.4285C10.176 11.4283 10.0957 11.4129 10.0203 11.383C9.90142 11.3389 9.79954 11.2584 9.72922 11.1529C9.65889 11.0474 9.62373 10.9224 9.62876 10.7957V8.86536C9.63144 8.7281 9.59269 8.59321 9.51756 8.4783C9.44243 8.36339 9.33441 8.2738 9.2076 8.2212C9.08078 8.16861 8.94105 8.15546 8.80665 8.18347C8.67225 8.21148 8.54941 8.27935 8.45416 8.37823C8.38936 8.44174 8.33787 8.51753 8.30269 8.60118C8.26752 8.68482 8.24936 8.77463 8.24929 8.86536V11.2874C8.24907 11.4678 8.18189 11.6418 8.06077 11.7755C7.93966 11.9092 7.77322 11.9932 7.5937 12.0113C7.40176 12.0304 7.2101 11.9725 7.06074 11.8505C6.91138 11.7284 6.81653 11.5521 6.79698 11.3602C6.79284 11.3361 6.7898 11.3118 6.78787 11.2874V4.24437C6.78873 4.11319 6.75047 3.98472 6.678 3.87537C6.60552 3.76602 6.5021 3.68074 6.38095 3.63042C6.25979 3.5801 6.12639 3.56703 5.99777 3.59286C5.86915 3.61869 5.75114 3.68225 5.6588 3.77545C5.59681 3.8368 5.54759 3.90983 5.51399 3.99032C5.48039 4.07081 5.46307 4.15715 5.46304 4.24437V15.1481C5.46304 15.6034 5.08516 15.6625 4.86663 15.6944H4.85297C4.73576 15.7166 4.61446 15.6951 4.51208 15.6338C4.4097 15.5726 4.33337 15.4759 4.29754 15.3621C4.11056 15.1084 3.93878 14.8439 3.78309 14.5699C3.28229 13.7368 2.58118 12.5667 2.39907 12.4165C2.26273 12.3002 2.08748 12.2397 1.90845 12.2472C1.72942 12.2548 1.55984 12.3297 1.43371 12.4569C1.30758 12.5842 1.23423 12.7545 1.22835 12.9336C1.22248 13.1127 1.28451 13.2873 1.40203 13.4226L1.96656 14.0737C2.01664 14.1328 2.04851 14.1966 2.07127 14.2603L2.57207 15.6625C3.58732 18.5125 3.64196 18.6764 6.55568 21.5128C6.69736 21.6504 6.80957 21.8154 6.88549 21.9978C6.9614 22.1801 6.99944 22.376 6.9973 22.5735V22.6236L6.98819 22.8194H13.7171L13.7307 22.2731V22.2275C13.7422 21.9901 13.811 21.7589 13.9311 21.5537ZM16.171 16.0586C16.3394 18.3259 16.4077 19.2182 14.7688 22.0363C14.7291 22.1044 14.7057 22.1808 14.7005 22.2594V22.2958L14.6777 23.088V23.1244C14.6749 23.3009 14.603 23.4693 14.4774 23.5934C14.3515 23.7184 14.1814 23.7888 14.0039 23.7891H6.68316C6.50803 23.7883 6.34 23.7198 6.21423 23.5979L6.20513 23.5888C6.08049 23.4626 6.01021 23.2927 6.00936 23.1153V23.0926L6.02757 22.5918C6.02723 22.5811 6.02723 22.5705 6.02757 22.5599V22.5508C6.0269 22.4193 5.97457 22.2934 5.88188 22.2002C2.80426 19.2091 2.74052 19.0315 1.65698 15.9812L1.17895 14.6382L0.669043 14.0554C0.461708 13.8188 0.325219 13.5285 0.275206 13.2178C0.225192 12.9071 0.263675 12.5887 0.386248 12.2989C0.508821 12.0091 0.71053 11.7596 0.968277 11.5791C1.22602 11.3986 1.52939 11.2944 1.84364 11.2783C2.27388 11.2517 2.69784 11.3919 3.02734 11.6698C3.3005 11.9066 3.96975 12.9947 4.49331 13.8642V4.24437C4.49083 3.91994 4.58524 3.60214 4.76444 3.33168C4.94364 3.06122 5.19949 2.85039 5.49922 2.72619C5.79896 2.602 6.12894 2.57008 6.44692 2.63454C6.7649 2.69899 7.0564 2.85688 7.28412 3.08799C7.43605 3.23974 7.55649 3.42003 7.63853 3.61848C7.72056 3.81693 7.76258 4.02964 7.76215 4.24437V7.69532C7.95887 7.49554 8.20318 7.3491 8.4721 7.26976C8.74102 7.19043 9.0257 7.18082 9.29936 7.24184C9.57301 7.30285 9.82665 7.43249 10.0364 7.61854C10.2461 7.8046 10.4051 8.04096 10.4983 8.30538C10.819 8.02238 11.2358 7.87274 11.6633 7.88713C12.0907 7.90152 12.4965 8.07885 12.7974 8.38278C13.0706 8.65594 13.2482 9.02016 13.2846 9.4299C13.5274 9.23285 13.8208 9.1083 14.1312 9.07056C14.4416 9.03283 14.7564 9.08344 15.0393 9.21658C15.3223 9.34973 15.5619 9.56 15.7307 9.82323C15.8994 10.0865 15.9905 10.392 15.9934 10.7047L16.0253 13.2132C16.0435 14.3832 16.1118 15.2983 16.171 16.0586Z" fill="#797979"></path>
																<path d="M4.70256 7.61327C4.76294 7.63621 4.82995 7.63423 4.88886 7.60776C4.94777 7.58129 4.99376 7.5325 5.0167 7.47213C5.03964 7.41176 5.03766 7.34475 5.01119 7.28583C4.98473 7.22692 4.93594 7.18094 4.87557 7.15799C4.18319 6.88581 3.60687 6.38157 3.24514 5.73148C2.88341 5.08139 2.75874 4.32583 2.89245 3.594C3.02616 2.86216 3.40994 2.1995 3.97818 1.71931C4.54641 1.23913 5.2638 0.971255 6.00769 0.961485C6.75158 0.951716 7.47576 1.20066 8.05641 1.66575C8.63705 2.13085 9.03811 2.7832 9.19099 3.51128C9.34387 4.23935 9.23909 4.99792 8.89456 5.65729C8.55003 6.31665 7.98714 6.83586 7.30216 7.12613C7.24299 7.15088 7.19608 7.19812 7.17175 7.25746C7.14742 7.3168 7.14765 7.38337 7.1724 7.44254C7.19716 7.5017 7.2444 7.54861 7.30374 7.57295C7.36308 7.59728 7.42965 7.59704 7.48882 7.57229C8.27802 7.23756 8.92637 6.63895 9.32289 5.87891C9.71942 5.11887 9.83947 4.24464 9.66251 3.40584C9.48555 2.56705 9.02257 1.81582 8.35281 1.28074C7.68305 0.745649 6.84815 0.459963 5.99098 0.472568C5.13381 0.485173 4.30767 0.795287 3.65393 1.34984C3.0002 1.90439 2.55951 2.6689 2.40729 3.51254C2.25507 4.35618 2.40078 5.22649 2.81949 5.97455C3.23819 6.7226 3.90385 7.30188 4.70256 7.61327ZM10.7804 6.91215C10.749 6.9683 10.6966 7.00967 10.6347 7.02717C10.5728 7.04468 10.5065 7.03687 10.4503 7.00548C10.3942 6.97409 10.3528 6.92167 10.3353 6.85977C10.3178 6.79787 10.3256 6.73155 10.357 6.67541L10.7804 6.91215ZM10.6529 1.32143C10.6359 1.29453 10.6137 1.27124 10.5877 1.25291C10.5617 1.23457 10.5323 1.22155 10.5012 1.21457C10.4701 1.20759 10.438 1.20681 10.4066 1.21225C10.3752 1.2177 10.3452 1.22927 10.3183 1.24631C10.2914 1.26335 10.2681 1.28552 10.2498 1.31156C10.2315 1.3376 10.2184 1.36699 10.2115 1.39807C10.2045 1.42914 10.2037 1.46128 10.2091 1.49266C10.2146 1.52404 10.2262 1.55403 10.2432 1.58094C10.2776 1.63527 10.3322 1.67371 10.395 1.6878C10.4577 1.70189 10.5235 1.69047 10.5778 1.65606C10.6322 1.62164 10.6706 1.56706 10.6847 1.5043C10.6988 1.44155 10.6874 1.37577 10.6529 1.32143ZM1.43828 1.32599C1.40447 1.38032 1.39363 1.44586 1.40814 1.50819C1.42266 1.57052 1.46134 1.62452 1.51567 1.65833C1.57001 1.69214 1.63555 1.70298 1.69788 1.68847C1.7602 1.67395 1.81421 1.63527 1.84802 1.58094L1.86168 1.56273C1.89549 1.50839 1.90633 1.44285 1.89181 1.38052C1.8773 1.3182 1.83862 1.26419 1.78428 1.23038C1.72995 1.19657 1.66441 1.18573 1.60208 1.20025C1.53975 1.21476 1.48574 1.25344 1.45194 1.30777L1.43828 1.32599Z" fill="#797979"></path>
																<path d="M1.30167 6.89375C1.33306 6.9499 1.38547 6.99128 1.44737 7.00878C1.50927 7.02628 1.57559 7.01848 1.63174 6.98708C1.68788 6.95569 1.72926 6.90328 1.74676 6.84138C1.76426 6.77948 1.75646 6.71316 1.72507 6.65701C1.28605 5.87839 1.0657 4.99556 1.08734 4.10195C1.10898 3.20835 1.3718 2.33722 1.84799 1.58075C1.8824 1.52642 1.89382 1.46064 1.87973 1.39788C1.86565 1.33513 1.82721 1.28054 1.77287 1.24613C1.71854 1.21172 1.65276 1.2003 1.59 1.21439C1.52725 1.22847 1.47266 1.26691 1.43825 1.32125C0.912688 2.15055 0.622363 3.10707 0.598307 4.08859C0.57425 5.0701 0.817365 6.0397 1.30167 6.89375Z" fill="#797979"></path>
																<path d="M1.31095 6.91233L1.30184 6.89412C1.27045 6.83797 1.26264 6.77165 1.28015 6.70975C1.29765 6.64785 1.33903 6.59544 1.39517 6.56405C1.45132 6.53266 1.51764 6.52485 1.57954 6.54235C1.64144 6.55986 1.69385 6.60123 1.72524 6.65738L1.73435 6.67559L1.31095 6.91233Z" fill="#797979"></path>
															</svg>