<svg width="16" height="16" viewBox="0 0 16 16" fill="none" xmlns="http://www.w3.org/2000/svg">
																		<path d="M8.39414 0.505005C8.06856 0.179322 7.63555 5.70138e-07 7.17507 5.70138e-07C6.7146 5.70138e-07 6.28159 0.179322 5.95601 0.504883C5.63031 0.830567 5.45098 1.26343 5.45098 1.72388C5.45098 2.07434 5.55511 2.40857 5.74824 2.6919L2.39148 10.911C2.18273 10.8232 1.95652 10.7771 1.72323 10.7771C1.26287 10.7771 0.829866 10.9563 0.504164 11.2819C-0.167994 11.9541 -0.168116 13.0477 0.504164 13.72L2.27941 15.4951C2.60499 15.8207 3.038 16 3.49847 16C3.95907 16 4.39196 15.8207 4.71754 15.4951C5.04312 15.1696 5.22245 14.7366 5.22257 14.2761C5.22257 14.0428 5.1763 13.8167 5.08853 13.6079L6.79578 12.9108L7.46305 13.578C7.89081 14.0057 8.55662 14.2462 9.19545 14.2462C9.48453 14.2462 9.76812 14.197 10.0215 14.0935L11.6579 13.4252C12.1103 13.2404 12.4173 12.8988 12.5001 12.4879C12.5829 12.0771 12.4322 11.6432 12.0865 11.2976L11.6977 10.9088L13.3079 10.2512C13.5913 10.4443 13.9256 10.5485 14.2761 10.5485C14.7364 10.5485 15.1695 10.3691 15.4951 10.0436C16.1673 9.37134 16.1673 8.27759 15.4951 7.60547L8.39414 0.505005ZM10.6933 10.3063C10.6918 10.3069 10.6902 10.3076 10.6886 10.3082L6.73279 11.9238C6.7312 11.9244 6.72961 11.925 6.72815 11.9257L4.49719 12.8368L3.16264 11.5023L6.4547 3.44165L12.5581 9.5448L10.6933 10.3063ZM4.05454 14.8323C3.90609 14.9807 3.70857 15.0625 3.49847 15.0625C3.28838 15.0625 3.09086 14.9807 2.94229 14.8322L1.16704 13.0571C0.860385 12.7505 0.860385 12.2515 1.16704 11.9448C1.31561 11.7963 1.51313 11.7145 1.72323 11.7145C1.93332 11.7145 2.13084 11.7964 2.27941 11.9449L4.05454 13.72C4.2031 13.8685 4.28502 14.066 4.28502 14.276C4.2849 14.4862 4.2031 14.6836 4.05454 14.8323ZM11.4236 11.9606C11.5434 12.0803 11.6007 12.2051 11.581 12.3027C11.5613 12.4005 11.4601 12.4933 11.3034 12.5573L9.66704 13.2256C9.20156 13.4156 8.48154 13.2705 8.12605 12.9152L7.73712 12.5264L10.7562 11.2933L11.4236 11.9606ZM14.8321 9.38062C14.6836 9.52917 14.4862 9.61096 14.2762 9.61096C14.0661 9.61096 13.8683 9.52905 13.7198 9.38062L6.61889 2.28003C6.47032 2.13159 6.38853 1.93408 6.38853 1.724C6.38853 1.51392 6.47032 1.31641 6.61889 1.16785C6.76746 1.01929 6.96498 0.9375 7.17507 0.9375C7.38517 0.9375 7.58269 1.01929 7.73126 1.16785L14.8321 8.26831C15.1388 8.57507 15.1388 9.07397 14.8321 9.38062Z" fill="#646464"></path>
																		<path d="M13.3884 3.08032C13.5082 3.08032 13.6282 3.03455 13.7198 2.94299L15.8626 0.800293C16.0457 0.617188 16.0457 0.320435 15.8626 0.13733C15.6795 -0.0457759 15.3827 -0.0457759 15.1997 0.13733L13.0568 2.28003C12.8738 2.46313 12.8738 2.75989 13.0568 2.94299C13.1484 3.03455 13.2684 3.08032 13.3884 3.08032Z" fill="#646464"></path>
																		<path d="M11.258 1.66016C11.378 1.66016 11.498 1.61438 11.5896 1.52283L12.3123 0.800171C12.4954 0.617187 12.4954 0.320435 12.3123 0.137329C12.1293 -0.0457764 11.8324 -0.0457764 11.6493 0.137329L10.9266 0.859985C10.7436 1.04297 10.7436 1.33972 10.9266 1.52283C11.0182 1.61438 11.1382 1.66016 11.258 1.66016Z" fill="#646464"></path>
																		<path d="M15.1998 3.6875L14.4771 4.41028C14.294 4.59338 14.294 4.89014 14.4771 5.07324C14.5686 5.16479 14.6885 5.21045 14.8085 5.21045C14.9285 5.21045 15.0485 5.16467 15.14 5.07324L15.8627 4.35046C16.0458 4.16736 16.0458 3.87061 15.8627 3.6875C15.6795 3.50452 15.3828 3.50452 15.1998 3.6875Z" fill="#646464"></path>
																	</svg>