<svg width="16" height="16" viewBox="0 0 16 16" fill="none" xmlns="http://www.w3.org/2000/svg">
																<g clip-path="url(#clip0_3475_1884)">
																	<path d="M8 0C3.58862 0 0 3.58862 0 8C0 9.50492 0.418154 10.9658 1.21138 12.2345C0.895385 13.3415 0.324615 15.4357 0.318462 15.4575C0.303898 15.5107 0.303928 15.5668 0.318548 15.6199C0.333168 15.673 0.361837 15.7212 0.401538 15.7594C0.482462 15.8372 0.599385 15.8649 0.705846 15.8323L3.87692 14.8569C5.12162 15.6061 6.54722 16.0014 8 16C12.4114 16 16 12.4114 16 8C16 3.58862 12.4114 0 8 0ZM8 15.3846C6.6146 15.386 5.25689 14.9966 4.08277 14.2612C4.04532 14.2378 4.00327 14.2227 3.95947 14.217C3.91566 14.2112 3.87114 14.215 3.82892 14.228L1.06 15.0803C1.31583 14.1427 1.57614 13.2062 1.84092 12.2711C1.86554 12.1855 1.85169 12.0932 1.80338 12.0185C1.02617 10.8225 0.613417 9.42634 0.615385 8C0.615385 3.92831 3.92831 0.615385 8 0.615385C12.0717 0.615385 15.3846 3.92831 15.3846 8C15.3846 12.0717 12.0717 15.3846 8 15.3846Z" fill="#797979"></path>
																	<path d="M11.8646 9.88864C11.3782 9.61858 10.964 9.34774 10.6618 9.15013C10.431 8.99943 10.2643 8.89062 10.142 8.82923C9.8003 8.65876 9.54131 8.77917 9.44277 8.87876C9.4305 8.891 9.41947 8.90441 9.40984 8.91881C9.05494 9.45128 8.5915 9.96056 8.45581 9.98797C8.29905 9.96346 7.56529 9.54639 6.83601 8.9391C6.09144 8.31863 5.623 7.7245 5.55423 7.31981C6.0319 6.82818 6.20394 6.51887 6.20394 6.16687C6.20394 5.80408 5.35768 4.28939 5.20461 4.13632C5.051 3.98298 4.70507 3.959 4.17629 4.06439C4.12535 4.07471 4.07854 4.09971 4.04165 4.13632C3.97763 4.20034 2.47955 5.72767 3.19144 7.5788C3.97289 9.61041 5.97868 11.9719 8.53591 12.3555C8.82652 12.399 9.09894 12.4206 9.35398 12.4206C10.8584 12.4206 11.7463 11.6636 11.9963 10.1621C12.0054 10.1085 11.9976 10.0534 11.974 10.0044C11.9504 9.95541 11.9122 9.91495 11.8646 9.88864ZM8.61416 11.8344C5.90991 11.4289 4.20659 8.74966 3.68334 7.38963C3.1643 6.04067 4.12149 4.83794 4.36177 4.56604C4.55726 4.53284 4.76303 4.51888 4.84892 4.53231C5.02835 4.78182 5.64961 5.95557 5.67701 6.16687C5.67701 6.3052 5.63195 6.49779 5.09553 7.03448C5.07102 7.0589 5.05158 7.08794 5.03833 7.1199C5.02508 7.15187 5.01828 7.18615 5.01833 7.22075C5.01833 8.60027 7.92809 10.5141 8.44343 10.5141C8.89159 10.5141 9.47597 9.76086 9.80873 9.27001C9.84307 9.27335 9.87635 9.28375 9.90648 9.30058C10.0013 9.34826 10.1657 9.4555 10.3736 9.59145C10.6481 9.77087 11.0128 10.009 11.4433 10.2559C11.2478 11.1965 10.7014 12.1479 8.61416 11.8344Z" fill="#797979"></path>
																</g>
																<defs>
																	<clipPath id="clip0_3475_1884">
																		<rect width="16" height="16" fill="white"></rect>
																	</clipPath>
																</defs>
															</svg> 