<?xml version="1.0" standalone="no"?>
<!DOCTYPE svg PUBLIC "-//W3C//DTD SVG 1.1//EN" "http://www.w3.org/Graphics/SVG/1.1/DTD/svg11.dtd" >
<svg xmlns="http://www.w3.org/2000/svg" xmlns:xlink="http://www.w3.org/1999/xlink" version="1.1">
<metadata>
Created by FontForge 20201107 at Tue Oct 22 05:13:09 2024
 By 
Copyright (C) 2024 by original authors @ fontello.com
</metadata>
<defs>
<font id="jws_icon" horiz-adv-x="1000" >
  <font-face 
    font-family="jws_icon"
    font-weight="400"
    font-stretch="normal"
    units-per-em="1000"
    panose-1="2 0 5 3 0 0 0 0 0 0"
    ascent="800"
    descent="-200"
    bbox="-0.214286 -150.209 1319 850.026"
    underline-thickness="0"
    underline-position="10"
    unicode-range="U+E800-F4BF"
  />
<missing-glyph 
 />
    <glyph glyph-name=".notdef" 
 />
    <glyph glyph-name=".null" horiz-adv-x="0" 
 />
    <glyph glyph-name="nonmarkingreturn" horiz-adv-x="333" 
 />
    <glyph glyph-name="x-twitter" unicode="&#xe800;" horiz-adv-x="1143" 
d="M868 814h157l-344 -395l406 -533h-317l-250 323l-283 -323h-159l368 419l-388 509h326l223 -297zM813 -21h87l-563 746h-94z" />
    <glyph glyph-name="calendarblank" unicode="&#xe801;" horiz-adv-x="941" 
d="M765 -21h-588q-30 0 -50.5 22t-20.5 49v588q0 30 21.5 50.5t49.5 20.5h588q30 0 50 -21.5t20 -49.5v-588q0 -27 -20 -49t-50 -22zM188 74h559v553h-559v-553zM765 627v0v0zM647 568q-19 0 -33 13t-14 34v117q0 19 13 33t34.5 14t34 -12.5t12.5 -34.5v-117
q0 -18 -14.5 -32.5t-32.5 -14.5zM294 568q-17 0 -32 14.5t-15 32.5v117q0 19 13 33t34 14t34 -14t13 -33v-117q0 -18 -14.5 -32.5t-32.5 -14.5zM794 450h-647q-17 0 -29 14.5t-12 32.5t13 32.5t34 14.5h647q19 0 33 -13t14 -34t-17 -35q-16 -12 -36 -12z" />
    <glyph glyph-name="alarm" unicode="&#xe802;" 
d="M720 310h-220q-16 0 -28 11t-12 29v220q0 16 11 28t29.5 12t29 -10.5t10.5 -29.5v-180h180q16 0 28 -11t12 -29t-12 -29t-28 -11zM500 -30q-103 0 -192 52q-86 50 -136 136q-52 89 -52 192t52 192q50 86 136 136q89 52 192 52t192 -52q86 -50 136 -136q52 -89 52 -192
t-52 -192q-50 -86 -136 -136q-89 -52 -192 -52zM500 655q-84 0 -155 -41q-69 -40 -109 -109q-41 -71 -41 -155t41 -155q40 -69 109 -109q71 -41 155 -41t155 41q69 40 109 109q41 71 41 155t-41 155q-40 69 -109 109q-71 41 -155 41zM900 580q-7 0 -14 3t-11 7l-135 135
q-11 11 -11 27.5t11 27.5t27.5 11t27.5 -11l135 -135q11 -11 11 -27.5t-11 -27.5q-15 -10 -30 -10zM100 580q-7 0 -14 3t-11 7q-11 11 -11 27.5t11 27.5l135 135q11 11 27.5 11t27.5 -11t11 -27.5t-11 -27.5l-135 -135q-7 -7 -15 -9q-5 -1 -15 -1z" />
    <glyph glyph-name="houseline" unicode="&#xe803;" 
d="M154 -38q-19 0 -30 11.5t-11 30.5v392q0 25 12 37l3 5q4 7 10 12l308 288q19 19 50 19t50 -19l312 -284q12 -10 17 -25q8 -12 8 -33v-392q0 -19 -11 -30.5t-30 -11.5t-30.5 11.5t-11.5 30.5v388v0l-304 275l-296 -275v-2q-1 -2 -4 -2v-384q0 -19 -11.5 -30.5t-30.5 -11.5
zM808 383v0v0zM796 413v0v0zM129 438v0v0zM488 679v-1v1zM504 679v0v0zM938 -33h-875q-19 0 -30.5 11t-11.5 30t11.5 30.5t30.5 11.5h875q19 0 30 -11.5t11 -30.5t-11 -30t-30 -11zM408 -38q-19 0 -30 11.5t-11 30.5v221q0 13 5.5 27t15 23.5t23.5 15t27 5.5h125
q12 0 26 -5.5t23.5 -15t15 -23.5t5.5 -27v-217q0 -19 -11 -30t-30 -11t-30.5 11t-11.5 30v205h-100v-209q0 -19 -11.5 -30.5t-30.5 -11.5z" />
    <glyph glyph-name="list" unicode="&#xe804;" 
d="M844 319h-688q-14 0 -22.5 8.5t-8.5 22.5t8.5 22.5t22.5 8.5h688q14 0 22.5 -8.5t8.5 -22.5t-8.5 -22.5t-22.5 -8.5zM875 600q0 14 -8.5 22.5t-22.5 8.5h-688q-14 0 -22.5 -8.5t-8.5 -22.5t8.5 -22.5t22.5 -8.5h688q14 0 22.5 8.5t8.5 22.5zM875 100q0 14 -8.5 22.5
t-22.5 8.5h-688q-14 0 -22.5 -8.5t-8.5 -22.5t8.5 -22.5t22.5 -8.5h688q14 0 22.5 8.5t8.5 22.5z" />
    <glyph glyph-name="bag-mini" unicode="&#xe805;" 
d="M872 538q-5 9 -19 24l-6 7q-29 28 -77 40q-42 11 -120 13v19q0 40 -20 74.5t-54.5 55t-75.5 20.5t-75.5 -20t-54.5 -54.5t-20 -75.5v-19q-78 -2 -119 -13q-49 -12 -78 -40q-17 -19 -25 -31q-20 -30 -24 -70q-4 -36 3 -92q5 -36 22 -128l5 -26l5 -23q13 -62 20 -87
q10 -38 21 -61q13 -27 33 -45q15 -15 25 -22q24 -16 55 -24q28 -7 72 -9q28 -1 101 -1h72q72 0 100 1q45 2 73 9q31 8 55 24l5 4q14 11 20 18q28 28 45 80q11 35 33 136l6 37q15 87 19 122q7 54 2 89q-5 39 -24 68zM400 641q0 27 14 50t37 36.5t49 13.5t49 -14t37 -37
t14 -49v-19h-203v19h3zM819 231q-2 -7 -4 -21q-17 -81 -26 -108q-13 -41 -33 -61q-3 -4 -10 -9l-8 -7q-26 -17 -73 -22q-32 -3 -127 -3h-72q-96 0 -127 3q-48 5 -73 22q-7 2 -17 10l-5 3q-23 22 -38 68q-5 17 -13 57q-9 42 -15 68q-19 94 -25 130q-9 57 -7 91q2 37 17 61
l25 25q19 19 55 28q32 8 90 11q37 1 133 1h72q95 0 132 -1q57 -3 89 -11q36 -9 57 -28l3 -4q13 -14 15 -21q15 -24 17 -61q2 -34 -7 -91q-6 -36 -25 -130zM666 434q0 -16 -12.5 -28t-28.5 -12t-28.5 12t-12.5 28.5t12.5 28.5t29 12t28.5 -12t12 -29zM416 434
q0 -16 -12.5 -28t-28.5 -12t-28.5 12t-12.5 28.5t12.5 28.5t29 12t28.5 -12t12 -29z" />
    <glyph glyph-name="warning" unicode="&#xe806;" 
d="M542 100q0 -17 -12.5 -29.5t-29.5 -12.5t-29.5 12.5t-12.5 29.5t12.5 29.5t29.5 12.5t29.5 -12.5t12.5 -29.5zM500 767q11 0 21 -6t15 -16l417 -750q11 -20 0 -41q-6 -10 -15.5 -15.5t-20.5 -5.5h-834q-11 0 -20.5 5.5t-15.5 15.5q-11 21 0 41l417 750q5 10 15 16t21 6z
M154 17h692l-346 622zM500 475q17 0 29.5 -12.5t12.5 -29.5v-166q0 -17 -12.5 -29.5t-29.5 -12.5t-29.5 12.5t-12.5 29.5v166q0 17 12.5 29.5t29.5 12.5z" />
    <glyph glyph-name="arrowsmooth" unicode="&#xe807;" horiz-adv-x="1375" 
d="M906 -119l-62 6q3 66 31 142q32 87 88 159q65 85 156 137h-1119v63h1119q-93 49 -159 134q-55 71 -86 160q-27 75 -30 143l62 6q6 -57 27 -117q26 -74 70 -134q52 -72 124 -118q84 -52 192 -68l-6 -44l6 -31q-108 -16 -192 -68q-72 -46 -124 -118q-44 -60 -70 -134
q-21 -61 -27 -118z" />
    <glyph glyph-name="lock" unicode="&#xe808;" horiz-adv-x="941" 
d="M765 -21h-588q-30 0 -50.5 22t-20.5 49v412q0 30 21.5 50t49.5 20h588q30 0 50 -21.5t20 -48.5v-412q0 -27 -20 -49t-50 -22zM188 74h559v376h-559v-376zM765 450v0v0zM600 450q-17 0 -29 14.5t-12 32.5v130q0 30 -24 64q-17 18 -40.5 24t-46 0t-36.5 -24
q-15 -14 -22 -27q-8 -17 -8 -37v-130q0 -19 -13 -33t-34 -14t-32 15q-9 13 -9 32v130q0 36 13.5 69t39.5 54q32 35 77.5 47.5t91.5 1.5t78 -43q53 -53 53 -129v-130q0 -18 -13 -32.5t-34 -14.5zM471 227q13 0 24 11t11 24t-11 24t-24 11t-24.5 -11t-11.5 -24t11 -24t25 -11z
" />
    <glyph glyph-name="users" unicode="&#xe809;" 
d="M508 325q-47 0 -87 23.5t-64 64t-24 87.5t24 87.5t64 64t87 23.5t87.5 -23.5t64 -64t23.5 -87.5t-23.5 -87.5t-64 -64t-87.5 -23.5zM508 608q-31 0 -56.5 -15t-40.5 -40.5t-15 -56.5t15 -56.5t41 -41t56.5 -15.5t56.5 15t41 41t15 57t-15 56.5t-41 40.5t-57 15zM688 0
h-13h-12q-150 20 -300 0h-13q-22 -3 -43 3.5t-36 21.5q-33 33 -33 75v46q0 31 19 58.5t47 37.5q104 38 212.5 38t208.5 -38q31 -13 49 -38.5t18 -57.5v-46q0 -22 -9 -42t-25 -33q-19 -13 -35.5 -19t-34.5 -6zM508 75q84 0 159 -12h12q12 0 16 1q8 2 13 7q13 12 13 29v46
q0 13 -8.5 23.5t-20.5 13.5q-91 32 -190 32t-189 -32q-8 -4 -14 -12q-7 -11 -7 -25v-46q0 -17 12 -29q9 -8 29 -8h13q87 12 162 12zM721 321q-13 0 -23 9t-10 24.5t8.5 24.5t24.5 9q34 0 56.5 23.5t22.5 55.5t-23.5 55.5t-55.5 23.5q-13 0 -23 9t-10 24.5t8.5 24.5t24.5 9
q39 0 71.5 -19t51.5 -51.5t19 -71.5t-19 -73.5t-51.5 -55.5t-71.5 -21zM863 67h-13h-12q-14 3 -21.5 12.5t-4 24t13 21.5t24.5 4h13q5 0 11 2l5 2l2 3q7 7 7 14v38q0 14 -17 25q-21 8 -63 16q-12 3 -20 14.5t-4.5 24t14.5 20t23 4.5q21 -3 63 -17l12 -4q25 -10 41.5 -33
t16.5 -50v-38q0 -18 -8 -36t-21 -31q-21 -8 -31 -11q-18 -5 -31 -5zM279 321q-39 0 -71.5 19t-51 51.5t-18.5 71.5t18.5 71.5t51 51t71.5 18.5q14 0 24 -9t10 -23.5t-11 -20.5q-8 -5 -23 -5q-34 0 -56.5 -23.5t-22.5 -55.5q0 -20 11 -38.5t29.5 -29.5t38.5 -11
q13 0 23.5 -9.5t10.5 -24.5t-10 -24t-24 -9zM138 67q-16 0 -30.5 5.5t-24.5 15.5q-14 12 -21.5 29t-7.5 37v38q0 28 16.5 51t42.5 32l13 4q41 14 62 17q12 3 23 -4.5t14 -20t-4.5 -23.5t-20.5 -15q-42 -8 -62 -16q-7 -3 -12 -9.5t-5 -15.5v-38q0 -6 2.5 -11t5.5 -5
q8 -10 17 -5h12q12 4 23.5 -4t14.5 -20.5t-4.5 -23t-20.5 -10.5h-13q-12 -8 -20 -8z" />
    <glyph glyph-name="minuscircle" unicode="&#xe80a;" 
d="M500 756q-60 0 -118 -17.5t-108 -51t-88.5 -80t-61 -102t-28.5 -115.5t5.5 -119t40 -112t71.5 -96t96 -71.5t112 -40t119 -5.5t115.5 28.5t102 61t80 88.5t51 108t17.5 118q0 81 -31 155.5t-88 131.5t-131.5 88t-155.5 31zM656 319h-312q-13 0 -22 9t-9 22t9 22t22 9h312
q15 0 22 -9q10 -10 10 -22t-10 -22q-7 -9 -22 -9z" />
    <glyph glyph-name="suitcase" unicode="&#xe80b;" 
d="M842 -25h-684q-25 0 -43.5 19t-18.5 44v500q-3 25 15.5 43.5t46.5 18.5h688q25 0 43.5 -18.5t18.5 -43.5v-500q0 -26 -19 -44.5t-47 -18.5zM158 538v-500h688v500h-688zM658 -25q-13 0 -23 9t-10 24v625q0 13 -8 21q-3 3 -9 6t-12 3h-188q-11 0 -20 -9l-1 -1
q-12 -12 -12 -20v-625q0 -16 -8.5 -24.5t-24.5 -8.5t-25 8.5t-9 24.5v625q0 20 7.5 37.5t22.5 30t32 18.5t38 6h188q44 0 67 -29q13 -14 21 -31.5t8 -35.5v-625q-3 -13 -12 -21t-22 -8z" />
    <glyph glyph-name="calendarplus" unicode="&#xe80c;" 
d="M813 -38h-625q-32 0 -53.5 23t-21.5 53v625q0 31 23 53t52 22h625q31 0 53 -23t22 -52v-625q0 -33 -21.5 -54.5t-53.5 -21.5zM200 50h594v600h-594v-600zM813 650v0v0zM688 588q-20 0 -35 13.5t-15 36.5v125q0 20 13.5 35t37 15t36.5 -13.5t13 -36.5v-125
q0 -23 -15 -36.5t-35 -13.5zM313 588q-20 0 -35 13.5t-15 36.5v125q0 20 13.5 35t37 15t36.5 -13.5t13 -36.5v-125q0 -23 -15 -36.5t-35 -13.5zM844 463h-688q-20 0 -35 13.5t-15 37t13.5 36.5t36.5 13h688q20 0 35 -14t15 -36t-15 -36t-35 -14zM613 213h-225
q-20 0 -35 13.5t-15 37t13 36.5t37 13h218q20 0 35 -14t15 -36.5t-12 -36t-31 -13.5zM500 100q-20 0 -35 14t-15 36v213q0 22 15 36t35 14t35 -14t15 -36v-219q0 -18 -15.5 -31t-34.5 -13z" />
    <glyph glyph-name="info-1" unicode="&#xe80d;" 
d="M500 -58q-111 0 -206 56q-92 54 -146 146q-56 95 -56 206t56 206q54 92 146 146q95 56 206 56t206 -56q92 -54 146 -146q56 -95 56 -206t-56 -206q-54 -92 -146 -146q-95 -56 -206 -56zM500 692q-92 0 -172 -47q-77 -45 -123 -123q-47 -80 -47 -172t47 -172
q46 -78 123 -123q80 -47 172 -47t172 47q77 46 123 123q47 80 47 172t-47 172q-45 77 -123 123q-80 47 -172 47zM533 133h-33q-13 0 -23 9.5t-10 24.5v183q-13 0 -23.5 9.5t-10.5 24t9 24t25 9.5h33q13 0 23 -9.5t10 -24.5v-187q13 0 23.5 -9.5t10.5 -23.5t-10 -22t-24 -8z
M492 483q16 0 26.5 11t10.5 27t-10.5 26.5t-26.5 10.5t-27 -10.5t-11 -26.5t11 -27t27 -11z" />
    <glyph glyph-name="pushpinsimple" unicode="&#xe80e;" 
d="M500 -119q-14 0 -22.5 8.5t-8.5 22.5v251q0 14 8.5 22.5t22.5 8.5t22.5 -8.5t8.5 -22.5v-251q0 -14 -8.5 -22.5t-22.5 -8.5zM750 663h-500q-14 0 -22.5 8.5t-8.5 22.5t8.5 22.5t22.5 8.5h500q14 0 22.5 -8.5t8.5 -22.5t-8.5 -22.5t-22.5 -8.5zM844 131h-688
q-14 0 -22.5 9t-8.5 23t8.5 22.5t22.5 8.5h688q14 0 22.5 -8.5t8.5 -22.5t-8.5 -23t-22.5 -9zM219 131h-6q-13 2 -20.5 13t-4.5 25l93 531q2 12 13 19.5t25 5.5q12 -2 19.5 -13t5.5 -24l-94 -532q-2 -11 -11 -18t-20 -7zM781 131q-11 0 -20 7t-11 18l-94 532q-2 11 6 23
t19.5 14t23.5 -5.5t14 -19.5l94 -531q2 -12 -6 -24t-19 -14h-7z" />
    <glyph glyph-name="thumbs-up" unicode="&#xe80f;" horiz-adv-x="1167" 
d="M683 820v0h-1q-33 6 -63.5 -4.5t-52.5 -35t-29 -56.5l-1 -1l-4 -23q-7 -44 -32 -83q-23 -38 -59 -69h-1l-13 -12q-39 -31 -60.5 -75t-21.5 -95v-220q0 -54 25.5 -102.5t70.5 -79.5l1 -1l77 -49q52 -36 120 -36h195q33 0 61 16t45 44.5t17 62.5v3q29 16 46 44.5t17 63.5
q0 15 -5 32q31 15 50 44.5t19 66.5t-22 69q18 18 27 40q11 24 11 50q0 33 -17 61t-45.5 45t-60.5 17h-241q27 58 37 115l6 21l1 1q6 33 -5 64t-35 53t-57 29zM246 505h-127q-38 0 -64.5 -27t-26.5 -64v-445q0 -38 26.5 -64.5t64.5 -26.5h127q37 0 64 26.5t27 64.5v445
q0 24 -12.5 45t-33.5 33.5t-45 12.5z" />
    <glyph glyph-name="thumbsup" unicode="&#xe810;" horiz-adv-x="1167" 
d="M833 -150h-194q-78 0 -139 39l-78 50q-34 27 -61 61v-33q0 -33 -16 -59.5t-43 -42t-58 -15.5h-127q-33 0 -60 15t-42 42t-15 60v444q0 33 16.5 59.5t43.5 42t57 15.5h127q29 0 56 -15t44 -41q29 48 67 78l11 11q34 29 54.5 63t29.5 76l5 22q8 41 36 72q27 29 65 42.5
t77 7.5v0q41 -8 70.5 -34t42 -64t4.5 -79l-6 -23l-3 -12q-10 -46 -19 -65h200q41 0 75.5 -20t54.5 -54.5t20 -75.5q0 -54 -34 -95q17 -31 17 -66q0 -38 -17 -70t-50 -53v-16q0 -38 -17 -70t-49 -53q0 -40 -20 -73t-53 -52t-72 -19zM661 794q-33 0 -59.5 -22t-34.5 -55
l-6 -23q-8 -45 -35 -88.5t-65 -77.5l-17 -11q-33 -30 -52.5 -69.5t-19.5 -80.5v-223q0 -45 23 -88t61 -73l77 -50q51 -33 106 -33h194q25 0 46.5 13t35 35t13.5 46v23l16 11q24 11 38 35q12 22 12 48q0 17 -5 22l-6 23l23 11q25 12 40 36t15 53q0 13 -4.5 28t-12.5 27
l-11 17l17 16q13 13 20.5 31.5t7.5 35.5q0 25 -13.5 46.5t-35 35t-46.5 13.5h-283l17 38q22 48 33 106l6 22q5 25 -3 48.5t-28 40.5t-47 22v0q-4 7 -7.5 9t-9.5 2zM117 478q-26 0 -43.5 -19t-17.5 -48v-444q0 -25 18 -43t43 -18h127q26 0 44 18t18 43v444q0 25 -18.5 43
t-43.5 18h-127v6z" />
    <glyph glyph-name="dotsthreeoutline" unicode="&#xe811;" 
d="M500 231q-32 0 -59.5 16t-43.5 43.5t-16 59.5t16 59.5t43.5 43.5t59.5 16t59.5 -16t43.5 -43.5t16 -59.5t-16 -59.5t-43.5 -43.5t-59.5 -16zM500 419q-28 0 -48.5 -20.5t-20.5 -48.5t20.5 -48.5t48.5 -20.5t48.5 20.5t20.5 49t-20 48.5t-49 20zM188 231q-32 0 -59.5 16
t-43.5 43.5t-16 59.5t16 59.5t43.5 43.5t59.5 16t59.5 -16t43 -43t15.5 -59.5t-16 -60t-43 -43.5t-59 -16zM188 419q-28 0 -48.5 -20t-20.5 -48.5t20.5 -49t48.5 -20.5t48 20.5t20 48.5t-20 48.5t-48 20.5zM813 231q-32 0 -59.5 16t-43.5 43.5t-16 59.5t16 59.5t43.5 43.5
t59.5 16t59.5 -16t43 -43t15.5 -59.5t-16 -60t-43 -43.5t-59 -16zM813 419q-28 0 -48.5 -20t-20.5 -48.5t20.5 -49t48.5 -20.5t48 20.5t20 48.5t-20 48.5t-48 20.5z" />
    <glyph glyph-name="heartbeat" unicode="&#xe812;" horiz-adv-x="1031" 
d="M484 231q-14 0 -18 10l-107 159l-43 -66q-2 -4 -8 -6.5t-11 -2.5h-156q-10 0 -17.5 7t-7.5 18.5t6.5 18t18.5 6.5h143l57 84q7 10 20 10t17 -10l106 -159l44 66q2 4 8 6.5t11 2.5h94q10 0 17.5 -7t7.5 -18.5t-7 -18t-18 -6.5h-82l-57 -85q-9 -9 -18 -9zM516 -19
q-10 0 -13 3q-12 6 -48 30q-55 36 -106 78q-71 57 -124 117q-5 8 -4.5 18t7.5 16.5t17 5.5t18 -8q60 -69 147 -135q57 -44 106 -72q62 38 123 86q102 81 163 162q82 109 82 209q0 30 -10.5 59.5t-29 52.5t-45.5 39t-58 23.5t-62.5 2.5t-56.5 -21q-29 -19 -48 -38
q-23 -25 -33 -53q-3 -9 -12.5 -12t-19 0t-12.5 12q-24 57 -81 91q-61 33 -122 19q-31 -8 -57.5 -24t-45.5 -39.5t-30 -52.5t-11 -59v-16q0 -9 -6.5 -17t-15.5 -8t-17 6.5t-8 15.5v16q0 39 13 75.5t37 67t58 51t73 28t79 2t71 -23.5q48 -28 82 -72q36 51 81 72
q35 18 73.5 23.5t76 -2t71.5 -27.5t60 -51q50 -57 50 -143q0 -119 -95 -243q-69 -92 -183 -179q-59 -46 -122 -83l-3 -2q0 2 -5 1z" />
    <glyph glyph-name="pencilline" unicode="&#xe813;" 
d="M375 -38h-187q-29 0 -50 21q-10 10 -15.5 24t-5.5 26v175q0 21 4 30q8 16 17 25l466 470q22 23 52 23t52 -23l175 -175q10 -9 15.5 -23t5.5 -27q0 -29 -21 -50l-479 -483l-7 -4q-13 -9 -22 -9zM200 38v0v0zM196 46h158l459 458l-159 159l-458 -459v-158zM196 204v0v0z
M750 342q-17 0 -29 12l-221 217q-13 13 -13 29.5t13 28.5t29.5 12.5t28.5 -12.5l217 -216q13 -13 13 -29.5t-13 -29.5q-3 -8 -9 -10q-4 -2 -16 -2zM842 -33h-467q-17 0 -29 12l-217 217q-12 13 -12 29.5t12 28.5t29 12.5t30 -12.5l204 -204h450q19 0 30 -11.5t11 -30.5
t-11 -30t-30 -11z" />
    <glyph glyph-name="cross" unicode="&#xe814;" 
d="M535 325l283 282q7 8 7 18.5t-7 17.5t-17.5 7t-18.5 -7l-282 -283l-282 283q-7 7 -17.5 7t-18 -7t-7.5 -17.5t7 -18.5l283 -282l-283 -282q-7 -7 -7 -17.5t7 -18t17 -7.5t19 7l282 283l282 -283q7 -7 17 -7t18.5 7.5t8.5 18t-8 17.5z" />
    <glyph glyph-name="camera" unicode="&#xe815;" 
d="M813 13h-625q-17 0 -32.5 6.5t-27.5 18.5t-20 29t-8 33v438q0 16 6.5 31.5t18.5 27.5t29.5 20t33.5 8h112l56 84q2 5 8 7.5t11 2.5h250q15 0 19 -10l56 -84h113q16 0 31.5 -6.5t27.5 -18.5q25 -25 25 -59v-438q0 -17 -6.5 -32.5t-18.5 -26.5q-33 -31 -59 -31zM188 575
q-20 0 -29 -12t-9 -25v-438q0 -8 3 -16t10 -12l6 -4q14 -9 22 -9h625q8 0 16 3.5t12 9.5q12 18 12 28v438q0 19 -12 28t-31 9h-125q-14 0 -19 9l-56 85h-225l-57 -85q-2 -4 -7.5 -6.5t-10.5 -2.5h-125zM500 169q-44 0 -81.5 22t-59 59.5t-21.5 81.5t22 81t59.5 59t81.5 22
t81 -22.5t59 -60t22 -80.5t-22 -80.5t-59 -59.5t-82 -22zM500 450q-32 0 -59.5 -16t-43.5 -43.5t-16 -59.5t16 -59t43.5 -43t59.5 -16t59.5 16t43.5 43t16 60t-16 60t-43 42.5t-60 15.5z" />
    <glyph glyph-name="chatcircledots" unicode="&#xe816;" 
d="M500 -26q-96 0 -188 49l-115 -34q-13 -4 -27 0q-9 3 -13 5q-7 4 -11 11q-2 4 -8 10q-6 9 -8 14q-4 14 0 27l34 115q-35 59 -45.5 126t2.5 135q14 71 50 131t93 103t123.5 64t137 16.5t134.5 -33t114 -78.5t79 -114.5t33.5 -135.5t-16.5 -138t-66 -121q-47 -56 -104 -92
q-60 -37 -129 -51q-31 -9 -70 -9zM315 71q9 0 12 -3q55 -32 115.5 -42.5t121.5 0.5t114 43t91.5 81.5t56.5 109t13 120.5q-5 63 -29 119q-26 57 -70 100t-100.5 69t-117.5 30.5t-122 -14.5q-57 -18 -109 -55q-49 -36 -82 -91q-31 -51 -45 -115q-11 -62 0 -123.5t42 -113.5
q3 -6 3 -18l-36 -124v-4q1 -2 3 -2t3 -1v-2h3l124 36h9zM500 323q15 0 25.5 11t10.5 25.5t-11 25.5t-25.5 11t-25 -11.5t-10.5 -25.5q-2 -13 9 -24.5t27 -11.5zM682 323q15 0 25.5 11t10.5 25.5t-11 25.5t-24.5 11t-25 -11.5t-11.5 -25.5q-3 -13 8.5 -24.5t27.5 -11.5z
M318 323q15 0 26 11t11 25.5t-11.5 25.5t-26 11t-25 -11.5t-10.5 -25.5q-2 -13 9 -24.5t27 -11.5z" />
    <glyph glyph-name="diamond" unicode="&#xe817;" horiz-adv-x="960" 
d="M480 14q-16 0 -28 4q-16 8 -24 16l-340 380q-7 13 -8.5 27t4.5 25l120 200q13 20 36 20h480q23 0 36 -20l120 -200q6 -13 5.5 -26t-9.5 -22l-340 -380q-8 -8 -24 -16l-9 -3q-13 -5 -19 -5zM168 450l312 -348l312 348l-92 156h-436zM400 326q-16 0 -28 12l-80 88
q-9 9 -11.5 22.5t3.5 25.5l24 40q9 13 25.5 17t30.5 -5t18 -24.5t-2 -31.5l-12 -12l60 -64q12 -12 10 -28t-14 -28q-3 -8 -10 -10q-5 -2 -14 -2z" />
    <glyph glyph-name="caretdown-1" unicode="&#xe818;" horiz-adv-x="941" 
d="M792 471q-3 8 -11 13t-16 5h-588q-9 0 -17 -5q-5 -3 -11 -13q-3 -8 -1.5 -16.5t8.5 -15.5l294 -294q3 -3 9 -7q8 -2 11.5 -2t9.5 1l2 1l2 1q5 4 7 6l295 294q5 5 8 15q1 7 -2 17z" />
    <glyph glyph-name="copysimple" unicode="&#xe819;" 
d="M844 109q-10 0 -17.5 7t-7.5 18v538h-538q-9 0 -17 6.5t-8 16t8 17t17 7.5h563q10 0 17.5 -7t7.5 -18v-563q-2 -9 -9 -15.5t-16 -6.5zM719 -16h-563q-10 0 -17.5 7t-7.5 18v560q0 10 7 17.5t18 7.5h563q10 0 17.5 -7t7.5 -18v-563q-2 -9 -9 -15.5t-16 -6.5zM178 31h516
v516h-516v-516z" />
    <glyph glyph-name="map" unicode="&#xe81a;" horiz-adv-x="933" 
d="M467 270q-46 0 -84.5 22t-60.5 60.5t-22 84.5t22 84t60.5 60t84.5 22t84 -22t60 -60t22 -84t-22 -84t-60 -60.5t-84 -22.5zM467 503q-30 0 -48.5 -18t-18.5 -48t18.5 -48.5t48.5 -18.5t48 18.5t18 48.5t-18 48t-48 18zM467 -77q-12 0 -17 1t-10 6q-9 5 -38 28
q-40 32 -78 71q-51 52 -91 108q-48 68 -75 138q-31 82 -31 162q0 71 25 132q26 64 75 108q49 49 111.5 74.5t129 25.5t129.5 -25q66 -27 110 -75q49 -50 74.5 -112t25.5 -128q0 -81 -31 -162q-27 -70 -75 -138q-40 -56 -91 -108q-39 -39 -79 -71q-29 -24 -38 -28
q-4 -5 -9 -6t-17 -1zM467 677q-50 0 -94 -19t-80 -55q-31 -31 -48.5 -74t-17.5 -92q0 -85 47 -175q37 -71 101 -139q44 -48 92 -86q55 50 92 91q64 71 100 140q48 91 48 175q0 50 -19 94t-55 80q-30 30 -73 45t-93 15z" />
    <glyph glyph-name="export" unicode="&#xe81b;" horiz-adv-x="970" 
d="M546 28h-364q-26 0 -43 17q-18 20 -18 43v546q0 23 18 43q17 17 43 17h364q25 0 42.5 -17.5t17.5 -42.5v-91q0 -13 -9 -22t-20.5 -9t-22.5 9q-8 10 -8 22v91h-364v-546h364v91q0 12 8 22q10 8 22.5 8t21 -8.5t8.5 -21.5v-91q0 -25 -17.5 -42.5t-42.5 -17.5zM706 491
l100 -100h-351q-13 0 -22 -8t-9 -21.5t9 -22t22 -8.5h351l-100 -100q-9 -9 -9 -21.5t9 -21.5t21.5 -9t21.5 9l151 152q2 2 6 7l1 2q2 8 2 12t-2 12l-1 2q-4 5 -6 7l-151 152q-9 9 -21.5 9t-21.5 -9t-9 -21.5t9 -21.5z" />
    <glyph glyph-name="trash" unicode="&#xe81c;" 
d="M842 600h-688q-12 0 -20.5 9t-8.5 24t9 24.5t24 9.5h688q13 0 23 -9.5t10 -24.5t-10.5 -24t-26.5 -9zM408 163q-13 0 -23 9t-10 24v250q0 13 9 21t24 8t24.5 -9t9.5 -24v-250q-3 -13 -12 -21t-22 -8zM592 163q-14 0 -24 9t-10 24v250q0 13 9.5 23t24.5 10t24 -10.5
t9 -26.5v-250q0 -13 -9 -21t-24 -8zM750 -25h-500q-21 0 -46 17q-16 16 -16 46v595q0 14 9 24t24 10t22 -10t7 -24v-591h500v591q0 13 9.5 23.5t24 10.5t24 -9t9.5 -25v-591q0 -20 -17 -46q-6 -9 -21.5 -15t-28.5 -6zM658 600q-15 0 -24 9t-9 24v59q0 11 -8 21
q-13 12 -25 12h-184q-9 0 -19 -5l-6 -3q-6 -2 -7 -8q-1 -4 -1 -14v-66q0 -12 -9 -20.5t-24 -8.5q-29 0 -29 33v59q0 20 7 37.5t22 28.5q13 13 30.5 21.5t35.5 8.5h188q20 0 37.5 -7.5t29.5 -22.5q13 -13 21 -30.5t8 -35.5v-63q-3 -12 -12.5 -20.5t-21.5 -8.5z" />
    <glyph glyph-name="money" unicode="&#xe81d;" 
d="M894 77h-788q-25 0 -42.5 18t-17.5 43v424q0 25 17.5 43t42.5 18h788q25 0 43 -18t18 -43v-424q0 -25 -18 -43t-43 -18zM106 562v-424h788v424h-788zM500 199q-42 0 -76.5 20t-54.5 54.5t-20 76.5t20 77t54.5 55t76.5 20t77 -20t55 -55t20 -77t-20 -76.5t-55 -54.5
t-77 -20zM500 441q-38 0 -64.5 -26t-26.5 -65t26.5 -65t64.5 -26t64.5 26.5t26.5 64.5t-26 64.5t-65 26.5zM924 350q-9 0 -21 6l-242 212q-9 9 -10.5 21.5t7.5 21.5t21 10.5t21 -7.5l242 -212q10 -10 11.5 -22t-7.5 -21q-6 -9 -22 -9zM682 77q-15 0 -24 9t-7.5 21.5
t10.5 21.5l242 212q9 9 21 7.5t21.5 -10.5t8 -21t-11.5 -21l-242 -213q-2 -2 -7.5 -4t-10.5 -2zM76 350q-15 0 -24 9t-8 21t11 22l242 212q9 9 21 7.5t21 -10.5t8 -21.5t-11 -21.5l-242 -212q-2 -2 -7.5 -4t-10.5 -2zM318 77q-9 0 -21 6l-242 213q-10 9 -11 21t8 21t21 10.5
t21 -7.5l242 -212q10 -9 11 -21.5t-8 -21.5q-2 -4 -8 -6.5t-13 -2.5z" />
    <glyph glyph-name="smoking-icon" unicode="&#xe81e;" horiz-adv-x="1190" 
d="M1095 -145h-809q-40 0 -67.5 28t-27.5 67v191q0 39 27.5 67t67.5 28h809q26 0 48 -13t35 -34.5t13 -47.5v-191q0 -26 -13 -47.5t-35 -34.5t-48 -13zM286 141v0v-191h809v191h-809zM48 -145q-22 0 -35 13t-13 34v286q0 22 13 35t35 13t34.5 -13t12.5 -35v-286
q0 -18 -13.5 -32.5t-33.5 -14.5zM57 283h-4h4q-21 4 -34 18t-13 35q3 54 28.5 92.5t71.5 59.5q50 27 115 32q59 4 123 -10q60 -14 109 -41l14 -7q69 -37 104 -51q63 -25 92 -13q32 12 47 90q5 31 3 54q-4 33 -26 46q-18 14 -53.5 6t-61.5 -30q-14 -14 -33 -14t-33 14
t-14 33.5t14 33.5q30 30 70.5 45.5t82.5 13.5t75 -21q19 -9 37 -29q23 -27 33 -65q13 -47 2 -106.5t-38 -99t-67 -57.5q-43 -19 -99 -11q-45 6 -102 31q-33 15 -94 48l-5 3q-37 24 -83.5 35t-91.5 8.5t-78 -19.5q-21 -10 -34.5 -30.5t-17.5 -45.5q0 -21 -12.5 -34.5
t-30.5 -13.5zM929 364q-11 0 -18.5 3.5t-15.5 11.5q-14 14 -14 33t14 33q23 23 30 54q4 18 4 56q0 6 -6 19q-7 17 -19 31q-16 17 -37 26q-19 8 -27.5 24.5t-1.5 37.5q8 19 24.5 27t37.5 1q44 -15 76 -48q26 -27 41 -62q12 -29 12 -51q0 -50 -8 -81q-13 -55 -54 -96
q-11 -11 -19.5 -15t-18.5 -4z" />
    <glyph glyph-name="baby" unicode="&#xe81f;" horiz-adv-x="960" 
d="M480 -58q-108 0 -201 55q-91 53 -144 144q-55 93 -55 201t55 201q53 91 144 144q93 55 201 55t201 -55q91 -53 144 -144q55 -93 55 -201t-55 -201q-53 -91 -144 -144q-93 -55 -201 -55zM480 662q-87 0 -161 -44q-73 -42 -115 -115q-44 -74 -44 -161t44 -161
q42 -73 115 -115q74 -44 161 -44t161 44q73 42 115 115q44 74 44 161t-44 161q-42 73 -115 115q-74 44 -161 44zM344 298q18 0 31 13t13 31t-13 31t-31 13t-31 -13t-13 -31t13 -31t31 -13zM616 298q18 0 31 13t13 31t-13 31t-31 13t-31 -13t-13 -31q-3 -17 11 -30.5
t33 -13.5zM480 122q-66 0 -120 36q-15 9 -18 25t6 31t25 18t31 -6q36 -24 78 -24t78 24q15 9 31 6t25 -18t6 -31t-18 -25q-60 -36 -124 -36zM480 450q-37 0 -72 28q-14 11 -21 33q-7 19 -7 39q0 24 9 57q16 64 59 119q9 12 26.5 14.5t29.5 -6.5t14.5 -26.5t-6.5 -29.5
q-21 -28 -35 -61q-9 -23 -14 -45l-3 -18q0 -2 2 -7l2 -5q6 -6 14 -6t14 6q3 3 3.5 6t0.5 10q0 18 11 29t29 11t29 -11t11 -29q0 -37 -28 -72q-13 -16 -29 -25q-19 -11 -39 -11z" />
    <glyph glyph-name="tshirt" unicode="&#xe820;" horiz-adv-x="1040" 
d="M860 330h-100q-18 0 -29 11t-11 29t11 29t29 11h96l64 124l-176 100q-17 8 -22 25.5t2 30.5q9 14 24.5 18t31.5 -2l184 -104q12 -6 20.5 -17t11.5 -23.5t2.5 -26.5t-6.5 -25l-68 -140q-3 -9 -18 -22l-6 -6q-18 -12 -40 -12zM280 330h-100q-18 0 -36 12q-12 8 -17 13
q-8 7 -11 15l-68 140q-14 28 -4 48q3 12 11.5 23t20.5 17l184 104q15 12 31 8t25 -20q7 -13 2.5 -29.5t-18.5 -22.5l-176 -104l60 -124h96q18 0 29 -11t11 -29t-11 -29t-29 -11zM728 -30h-416q-28 0 -48 20q-24 24 -24 52v628q0 18 11 29t29 11h120q18 0 29 -11t11 -29
q0 -32 24 -56t57.5 -24t54.5 24q24 24 24 56q0 18 11 29t29 11h120q18 0 29 -11t11 -29v-632q0 -28 -20 -48q-9 -9 -23 -14.5t-29 -5.5zM320 50h400v580h-44q-13 -45 -40 -72q-25 -22 -53 -34q-31 -14 -63.5 -14t-61.5 12t-50 36q-35 35 -40 72h-48v-580z" />
    <glyph glyph-name="marital-icon" unicode="&#xe821;" horiz-adv-x="960" 
d="M632 622l-132 -132q-8 -8 -20 -8q-6 0 -14 5l-6 3l-128 136q-14 14 -20 32q-8 24 -8 40t8 40q16 24 24 32q27 27 66.5 24.5t69.5 -32.5l12 -12l16 16q14 14 32 20q24 8 40 8q12 0 36 -8q8 -3 16 -9q5 -4 16 -15q24 -30 21.5 -70t-29.5 -70zM920 166q0 -77 -37.5 -141
t-101.5 -101.5t-141 -37.5q-44 0 -85 13.5t-75 38.5q-34 -25 -75 -38.5t-85 -13.5q-77 0 -141 37.5t-101.5 101.5t-37.5 141t37.5 141t101.5 101.5t141 37.5q43 0 86 -13q39 -13 74 -35q33 24 74 36t86 12q77 0 141 -37.5t101.5 -101.5t37.5 -141zM360 166q0 46 17 92
q15 43 43 80q-22 13 -47 20q-27 8 -53 8q-55 0 -101 -26.5t-72.5 -72.5t-26.5 -101t26.5 -101t72.5 -72.5t101 -26.5q61 0 100 28q-28 37 -43 80q-17 46 -17 92zM520 166q0 32 -11 63.5t-29 56.5q-18 -25 -29 -56.5t-11 -63.5t11 -63.5t29 -56.5q40 60 40 120zM840 166
q0 55 -26.5 101t-72.5 72.5t-101 26.5q-61 0 -100 -28q28 -37 44 -80q16 -46 16 -92t-16 -92q-16 -43 -44 -80q22 -13 47 -20q27 -8 53 -8q55 0 101 27.5t72.5 73.5t26.5 99z" />
    <glyph glyph-name="share" unicode="&#xe822;" horiz-adv-x="960" 
d="M660 222q-12 0 -20.5 8.5t-8.5 21.5t9 22l160 160l-160 160q-9 9 -9 22t9 22t22 9t22 -9l180 -180q9 -9 9 -22t-9 -22l-184 -184q-8 -8 -20 -8zM720 -18h-568q-20 0 -44 16q-16 16 -16 44v448q0 13 9 22.5t23 9.5t21 -9.5t7 -22.5v-448h568q13 0 22.5 -9t9.5 -23
t-9.5 -21t-22.5 -7zM280 130h-8q-12 3 -17.5 13.5t-2.5 22.5q15 62 51.5 117t88 94.5t113 60t127.5 20.5h208q13 0 22.5 -9t9.5 -23.5t-8.5 -23t-23.5 -8.5h-208q-54 0 -106.5 -17.5t-96.5 -51t-74 -78.5q-31 -48 -43 -101q-16 -16 -32 -16z" />
    <glyph glyph-name="prohibit" unicode="&#xe823;" horiz-adv-x="960" 
d="M480 -50q-106 0 -198 54q-88 52 -140 140q-54 92 -54 198t54 197q52 87 140 138q92 53 198 53t198 -54q88 -52 140 -140q54 -92 54 -198t-54 -197q-52 -87 -140 -138q-92 -53 -198 -53zM480 670q-88 0 -165 -45q-74 -44 -118 -118q-45 -77 -45 -165.5t45 -165.5
q44 -75 118 -120q77 -46 165 -46t165 45q74 44 118 118q45 77 45 165.5t-45 165.5q-44 75 -118 120q-77 46 -165 46zM736 58q-12 0 -20 8l-512 508q-9 9 -9 22t9 22t22 9t22 -9l508 -508q9 -9 9 -22t-9 -22q-5 -5 -9 -6.5t-11 -1.5z" />
    <glyph glyph-name="crosshair" unicode="&#xe824;" 
d="M500 -25q-102 0 -190 51q-84 50 -134 134q-51 88 -51 190t51 190q50 84 134 134q88 51 190 51t190 -51q84 -50 134 -134q51 -88 51 -190t-51 -190q-50 -84 -134 -134q-88 -51 -190 -51zM500 663q-84 0 -157 -43q-70 -42 -112 -113q-43 -73 -43 -157t43 -157
q41 -71 112 -112q73 -43 157 -43t157 43q71 42 113 112q43 73 43 157t-43 157q-42 71 -113 113q-73 43 -157 43zM500 583q-13 0 -23 9.5t-10 24.5v154q0 13 9 23t24.5 10t24 -8.5t8.5 -24.5v-158q0 -10 -10.5 -20t-22.5 -10zM233 317h-154q-13 0 -23 9t-10 24.5t8.5 24
t24.5 8.5h159q13 0 23 -9t10 -24t-12 -24t-26 -9zM500 -104q-13 0 -23 9t-10 24v159q0 13 9 23t24.5 10t24 -9t8.5 -24v-159q0 -13 -10 -23t-23 -10zM921 317h-158q-14 0 -24 9t-10 24.5t9 24t25 8.5h158q13 0 23 -9t10 -24t-10 -24t-23 -9zM500 192q-43 0 -79 21.5
t-57.5 57.5t-21.5 79t21.5 79.5t57.5 57.5t79 21t79.5 -21t57.5 -57.5t21 -79.5t-21 -79t-57.5 -57.5t-79.5 -21.5zM500 442q-25 0 -46 -12.5t-33.5 -33.5t-12.5 -46t12.5 -46t33.5 -33.5t46 -12.5t46 12.5t33.5 33.5t12.5 46t-12.5 46t-33.5 33.5t-46 12.5z" />
    <glyph glyph-name="cake" unicode="&#xe825;" 
d="M500 475q-13 0 -23 9.5t-10 23.5v92q0 13 9 23t24.5 10t24 -8.5t8.5 -24.5v-92q0 -14 -10 -23.5t-23 -9.5zM500 567h-8q-45 16 -71.5 40.5t-32.5 55.5q-9 44 24 98q18 29 55 68q11 11 12 13q10 6 21 6t21 -6q12 -9 32 -32q28 -33 43 -66q20 -44 12 -81q-12 -65 -100 -96
q0 2 -3 1t-5 -1zM500 775q-24 -24 -37 -47q-18 -31 -13 -53q3 -12 17 -23.5t33 -18.5q23 10 35 20t15 22q3 23 -14 53q-14 25 -36 47zM500 192q-34 0 -62.5 12t-54.5 38q-23 23 -36 52q-14 31 -14 64q0 13 9.5 23.5t25 10.5t24 -9t8.5 -25q0 -18 8.5 -38t20.5 -32
q19 -19 45 -25.5t52 0t45 25.5q29 28 29 70q0 13 9.5 23.5t24 10.5t24 -9t9.5 -25q0 -66 -50 -116q-28 -24 -54 -36q-31 -14 -63 -14zM233 192q-31 0 -61 12t-51 34q-25 25 -37.5 55.5t-12.5 64.5v50q0 26 9.5 49.5t27.5 38.5q37 37 88 37h608q26 0 49.5 -9.5t38.5 -27.5
q37 -37 37 -88v-50q0 -71 -50 -120q-51 -46 -116 -46q-33 0 -62.5 12.5t-50.5 37.5q-22 22 -34 52t-12 64q0 13 9.5 23.5t25 10.5t24 -9t8.5 -25q0 -42 29 -70q24 -30 71 -30t71 30q33 31 33 75v50q0 22 -17 45q-6 8 -24 13q-15 4 -30 4h-608q-21 0 -46 -17q-17 -17 -17 -45
v-50q0 -43 34 -75q23 -30 71 -30q35 0 70 30q30 35 30 70q0 14 9 24t24.5 10t24 -9t8.5 -25q0 -31 -12 -61t-34 -55q-56 -44 -125 -50q4 3 4 1.5t-4 -1.5zM813 -25h-625q-23 0 -46 17q-17 23 -17 46v212q0 13 9.5 23t24 10t24 -9t9.5 -24v-212h625v212q0 13 9 23t23.5 10
t20.5 -10q5 -8 5 -23v-212q0 -23 -17 -46q-6 -8 -19 -12.5t-26 -4.5z" />
    <glyph glyph-name="lockkey" unicode="&#xe826;" 
d="M500 192q-28 0 -53 15t-40 40t-15 53t15 53t40 40t53 15t53 -15t40 -40t15 -53t-15 -53t-40 -40t-53 -15zM500 350q-19 0 -32.5 -13.5t-13.5 -32.5t13.5 -32.5t32.5 -13.5t32.5 13.5t13.5 32.5t-13.5 32.5t-32.5 13.5zM500 100q-13 0 -23 9.5t-10 23.5v92q0 13 9 23
t24.5 10t24 -8.5t8.5 -24.5v-92q-3 -15 -11.5 -24t-21.5 -9zM813 -25h-625q-25 0 -44 19t-19 44v437q0 25 19 44t44 19h625q25 0 43.5 -19t18.5 -44v-437q0 -25 -18.5 -44t-43.5 -19zM188 475v-437h625v437h-625zM642 475q-13 0 -23.5 9.5t-10.5 23.5v138q0 22 -8.5 42.5
t-24.5 36.5q-21 21 -49 28t-56 0t-49 -28q-29 -29 -29 -79v-142q0 -12 -10.5 -20.5t-23.5 -8.5t-21 9t-8 24v138q0 69 51 120t121 51t120 -51t50 -120v-142q0 -12 -8.5 -20.5t-20.5 -8.5z" />
    <glyph glyph-name="sort-icon" unicode="&#xe827;" horiz-adv-x="952" 
d="M395 -136q-14 0 -19 5l-238 181q-10 7 -11 19.5t6 23t19.5 11.5t23.5 -6l191 -143v733q0 11 9 20t19.5 9t22 -9.5t11.5 -19.5v-795q0 -8 -4 -16.5t-11 -12.5h-19zM595 -17q-10 0 -19 9t-9 20v795q0 9 3.5 17.5t11 12t17 2.5t15.5 -8l238 -181q11 -6 12 -19t-6 -23.5
t-19.5 -11.5t-24.5 6l-190 143v-733q0 -11 -9 -20t-20 -9z" />
    <glyph glyph-name="sliders" unicode="&#xe828;" 
d="M500 -19q-10 0 -17.5 7t-7.5 18v422q0 10 7 17.5t18.5 7.5t18 -6.5t6.5 -18.5v-422q0 -9 -7.5 -17t-17.5 -8zM500 563q-10 0 -17.5 7t-7.5 18v106q0 10 7 17.5t18.5 7.5t18 -7t6.5 -18v-110q0 -9 -7.5 -15t-17.5 -6zM500 406q-27 0 -50 14t-36.5 37t-13.5 49t14 49t37 37
t49 14t49 -14t37 -37t14 -49t-13.5 -49t-36.5 -37t-50 -14zM500 563q-23 0 -39.5 -16.5t-16.5 -40.5t16.5 -40t39.5 -16t39.5 16.5t16.5 39.5t-16.5 40t-39.5 17zM781 -19q-10 0 -17.5 7t-7.5 18v110q0 10 7 17.5t18 7.5t18 -7t7 -18v-110q0 -9 -7.5 -17t-17.5 -8zM781 250
q-10 0 -17.5 7t-7.5 18v419q0 10 7 17.5t18 7.5t18 -7t7 -18v-422q0 -9 -7.5 -15.5t-17.5 -6.5zM781 94q-27 0 -50 14t-36.5 37t-13.5 49t14 49t37 37t49 14t49 -14t37 -37t14 -49t-13 -49t-36 -37t-51 -14zM781 250q-23 0 -39.5 -16.5t-16.5 -39.5t16.5 -39.5t39.5 -16.5
t40 16.5t17 39.5t-16.5 39.5t-40.5 16.5zM219 -19q-10 0 -17.5 7t-7.5 18v235q0 10 7 17.5t18.5 7.5t18 -7t6.5 -18v-235q0 -9 -8 -17t-17 -8zM219 375q-10 0 -17.5 7t-7.5 18v294q0 10 7 17.5t18 7.5t18 -7.5t7 -17.5v-297q0 -9 -8 -15.5t-17 -6.5zM219 219q-27 0 -50 14
t-36.5 37t-13.5 49t14 49t37 37t49 14t49 -14t37 -37t14 -49t-13.5 -49t-36.5 -37t-50 -14zM219 375q-23 0 -39.5 -16.5t-16.5 -39.5t16.5 -39.5t39.5 -16.5t39.5 16.5t16.5 39.5t-16.5 39.5t-39.5 16.5z" />
    <glyph glyph-name="man" unicode="&#xe829;" 
d="M1000 349q0 -134 -68 -250q-64 -111 -174 -177q-113 -69 -243 -72q-107 -3 -204 37q-91 37 -161 107q-69 67 -108 156t-42 185q-3 105 36 201q37 92 106 162.5t159 110.5q92 40 192 41q105 1 200 -38q91 -38 160.5 -108.5t107.5 -160.5q39 -93 39 -194v0zM852 29l1 0.5
t1 1.5q35 38 61 84q34 62 46 114q8 29 13 64q2 15 2 45q0 41 -2 61q-1 17 -7 46q-6 39 -27 89q-25 61 -67 113q-64 79 -151.5 125.5t-184.5 52.5q-17 1 -49 0h-25q-30 -1 -69 -10t-76 -24q-45 -18 -92 -50q-49 -36 -84 -77q-37 -42 -58 -80q-29 -52 -46 -114
q-10 -38 -13 -82q-3 -52 2 -93t15 -78q15 -56 43 -102q24 -42 59 -82l2 -2l1 -1l8 7q7 7 11 10q30 24 74 39l8 3q18 7 27 9q6 2 17 4l8 2q26 8 39 11l30 5q3 0 6 4q9 22 27 26q4 1 5 4t-2 6l-4 3q-16 9 -30 28q-21 31 -35 75q-3 8 -6 22l-3 13q-1 3 -2 4t-4 0
q-5 0 -10.5 4.5t-8.5 10.5q-10 21 -11 40q-3 17 -2 32q1 11 4 14t12 5q5 0 3 5q-2 38 -4 57q-4 48 2 77q11 59 61 90q45 28 98 33q48 5 82 -17q2 -1 7 -1h16q15 0 22 -1q66 -11 97 -82q6 -14 8 -32q1 -13 0 -33q-2 -60 -4 -91q0 -5 5 -5q12 -3 12 -15q1 -14 0 -29
q-2 -27 -13 -48q-5 -9 -9.5 -11.5t-14.5 -0.5q0 -6 -1 -8q-10 -49 -28 -82q-10 -20 -19 -31q-12 -16 -28 -25q-2 0 -2 -2q-6 -7 3 -9q18 -4 26 -22q3 -8 10 -8l25 -6q28 -6 42 -10q31 -8 68 -21q27 -10 45 -21q23 -14 38 -33v0z" />
    <glyph glyph-name="paperclip" unicode="&#xe82a;" horiz-adv-x="960" 
d="M328 -50q-42 0 -80 15t-67.5 44.5t-45 69.5t-15.5 83t15 80.5t45 67.5l372 376q11 11 24 19q8 5 24 13q27 12 58 12t58 -11.5t48 -32.5q16 -16 32 -48q12 -30 12 -56q0 -32 -12 -56q-11 -27 -32 -48l-372 -376q-27 -27 -64 -27t-64 27q-12 13 -20 30t-8 35t7 35t21 28
l312 316q9 9 22 9t22 -9t9 -22t-9 -22l-312 -316q-8 -8 -8 -20t8 -20q9 -12 22 -12.5t22 8.5l372 376q12 12 20 28q8 24 8 36t-8 36q-4 12 -20 28q-12 12 -28 20q-15 6 -34 6t-34 -6q-12 -4 -28 -20l-372 -376q-21 -21 -32.5 -49.5t-11.5 -58.5q0 -58 44 -108
q27 -27 66.5 -37t79 0t66.5 37l308 308q9 9 22 9t22 -9t9 -22t-9 -22l-312 -304q-31 -31 -69.5 -47.5t-82.5 -16.5z" />
    <glyph glyph-name="smiley" unicode="&#xe82b;" horiz-adv-x="960" 
d="M480 -50q-106 0 -198 54q-88 52 -140 140q-54 92 -54 198t54 197q52 87 140 138q92 53 198 53t198 -54q88 -52 140 -140q54 -92 54 -198t-54 -197q-52 -87 -140 -138q-92 -53 -198 -53zM480 670q-88 0 -165 -45q-74 -44 -118 -118q-45 -77 -45 -165.5t45 -165.5
q44 -75 118 -120q77 -46 165 -46t165 45q74 44 118 118q45 77 45 165.5t-45 165.5q-44 75 -118 120q-77 46 -165 46zM344 378q15 0 25.5 10.5t10.5 25.5t-10.5 25.5t-25.5 10.5t-25.5 -10.5t-10.5 -25.5t10.5 -25.5t25.5 -10.5zM616 378q15 0 25.5 10.5t10.5 25.5
t-10.5 25.5t-25.5 10.5t-25.5 -10.5t-10.5 -25.5q-3 -14 8.5 -25t27.5 -11zM480 130q-59 0 -104 28q-55 35 -76 76q-6 12 -3 23t15 17t23 3t17 -15q8 -17 24 -31q11 -11 32 -25q33 -21 74.5 -21t77.5 21q17 8 31 24q11 11 25 32q6 12 18.5 15t21.5 -3q12 -6 15 -18.5
t-3 -21.5q-35 -55 -76 -76q-34 -14 -57 -20q-30 -8 -55 -8z" />
    <glyph glyph-name="lightning" unicode="&#xe82c;" horiz-adv-x="750" 
d="M580 388q-1 7 -5 13.5t-9 9.5l-155 84l40 286q1 10 -2 20t-9 14q-9 5 -14 3q-7 -1 -12 -9l-301 -469q-4 -8 -5 -13q-1 -7 0 -15q2 -10 5 -14q3 -6 8 -8l155 -85l-39 -286q-2 -12 1.5 -21t9.5 -13.5t13 -2.5t13 9l300 469q3 4 5 13q1 5 1 15z" />
    <glyph glyph-name="link" unicode="&#xe82d;" 
d="M1000 548q0 -12 -4.5 -24t-13.5 -20l-128 -128l-98 -97l-151 -152q-19 -18 -43.5 -18t-43.5 17l-146 146l77 76l113 -113l313 313l-176 175l-87 -86l-33 32q-21 23 -52 34l128 129q18 17 43.5 17t43.5 -17l240 -241q18 -16 18 -43zM335 -124q-28 0 -50 20l-240 240
q-20 20 -20 49q0 14 5 27t15 23l378 377q20 20 49.5 20t49.5 -20l150 -151l-87 -86l-113 113l-302 -303l165 -164l87 87l37 -38q21 -21 50 -32l11 -5l-136 -137q-20 -20 -49 -20zM472 617q-23 0 -39 -16l-377 -378q-16 -16 -16 -38.5t16 -38.5l241 -240q15 -15 38 -15t38 15
l120 120q-26 12 -44 32l-27 27l-87 -87l-186 187l323 324l113 -113l64 65l-139 140q-16 16 -38 16z" />
    <glyph glyph-name="check" unicode="&#xe82e;" horiz-adv-x="941" 
d="M382 97q-8 0 -16 3.5t-13 8.5l-206 212q-13 13 -13 29t13.5 29t32.5 13t32 -13l176 -176l377 382q13 14 32 14t32 -14t13 -32.5t-13 -31.5l-411 -412q-12 -6 -18 -8q-10 -4 -18 -4z" />
    <glyph glyph-name="gift" unicode="&#xe82f;" horiz-adv-x="960" 
d="M808 310h-656q-24 0 -42 18t-18 42v120q0 24 18 42t42 18h660q24 0 42 -18t18 -42v-120q0 -24 -18.5 -42t-45.5 -18zM152 490v-120h660v120h-660zM752 10h-544q-20 0 -44 16q-16 16 -16 44v272q0 13 9 22.5t23.5 9.5t23 -8.5t8.5 -23.5v-272h540v272q0 13 9 22.5
t23.5 9.5t23 -8.5t8.5 -23.5v-272q0 -20 -16 -44q-5 -8 -21 -12q-13 -4 -27 -4zM480 10q-13 0 -22.5 9t-9.5 23v480q0 13 9 22.5t23.5 9.5t23 -8.5t8.5 -23.5v-480q0 -12 -10 -22t-22 -10zM480 490q-13 0 -22.5 9t-9.5 23q0 43 7 83q12 76 45 109q22 22 53 29.5t62 0
t53 -29.5q36 -36 36 -84q0 -25 -9 -47t-27 -37v0v0q-30 -33 -106 -47q-44 -9 -82 -9zM588 686q-20 0 -44 -16q-24 -24 -32 -116q97 9 116 32v0q20 20 20 40t-16 44q-12 9 -22 12.5t-22 3.5zM480 490q-43 0 -82 7q-77 12 -110 45v0q-36 43 -36 84q0 25 9 47t27 37
q22 22 53 29.5t62 0t53 -29.5q30 -30 44 -108q8 -46 8 -84q3 -9 -6.5 -18.5t-21.5 -9.5zM332 586q24 -24 116 -32q-9 97 -32 116q-18 18 -43.5 18t-40.5 -18q-20 -20 -20 -44q0 -20 20 -40z" />
    <glyph glyph-name="bookmarksimple" unicode="&#xe830;" 
d="M250 -56q-9 0 -16 3q-15 10 -15 28v688q0 25 20 43.5t42 18.5h438q25 0 43.5 -18.5t18.5 -43.5v-688q0 -18 -15.5 -28t-31.5 0l-234 147l-234 -147l-5 -1q-7 -2 -11 -2zM500 163q4 0 8.5 -2t7.5 -5l203 -125v632h-438v-632l203 125q9 7 16 7z" />
    <glyph glyph-name="identificationcard" unicode="&#xe831;" 
d="M750 388h-156q-10 0 -17.5 7t-7.5 18.5t6.5 18t18.5 6.5h156q10 0 17.5 -7t7.5 -18t-7.5 -18t-17.5 -7zM750 263h-156q-10 0 -17.5 7t-7.5 18.5t6.5 18t18.5 6.5h156q10 0 17.5 -7t7.5 -18t-7.5 -18t-17.5 -7zM359 263q-32 0 -59 16t-43 43t-16 59t16 59.5t43 43.5t59 16
t59.5 -16t43.5 -43.5t16 -59.5t-16 -59t-43.5 -43t-59.5 -16zM359 450q-28 0 -49.5 -20.5t-21.5 -49t20.5 -48t50.5 -19.5t49.5 20t19.5 48t-19.5 48.5t-49.5 20.5zM238 169h-7q-9 2 -13 10t-2 18q13 46 53 81q40 31 92 31t89 -31q18 -14 32 -35.5t21 -45.5q2 -10 -2 -18
t-13.5 -10t-17.5 2t-11 13q-9 34 -37 57q-25 21 -61 21t-64 -21q-25 -17 -38 -57q0 -5 -6.5 -10t-14.5 -5zM844 13h-688q-23 0 -39.5 16.5t-16.5 39.5v562q0 24 16.5 40.5t39.5 16.5h688q23 0 39.5 -16.5t16.5 -40.5v-562q0 -23 -16.5 -39.5t-39.5 -16.5zM156 638
q-2 0 -4 -2.5t-2 -4.5v-562q0 -2 2 -4t4 -2h688q2 0 4 2t2 4v562q0 2 -2 4.5t-4 2.5h-688z" />
    <glyph glyph-name="volumn-mute" unicode="&#xe832;" 
d="M521 638q-6 3 -12 1t-9 -6l-167 -141l-4 -2q-13 -7 -21 -7h-158q-14 0 -19.5 -5t-5.5 -20v-229q0 -16 4.5 -20.5t20.5 -4.5h104l18 1q25 2 36 -1q8 -2 16 -8q5 -4 15 -12.5t15 -12.5l138 -113q13 -13 25 -8q6 3 9 10.5t3 14.5v546q0 6 -2.5 11.5t-5.5 5.5zM683 450
l234 -237zM900 450l-233 -237z" />
    <glyph glyph-name="play-1" unicode="&#xe833;" horiz-adv-x="833" 
d="M833 350l-833 -481v962z" />
    <glyph glyph-name="pause" unicode="&#xe834;" 
d="M583 58v584h167v-584h-167zM250 58v584h167v-584h-167z" />
    <glyph glyph-name="volumn-up" unicode="&#xe835;" 
d="M521 638q-6 3 -12 1t-9 -6l-167 -141l-4 -2q-13 -7 -21 -7h-158q-14 0 -19.5 -5t-5.5 -20v-229q0 -16 4.5 -20.5t20.5 -4.5h104l18 1q25 2 36 -1q8 -2 16 -8q5 -4 15 -12.5t15 -12.5l138 -113q13 -13 25 -8q6 3 9 10.5t3 14.5v546q0 6 -2.5 11.5t-5.5 5.5zM838 513
q-4 7 -11 23q-19 38 -31 56q-3 6 -11.5 8t-17.5 -4q-7 -3 -9.5 -11.5t0.5 -17.5q0 -2 2.5 -4t2.5 -5q49 -82 62 -162q15 -88 -12 -175q-9 -25 -24 -54q-10 -17 -31 -50q-6 -9 -4 -15.5t10 -13.5t14.5 -4.5t13.5 12.5q79 112 79 237q3 42 -7 93q-10 46 -26 87zM642 521
q-7 6 -15 6t-14 -6t-7 -12.5t2 -16.5q9 -7 9 -17q30 -54 38 -101q9 -54 -9 -107q-7 -21 -32 -62l-6 -9q-6 -9 -4 -15.5t9.5 -13t14 -5t14.5 8.5q27 36 42.5 73.5t15.5 63.5q0 65 -15 117.5t-43 87.5q2 2 1 4t-1 4z" />
    <glyph glyph-name="globe" unicode="&#xe836;" horiz-adv-x="941" 
d="M471 -44q-108 0 -201 54q-90 53 -144 143q-55 93 -55 202t54 202q53 90 143 144q93 55 203 55q107 0 200 -54q91 -53 145 -143q55 -94 55 -203.5t-55 -202.5q-54 -90 -145 -143q-93 -54 -200 -54zM471 662q-84 0 -155 -43q-69 -41 -110 -111t-41 -153t43 -154
q41 -69 111 -110t152.5 -41t154.5 43q69 41 110 111.5t41 151.5t-41 151.5t-110 111.5q-72 43 -155 43zM182 103q-13 0 -22 5.5t-13 18.5q-9 18 -4.5 34t22.5 24l29 18v124q0 8 3.5 19.5t8.5 21.5l71 111q11 12 23 24q5 5 13 8.5t16 3.5h30q9 0 22 -8l7 -4l65 -47l106 12
l70 88l-5 82q0 19 12 33t29.5 14t32 -12t14.5 -29l6 -88q0 -26 -18 -53l-82 -94q-8 -13 -19 -19q-8 -6 -22 -11l-118 -17q-18 0 -26 2q-15 2 -27 10l-59 41l-59 -100v-130q0 -9 -9 -30l-2 -5q-3 -6 -12 -15t-12 -14l-41 -24q-12 6 -30 6zM200 209v0v0zM282 321v0v0zM688 27
q-8 0 -16 3t-13 8l-35 36l-77 17q-14 5 -25.5 13t-15.5 17q-8 11 -10 26q-2 9 -2 27l6 58q0 8 4 18q2 6 8 18q10 14 15 19.5t14 9.5l112 47q12 6 41 6q8 0 19.5 -6.5t15.5 -11.5l95 -82q13 -13 13 -32t-13 -32.5t-32 -13.5t-33 13l-82 77l-89 -47l-6 -41l65 -18
q24 -12 35 -18l42 -41q13 -13 13 -32t-13 -33q-6 0 -18 -2.5t-18 -2.5zM588 227v0v0zM677 262v0v0z" />
    <glyph glyph-name="heartfill" unicode="&#xe837;" 
d="M500 6q-8 5 -17 10q-21 13 -44 28q-32 22 -63 45q-38 30 -71 60q-40 36 -72 72q-37 41 -63 82q-29 46 -44 91q-17 49 -17 97q0 35 12 68t34 60.5t52.5 45.5t65.5 25t69.5 1.5t65.5 -22t55 -42.5t37 -58v0q13 32 37 58t55 43q65 34 135 20q35 -7 65.5 -25t52.5 -45.5
t34 -60.5t12 -68q0 -48 -17 -97q-15 -45 -44 -91q-26 -41 -63 -82q-32 -36 -71 -72q-34 -30 -72 -60q-31 -23 -63 -45q-23 -15 -44 -28z" />
    <glyph glyph-name="heart" unicode="&#xe838;" 
d="M500 -19q-9 0 -12 3l-4 2q-63 38 -123 83q-114 87 -183 178q-94 125 -94 244q0 39 13 75.5t36.5 67t58 51.5t74 28t77.5 2q41 -6 73 -24q47 -29 81 -72q36 51 81 72q34 18 72.5 23.5t77 -2t72.5 -27.5t59 -51q50 -57 50 -143q0 -119 -95 -243q-69 -92 -183 -179
q-59 -46 -122 -83l-3 -2q2 0 -1 -1.5t-5 -1.5zM313 669q-25 0 -35 -3q-31 -8 -58 -24t-45.5 -39.5t-29.5 -52.5t-11 -59q0 -101 81 -210q61 -82 163 -162q64 -50 125 -85q61 37 124 86q102 81 163 162q82 109 82 209q0 30 -11 59t-30 52.5t-45.5 39.5t-57 23.5t-62 2.5
t-57.5 -21q-57 -29 -81 -91q-3 -9 -12.5 -12t-19 0t-12.5 12q-23 57 -81 91q-43 22 -90 22z" />
    <glyph glyph-name="youtubelogo" unicode="&#xe839;" horiz-adv-x="941" 
d="M862 564q-6 19 -20 37q-14 15 -34 23q-78 30 -208 42q-67 6 -128 6h-2q-61 0 -128 -6q-131 -12 -209 -42q-20 -8 -34 -23q-15 -18 -19 -37q-21 -76 -21 -213t21 -215q5 -20 18.5 -36t34.5 -24q77 -29 204 -41q70 -7 131 -7h5q62 0 132 7q127 12 203 41q21 8 34.5 23.5
t19.5 36.5q20 82 20 214q0 134 -20 214zM596 338l-176 -118q-4 -2 -7 -2q-6 0 -8 1l-6 6q-2 4 -2 7v236q0 3 1.5 6t4.5 5l2 2q4 2 7.5 1.5t7.5 -2.5l176 -118q3 -2 5 -5.5t2 -6.5t-2 -6.5t-5 -5.5z" />
    <glyph glyph-name="image" unicode="&#xe83a;" horiz-adv-x="941" 
d="M618 453v0q0 -18 -14 -31t-30.5 -13t-30.5 13t-14 31t14 31t30.5 13t30.5 -13t14 -31zM853 615v-530q0 -24 -17 -41t-42 -17h-647q-24 0 -41.5 17.5t-17.5 40.5v530q0 23 18 41t41 18h647q24 0 41.5 -17.5t17.5 -41.5zM794 215v400h-647v-341l135 135q17 17 41.5 17
t41.5 -17l164 -164l77 76q17 17 41.5 17t41.5 -17z" />
    <glyph glyph-name="arrowdownright" unicode="&#xe83b;" horiz-adv-x="1042" 
d="M767 58q-16 0 -29 13l-500 500q-13 13 -13 29.5t13 28.5t29 12.5t29 -12.5l500 -500q13 -12 13 -28.5t-13 -29.5q-6 -6 -14.5 -9.5t-14.5 -3.5zM767 58h-409q-19 0 -30 11.5t-11 30.5t11 30.5t30 11.5h363v366q0 19 11.5 30.5t30.5 11.5t30 -11.5t11 -30.5v-408
q3 -18 -8.5 -30t-28.5 -12z" />
    <glyph glyph-name="circlewavycheck" unicode="&#xe83c;" 
d="M882 448q-2 3 -8 9q-23 25 -27 37q-4 8 -5 24q-1 10 -1 30v1q-1 39 -5 58q-7 32 -27 52t-52 27q-19 4 -58 5h-1q-20 0 -30 1q-16 1 -24 5q-12 4 -37 27l-11 10q-27 26 -43 37q-27 17 -53 17t-53 -17q-16 -11 -43 -37l-11 -10q-26 -23 -35.5 -27t-24.5 -5q-10 -1 -31 -1
h-1q-39 -1 -58 -5q-32 -7 -52 -27t-27 -52q-4 -19 -5 -58v-1q0 -42 -5 -54q-4 -9 -15 -22q-6 -8 -21 -24v0q-27 -28 -37 -44q-18 -27 -18 -54t18 -54q10 -16 37 -44v0q30 -32 36 -45q3 -9 4 -24q1 -10 1 -31v-1q1 -39 5 -58q7 -32 27 -52t52 -27q19 -4 58 -5h1q21 0 31 -1
q15 -1 24.5 -5t34.5 -26l12 -11q27 -26 43 -37q27 -17 53 -17t53 17q16 11 43 37l11 10q26 23 37.5 28t53.5 5h1q39 1 58 5q32 7 52 27t27 52q4 19 5 58v1q0 21 1 31q1 15 5 24.5t27 35.5l10 11q26 27 37 43q17 27 17 53t-17 53q-11 16 -37 43zM694 421l-230 -219
q-8 -8 -20.5 -8t-22.5 8l-114 110q-6 6 -7 10q-3 6 -3 11t2 13q3 6 7 10q2 3 10 7q5 3 11 3t12 -2q8 -4 11 -7l93 -89l207 198q3 3 11 7q6 2 12 2t11.5 -2t10.5 -8l2 -2q3 -5 4.5 -8.5t1.5 -11.5q0 -4 -2 -12q-1 -3 -5 -7z" />
    <glyph glyph-name="archive" unicode="&#xe83d;" 
d="M853 427h-706q-31 0 -53.5 20t-22.5 50v88q0 30 21.5 50.5t48.5 20.5h706q30 0 50.5 -21.5t20.5 -49.5v-88q8 -30 -12.5 -50t-52.5 -20zM165 509h676v59h-676v-59zM853 568v0v0zM794 38h-588q-29 0 -53 24t-24 53v353q0 18 13.5 32.5t35 14.5t34 -12.5t12.5 -34.5v-341
h558v341q0 18 13 32.5t34.5 14.5t34.5 -12.5t13 -34.5v-353q0 -30 -24 -53q-13 -12 -28.5 -18t-30.5 -6zM588 274h-176q-18 0 -32.5 14.5t-14.5 32.5t14.5 32.5t32.5 14.5h176q19 0 33 -13t14 -34t-14 -34t-33 -13z" />
    <glyph glyph-name="user-1" unicode="&#xe83e;" 
d="M500 192q-76 0 -141 38t-103 101q-39 67 -39 144.5t37.5 142.5t102.5 102.5t142 37.5t142 -38t103 -101q39 -67 39 -144t-39 -144q-38 -63 -103 -101t-141 -38zM500 692q-60 0 -109.5 -29t-78.5 -78.5t-29 -109t30 -110.5q29 -49 79 -78t108.5 -29t109.5 30q49 29 78 79
t29 108t-29 108t-78 79q-51 30 -110 30zM879 -25q-9 0 -16 4t-13 13q-55 93 -150 150q-94 53 -204 53t-204 -53q-94 -57 -150 -150q-7 -12 -19.5 -15.5t-22.5 2.5q-12 6 -15.5 19t3.5 23q61 106 170 171q70 41 152 55t164.5 0t154.5 -55q107 -64 171 -171q6 -13 3 -24.5
t-15 -17.5q4 -4 -9 -4z" />
    <glyph glyph-name="envelope" unicode="&#xe83f;" 
d="M500 258q-6 0 -12 3t-9 6l-375 341q-9 9 -9.5 23t5.5 23q10 10 23 10t23 -10l354 -325l354 325q10 10 23.5 10t23 -9.5t9.5 -23t-10 -23.5l-375 -341q-5 -6 -12 -8q-5 -1 -13 -1zM842 38h-684q-21 0 -45 16q-17 17 -17 46v533q0 14 9 24t24 10h750q13 0 23.5 -9.5
t10.5 -24.5v-533q0 -18 -17 -46q-10 -16 -54 -16zM158 600v-500h688v500h-688zM133 46q-7 0 -22 7l-3 1q-9 10 -9 23.5t9 22.5l296 271q10 9 23.5 9t23 -9.5t9.5 -22.5t-10 -23l-296 -271q-8 -8 -21 -8zM867 46q-13 0 -21 8l-296 271q-9 10 -9 23t9.5 22.5t22.5 9.5t23 -9
l296 -271q9 -9 9 -22.5t-9 -23.5l-3 -1q-15 -7 -22 -7z" />
    <glyph glyph-name="link-copy" unicode="&#xe840;" 
d="M565 195q-47 0 -85 15q-44 18 -70 50q-15 15 -15 35t15 35t35 15t35 -15q18 -17 40.5 -24.5t47.5 -7.5t47.5 7.5t39.5 24.5l110 110q18 18 25 40q10 30 10 45t-10 45q-7 23 -24.5 40.5t-40 25t-47.5 7.5t-47.5 -7.5t-40.5 -25.5l-75 -75q-15 -15 -35 -15t-35 15t-15 35
t15 35l75 75q13 13 33 27q12 8 37 23q41 15 85 15t85 -15q44 -18 70 -50q13 -13 27 -33q8 -12 23 -37q20 -33 20 -85q0 -47 -15 -85q-18 -44 -50 -70l-110 -110q-13 -13 -33 -27q-12 -8 -37 -23q-17 -10 -43 -13q-16 -2 -47 -2zM325 -50q-47 0 -85 15q-44 18 -70 50
q-13 13 -27 33q-8 12 -23 37q-20 33 -20 90q0 48 15 85q18 44 50 70l110 110q13 13 33 27q12 8 37 23q41 15 85 15t85 -15q44 -18 70 -50q15 -15 15 -35t-15 -35t-35 -15t-35 15q-17 18 -40 25q-19 11 -43 11t-47 -11q-10 -3 -19 -11q-6 -4 -16 -14l-110 -110
q-17 -17 -25 -40l-6 -15q-9 -20 -9 -30q0 -15 10 -45q8 -22 25.5 -39.5t40 -25t47.5 -7.5t47.5 7.5t39.5 24.5l75 75q15 15 35 15t35 -15t15 -35t-15 -35l-75 -75q-13 -13 -33 -27q-12 -8 -37 -23q-22 -11 -42 -15.5t-43 -4.5z" />
    <glyph glyph-name="caretrightb" unicode="&#xe841;" horiz-adv-x="941" 
d="M353 32q-9 0 -17 3.5t-12 8.5q-13 14 -13 33t13 32l264 265l-264 258q-13 14 -13 33t13.5 32.5t32 13.5t31.5 -14l294 -294q14 -13 14 -32t-14 -33l-294 -294q-22 -12 -35 -12z" />
    <glyph glyph-name="dotsthree" unicode="&#xe842;" 
d="M500 311q17 0 28 11.5t11 28t-11 27.5t-27.5 11t-28 -11t-11.5 -27.5t11.5 -28t27.5 -11.5zM250 311q17 0 28 11.5t11 28t-11 27.5t-27.5 11t-28 -11t-11.5 -27.5t11.5 -28t27.5 -11.5zM750 311q17 0 28 11.5t11 28t-11 27.5t-27.5 11t-28 -11t-11.5 -27.5t11.5 -28
t27.5 -11.5z" />
    <glyph glyph-name="rss" unicode="&#xe843;" horiz-adv-x="947" 
d="M676 560q-131 131 -299.5 200.5t-353.5 69.5v-182q149 0 284.5 -56t240.5 -161t161 -240.5t56 -284.5h182q0 185 -70 354t-201 300zM21 523v-182q118 0 219 -59q99 -58 157 -157q59 -101 59 -219h182q0 125 -49 240q-47 111 -132 196t-196 132q-115 49 -240 49zM150 -99
q35 0 65 17.5t47.5 47.5t17.5 65t-17.5 65.5t-47.5 48t-65 17.5t-65 -17.5t-47.5 -48t-17.5 -65.5t17.5 -65t47.5 -47.5t65 -17.5z" />
    <glyph glyph-name="videocamera" unicode="&#xe844;" 
d="M688 63h-500q-31 0 -58.5 11t-48.5 32t-32 48.5t-11 58.5v375q0 22 15 37q13 13 41 13h500q30 0 57.5 -11.5t48.5 -32.5t32.5 -48.5t11.5 -57.5v-375q0 -24 -16 -38q-16 -12 -40 -12zM94 594h-3l-5 -5q-2 -2 -2 -5v-375q0 -45 32 -71q14 -15 32.5 -23.5t39.5 -8.5h500h3
l3 3q3 3 3 7v375q0 45 -31 72q-33 31 -72 31h-500zM938 138q-10 0 -13 3l-219 125q-9 4 -11.5 14t2.5 17t15 10.5t16 -1.5l185 -106v294l-185 -106q-9 -5 -18 -3t-13.5 11.5t-2 18.5t11.5 13l219 125q5 2 11.5 2t11 -2t8 -8t3.5 -11v-375q0 -14 -12 -18l-3 -1q-4 -2 -6 -2z
" />
    <glyph glyph-name="sharenetwork" unicode="&#xe845;" 
d="M250 190q-44 0 -80.5 22t-58 59t-21.5 79t21.5 79t58 59t80.5 22t81 -21t58 -58t21 -81t-21 -81t-58 -58t-81 -21zM250 440q-37 0 -63.5 -26t-26.5 -63.5t26.5 -64t64 -26.5t63.5 26.5t26 64t-26 63.5t-64 26zM690 -95q-44 0 -80.5 22t-58 59t-21.5 79t22 79t59 59t79 22
t79 -22t59 -59t22 -79t-22 -79t-59 -59t-79 -22zM690 155q-37 0 -63.5 -26t-26.5 -63.5t26.5 -64t64 -26.5t63.5 26.5t26 63.5q0 24 -13 45t-34 33t-43 12zM690 470q-44 0 -80.5 22t-58 59t-21.5 79t22 79t59 59t79 22t79 -21.5t59 -58t22 -80.5t-22 -80.5t-59 -58
t-79 -21.5zM690 720q-37 0 -63.5 -26t-26.5 -63.5t26.5 -64t64 -26.5t63.5 26.5t26 63.5q0 24 -13 45t-34 33t-43 12zM355 380q-8 0 -17.5 4t-12.5 11q-11 15 -8 31t18 24l225 145q11 8 27 4.5t23.5 -14.5t4 -26.5t-14.5 -23.5l-225 -150q-5 -5 -20 -5zM580 100q-15 0 -20 5
l-225 145q-11 8 -14 23.5t4.5 26.5t23 14.5t26.5 -4.5l225 -145q11 -7 14.5 -23t-4.5 -27q-7 -15 -30 -15z" />
    <glyph glyph-name="checkcircle" unicode="&#xe846;" 
d="M500 756q-60 0 -118 -17.5t-108 -51t-88.5 -80t-61 -102t-28.5 -115.5t5.5 -119t40 -112t71.5 -96t96 -71.5t112 -40t119 -5.5t115.5 28.5t102 61t80 88.5t51 108t17.5 118q0 81 -31 155.5t-88 131.5t-131.5 88t-155.5 31zM694 421l-230 -219q-8 -8 -20.5 -8t-22.5 8
l-114 110q-10 10 -10 22.5t9 21.5q7 8 21 9t23 -8l93 -89l207 198q9 9 22 9t22 -10t9 -22.5t-9 -21.5z" />
    <glyph glyph-name="caretleftfill" unicode="&#xe847;" 
d="M637 691q-7 4 -17.5 2t-16.5 -8l-313 -313l-2 -2q-3 -5 -4 -8q-3 -6 -3 -12t3 -12q1 -3 4 -8l2 -2l313 -313q6 -6 16.5 -8t18.5 1.5t13 11.5t5 18v625q0 9 -5 17t-14 11z" />
    <glyph glyph-name="caretrightfill" unicode="&#xe848;" 
d="M710 372l-313 313q-6 6 -16 8t-18.5 -1.5t-13.5 -11.5t-5 -17v-625q0 -10 6 -18.5t13.5 -11.5t17.5 -1t16 8l313 313q5 5 7 10.5t2 11.5t-2 11.5t-7 10.5z" />
    <glyph glyph-name="info" unicode="&#xe849;" horiz-adv-x="941" 
d="M471 732q-57 0 -111.5 -16.5t-101.5 -47.5t-83 -75t-58 -96.5t-27 -109t5.5 -112t37.5 -105.5t67 -90t90 -67t105.5 -38t112 -5.5t109.5 27.5t97 58t75 83q64 96 64 212q0 76 -29 146.5t-83 124t-124 82.5t-146 29v0zM463 556q14 0 25 -7t16 -19.5t2.5 -26.5t-12.5 -22
q-9 -10 -22 -12.5t-26 2.5t-20 17t-7 24q0 18 13 31t31 13v0zM500 144h-29q-13 0 -21.5 8.5t-8.5 21.5v176q-12 0 -20.5 8.5t-8.5 21t8.5 21t20.5 8.5h30q13 0 21 -8t8 -22v-176q12 0 20.5 -8.5t8.5 -21t-8.5 -21t-20.5 -8.5z" />
    <glyph glyph-name="magnifying-glass" unicode="&#xe84a;" 
d="M479 -58q-116 0 -216 58q-95 57 -151 153q-58 99 -58 214.5t58 215.5q57 95 153 151q99 58 215 58t215 -58q96 -57 152 -153q57 -99 58 -214t-57 -214q-55 -96 -152 -153q-100 -58 -217 -58zM479 733q-99 0 -184 -50q-83 -48 -132 -130q-50 -86 -50 -185.5t50 -184.5
q48 -83 130 -132q86 -51 185.5 -51t184.5 50q83 48 132 131q51 86 50 186t-51 186q-50 82 -132 130q-85 50 -183 50zM917 -100q-13 0 -21 8l-146 150q-9 10 -9 23.5t9 22.5t22.5 9.5t23.5 -9.5l146 -146q9 -9 9 -22.5t-9 -23.5q-13 -12 -25 -12z" />
    <glyph glyph-name="heart-child" unicode="&#xe84b;" 
d="M500 -25q-12 0 -17 4q-23 11 -70 44q-77 51 -140 109q-87 80 -136 161q-62 101 -62 199q0 40 14.5 79t40 70.5t61 52.5t72.5 27q47 6 84 1q41 -5 74 -26q23 -9 44 -27q16 -14 35 -36q29 41 79 67q63 34 154 21q85 -20 134 -79q26 -31 40 -70.5t14 -79.5q0 -96 -61 -197
q-50 -81 -137 -161q-63 -59 -139 -111q-50 -33 -71 -44q0 -4 -13 -4zM313 663q-12 0 -17 -1q-8 -1 -17 -4q-28 -6 -55 -21.5t-45 -36.5t-28 -51q-9 -28 -9 -57q0 -98 77 -203q58 -79 157 -158q53 -43 124 -89q58 34 124 87q98 78 157 159q77 106 77 204q0 65 -37 108
q-40 47 -100 58q-27 6 -58 1q-28 -4 -55 -17q-25 -13 -45.5 -36t-33.5 -52q-4 -12 -16.5 -16.5t-25 0t-16.5 16.5q-26 58 -79 88q-44 21 -79 21zM767 8q-11 6 -21 12q-26 16 -51 35q-34 26 -60 52q-33 34 -51 67q-21 39 -21 76.5t25 62.5q27 27 62 33t71 -8q33 -20 46 -50v0
q11 29 46 50q25 15 70 8q34 -5 63 -33q12 -12 18.5 -29t6.5 -34q-1 -37 -23 -76q-18 -33 -51 -67q-26 -26 -59 -52q-25 -19 -50 -35zM767 -25q-9 0 -17 4q-23 11 -61 39q-64 46 -104 96q-56 69 -56 136q0 22 9.5 45t24.5 38q15 19 36 31t43 15q47 6 91 -12l5 -3
q21 -15 29 -22q5 5 21 16l12 9q43 18 92 12q22 -3 42.5 -15t36.5 -31q33 -39 33 -83q0 -52 -33 -105q-27 -43 -74 -85q-34 -31 -76 -58q-28 -18 -38 -23q-8 -4 -16 -4zM667 317h-17q-28 -7 -42 -25q-16 -17 -16 -46q0 -41 31 -85q26 -36 69 -71q35 -28 71 -48q34 20 70 49
q43 36 69 73q31 44 31 82q0 29 -16 46q-11 10 -19 16q-11 6 -23 9q-23 5 -50 -9q-11 -5 -20 -15q-5 -6 -13 -18q-4 -10 -16 -14t-24.5 0t-18.5 14q-7 14 -13 21q-8 9 -20 12q-5 6 -15 8q-6 1 -18 1z" />
    <glyph glyph-name="bag" unicode="&#xe84c;" 
d="M538 -58h-71q-105 0 -145 2q-64 4 -102 15q-42 13 -70 41q-13 8 -29 33q-21 30 -25 71q-4 37 4 95q5 37 24 129l5 26l29 -4l-29 4q17 101 31 140q16 52 48 81l7 7q12 11 18 14q24 16 56 23q29 7 75 9q29 1 103 1h71q73 0 102 -1q44 -2 73 -9q32 -7 58 -23
q4 -4 12.5 -10.5t12.5 -10.5q28 -25 43 -70q11 -30 28 -112l10 -48q19 -101 25 -140q8 -61 5 -98q-4 -42 -24 -74l-2 -3q-7 -11 -12 -16q-7 -9 -15 -14q-28 -28 -70 -41q-38 -11 -101 -15q-41 -2 -145 -2zM463 567q-95 0 -126 -3q-47 -5 -70 -22q-4 0 -9 -3.5t-8 -9.5
q-20 -20 -34 -65q-11 -36 -28 -122l-3 -16q-17 -87 -22 -121q-8 -52 -7 -83q2 -34 15 -55q5 -10 21 -25q18 -18 52 -27q31 -7 88 -10q36 -1 131 -1h70q95 0 131 1q57 3 88 10q34 9 52 27q5 5 13 15l8 10q14 22 16 56.5t-7 88.5q-7 45 -26 130q-12 84 -24 123q-13 43 -34 64
l-4 4q-9 7 -13 13q-23 17 -69 22q-31 3 -126 3h-75v-4zM625 567q-13 0 -23 9t-10 24v42q0 37 -27 64t-65 27t-65 -27t-27 -64v-42q0 -13 -9 -23t-24 -10t-24 10t-9 23v42q0 43 21.5 79t57.5 57.5t79 21.5t79.5 -21.5t57.5 -57.5t21 -79v-42q0 -13 -10 -23t-23 -10z" />
    <glyph glyph-name="arrow-left" unicode="&#xe84d;" 
d="M417 67q-13 0 -21 8l-250 250q-2 2 -4 5t-4 3q0 3 -2.5 7t-2.5 6q0 8 5 12q0 4 2.5 6.5t5.5 2.5l250 250q9 9 22.5 9t23.5 -9t9.5 -23t-9.5 -23l-196 -196h587q14 0 24 -9t10 -24.5t-9 -24.5t-25 -9h-591l196 -195q9 -10 9 -23.5t-9 -22.5q-3 3 -13 1q-5 -1 -8 -1z" />
    <glyph glyph-name="arrow-right" unicode="&#xe84e;" 
d="M583 67q-12 0 -20 8q-10 10 -10 23t10 23l195 196h-591q-14 0 -24 9t-10 24.5t9 24t25 8.5h591l-195 196q-10 10 -10 23.5t10 22.5t23 9.5t22 -9.5l250 -250q2 -2 4.5 -5t4.5 -3q0 -2 2 -6.5t2 -6.5q0 -8 -4 -12q0 -3 -2.5 -6t-6.5 -3l-250 -250q-11 -16 -25 -16z" />
    <glyph glyph-name="chatcircle" unicode="&#xe84f;" 
d="M500 -58q-103 0 -196 50l-116 -34q-10 -3 -17 -3t-17 3l-5 3q-18 8 -24 14q-8 8 -17 29q-3 10 -3 17t3 17l34 116q-35 64 -46 133q-12 70 4 138q16 73 53 135q39 65 98 111.5t129 68t145 14.5q73 -3 142 -35q66 -30 121 -81q53 -54 83 -121.5t33 -142t-18 -145
t-65 -129.5q-48 -61 -109 -98q-63 -39 -137 -52q-50 -8 -75 -8zM308 58q13 0 17 -4q54 -31 116.5 -42.5t122.5 1t114 45.5q51 31 93 80q37 49 55.5 109.5t15.5 122.5t-29.5 119.5t-71 102t-102 71t-119.5 29.5t-122.5 -15.5t-110.5 -56t-82.5 -91.5t-41.5 -116
q-12 -62 -1 -124q11 -59 42 -114q4 -8 4 -25l-37 -129l129 37h8z" />
    <glyph glyph-name="user" unicode="&#xe850;" 
d="M500 409q-52 0 -96 25.5t-69.5 69.5t-25.5 96t25.5 96t69.5 69.5t96 25.5t96 -25.5t69.5 -69.5t25.5 -96t-25.5 -96t-69.5 -69.5t-96 -25.5zM500 744q-38 0 -71.5 -19.5t-53 -53t-19.5 -71.5t19.5 -71.5t53 -53t71.5 -19.5t71.5 19.5t53 53t19.5 71.5t-19.5 71.5t-53 53
t-71.5 19.5zM500 -91q-120 0 -195 15q-70 15 -107 44q-33 25 -45 67q-9 31 -9 87q0 59 47 107.5t128 75.5q83 29 181 29t181 -29q81 -27 128 -75.5t47 -107.5q0 -56 -9 -87q-12 -42 -45 -67q-37 -29 -107 -44q-75 -15 -195 -15zM500 284q-83 0 -155 -23q-70 -22 -112 -59
t-42 -80q0 -45 5 -65q8 -32 34 -52q30 -23 91 -34q67 -12 179 -12t179 12q61 11 91 34q26 20 34 52q5 20 5 65q0 43 -42 80t-112 59q-72 23 -155 23z" />
    <glyph glyph-name="ruler" unicode="&#xe852;" horiz-adv-x="960" 
d="M328 -78q-12 0 -25.5 5.5t-22.5 14.5l-196 196q-21 21 -21 50t21 50l496 500q21 21 50 21t50 -21l196 -196q21 -21 21 -50t-21 -50l-496 -496q-24 -24 -52 -24zM148 190l184 -184l480 484l-184 184zM616 438q-16 0 -28 12l-120 120q-12 12 -12 28t12 28t28 12t28 -12
l120 -120q12 -12 12 -28t-12 -28q-6 -6 -13.5 -9t-14.5 -3zM480 302q-16 0 -28 12l-120 120q-12 12 -12 28t12 28t28 12t28 -12l120 -120q12 -12 12 -28t-12 -28t-28 -12zM344 166q-16 0 -28 12l-120 120q-12 12 -12 28t12 28t28 12t28 -12l120 -120q12 -12 12 -28t-12 -28
t-28 -12z" />
    <glyph glyph-name="chats" unicode="&#xe853;" 
d="M125 142h-8q-13 6 -13 21v500q0 11 4 20q4 12 13 17l6 4q11 6 16 9q8 4 15 4h500q21 0 38 -17q6 -6 9 -16.5t3 -20.5v-342q0 -11 -4 -21.5t-12 -16.5q-18 -16 -38 -16h-366l-150 -121q-5 -4 -13 -4zM158 675h-4l-4 -4l-3 -4q-1 -1 -1 -4v-459l121 96q3 5 5.5 6.5t6.5 1.5
h375q3 0 4 1l5 4l2 3q2 3 2 5v342v4l-4 4l-3 2q-3 2 -6 2h-496zM875 -46q-8 0 -12 4l-150 121h-371q-26 0 -38 17q-12 12 -12 37v159q0 6 6 11t15.5 5t14.5 -5.5t5 -14.5v-159q0 -3 0.5 -4t4.5 -4l3 -2q3 -2 5 -2h375q8 0 12 -4l121 -96v458v4l-6 7q-3 2 -6 2h-159
q-9 0 -14.5 5.5t-5.5 14.5t5.5 15t14.5 6h159q21 0 37 -16q7 -7 12 -18t5 -20v-500q0 -6 -3.5 -12t-9.5 -9h-8z" />
    <glyph glyph-name="question" unicode="&#xe854;" 
d="M500 -46q-107 0 -199 54q-90 53 -143 143q-54 92 -54 199t54 199q53 90 143 143q92 54 199 54t199 -54q90 -53 143 -143q54 -92 54 -199t-54 -199q-53 -90 -143 -143q-92 -54 -199 -54zM500 704q-96 0 -179 -48q-80 -47 -127 -127q-48 -83 -48 -179t48 -179
q47 -80 127 -127q83 -48 179 -48t179 48q80 47 127 127q48 83 48 179t-48 179q-47 80 -127 127q-83 48 -179 48zM500 117q13 0 23 9t10 24.5t-8.5 24t-24.5 8.5t-24.5 -8.5t-8.5 -24t10 -24.5t23 -9zM500 267q-9 0 -15 5.5t-6 15.5v33q0 9 6 15t15 6q27 0 50 16q11 6 20 18
q5 8 13 24q12 22 5 50q-6 25 -25 46q-20 19 -46 25l-15 -3q-24 -4 -35 -10q-14 -6 -23.5 -13.5t-18.5 -19.5q-12 -18 -12 -46q0 -9 -6 -15t-15 -6t-15 6t-6 15q0 37 21 71q17 31 58 50q22 7 38 8q20 2 37 -4q20 -3 37.5 -12.5t29.5 -24.5q26 -32 37 -67q7 -44 -8 -75
q-13 -40 -50 -58q-11 -9 -25 -14q-9 -3 -25 -7v-13q0 -6 -6 -11t-15 -5z" />
    <glyph glyph-name="wine" unicode="&#xe855;" horiz-adv-x="960" 
d="M480 -90q-18 0 -29 11t-11 29v208q0 18 11 29t29 11t29 -11t11 -29v-208q0 -16 -11.5 -28t-28.5 -12zM632 -90h-304q-18 0 -29 11t-11 29t11 29t29 11h300q18 0 29 -11t11 -29t-10.5 -29t-25.5 -11zM480 122q-48 0 -95 14.5t-89 41.5q-42 24 -74 61.5t-51 83t-7 91.5
l96 332q7 10 18 17t22 7h360q12 0 23 -8t17 -20l96 -332q14 -48 -7.5 -92.5t-53.5 -82t-71 -61.5q-43 -25 -89 -38q-48 -14 -95 -14zM328 690l-88 -300q-7 -20 4 -36q33 -72 96 -113t140.5 -41t144 42.5t95.5 111.5q4 12 4 36l-92 300h-304zM636 350q-78 0 -172 44
q-77 40 -144 38q-47 -1 -84 -22q-15 -9 -31 -4t-25 20t-4 31t20 25q29 17 67 25q49 11 102 4q64 -8 131 -41q81 -39 152 -34q46 2 80 22q15 9 31 4t25 -20t4 -31t-20 -25q-22 -13 -49 -22q-41 -14 -83 -14z" />
    <glyph glyph-name="arrow-up" unicode="&#xe856;" horiz-adv-x="1050" 
d="M525 145q-16 0 -28 11t-12 29v410l-185 -190q-11 -11 -25 -11t-25 11t-11 27.5t11 27.5l250 250q2 2 6 4.5t4 5.5q15 8 30 0q4 0 7 -3t3 -7l250 -250q11 -11 11 -27.5t-11 -27.5t-27.5 -11t-27.5 11l-185 185v-410q0 -12 -10.5 -23.5t-24.5 -11.5z" />
    <glyph glyph-name="arrow-right-up" unicode="&#xe857;" horiz-adv-x="976" 
d="M366 562q-12 0 -20.5 9t-8.5 21t8.5 20.5t20.5 8.5h366q12 0 20.5 -9t8.5 -20v-366q0 -12 -9 -21t-20 -9t-20.5 9.5t-9.5 20.5v292l-436 -434q-9 -9 -22 -9t-22 9t-9 22t9 22l437 434h-293zM244 65q-7 0 -15.5 3.5t-13.5 8.5q-13 13 -13 30.5t13 30.5l414 414h-263
q-18 0 -31 13t-13 31t12.5 28.5t31.5 10.5h366q18 0 31 -12.5t13 -30.5v-366q0 -19 -13 -31.5t-31 -12.5t-31 12.5t-13 31.5v266l-415 -415q-8 -12 -29 -12zM366 611q-8 0 -14 -5t-6 -14t5.5 -14.5t14.5 -5.5h322l-456 -454q-6 -5 -6 -13t5.5 -13.5t13.5 -5.5t14 6l456 456
v-322q0 -8 5 -14t14 -6t14.5 5t5.5 15v366q0 7 -5.5 13t-14.5 6h-368z" />
    <glyph glyph-name="caretdown" unicode="&#xe858;" 
d="M500 113q-9 0 -17.5 3.5t-13.5 8.5l-313 313q-13 14 -13 34.5t13.5 34t34 13.5t34.5 -14l275 -275l281 282q14 14 34.5 14t34.5 -13.5t14 -34.5t-14 -35l-312 -313q-19 -18 -38 -18z" />
    <glyph glyph-name="heartstraight" unicode="&#xe859;" horiz-adv-x="960" 
d="M480 -10q-20 0 -44 16l-312 312q-16 16 -28 35q-14 21 -20 41q-16 37 -16 88q0 41 20 88q15 35 52 72q43 39 100.5 50.5t115 -6t100.5 -60.5l32 -28l36 36q16 16 35 29q21 13 41 19q37 16 88 16q41 0 88 -20q35 -15 72 -52q39 -43 50.5 -100.5t-6 -115t-60.5 -100.5
l-304 -304q-11 -16 -40 -16zM500 26v0v0zM280 638q-62 0 -108 -40q-16 -16 -23 -24q-12 -15 -17 -28q-12 -30 -12 -64t12 -64q13 -33 36 -56l312 -312l304 304q32 32 45 75t4.5 86.5t-37.5 74.5q-16 16 -24 23q-15 12 -28 17q-40 16 -64 16q-34 0 -64 -12q-33 -13 -56 -36
l-56 -56q-9 -9 -22 -9t-22 9l-48 48q-26 24 -60.5 36t-71.5 12zM800 -50q-12 0 -20 8l-720 760q-9 9 -9 22t9 22t22 9t22 -9l720 -760q9 -9 9 -22t-9 -22q-16 -8 -24 -8z" />
    <glyph glyph-name="usercircle" unicode="&#xe85a;" 
d="M500 -50q-108 0 -201 55q-91 53 -144 144q-55 93 -55 201t55 201q53 91 144 144q93 55 201 55t201 -55q91 -53 144 -144q55 -93 55 -201t-55 -201q-53 -91 -144 -144q-93 -55 -201 -55zM500 700q-95 0 -177 -48q-79 -46 -125 -125q-48 -82 -48 -177t48 -177
q46 -79 125 -125q82 -48 177 -48t177 48q79 46 125 125q48 82 48 177t-48 177q-46 79 -125 125q-82 48 -177 48zM500 200q-49 0 -90.5 24.5t-66 66t-24.5 90.5t24.5 91t66 66.5t90.5 24.5t90.5 -24.5t66 -66.5t24.5 -91t-24.5 -90.5t-66 -66t-90.5 -24.5zM500 513
q-35 0 -65.5 -18t-48 -48.5t-17.5 -65.5t17.5 -65.5t48 -48t65.5 -17.5t65.5 17.5t48 48t17.5 65.5t-17.5 65.5t-48 48.5t-65.5 18zM750 47q-14 0 -22 12q-34 67 -94.5 104.5t-133.5 37.5t-134 -38q-67 -41 -94 -104q-4 -9 -13 -11.5t-18.5 2t-12 13.5t2.5 18q19 37 48.5 69
t64.5 53q73 45 159.5 45t159.5 -45q35 -21 64 -53t48 -69q4 -9 1 -17.5t-10 -13.5q-4 0 -11 -2z" />
    <glyph glyph-name="tag" unicode="&#xe85b;" 
d="M542 -117q-21 0 -29 4l-3 1q-15 9 -22 16l-409 409q-7 7 -11.5 15t-4.5 14l-1 10q-3 19 1 27l62 317q0 13 8.5 21t20.5 8l317 63q8 3 25 1l12 -1q7 0 15 -5q5 -3 13 -10l412 -412q10 -12 15 -23q3 -6 4 -13v-17q0 -20 -4 -29l-3 -5q-8 -13 -14 -20l-354 -354
q-12 -10 -25 -17q-6 3 -17 1zM142 367l396 -396l337 342l-396 395l-279 -58zM479 750v0v0zM329 475q19 0 32.5 13.5t13.5 32.5t-13.5 32.5t-32.5 13.5t-32.5 -13.5t-13.5 -32.5t13.5 -32.5t32.5 -13.5z" />
    <glyph glyph-name="caretleft" unicode="&#xe85c;" horiz-adv-x="952" 
d="M595 31q-14 0 -19 5l-295 295q-7 8 -7 17t7 16l295 296q8 7 17.5 7t16.5 -7t7 -16.5t-7 -17.5l-277 -276l281 -281q8 -7 8 -16.5t-8 -16.5q-4 -5 -19 -5z" />
    <glyph glyph-name="caretright" unicode="&#xe85d;" horiz-adv-x="952" 
d="M357 31q-14 0 -19 5q-7 7 -7 16.5t7 16.5l281 281l-281 281q-4 8 -4 17t4 16t15 7t18 -7l296 -295q7 -7 7 -16.5t-7 -16.5l-296 -295q0 -10 -14 -10z" />
    <glyph glyph-name="magnifyingglass" unicode="&#xe85e;" 
d="M454 38q-98 0 -182 49q-80 48 -128 129q-48 83 -48 179.5t49 180.5q48 81 129 129q84 49 180 49t180 -49q82 -48 129 -129q50 -84 50 -180t-50 -180q-47 -81 -129 -129q-84 -49 -180 -49zM454 692q-80 0 -149 -41q-67 -39 -106 -106q-41 -69 -41 -149t39.5 -148
t105.5 -107q70 -41 151 -41t151 41q66 39 105.5 107t39.5 148t-41 149q-39 67 -106 106q-69 41 -149 41zM875 -58q-6 0 -12 2.5t-9 5.5l-191 192q-10 9 -10 22.5t10 23.5t23 9.5t22 -9.5l192 -192q10 -10 10 -23.5t-10 -22.5q-16 -8 -25 -8z" />
    <glyph glyph-name="iconmonstr-quote" unicode="&#xe85f;" 
d="M417 725v-308q0 -117 -48 -211q-46 -91 -131 -150.5t-196 -80.5l-42 92q48 18 88 59q37 38 58 87.5t21 95.5h-167v416h417zM617 -33l-48 105l8 3q46 17 84 56q35 35 55.5 81t22.5 89h-167v432h432v-316q0 -116 -46 -209.5t-132 -155.5t-203 -84zM590 63l35 -78
q111 22 193 82t126 150t44 201v300h-400v-402h166v-7q0 -46 -20 -95.5t-56 -88.5q-39 -42 -88 -62z" />
    <glyph glyph-name="chattext" unicode="&#xe860;" 
d="M515 -30h-330q-15 0 -27 4.5t-23 15.5t-15.5 23t-4.5 27v325q0 38 7.5 77.5t22 73.5t37.5 68q19 27 48 61q55 55 130 85q71 30 150.5 30t154.5 -30q35 -14 69 -37q27 -19 61 -48q55 -55 85 -130t30 -150q0 -79 -29.5 -151.5t-85.5 -128.5t-128.5 -85.5t-151.5 -29.5z
M195 45h320q63 0 122 24.5t108 70.5q46 46 70.5 104.5t24.5 125.5q0 58 -25 125q-21 56 -70 105t-105 70q-63 23 -124 24q-67 1 -121 -24l-15 -9q-33 -21 -48 -31q-24 -17 -42 -35q-49 -49 -70 -105q-14 -28 -20 -61q-5 -27 -5 -64v-320zM625 375h-235q-16 0 -28 11t-12 29
t11.5 26.5t28.5 8.5h235q16 0 28 -11t12 -28.5t-11.5 -26.5t-28.5 -9zM625 250h-235q-16 0 -28 11t-12 29.5t10.5 29t29.5 10.5h235q16 0 28 -11t12 -29t-12 -29t-28 -11z" />
    <glyph glyph-name="woman" unicode="&#xe861;" 
d="M501 -150q-103 0 -197 40q-91 39 -161 110t-107 163q-39 96 -36 201q3 99 43 190q40 88 109.5 155.5t159.5 104.5q94 37 196 36t194 -42q88 -39 155.5 -108t104.5 -158q38 -92 38 -191q0 -102 -40 -196q-38 -89 -107 -158.5t-159 -107.5q-92 -39 -193 -39zM182 -8l3 15
l5 25q5 22 12 40q6 14 19 26q10 8 27 17q30 16 82 31q18 5 30 12q9 4 9 9.5t-8 10.5q-6 4 -9 5q-48 24 -66 81q-20 61 -8 142q5 41 19 95q14 64 40 104t67 57.5t88 7.5q8 -2 17 0l22 3q82 4 130 -65q19 -28 36 -81q25 -82 29 -151q2 -33 0 -58q-3 -31 -12 -57t-22 -43
q-15 -20 -38 -31l-19 -12q-8 -6 1 -14q2 -2 10 -6l49 -17q35 -12 52 -20q43 -18 54 -56q4 -13 11 -40l4 -19l3 -9l9 5q74 69 114 162q34 82 37 164q3 64 -8 117q-16 78 -52 142q-52 92 -140 156q-93 68 -211 85q-78 10 -143 -1q-108 -17 -197 -79q-118 -83 -171 -211
q-28 -65 -35 -137.5t8 -141.5q11 -54 33 -103q40 -88 111 -154z" />
    <glyph glyph-name="caretleftlarge" unicode="&#xe862;" horiz-adv-x="500" 
d="M313 6q-18 0 -29 19l-156 313q-4 13 0 28l156 312q5 12 17 16t24 -2t16 -18t-3 -24l-147 -300l150 -300q4 -12 0.5 -24t-13.5 -17q-6 -3 -15 -3z" />
    <glyph glyph-name="caretrightlarge" unicode="&#xe863;" horiz-adv-x="500" 
d="M188 6q-10 0 -13 3q-12 5 -15.5 17t3.5 24l146 300l-150 300q-5 10 -0.5 22t16.5 19q12 4 24 0.5t17 -13.5l156 -312q4 -15 0 -28l-156 -313q-11 -19 -28 -19z" />
    <glyph glyph-name="round-arrow-right" unicode="&#xe864;" 
d="M500 -67q113 0 210 57q95 55 150 150q57 97 57 210t-57 210q-55 95 -150 150q-97 57 -210 57t-210 -57q-95 -55 -150 -150q-57 -97 -57 -210t57 -210q55 -95 150 -150q97 -57 210 -57zM520 497q9 9 22 9t22 -9l125 -125q9 -9 9 -22t-9 -22l-125 -125q-9 -9 -22 -9
t-22.5 9t-9.5 22t10 22l71 72h-258q-13 0 -22 9t-9 22t9 22t22 9h258l-71 72q-10 9 -10 22t10 22z" />
    <glyph glyph-name="play" unicode="&#xe865;" 
d="M908 403l-563 344q-13 9 -31.5 9t-32.5 -8t-22 -23q-9 -13 -9 -31v-688q0 -17 9 -31q8 -15 22 -23t32.5 -8t31.5 9l563 344q13 7 21 21t8 32t-8 32t-21 21z" />
    <glyph glyph-name="paperplaneright" unicode="&#xe866;" horiz-adv-x="960" 
d="M176 -74h-4q-20 0 -31.5 11.5t-15.5 16.5q-6 8 -9 16q-6 18 0 36l120 336l-116 332q-6 18 0 36q0 16 16 32q12 12 32 12q12 0 18 -1q10 -2 18 -7l632 -356q12 -6 24 -24q8 -16 8 -32q0 -9 -6 -25l-2 -7q-6 -12 -24 -24l-632 -344q-16 -8 -28 -8zM176 698l120 -336
q3 -9 3 -20t-3 -20l-120 -336l632 356zM808 342v0v0v0zM512 310h-240q-13 0 -22.5 9t-9.5 23q0 28 32 28h240q13 0 22.5 -9t9.5 -23t-9.5 -21t-22.5 -7z" />
    <glyph glyph-name="dotsthreefill" unicode="&#xe867;" horiz-adv-x="960" 
d="M585 341q0 -32 -17.5 -58t-48.5 -38.5t-59 -6.5q-33 8 -54 29q-23 23 -29 54t6 60.5t38.5 47t58.5 17.5q21 0 40.5 -8t34 -22.5t22.5 -34t8 -40.5zM180 446q-32 0 -58.5 -17.5t-38.5 -47t-6 -60.5t29 -54q21 -21 54 -29q28 -6 59 6.5t48.5 38.5t17.5 58q0 21 -8 40.5
t-22.5 34t-34 22.5t-40.5 8zM780 446q-32 0 -58.5 -17.5t-38.5 -47t-6 -60.5t29 -54q21 -21 54 -29q28 -6 59 6.5t48.5 38.5t17.5 58q0 21 -8 40.5t-22.5 34t-34 22.5t-40.5 8z" />
    <glyph glyph-name="chatscircle" unicode="&#xe869;" 
d="M375 147q-77 0 -147 37l-90 -25q-10 -4 -22 0l-19 10q-9 9 -9 19q-6 8 0 21l25 91q-53 96 -35 200q15 55 43 98q30 48 72.5 80.5t94.5 48.5t106 14t103 -25t87 -63q38 -38 61 -87.5t27 -102.5q2 -54 -14 -106t-48.5 -94t-79.5 -71t-99 -39q-36 -6 -56 -6zM231 219
q7 0 10 -3q41 -26 90 -34q46 -7 94 2.5t90 34.5t69 62q30 37 44.5 83.5t12.5 95t-22.5 92t-55.5 79t-78.5 54.5t-93.5 24q-48 3 -94.5 -11.5t-83.5 -44.5q-40 -30 -65.5 -71t-34.5 -87.5t-1 -94.5t32 -91q3 -3 3 -12l-28 -97v-4q1 -2 3 -2l3 -3h3l97 28h6zM625 -41
q-49 0 -103 19q-57 22 -109 69q-43 38 -69 109q-4 15 10 19t18 -9q18 -56 62 -99.5t97 -63.5q64 -20 116 -16q30 3 57 12q30 10 52 26q3 3 13 3l97 -28h5q1 1 1 3t2 3h1v3l-28 97q0 10 3 13q38 69 38 128q0 73 -32 131q-33 61 -90 100q-55 36 -128 41q-7 0 -11.5 5t-4.5 10
t5.5 10.5t10.5 5.5q78 -5 142.5 -46.5t103.5 -109.5q19 -33 28 -71.5t7 -75.5q0 -67 -38 -138l25 -90q4 -9 0 -22l-9 -19q-2 -4 -8 -6.5t-11 -2.5q-8 -4 -22 0l-90 25q-69 -34 -119 -38q-3 3 -22 3z" />
    <glyph glyph-name="gear" unicode="&#xe86a;" 
d="M500 138q-57 0 -106 28t-77.5 77t-28.5 106.5t28 106.5t77 78t106.5 29t106.5 -28.5t78 -77.5t29 -106.5t-29 -106t-78 -77.5t-106 -29zM500 513q-45 0 -82 -22.5t-58.5 -59.5t-21.5 -81t22 -81.5t59.5 -59t81.5 -21.5t81 22t59 59.5t22 81.5t-21.5 81.5t-59 59
t-82.5 21.5zM394 -66h-6q-46 13 -100 41q-8 3 -13 16l-12 97q-7 6 -19 18l-97 16q-4 0 -9 3.5t-7 8.5q-26 45 -40 100q-2 5 -1 10.5t4 8.5l59 81v25l-65 85q-7 11 -4 19q13 44 41 100q12 12 19 12l97 13l18 18l13 97q0 4 3.5 9t8.5 7q41 24 100 40q5 3 10.5 1.5t8.5 -4.5
l78 -59h25l88 66q6 3 10 4t9 -1q44 -13 100 -41q7 -3 12 -16l16 -96q6 -7 18 -19l97 -13q5 0 9.5 -3.5t6.5 -8.5q22 -36 41 -100q2 -4 0.5 -10.5t-4.5 -8.5l-59 -81v-25l59 -78q4 -6 5 -10.5t-1 -8.5q-14 -48 -41 -100q-3 -5 -14 -12l-2 -1l-100 -15l-18 -19l-16 -100
q0 -4 -4 -9t-9 -7q-44 -26 -100 -40q-4 -2 -9.5 -1t-8.5 4l-78 59h-25l-82 -69q-1 0 -4.5 -1.5t-7.5 -1.5zM319 13q26 -15 69 -29l78 57q3 3 7 4t8 -1h38q12 0 15 -3l79 -57q36 10 68 29l13 93q0 5 4 12l2 4l28 28q2 2 6.5 4t6.5 2l93 13q15 26 29 69l-57 78q-3 3 -4 7t1 8
v38q0 5 1 8t5 7l57 79q-10 34 -28 68l-94 13q-5 0 -12 4l-4 2q-10 15 -25 28q-2 2 -4 7t-2 9l-13 94q-25 14 -68 28l-78 -57q-9 -7 -16 -3h-38q-12 0 -15 3l-78 57q-36 -10 -69 -28l-13 -94q0 -5 -4 -12l-2 -4q-18 -11 -31 -25q-4 -9 -16 -9l-93 -13q-15 -25 -29 -68l57 -79
q3 -3 4 -7t-1 -8v-38q0 -9 -3 -15l-57 -78q11 -38 29 -69l93 -13q5 0 12 -4l4 -2q9 -12 25 -28q6 -6 6 -16z" />
    <glyph glyph-name="crownsimple" unicode="&#xe86b;" 
d="M206 38h-6q-10 0 -22 6q-10 5 -15 15l-10 19l-100 425q-4 14 0 31q4 13 16 25l11 4q14 6 20 6q22 0 28 -3l197 -88h6q2 0 3 2v1l116 207q5 7 15 17l4 4q11 8 26.5 8t29.5 -8q15 -10 19 -21l115 -207q0 -2 2 -3h8l197 88q15 3 34 3q11 0 28 -13q7 -4 11 -11q2 -5 5 -14
q4 -13 0 -31l-100 -422l-10 -19q-2 -4 -9 -9l-6 -6q-12 -6 -22 -6h-22q-136 38 -278 38t-278 -38h-13zM200 91v-2v2l3 -3v-4h6q143 41 291 41t291 -41h6l2 1q1 1 1 3v3l100 422v5q-1 1 -3 1h-1q-2 1 -2 3h-3l-197 -88q-16 -8 -41 -3q-9 2 -18 9t-13 16l-116 207l-3 3h-9
l-3 -3l-116 -207q-4 -9 -13 -16t-18 -9q-22 -6 -41 3l-197 88h-4q-2 -1 -2 -3l-3 -3v-3z" />
    <glyph glyph-name="currencycircledollar" unicode="&#xe86c;" 
d="M500 481q-10 0 -17.5 7t-7.5 18v63q0 10 7 17.5t18.5 7.5t18 -7t6.5 -18v-63q0 -9 -7.5 -17t-17.5 -8zM500 106q-10 0 -17.5 7t-7.5 18v63q0 10 7 17.5t18.5 7.5t18 -7t6.5 -18v-63q0 -9 -7.5 -17t-17.5 -8zM500 -50q-108 0 -201 55q-91 53 -144 144q-55 93 -55 201
t55 201q53 91 144 144q93 55 201 55t201 -55q91 -53 144 -144q55 -93 55 -201t-55 -201q-53 -91 -144 -144q-93 -55 -201 -55zM500 700q-95 0 -177 -48q-79 -46 -125 -125q-48 -82 -48 -177t48 -177q46 -79 125 -125q82 -48 177 -48t177 48q79 46 125 125q48 82 48 177
t-48 177q-46 79 -125 125q-82 48 -177 48zM547 169h-141q-10 0 -17.5 7t-7.5 18.5t7 18t18 6.5h141q22 0 37 15q7 7 11.5 17.5t4.5 20.5t-4.5 20t-11.5 17t-17.5 11.5t-19.5 4.5h-94q-45 0 -72 31q-31 33 -31 72q0 45 31 72q31 31 72 31h141q10 0 17.5 -7t7.5 -18.5t-7 -18
t-18 -6.5h-141q-22 0 -37 -15q-7 -7 -11.5 -17.5t-4.5 -20.5t4.5 -20t11.5 -17t17.5 -11.5t19.5 -4.5h94q45 0 72 -31q31 -31 31 -72q0 -45 -31 -72q-18 -15 -34 -23q-18 -8 -38 -8z" />
    <glyph glyph-name="eye" unicode="&#xe86d;" 
d="M500 47q-133 0 -245 65q-82 48 -148 129q-34 43 -62 94l-4 6q-4 9 0 18q0 1 6 14q9 16 20 34q15 24 34 47q22 28 48 54q30 29 63 53q38 27 79 47q46 21 96 33q55 12 113 12q133 0 245 -65q82 -48 148 -129q34 -43 62 -94l4 -6q6 -9 0 -18l-2 -4q-25 -47 -59 -90
q-65 -83 -148 -132q-113 -68 -250 -68zM88 350q22 -45 59 -89q58 -70 134 -112q99 -55 219 -55t220 56q75 42 134 113q35 42 59 87q-25 46 -59 88q-59 72 -134 114q-100 57 -219 57t-219 -57q-75 -42 -134 -114q-36 -43 -60 -88zM500 169q-49 0 -90.5 24.5t-66 66
t-24.5 90.5t24.5 90.5t66 66t90.5 24.5t90.5 -24.5t66 -66t24.5 -90.5t-24.5 -90.5t-66 -66t-90.5 -24.5zM500 481q-35 0 -65.5 -17.5t-48 -48t-17.5 -65.5t17.5 -65.5t48 -48t65.5 -17.5t65.5 17.5t48 48t17.5 65.5t-17.5 65.5t-48 48t-65.5 17.5z" />
    <glyph glyph-name="eyeslash" unicode="&#xe86e;" 
d="M813 -19q-7 0 -19 6l-625 688q-5 10 -4.5 20.5t7.5 17.5t17 6t17 -10l625 -687q8 -7 8 -17t-8 -18q-12 -6 -18 -6zM500 169h-9q-36 2 -68 17t-56.5 42t-37 60t-10.5 68.5t17 67.5t42 57q8 8 18 7.5t17 -10.5q7 -7 6 -17t-10 -17q-38 -38 -43 -91q-2 -26 6.5 -51t27.5 -46
q39 -38 91 -43q25 -3 50 6t47 28q7 7 17 7t17 -7t7 -17t-7 -17q-27 -20 -57 -31q-34 -13 -65 -13zM503 47h-3q-133 0 -245 65q-82 48 -148 129q-34 43 -62 94l-4 6q-4 9 0 18q8 19 26 48q33 52 77 97q60 62 134 99q9 4 17.5 1t13.5 -11t2 -16.5t-11 -13.5q-82 -43 -147 -118
q-39 -46 -65 -95q22 -45 59 -89q58 -70 134 -112q99 -55 219 -55q109 0 200 47q9 4 17.5 1t13.5 -11t2 -17t-11 -14q-99 -53 -219 -53zM816 166q-7 0 -19 6q-7 7 -5.5 17t8.5 17q41 37 75 84q23 31 38 60q-22 44 -59 89q-59 70 -134 112q-100 55 -220 55q-28 0 -78 -6
q-10 -2 -18 3.5t-10 15t3.5 18t15.5 10.5q56 6 84 6q133 0 245 -65q82 -48 148 -129q34 -43 62 -94l4 -6q5 -9 0 -18l-4 -7q-49 -96 -124 -162q-6 -6 -12 -6zM656 341q-9 0 -15.5 6t-6.5 16q-5 44 -34 78q-26 30 -72 40q-9 2 -15 10.5t-4 17.5t11 15t18 4q50 -8 100 -56
q19 -21 31.5 -48.5t14.5 -54.5q-4 -24 -28 -28v0z" />
    <glyph glyph-name="musicnotes" unicode="&#xe86f;" 
d="M703 44q-35 0 -65.5 17.5t-48 48t-17.5 65.5t17.5 65.5t48 48t65.5 17.5t65.5 -17.5t48 -48t17.5 -65.5t-17.5 -65.5t-48 -48t-65.5 -17.5zM703 263q-36 0 -61.5 -25.5t-25.5 -62.5t25 -62t62.5 -25t62.5 25t25 62t-26 62.5t-62 25.5zM203 -81q-35 0 -65.5 17.5t-48 48
t-17.5 65.5t17.5 65.5t48 48t65.5 17.5t65.5 -17.5t48 -48t17.5 -65.5t-17.5 -65.5t-48 -48t-65.5 -17.5zM203 138q-36 0 -61.5 -25.5t-25.5 -63t25 -62.5t62.5 -25t62.5 25.5t25 62.5t-26 62.5t-62 25.5zM313 388q-8 0 -14 4.5t-8 14t2 17.5t13 10l500 125q10 3 18 -1.5
t10 -13.5t-2 -17.5t-13 -10.5l-500 -125q-1 0 -2.5 -1.5t-3.5 -1.5zM313 31q-10 0 -17.5 7t-7.5 18v544q0 7 4.5 13.5t13.5 8.5l500 125q5 2 10.5 1t9 -3.5t6 -8.5t2.5 -11v-547q0 -10 -7 -17.5t-18.5 -7.5t-18 7t-6.5 18v516l-446 -113v-528q0 -9 -8 -15.5t-17 -6.5z" />
    <glyph glyph-name="paperplanetilt" unicode="&#xe870;" horiz-adv-x="1042" 
d="M895 724q-11 11 -28 16t-33 0l-728 -205q-19 -6 -31 -21.5t-14.5 -34.5t7.5 -36t28 -25l304 -144l209 208q8 9 21.5 9t22.5 -9t9 -22t-9 -22l-208 -208l144 -305q8 -17 24 -26.5t32 -9.5q4 0 6 1q20 2 34.5 14t20.5 31l205 728q5 17 0 33.5t-16 27.5z" />
    <glyph glyph-name="caretcircledoubledown" unicode="&#xe871;" 
d="M500 702q-95 0 -177 -48q-80 -47 -127 -127q-48 -82 -48 -177t48 -177q47 -80 127 -127q82 -48 177 -48t177 48q80 47 127 127q48 82 48 177t-48 177q-47 80 -127 127q-82 48 -177 48zM102 350q0 108 54 201q53 90 143 143q93 54 201 54t201 -54q90 -53 143 -143
q54 -93 54 -201t-54 -201q-53 -90 -143 -143q-93 -54 -201 -54t-201 54q-90 53 -143 143q-54 93 -54 201zM358 523q8 7 17.5 7t16.5 -7l108 -109l108 109q8 7 17.5 7t16.5 -7t7 -16.5t-7 -16.5l-125 -125q-7 -7 -16.5 -7t-17.5 7l-125 125q-7 7 -7 16.5t7 16.5zM358 304
q8 7 17.5 7t16.5 -7l108 -108l108 108q8 7 17.5 7t16.5 -7t7 -16.5t-7 -16.5l-125 -125q-7 -7 -16.5 -7t-17.5 7l-125 125q-7 7 -7 16.5t7 16.5z" />
    <glyph glyph-name="plus" unicode="&#xe88c;" horiz-adv-x="952" 
d="M476 -12q-15 0 -26.5 10.5t-11.5 27.5v291h-290q-15 0 -26.5 10.5t-11.5 28t10 27.5t28 10h290v286q0 15 10.5 26.5t28 11.5t27.5 -10.5t10 -27.5v-291h291q15 0 26.5 -10.5t11.5 -28t-10 -27.5t-28 -10h-291v-291q0 -14 -11.5 -23.5t-26.5 -9.5z" />
    <glyph glyph-name="minus" unicode="&#xf4bf;" 
d="M844 319h-688q-13 0 -22 9t-9 22t9 22t22 9h688q13 0 22 -9t9 -22t-9 -22t-22 -9z" />
  </font>
</defs>
</svg>
