<?xml version="1.0" standalone="no"?>
<!DOCTYPE svg PUBLIC "-//W3C//DTD SVG 1.1//EN" "http://www.w3.org/Graphics/SVG/1.1/DTD/svg11.dtd" >
<svg xmlns="http://www.w3.org/2000/svg" xmlns:xlink="http://www.w3.org/1999/xlink" version="1.1">
<metadata>
Created by FontForge 20201107 at Mon Feb 24 07:31:57 2025
 By 
Copyright (c) 2022 by Lewis MacDonald. All rights reserved.
</metadata>
<defs>
<font id="SpoofTrial-Regular" horiz-adv-x="2363" >
  <font-face 
    font-family="Spoof Trial Thin"
    font-weight="400"
    font-stretch="normal"
    units-per-em="2048"
    panose-1="0 0 0 0 0 0 0 0 0 0"
    ascent="1638"
    descent="-410"
    x-height="1024"
    cap-height="1434"
    bbox="-104 -559.459 3507 2003"
    underline-thickness="102"
    underline-position="-255"
    unicode-range="U+0020-1F354"
  />
<missing-glyph horiz-adv-x="1345" 
d="M164 -1v1434h1018v-1434h-1018zM360 183h625v1067h-625v-1067z" />
    <glyph glyph-name=".notdef" horiz-adv-x="1345" 
d="M164 -1v1434h1018v-1434h-1018zM360 183h625v1067h-625v-1067z" />
    <glyph glyph-name=".null" horiz-adv-x="0" 
 />
    <glyph glyph-name="nonmarkingreturn" horiz-adv-x="682" 
 />
    <glyph glyph-name="space" unicode=" " horiz-adv-x="542" 
 />
    <glyph glyph-name="exclam" unicode="!" horiz-adv-x="645" 
d="M234 469l-12 965h201l-12 -965h-177zM164 125q0 63 45.5 104.5t113.5 41.5t113 -41.5t45 -104.5t-45 -104t-113 -41t-113.5 41t-45.5 104z" />
    <glyph glyph-name="quotedbl" unicode="&#x22;" horiz-adv-x="792" 
d="M158 953l-13 481h173l-13 -481h-147zM474 1434h173l-13 -481h-148z" />
    <glyph glyph-name="numbersign" unicode="#" horiz-adv-x="1773" 
d="M516 0l6 373h-364v161h365l6 366h-371v161h373l6 373h166l-5 -373h398l5 373h168l-6 -373h352v-161h-354l-6 -366h360v-161h-362l-5 -373h-168l6 373h-397l-6 -373h-167zM691 534h398l5 366h-398z" />
    <glyph glyph-name="dollar" unicode="$" horiz-adv-x="1357" 
d="M615 -205v212q-248 28 -387.5 187t-127.5 396h212q-12 -166 72 -275t239 -136v538l-34 5q-189 29 -281.5 112.5t-92.5 225.5q0 158 107.5 257.5t292.5 112.5v208h162v-215q158 -24 256 -116.5t112 -235.5l-202 -1q-13 70 -58 118.5t-115 69.5v-388l78 -11
q412 -61 412 -397q0 -194 -129.5 -317.5t-353.5 -140.5v-209h-162zM409 1075q0 -75 52.5 -118.5t156.5 -63.5v378q-96 -11 -152.5 -62.5t-56.5 -133.5zM774 174q135 13 211.5 86.5t76.5 188.5q0 109 -64 164.5t-192 76.5l-32 5v-521z" />
    <glyph glyph-name="percent" unicode="%" horiz-adv-x="1974" 
d="M381 0l1013 1434h199l-1012 -1434h-200zM169 1115q0 145 100.5 242t251.5 97t251.5 -96.5t100.5 -242.5t-100.5 -243t-251.5 -97t-251.5 97t-100.5 243zM336 1115q0 -81 52.5 -133.5t132.5 -52.5q81 0 134 52.5t53 133.5q0 80 -53 132.5t-134 52.5q-79 0 -132 -53
t-53 -132zM1101 319q0 146 100.5 242.5t251.5 96.5t251.5 -96.5t100.5 -242.5t-100 -242.5t-252 -96.5t-252 96.5t-100 242.5zM1268 319q0 -81 52 -133.5t133 -52.5t133.5 52.5t52.5 133.5q0 80 -52.5 133t-133.5 53t-133 -53t-52 -133z" />
    <glyph glyph-name="ampersand" unicode="&#x26;" horiz-adv-x="1587" 
d="M579 -20q-179 0 -294.5 103.5t-115.5 262.5q0 249 313 414q-184 168 -184 348q0 155 108.5 250.5t282.5 95.5t283.5 -95t109.5 -241q0 -230 -322 -394l267 -288l337 364v-240l-221 -241l306 -319h-241l-184 199q-29 -30 -50 -50t-68 -55.5t-90.5 -57t-107 -39
t-129.5 -17.5zM356 357q0 -91 66.5 -152t172.5 -61q152 0 315 170l-312 335q-127 -67 -184.5 -138t-57.5 -154zM482 1092q0 -134 177 -263q123 65 182 131.5t59 139.5q0 83 -58.5 136.5t-150.5 53.5q-93 0 -151 -55t-58 -143z" />
    <glyph glyph-name="quotesingle" unicode="'" horiz-adv-x="462" 
d="M158 953l-13 481h173l-13 -481h-147z" />
    <glyph glyph-name="parenleft" unicode="(" horiz-adv-x="950" 
d="M656 -253q-230 0 -365.5 139t-135.5 371v921q0 231 135.5 370t365.5 139q56 0 123 -10v-174q-53 11 -107 11q-154 0 -242 -88.5t-88 -241.5v-933q0 -154 88 -243t242 -89q54 0 107 11v-174q-60 -9 -123 -9z" />
    <glyph glyph-name="parenright" unicode=")" horiz-adv-x="950" 
d="M295 -253q-63 0 -123 9v174q53 -11 108 -11q154 0 241.5 89t87.5 243v933q0 153 -87.5 241.5t-241.5 88.5q-55 0 -108 -11v174q67 10 123 10q230 0 366 -139t136 -370v-921q0 -232 -136 -371t-366 -139z" />
    <glyph glyph-name="asterisk" unicode="*" horiz-adv-x="1247" 
d="M454 554l-133 77l129 211l86 108l-139 -19l-246 -7v154l246 -6l139 -19l-86 108l-129 211l133 77l117 -217l53 -130l52 130l118 217l134 -77l-129 -211l-87 -108l139 19l246 6v-154l-246 7l-139 19l87 -108l129 -211l-134 -77l-118 216l-52 131l-53 -131z" />
    <glyph glyph-name="plus" unicode="+" horiz-adv-x="1161" 
d="M496 214v397h-399v171h399v397h169v-397h399v-171h-399v-397h-169z" />
    <glyph glyph-name="comma" unicode="," horiz-adv-x="673" 
d="M170 -104q205 -21 223 123q-34 -27 -86 -27q-59 0 -97.5 38.5t-38.5 94.5q0 63 45 104.5t117 41.5q85 0 134 -55.5t49 -154.5q0 -146 -90 -216.5t-256 -50.5v102z" />
    <glyph glyph-name="hyphen" unicode="-" horiz-adv-x="942" 
d="M97 485v179l748 -1v-178h-748z" />
    <glyph glyph-name="period" unicode="." horiz-adv-x="630" 
d="M315 -20q-68 0 -113 41t-45 104t45 104.5t113 41.5t113.5 -41.5t45.5 -104.5t-45.5 -104t-113.5 -41z" />
    <glyph glyph-name="slash" unicode="/" horiz-adv-x="917" 
d="M48 -41l602 1516h184l-603 -1516h-183z" />
    <glyph glyph-name="zero" unicode="0" horiz-adv-x="1744" 
d="M872 -20q-213 0 -386.5 96t-272 264.5t-98.5 376.5t98.5 376.5t272 264.5t386.5 96t386.5 -96t272 -264.5t98.5 -376.5t-98.5 -376.5t-272 -264.5t-386.5 -96zM307 717q0 -190 108 -335l790 790q-142 104 -333 104q-245 0 -405 -158.5t-160 -400.5zM540 261
q140 -103 332 -103q244 0 404.5 158.5t160.5 400.5q0 192 -107 335z" />
    <glyph glyph-name="one" unicode="1" horiz-adv-x="798" 
d="M436 0v1071h-327v161l173 6q77 4 115 41.5t45 117.5l3 37h183v-1434h-192z" />
    <glyph glyph-name="two" unicode="2" horiz-adv-x="1339" 
d="M121 0v146l502 402q-193 5 -323 131t-130 318q0 198 139.5 327.5t353.5 129.5q213 0 352 -128.5t139 -323.5q0 -142 -82.5 -253t-254.5 -234l-422 -335h823v-180h-1097zM360 989q0 -128 87 -212t218 -84t216.5 84t85.5 211t-85.5 210t-217.5 83t-218 -82t-86 -210z" />
    <glyph glyph-name="three" unicode="3" horiz-adv-x="1361" 
d="M687 -20q-259 0 -417.5 153t-154.5 407h202q1 -174 104 -278t271 -104q158 0 254 89t96 235q0 147 -98 238t-257 91q-116 0 -204 -44l-80 139q200 147 502 359q-154 -5 -409 -5h-326v174h969v-176l-440 -305q14 2 44 2q223 0 362 -131.5t139 -343.5q0 -222 -154.5 -361
t-402.5 -139z" />
    <glyph glyph-name="four" unicode="4" horiz-adv-x="1419" 
d="M710 0v691h-580v743h195v-578h387v475h194v-475h423v-165h-423v-691h-196z" />
    <glyph glyph-name="five" unicode="5" horiz-adv-x="1366" 
d="M687 -20q-256 0 -413 148.5t-156 390.5h203q2 -165 103 -263.5t266 -98.5q158 0 254.5 90.5t96.5 238.5q0 149 -99.5 241t-254.5 92q-175 0 -285 -127h-189l24 742h896v-174h-732l-15 -389q133 118 345 118q144 0 260.5 -61t184.5 -175.5t68 -262.5q0 -227 -154.5 -368.5
t-402.5 -141.5z" />
    <glyph glyph-name="six" unicode="6" horiz-adv-x="1349" 
d="M551 963q63 31 163 31q145 0 262.5 -64t184.5 -178.5t67 -257.5q0 -223 -156.5 -368.5t-399.5 -145.5q-242 0 -396.5 144.5t-154.5 365.5q0 62 15 122.5t33 103t52 94.5t53.5 76t55.5 68l400 480h231zM323 496q0 -149 98 -244t252 -95t252.5 94.5t98.5 244.5t-98.5 245.5
t-252.5 95.5q-155 0 -252.5 -96t-97.5 -245z" />
    <glyph glyph-name="seven" unicode="7" horiz-adv-x="1167" 
d="M325 0l517 1250h-726v184h932v-168l-511 -1266h-212z" />
    <glyph glyph-name="eight" unicode="8" horiz-adv-x="1318" 
d="M660 -20q-244 0 -395.5 116.5t-151.5 303.5q0 139 83 236.5t228 135.5q-112 37 -175 117t-63 194q0 164 131.5 267.5t341.5 103.5q211 0 342.5 -104.5t131.5 -267.5q0 -113 -63 -193t-175 -117q145 -38 228 -135.5t83 -236.5q0 -187 -151.5 -303.5t-394.5 -116.5z
M319 419q0 -121 94 -197t246 -76q153 0 246 76t93 197q0 120 -93.5 194t-244.5 74q-152 0 -246.5 -73.5t-94.5 -194.5zM387 1069q0 -96 75.5 -155.5t197.5 -59.5t196.5 59t74.5 156t-74.5 157.5t-196.5 60.5t-197.5 -60.5t-75.5 -157.5z" />
    <glyph glyph-name="nine" unicode="9" horiz-adv-x="1349" 
d="M798 471q-65 -32 -163 -32q-145 0 -262.5 64.5t-184.5 179t-67 257.5q0 223 156.5 368.5t399.5 145.5q242 0 396.5 -145t154.5 -366q0 -62 -15 -122.5t-33 -103t-52 -94.5t-53.5 -76t-55.5 -68l-401 -479h-230zM325 938q0 -150 98.5 -245.5t252.5 -95.5q155 0 252.5 96
t97.5 245t-98 244t-252 95t-252.5 -94.5t-98.5 -244.5z" />
    <glyph glyph-name="colon" unicode=":" horiz-adv-x="630" 
d="M315 -20q-68 0 -113 41t-45 104t45 104.5t113 41.5t113.5 -41.5t45.5 -104.5t-45.5 -104t-113.5 -41zM157 794q0 63 45 104.5t113 41.5t113.5 -41.5t45.5 -104.5t-45.5 -104.5t-113.5 -41.5t-113 41.5t-45 104.5z" />
    <glyph glyph-name="semicolon" unicode=";" horiz-adv-x="669" 
d="M328 648q-68 0 -113.5 41.5t-45.5 104.5t45.5 104.5t113.5 41.5t113 -41.5t45 -104.5t-45 -104.5t-113 -41.5zM167 -206v102q205 -21 223 123q-34 -27 -86 -27q-59 0 -97.5 38.5t-38.5 94.5q0 63 45 104.5t117 41.5q85 0 134 -55.5t49 -154.5q0 -146 -90 -216.5
t-256 -50.5z" />
    <glyph glyph-name="less" unicode="&#x3c;" horiz-adv-x="1234" 
d="M1048 274l-872 287v270l872 287v-190l-701 -218v-27l701 -218v-191z" />
    <glyph glyph-name="equal" unicode="=" horiz-adv-x="1040" 
d="M97 415v173h845v-173h-845zM97 804v173h845v-173h-845z" />
    <glyph glyph-name="greater" unicode="&#x3e;" horiz-adv-x="1234" 
d="M188 274v191l701 218v27l-701 218v190l872 -287v-270z" />
    <glyph glyph-name="question" unicode="?" horiz-adv-x="1136" 
d="M559 433q-175 0 -281 83.5t-106 223.5q0 212 263 248l231 32q149 19 149 128q0 74 -62.5 119t-163.5 45q-111 0 -183.5 -55.5t-80.5 -148.5h-175q4 157 124 251.5t311 94.5q181 0 290.5 -86.5t109.5 -229.5q0 -216 -270 -252l-226 -31q-147 -19 -147 -126
q0 -70 59.5 -113.5t153.5 -43.5q100 0 166.5 48t79.5 130h174q-8 -144 -122 -230.5t-294 -86.5zM410 125q0 63 45 104.5t113 41.5t113.5 -41.5t45.5 -104.5t-45.5 -104t-113.5 -41t-113 41t-45 104z" />
    <glyph glyph-name="at" unicode="@" horiz-adv-x="2154" 
d="M1093 -416q-200 0 -371 65t-292.5 180.5t-190.5 282t-69 362.5q0 260 117.5 462.5t327 313.5t477.5 111q196 0 363 -62t283.5 -170.5t182.5 -261t66 -329.5q0 -221 -101 -349.5t-267 -128.5q-96 0 -164.5 44.5t-99.5 126.5q-46 -92 -136.5 -143.5t-208.5 -51.5
q-181 0 -300.5 123t-119.5 308q0 186 118 310.5t294 124.5q110 0 193.5 -48t124.5 -135v166h174v-504q0 -80 35 -125t100 -45q90 0 144.5 84t54.5 232q0 146 -53 272t-147.5 216t-232.5 141.5t-301 51.5q-221 0 -394.5 -91t-270.5 -259t-97 -385q0 -163 56.5 -300.5
t157 -233t242 -148.5t307.5 -53q256 0 445 119v-173q-197 -100 -447 -100zM774 469q0 -121 78.5 -200t198.5 -79t198 79.5t78 199.5t-78.5 199.5t-198.5 79.5t-198 -79.5t-78 -199.5z" />
    <glyph glyph-name="A" unicode="A" horiz-adv-x="1540" 
d="M48 0l596 1434h251l597 -1434h-211l-221 543h-582l-221 -543h-209zM541 711h456l-151 370q-17 41 -72 187h-10q-36 -96 -73 -188z" />
    <glyph glyph-name="B" unicode="B" horiz-adv-x="1214" 
d="M162 0v1434h528q184 0 294.5 -101t110.5 -265q0 -115 -56 -199.5t-157 -123.5q112 -42 174 -134.5t62 -219.5q0 -175 -117.5 -283t-311.5 -108h-527zM354 168h299q122 0 194.5 69t72.5 183t-73 182t-194 68h-299v-502zM354 824h304q109 0 173.5 60t64.5 160t-64.5 161
t-173.5 61h-304v-442z" />
    <glyph glyph-name="C" unicode="C" horiz-adv-x="1751" 
d="M891 -20q-166 0 -310 56.5t-245 154.5t-159 235.5t-58 294.5q0 158 58 294.5t158.5 232.5t242.5 151t304 55q246 0 432.5 -119t249.5 -323h-217q-58 123 -183.5 191.5t-283.5 68.5q-246 0 -400.5 -155t-154.5 -394q0 -160 71.5 -287.5t200.5 -200t292 -72.5
q165 0 293 73.5t195.5 208t55.5 303.5h203q14 -161 -36 -304t-149 -244.5t-244.5 -160.5t-315.5 -59z" />
    <glyph glyph-name="D" unicode="D" horiz-adv-x="1388" 
d="M164 0v1434h371q216 0 383.5 -90t260 -253.5t92.5 -373.5t-92.5 -373.5t-260 -253.5t-383.5 -90h-371zM360 181h175q234 0 382.5 149.5t148.5 386.5t-148.5 386t-382.5 149h-175v-1071z" />
    <glyph glyph-name="E" unicode="E" horiz-adv-x="1028" 
d="M162 0v1434h737v-171h-545v-426h539v-171h-539v-495h545v-171h-737z" />
    <glyph glyph-name="F" unicode="F" horiz-adv-x="1011" 
d="M164 0v1434h732v-182h-538v-431h522v-182h-522v-639h-194z" />
    <glyph glyph-name="G" unicode="G" horiz-adv-x="1740" 
d="M879 -20q-163 0 -304 55t-241.5 152t-157.5 234.5t-57 296.5q0 212 98.5 380.5t271.5 262t388 93.5q244 0 430 -118t253 -311h-217q-61 113 -185.5 181t-281.5 68q-243 0 -399 -154.5t-156 -400.5q0 -245 156.5 -402t404.5 -157q227 0 375.5 139t168.5 370h-499v167h700
q14 -186 -34.5 -345.5t-147 -271.5t-245 -175.5t-321.5 -63.5z" />
    <glyph glyph-name="H" unicode="H" horiz-adv-x="1345" 
d="M985 -1v669h-625v-669h-196v1434h196v-582h625v582h197v-1434h-197z" />
    <glyph glyph-name="I" unicode="I" horiz-adv-x="524" 
d="M164 0v1434h196v-1434h-196z" />
    <glyph glyph-name="J" unicode="J" horiz-adv-x="1118" 
d="M540 -20q-199 0 -312 121.5t-113 338.5q0 81 11 206h199q-11 -116 -11 -199q0 -134 60.5 -208t168.5 -74q104 0 165 69.5t61 187.5v1012h197v-1010q0 -204 -114.5 -324t-311.5 -120z" />
    <glyph glyph-name="K" unicode="K" horiz-adv-x="1224" 
d="M164 0v1434h196v-658h1l526 658h239l-587 -710l600 -724h-251l-527 653h-1v-653h-196z" />
    <glyph glyph-name="L" unicode="L" horiz-adv-x="950" 
d="M164 0v1434h196v-1251h523v-183h-719z" />
    <glyph glyph-name="M" unicode="M" horiz-adv-x="1650" 
d="M164 0v1434h305l352 -1075h8l354 1075h305v-1434h-191v1212l-8 1l-376 -1090h-175l-376 1090l-8 -1v-1212h-190z" />
    <glyph glyph-name="N" unicode="N" horiz-adv-x="1376" 
d="M164 0v1434h212l646 -1144l5 1v1143h185v-1434h-212l-646 1144l-6 -1v-1143h-184z" />
    <glyph glyph-name="O" unicode="O" horiz-adv-x="1744" 
d="M872 -20q-213 0 -386.5 96t-272 264.5t-98.5 376.5t98.5 376.5t272 264.5t386.5 96t386.5 -96t272 -264.5t98.5 -376.5t-98.5 -376.5t-272 -264.5t-386.5 -96zM319 717q0 -239 157.5 -396.5t395.5 -157.5t395 157.5t157 396.5t-157 396.5t-395 157.5t-395.5 -157.5
t-157.5 -396.5z" />
    <glyph glyph-name="P" unicode="P" horiz-adv-x="1216" 
d="M164 0v1434h488q200 0 326 -118t127 -307t-124.5 -307t-328.5 -118h-292v-584h-196zM360 759h277q119 0 190.5 68.5t71.5 181.5q0 112 -71.5 179.5t-190.5 67.5h-277v-497z" />
    <glyph glyph-name="Q" unicode="Q" horiz-adv-x="1751" 
d="M1337 128q-201 -148 -465 -148q-213 0 -386.5 96t-272 264.5t-98.5 376.5t98.5 376.5t272 264.5t386.5 96t386.5 -96t272 -264.5t98.5 -376.5q0 -270 -164 -469l245 -245l-124 -124zM307 717q0 -242 160 -400.5t405 -158.5q192 0 334 103l-790 791q-109 -142 -109 -335z
M540 1174l790 -791q107 142 107 334q0 242 -160.5 400.5t-404.5 158.5q-189 0 -332 -102z" />
    <glyph glyph-name="R" unicode="R" horiz-adv-x="1320" 
d="M164 0v1434h553q188 0 303 -108.5t116 -283.5q1 -174 -110.5 -283t-293.5 -109l576 -650h-257l-557 650h-137v-650h-193zM357 798h329q115 0 183.5 64t68.5 170q0 105 -68.5 169t-183.5 64h-329v-467z" />
    <glyph glyph-name="S" unicode="S" horiz-adv-x="1394" 
d="M732 -20q-298 0 -471.5 169t-160.5 437h218q-13 -197 102 -314.5t316 -117.5q164 0 260 78t96 208q0 111 -66.5 169t-198.5 80l-223 33q-195 30 -290 116t-95 232q0 175 126.5 279.5t341.5 104.5q208 0 340.5 -100t150.5 -272l-208 -1q-19 99 -95.5 154t-193.5 55
q-118 0 -190.5 -55.5t-72.5 -148.5q0 -83 60 -127.5t179 -64.5l214 -31q213 -32 318.5 -133t105.5 -276q0 -215 -152 -344.5t-411 -129.5z" />
    <glyph glyph-name="T" unicode="T" horiz-adv-x="1142" 
d="M473 0v1250h-367v184h929v-184h-365v-1250h-197z" />
    <glyph glyph-name="U" unicode="U" horiz-adv-x="1312" 
d="M657 -20q-233 0 -370 142.5t-137 387.5v924h201v-922q0 -159 82.5 -253t224.5 -94q141 0 225 93t84 254v922h196v-924q0 -244 -136 -387t-370 -143z" />
    <glyph glyph-name="V" unicode="V" horiz-adv-x="1398" 
d="M586 0l-503 1434h212l403 -1198h5l401 1198h211l-503 -1434h-226z" />
    <glyph glyph-name="W" unicode="W" horiz-adv-x="1822" 
d="M415 0l-322 1434h204l242 -1206h7l254 1166h225l256 -1167h6l243 1207h201l-324 -1434h-230l-263 1171h-7l-257 -1171h-235z" />
    <glyph glyph-name="X" unicode="X" horiz-adv-x="1388" 
d="M1100 0l-409 604l-409 -604h-230l531 757l-474 677h237l350 -519l351 519h229l-472 -672l533 -762h-237z" />
    <glyph glyph-name="Y" unicode="Y" horiz-adv-x="1310" 
d="M557 0v559l-494 875h227l363 -671h7l364 671h223l-493 -875v-559h-197z" />
    <glyph glyph-name="Z" unicode="Z" horiz-adv-x="1222" 
d="M116 0v145l710 1110h-688v179h927v-146l-711 -1110h756v-178h-994z" />
    <glyph glyph-name="bracketleft" unicode="[" horiz-adv-x="940" 
d="M178 -233v1900h599v-172h-411v-1556h411v-172h-599z" />
    <glyph glyph-name="backslash" unicode="\" horiz-adv-x="915" 
d="M685 -41l-602 1516h183l602 -1516h-183z" />
    <glyph glyph-name="bracketright" unicode="]" horiz-adv-x="925" 
d="M762 -233h-599v172h411v1556h-411v172h599v-1900z" />
    <glyph glyph-name="asciicircum" unicode="^" horiz-adv-x="1150" 
d="M165 830l288 618h244l289 -618h-193l-200 452h-36l-200 -452h-192z" />
    <glyph glyph-name="underscore" unicode="_" horiz-adv-x="1148" 
d="M72 -196v179h954v-179h-954z" />
    <glyph glyph-name="grave" unicode="`" horiz-adv-x="1228" 
d="M763 1169h-197l-252 336h225z" />
    <glyph glyph-name="a" unicode="a" horiz-adv-x="1325" 
d="M602 -20q-219 0 -365.5 152t-146.5 380t146.5 380t365.5 152q132 0 238.5 -62t159.5 -169h1v211h190v-1024h-190v211h-1q-54 -107 -160 -169t-238 -62zM286 512q0 -158 103 -261.5t260 -103.5t260 104t103 261q0 158 -103.5 261.5t-260.5 103.5q-156 0 -259 -104
t-103 -261z" />
    <glyph glyph-name="b" unicode="b" horiz-adv-x="1347" 
d="M745 -20q-132 0 -238 62t-160 169h-1v-211h-188v1475h188v-662h1q53 107 159.5 169t238.5 62q219 0 365.5 -152t146.5 -380t-146.5 -380t-365.5 -152zM336 512q0 -157 102.5 -261t259.5 -104t260.5 103.5t103.5 261.5q0 157 -103 261t-260 104t-260 -103.5t-103 -261.5z
" />
    <glyph glyph-name="c" unicode="c" horiz-adv-x="1265" 
d="M644 -20q-245 0 -399.5 150t-154.5 383t154.5 382t395.5 149q187 0 322 -91t182 -247h-205q-39 78 -119 125t-181 47q-155 0 -254.5 -103t-99.5 -263q0 -159 99.5 -262.5t260.5 -103.5q160 0 255 105t82 267h199q13 -239 -138.5 -388.5t-398.5 -149.5z" />
    <glyph glyph-name="d" unicode="d" horiz-adv-x="1347" 
d="M602 -20q-219 0 -365.5 152t-146.5 380t146.5 380t365.5 152q132 0 238.5 -62t159.5 -169h1v662h190v-1475h-190v211h-1q-54 -107 -160 -169t-238 -62zM286 512q0 -158 103 -261.5t260 -103.5t260 104t103 261q0 158 -103.5 261.5t-260.5 103.5q-156 0 -259 -104
t-103 -261z" />
    <glyph glyph-name="e" unicode="e" horiz-adv-x="1243" 
d="M635 -20q-240 0 -392.5 151t-152.5 386q0 231 152.5 379t387.5 148q233 0 373.5 -140.5t136.5 -371.5h-864v-7q0 -170 99.5 -275t255.5 -105q140 0 233 77.5t100 199.5h194q-10 -195 -157 -318.5t-366 -123.5zM301 672h638q-27 108 -107.5 166t-202.5 58
q-124 0 -209 -59.5t-119 -164.5z" />
    <glyph glyph-name="f" unicode="f" horiz-adv-x="858" 
d="M275 0v862h-193v162h193v113q0 170 97 264t270 94q90 0 165 -21v-167q-68 17 -137 17q-105 0 -156 -49.5t-51 -151.5v-99h344v-162h-344v-862h-188z" />
    <glyph glyph-name="g" unicode="g" horiz-adv-x="1357" 
d="M646 -553q-262 0 -426.5 146t-159.5 379h186q-4 -161 107 -261t293 -100q178 0 285 97t107 256v270h-1q-51 -107 -158.5 -170.5t-245.5 -63.5q-218 0 -364 148.5t-146 372.5t146 373.5t364 149.5q135 0 242 -61t159 -166h1v207h189v-1058q0 -233 -160 -376t-418 -143z
M319 522q0 -153 103.5 -253.5t259.5 -100.5q157 0 260.5 100.5t103.5 253.5t-103.5 254t-260.5 101t-260 -101t-103 -254z" />
    <glyph glyph-name="h" unicode="h" horiz-adv-x="1228" 
d="M158 0v1475h189v-656q44 108 140 166.5t228 58.5q185 0 290 -111t105 -309v-624h-189v591q0 134 -71.5 209.5t-197.5 75.5q-135 0 -216.5 -85t-88.5 -234v-557h-189z" />
    <glyph glyph-name="i" unicode="i" horiz-adv-x="522" 
d="M167 0v1024h188v-1024h-188zM102 1374q0 63 45.5 105t113.5 42t113.5 -42t45.5 -105t-45.5 -104t-113.5 -41t-113.5 41t-45.5 104z" />
    <glyph glyph-name="j" unicode="j" horiz-adv-x="534" 
d="M172 -495v1519h189v-1519h-189zM108 1374q0 63 45 105t113 42t113.5 -42t45.5 -105t-45.5 -104t-113.5 -41t-113 41t-45 104z" />
    <glyph glyph-name="k" unicode="k" horiz-adv-x="1062" 
d="M158 0v1475h188v-920l3 -1l411 470h236l-458 -507l478 -517h-242l-425 475l-3 -1v-474h-188z" />
    <glyph glyph-name="l" unicode="l" horiz-adv-x="503" 
d="M158 0v1475h188v-1475h-188z" />
    <glyph glyph-name="m" unicode="m" horiz-adv-x="1753" 
d="M134 0v1024h189l1 -187q44 99 126.5 153t190.5 54q109 0 189 -56.5t118 -158.5q46 102 132 158.5t202 56.5q162 0 257.5 -107.5t95.5 -291.5v-645h-188v615q0 122 -59 191.5t-162 69.5q-114 0 -180.5 -80t-66.5 -218v-578h-188v615q0 122 -59.5 191.5t-162.5 69.5
q-113 0 -179.5 -82.5t-66.5 -224.5v-569h-189z" />
    <glyph glyph-name="n" unicode="n" horiz-adv-x="1204" 
d="M134 0v1024h189l1 -205q44 108 139.5 166.5t227.5 58.5q185 0 290 -111t105 -309v-624h-189v591q0 135 -71 210t-197 75q-140 0 -223 -92.5t-83 -252.5v-531h-189z" />
    <glyph glyph-name="o" unicode="o" horiz-adv-x="1288" 
d="M644 -20q-241 0 -397.5 151t-156.5 381t156.5 381t397.5 151t398 -150.5t157 -381.5t-157 -381.5t-398 -150.5zM282 512q0 -158 102.5 -262t259.5 -104t260.5 104t103.5 262t-103.5 262t-260.5 104t-259.5 -104t-102.5 -262z" />
    <glyph glyph-name="p" unicode="p" horiz-adv-x="1325" 
d="M134 -532v1556h189v-211h2q54 107 159.5 169t237.5 62q144 0 261.5 -69t184 -191t66.5 -272q0 -228 -146.5 -380t-365.5 -152q-132 0 -237.5 62t-159.5 169h-2v-743h-189zM313 512q0 -157 103 -261t260 -104t260 103.5t103 261.5q0 157 -103 261t-259 104
q-158 0 -261 -103.5t-103 -261.5z" />
    <glyph glyph-name="q" unicode="q" horiz-adv-x="1325" 
d="M1001 -532v743h-1q-54 -107 -160 -169t-238 -62q-219 0 -365.5 152t-146.5 380t146.5 380t365.5 152q132 0 238.5 -62t159.5 -169h1v211h190v-1556h-190zM286 512q0 -158 103 -261.5t260 -103.5t260 104t103 261q0 158 -103.5 261.5t-260.5 103.5q-156 0 -259 -104
t-103 -261z" />
    <glyph glyph-name="r" unicode="r" horiz-adv-x="780" 
d="M134 0v1024h181v-276h1q80 296 354 296q17 0 25 -1v-188q-9 1 -30 1q-168 0 -255 -112.5t-87 -310.5v-433h-189z" />
    <glyph glyph-name="s" unicode="s" horiz-adv-x="1112" 
d="M583 -20q-224 0 -365 121t-137 317h194q-5 -125 81.5 -203.5t228.5 -78.5q114 0 183.5 49.5t69.5 131.5q0 115 -153 136l-234 31q-59 8 -107 24.5t-89.5 46t-64.5 77t-23 109.5q0 135 107 219t282 84q174 0 279 -72.5t122 -202.5h-193q-16 59 -71.5 92t-137.5 33
q-90 0 -146 -39t-56 -104q0 -101 148 -120l232 -31q61 -9 111 -27t93 -49.5t67 -81.5t24 -115q0 -155 -123 -251t-322 -96z" />
    <glyph glyph-name="t" unicode="t" horiz-adv-x="798" 
d="M275 0v862h-194v146l64 3q73 4 107.5 41.5t38.5 116.5l8 145h163v-290h255v-162h-255v-862h-187z" />
    <glyph glyph-name="u" unicode="u" horiz-adv-x="1206" 
d="M1071 1024v-1024h-188l-1 205q-44 -108 -140 -166.5t-228 -58.5q-185 0 -290 111t-105 309v624h189v-591q0 -134 71.5 -209.5t197.5 -75.5q140 0 223 92.5t83 252.5v531h188z" />
    <glyph glyph-name="v" unicode="v" horiz-adv-x="1179" 
d="M483 0l-403 1024h204l303 -836h8l303 836h202l-405 -1024h-212z" />
    <glyph glyph-name="w" unicode="w" horiz-adv-x="1775" 
d="M428 0l-348 1024h199l249 -813h9l248 813h205l250 -815h8l250 815h198l-347 -1024h-197l-260 840h-8l-260 -840h-196z" />
    <glyph glyph-name="x" unicode="x" horiz-adv-x="1173" 
d="M71 0l412 528l-387 496h229l263 -359l260 359h226l-385 -492l414 -532h-233l-285 395l-288 -395h-226z" />
    <glyph glyph-name="y" unicode="y" horiz-adv-x="1304" 
d="M624 -553q-253 0 -404 138.5t-149 366.5h186q-5 -155 94 -248t270 -93q170 0 267 92t97 249l-1 272h-1q-43 -105 -139 -163t-230 -58q-187 0 -292.5 111.5t-105.5 309.5v600h192v-567q0 -135 71 -210t197 -75q140 0 223 91t83 247v514h188v-1071q0 -232 -148.5 -369
t-397.5 -137z" />
    <glyph glyph-name="z" unicode="z" horiz-adv-x="999" 
d="M92 0v137l559 731h-531v156h759v-137l-560 -731h588v-156h-815z" />
    <glyph glyph-name="braceleft" unicode="{" horiz-adv-x="950" 
d="M655 -253q-231 0 -375.5 139.5t-144.5 370.5q0 164 75 283t210 176v2q-135 58 -210 177t-75 283q0 231 144.5 370t375.5 139q57 0 124 -10v-174q-57 11 -111 11q-153 0 -246 -94t-93 -254q0 -166 101 -264.5t269 -98.5h22v-171h-22q-169 0 -269.5 -99t-100.5 -266
q0 -160 93 -254t246 -94q54 0 111 11v-174q-60 -9 -124 -9z" />
    <glyph glyph-name="bar" unicode="|" horiz-adv-x="622" 
d="M230 -532v1966h162v-1966h-162z" />
    <glyph glyph-name="braceright" unicode="}" horiz-adv-x="950" 
d="M295 -253q-64 0 -124 9v174q57 -11 112 -11q153 0 246 94t93 254q0 167 -101 266t-270 99h-22v171h22q168 0 269.5 98.5t101.5 264.5q0 160 -93 254t-246 94q-55 0 -112 -11v174q67 10 124 10q231 0 375.5 -139t144.5 -370q0 -164 -75 -283t-210 -177v-2
q135 -57 210 -176t75 -283q0 -231 -144.5 -370.5t-375.5 -139.5z" />
    <glyph glyph-name="asciitilde" unicode="~" horiz-adv-x="1204" 
d="M794 524q-57 0 -105 25t-109 82l-54 61q-63 66 -111 66q-84 0 -84 -111v-108h-147v119q0 126 61 196.5t167 70.5q57 0 105 -25t109 -83l52 -60q64 -67 112 -67q83 0 83 112v109h147v-120q0 -126 -60.5 -196.5t-165.5 -70.5z" />
    <glyph glyph-name="uni00A0" unicode="&#xa0;" horiz-adv-x="542" 
 />
    <glyph glyph-name="exclamdown" unicode="&#xa1;" horiz-adv-x="522" 
d="M349 555l12 -965h-200l12 965h176zM102 899q0 63 45.5 104t113.5 41t113.5 -41t45.5 -104t-45.5 -104.5t-113.5 -41.5t-113.5 41.5t-45.5 104.5z" />
    <glyph glyph-name="cent" unicode="&#xa2;" horiz-adv-x="1470" 
d="M662 0v189q-211 27 -340 172t-129 357t129.5 356t339.5 170v190h161v-190q157 -19 269.5 -107.5t153.5 -226.5h-205q-31 63 -89 106t-132 58v-717q130 24 203 124t61 242h199q13 -219 -115 -365t-345 -170v-188h-161zM387 717q0 -137 75.5 -234.5t202.5 -123.5v716
q-125 -26 -201.5 -123t-76.5 -235z" />
    <glyph glyph-name="sterling" unicode="&#xa3;" horiz-adv-x="1556" 
d="M312 0l55 675h-191v154h206l10 148q20 229 148 353t346 124q222 0 356 -124.5t132 -342.5h-213q2 136 -72.5 216t-201.5 80q-128 0 -205.5 -81.5t-88.5 -224.5l-10 -148h393v-154h-408l-36 -496h787v-179h-1007z" />
    <glyph glyph-name="currency" unicode="&#xa4;" horiz-adv-x="1527" 
d="M312 142l-123 123l161 161q-95 125 -95 291t95 291l-161 160l123 123l166 -165q125 87 286 87q163 0 286 -87l165 165l123 -123l-159 -160q95 -127 95 -291t-95 -291l159 -161l-123 -123l-165 165q-123 -87 -286 -87q-161 0 -286 87zM433 717q0 -142 94 -235.5t237 -93.5
t237 93.5t94 235.5t-94 235.5t-237 93.5t-237 -93.5t-94 -235.5z" />
    <glyph glyph-name="yen" unicode="&#xa5;" horiz-adv-x="1310" 
d="M557 0v228h-423v127h423v164h-423v127h375l-446 788h227l363 -671h7l364 671h223l-445 -788h376v-127h-424v-164h424v-127h-424v-228h-197z" />
    <glyph glyph-name="brokenbar" unicode="&#xa6;" horiz-adv-x="622" 
d="M392 319v-851h-162v851h162zM230 582v852h162v-852h-162z" />
    <glyph glyph-name="section" unicode="&#xa7;" horiz-adv-x="1816" 
d="M780 -451q-275 0 -446 155t-175 398h218q3 -173 116 -275.5t290 -102.5q155 0 248.5 79t93.5 207q0 203 -251 243l-245 35q-375 54 -375 356q0 151 93 251t258 126q-3 25 -3 53q0 177 123.5 281.5t338.5 104.5q200 0 328 -90t150 -241l-209 -1q-22 76 -93.5 120.5
t-177.5 44.5q-121 0 -191.5 -55.5t-70.5 -147.5q0 -162 230 -196l236 -34q389 -54 389 -367q0 -147 -88.5 -248.5t-246.5 -136.5q8 -42 8 -84q0 -213 -149 -344t-399 -131zM453 659q0 -164 229 -198l237 -34q220 -29 325 -151q97 13 152 68t55 139q0 168 -236 204l-239 34
q-212 30 -300 140q-104 -8 -163.5 -62.5t-59.5 -139.5z" />
    <glyph glyph-name="dieresis" unicode="&#xa8;" horiz-adv-x="1228" 
d="M412 1213q-60 0 -100 36t-40 91t40 91.5t100 36.5q59 0 98.5 -36.5t39.5 -91.5t-39.5 -91t-98.5 -36zM680 1340q0 56 39 92t99 36q59 0 98.5 -36.5t39.5 -91.5t-39.5 -91t-98.5 -36q-60 0 -99 36t-39 91z" />
    <glyph glyph-name="copyright" unicode="&#xa9;" horiz-adv-x="1845" 
d="M932 325q-183 0 -300.5 112t-117.5 282t118.5 280t295.5 110q144 0 247 -73t132 -191h-165q-24 58 -82.5 93.5t-133.5 35.5q-110 0 -180.5 -71.5t-70.5 -182.5q0 -113 71.5 -185t183.5 -72q110 0 179.5 70.5t67.5 182.5h159q7 -171 -107.5 -281t-296.5 -110zM173 717
q0 158 56.5 295t155 234t238 152.5t300.5 55.5t300.5 -55.5t238 -152.5t155 -234t56.5 -295t-56.5 -295t-155 -234t-238.5 -152.5t-301 -55.5q-214 0 -385.5 94.5t-267.5 263t-96 379.5zM308 717q0 -174 79 -312.5t219.5 -216t315.5 -77.5q176 0 316.5 77.5t219.5 216
t79 312.5t-79 312.5t-219 216t-316 77.5t-316.5 -77.5t-219.5 -216t-79 -312.5z" />
    <glyph glyph-name="guillemotleft" unicode="&#xab;" horiz-adv-x="1241" 
d="M564 279l-440 264v244l440 266v-205l-300 -182l300 -183v-204zM659 543v244l441 266v-205l-300 -182l300 -183v-204z" />
    <glyph glyph-name="uni00AD" unicode="&#xad;" horiz-adv-x="942" 
d="M97 485v179l748 -1v-178h-748z" />
    <glyph glyph-name="registered" unicode="&#xae;" horiz-adv-x="1845" 
d="M653 343v764h335q107 0 173.5 -59.5t67.5 -158.5q0 -96 -61.5 -158t-162.5 -62h-1l290 -326h-190l-277 326h-27v-326h-147zM173 717q0 158 56.5 295t155 234t238 152.5t300.5 55.5t300.5 -55.5t238 -152.5t155 -234t56.5 -295t-56.5 -295t-155 -234t-238.5 -152.5
t-301 -55.5q-214 0 -385.5 94.5t-267.5 263t-96 379.5zM308 717q0 -174 79 -312.5t219.5 -216t315.5 -77.5q176 0 316.5 77.5t219.5 216t79 312.5t-79 312.5t-219 216t-316 77.5t-316.5 -77.5t-219.5 -216t-79 -312.5zM800 760h153q56 0 88.5 30t32.5 80q0 51 -32.5 81
t-88.5 30h-153v-221z" />
    <glyph glyph-name="macron" unicode="&#xaf;" horiz-adv-x="1228" 
d="M314 1255v166h600v-166h-600z" />
    <glyph glyph-name="degree" unicode="&#xb0;" horiz-adv-x="944" 
d="M471 920q-127 0 -211.5 79t-84.5 198t84.5 198.5t211.5 79.5t211.5 -79.5t84.5 -198.5t-84.5 -198t-211.5 -79zM333 1197q0 -58 38.5 -94t99.5 -36t99.5 36t38.5 94t-38.5 94t-99.5 35q-61 1 -99.5 -35t-38.5 -94z" />
    <glyph glyph-name="acute" unicode="&#xb4;" horiz-adv-x="1228" 
d="M466 1169l224 336h224l-251 -336h-197z" />
    <glyph glyph-name="paragraph" unicode="&#xb6;" horiz-adv-x="1562" 
d="M807 0v590h-248q-200 0 -324 117.5t-123 305.5q1 187 125 304t322 117h839v-1434h-190v1264h-212v-1264h-189zM303 1013q0 -114 72.5 -183.5t190.5 -69.5h241v504h-241q-118 0 -190.5 -69.5t-72.5 -181.5z" />
    <glyph glyph-name="periodcentered" unicode="&#xb7;" horiz-adv-x="630" 
d="M315 608q-68 0 -113 41.5t-45 104.5t45 104.5t113 41.5t113.5 -41.5t45.5 -104.5t-45.5 -104.5t-113.5 -41.5z" />
    <glyph glyph-name="cedilla" unicode="&#xb8;" horiz-adv-x="1228" 
d="M624 -553q-113 0 -183 60t-69 159h134q1 -50 34.5 -79t86.5 -29q51 0 82.5 27.5t31.5 73.5q0 47 -32 75.5t-83 28.5q-61 0 -100 -42l-102 50l143 305l105 -47l-88 -175q35 11 70 11q97 0 159.5 -55.5t62.5 -146.5q0 -95 -69 -155.5t-183 -60.5z" />
    <glyph glyph-name="guillemotright" unicode="&#xbb;" horiz-adv-x="1241" 
d="M677 279v204l300 183l-300 182v205l440 -266v-244zM141 279v204l300 183l-300 182v205l441 -266v-244z" />
    <glyph glyph-name="questiondown" unicode="&#xbf;" horiz-adv-x="1159" 
d="M594 591q175 0 281 -83.5t106 -223.5q0 -212 -263 -248l-231 -32q-149 -19 -149 -128q0 -74 62.5 -119t163.5 -45q111 0 183.5 55.5t80.5 148.5h176q-4 -157 -124 -251.5t-312 -94.5q-181 0 -290.5 86.5t-109.5 229.5q0 216 270 252l226 31q147 19 147 126
q0 70 -59.5 113.5t-153.5 43.5q-100 0 -166.5 -48t-79.5 -130h-174q8 144 122 230.5t294 86.5zM427 899q0 63 45.5 104t113.5 41t113 -41t45 -104t-45 -104.5t-113 -41.5t-113.5 41.5t-45.5 104.5z" />
    <glyph glyph-name="Agrave" unicode="&#xc0;" horiz-adv-x="1540" 
d="M48 0l596 1434h251l597 -1434h-211l-221 543h-582l-221 -543h-209zM471 1915h224l225 -336h-197zM541 711h456l-151 370q-17 41 -72 187h-10q-36 -96 -73 -188z" />
    <glyph glyph-name="Aacute" unicode="&#xc1;" horiz-adv-x="1540" 
d="M48 0l596 1434h251l597 -1434h-211l-221 543h-582l-221 -543h-209zM541 711h456l-151 370q-17 41 -72 187h-10q-36 -96 -73 -188zM623 1579l224 336h224l-252 -336h-196z" />
    <glyph glyph-name="Acircumflex" unicode="&#xc2;" horiz-adv-x="1540" 
d="M48 0l596 1434h251l597 -1434h-211l-221 543h-582l-221 -543h-209zM406 1579l226 336h278l227 -336h-194l-172 237l-172 -237h-193zM541 711h456l-151 370q-17 41 -72 187h-10q-36 -96 -73 -188z" />
    <glyph glyph-name="Atilde" unicode="&#xc3;" horiz-adv-x="1540" 
d="M48 0l596 1434h251l597 -1434h-211l-221 543h-582l-221 -543h-209zM374 1579v109q0 114 57.5 177t158.5 63q55 0 101 -22.5t103 -74.5l50 -54q61 -61 106 -61q80 0 80 102v98h139v-109q0 -114 -57.5 -177t-157.5 -63q-55 0 -100.5 22t-103.5 74l-51 55q-60 60 -106 60
q-80 0 -80 -101v-98h-139zM541 711h456l-151 370q-17 41 -72 187h-10q-36 -96 -73 -188z" />
    <glyph glyph-name="Adieresis" unicode="&#xc4;" horiz-adv-x="1540" 
d="M48 0l596 1434h251l597 -1434h-211l-221 543h-582l-221 -543h-209zM429 1750q0 55 39.5 91.5t99.5 36.5q59 0 99 -36.5t40 -91.5t-40 -91t-99 -36q-60 0 -99.5 36t-39.5 91zM541 711h456l-151 370q-17 41 -72 187h-10q-36 -96 -73 -188zM837 1750q0 56 39 92t99 36
q59 0 98.5 -36.5t39.5 -91.5t-39.5 -91t-98.5 -36q-60 0 -99 36t-39 91z" />
    <glyph glyph-name="Aring" unicode="&#xc5;" horiz-adv-x="1540" 
d="M48 0l596 1434h251l597 -1434h-211l-221 543h-582l-221 -543h-209zM501 1758q0 106 76.5 175.5t193.5 69.5t193.5 -69.5t76.5 -175.5q0 -107 -76.5 -176.5t-193.5 -69.5t-193.5 69.5t-76.5 176.5zM541 711h456l-151 370q-17 41 -72 187h-10q-36 -96 -73 -188zM642 1758
q0 -54 36.5 -88.5t92.5 -34.5t92.5 34.5t36.5 88.5q0 53 -36.5 87.5t-92.5 34.5t-92.5 -34.5t-36.5 -87.5z" />
    <glyph glyph-name="AE" unicode="&#xc6;" horiz-adv-x="1902" 
d="M67 0l803 1434h904v-171h-521v-426h514v-171h-514v-495h521v-171h-713v643h-427l-350 -643h-217zM724 811h337v452h-91z" />
    <glyph glyph-name="Ccedilla" unicode="&#xc7;" horiz-adv-x="1751" 
d="M908 -553q-113 0 -183 60t-69 159h135q1 -50 34 -79t86 -29q51 0 83 27.5t32 73.5q0 47 -32.5 75.5t-83.5 28.5q-60 0 -99 -42l-102 50l100 213q-305 27 -497.5 232.5t-192.5 504.5q0 158 58 294.5t158.5 232.5t242.5 151t304 55q246 0 432.5 -119t249.5 -323h-217
q-58 123 -183.5 191.5t-283.5 68.5q-246 0 -400.5 -155t-154.5 -394q0 -160 71.5 -287.5t200.5 -200t292 -72.5q165 0 293 73.5t195.5 208t55.5 303.5h203q14 -157 -33 -296t-140 -240t-231 -162.5t-300 -68.5l-64 -127q35 11 71 11q97 0 159 -55.5t62 -146.5
q0 -95 -69 -155.5t-183 -60.5z" />
    <glyph glyph-name="Egrave" unicode="&#xc8;" horiz-adv-x="1028" 
d="M162 0v1434h737v-171h-545v-426h539v-171h-539v-495h545v-171h-737zM230 1915h225l224 -336h-197z" />
    <glyph glyph-name="Eacute" unicode="&#xc9;" horiz-adv-x="1028" 
d="M162 0v1434h737v-171h-545v-426h539v-171h-539v-495h545v-171h-737zM382 1579l224 336h224l-251 -336h-197z" />
    <glyph glyph-name="Ecircumflex" unicode="&#xca;" horiz-adv-x="1028" 
d="M162 0v1434h737v-171h-545v-426h539v-171h-539v-495h545v-171h-737zM165 1579l226 336h279l226 -336h-194l-172 237l-172 -237h-193z" />
    <glyph glyph-name="Edieresis" unicode="&#xcb;" horiz-adv-x="1028" 
d="M162 0v1434h737v-171h-545v-426h539v-171h-539v-495h545v-171h-737zM188 1750q0 55 40 91.5t100 36.5q59 0 98.5 -36.5t39.5 -91.5t-39.5 -91t-98.5 -36q-60 0 -100 36t-40 91zM596 1750q0 56 39 92t99 36q59 0 98.5 -36.5t39.5 -91.5t-39.5 -91t-98.5 -36q-60 0 -99 36
t-39 91z" />
    <glyph glyph-name="Igrave" unicode="&#xcc;" horiz-adv-x="524" 
d="M164 0v1434h196v-1434h-196zM-38 1915h224l225 -336h-197z" />
    <glyph glyph-name="Iacute" unicode="&#xcd;" horiz-adv-x="524" 
d="M164 0v1434h196v-1434h-196zM114 1579l224 336h224l-252 -336h-196z" />
    <glyph glyph-name="Icircumflex" unicode="&#xce;" horiz-adv-x="524" 
d="M164 0v1434h196v-1434h-196zM-103 1579l226 336h278l227 -336h-194l-172 237l-172 -237h-193z" />
    <glyph glyph-name="Idieresis" unicode="&#xcf;" horiz-adv-x="524" 
d="M164 0v1434h196v-1434h-196zM-80 1750q0 55 39.5 91.5t99.5 36.5q59 0 99 -36.5t40 -91.5t-40 -91t-99 -36q-60 0 -99.5 36t-39.5 91zM328 1750q0 56 39 92t99 36q59 0 98.5 -36.5t39.5 -91.5t-39.5 -91t-98.5 -36q-60 0 -99 36t-39 91z" />
    <glyph glyph-name="Eth" unicode="&#xd0;" horiz-adv-x="1482" 
d="M258 0v696h-153v155h153v583h371q162 0 299 -52.5t233 -146t150 -227.5t54 -291t-54 -291t-150 -227.5t-233 -146t-299 -52.5h-371zM455 181h173q235 0 383 149.5t148 386.5t-148 386t-383 149h-173v-401h406v-155h-406v-515z" />
    <glyph glyph-name="Ntilde" unicode="&#xd1;" horiz-adv-x="1376" 
d="M164 0v1434h212l646 -1144l5 1v1143h185v-1434h-212l-646 1144l-6 -1v-1143h-184zM292 1579v109q0 114 57.5 177t158.5 63q55 0 101 -22.5t103 -74.5l50 -54q61 -61 106 -61q80 0 80 102v98h139v-109q0 -114 -57.5 -177t-157.5 -63q-55 0 -100.5 22t-103.5 74l-51 55
q-60 60 -106 60q-80 0 -80 -101v-98h-139z" />
    <glyph glyph-name="Ograve" unicode="&#xd2;" horiz-adv-x="1744" 
d="M872 -20q-213 0 -386.5 96t-272 264.5t-98.5 376.5t98.5 376.5t272 264.5t386.5 96t386.5 -96t272 -264.5t98.5 -376.5t-98.5 -376.5t-272 -264.5t-386.5 -96zM319 717q0 -239 157.5 -396.5t395.5 -157.5t395 157.5t157 396.5t-157 396.5t-395 157.5t-395.5 -157.5
t-157.5 -396.5zM578 1915h224l224 -336h-197z" />
    <glyph glyph-name="Oacute" unicode="&#xd3;" horiz-adv-x="1744" 
d="M872 -20q-213 0 -386.5 96t-272 264.5t-98.5 376.5t98.5 376.5t272 264.5t386.5 96t386.5 -96t272 -264.5t98.5 -376.5t-98.5 -376.5t-272 -264.5t-386.5 -96zM319 717q0 -239 157.5 -396.5t395.5 -157.5t395 157.5t157 396.5t-157 396.5t-395 157.5t-395.5 -157.5
t-157.5 -396.5zM729 1579l224 336h225l-252 -336h-197z" />
    <glyph glyph-name="Ocircumflex" unicode="&#xd4;" horiz-adv-x="1744" 
d="M872 -20q-213 0 -386.5 96t-272 264.5t-98.5 376.5t98.5 376.5t272 264.5t386.5 96t386.5 -96t272 -264.5t98.5 -376.5t-98.5 -376.5t-272 -264.5t-386.5 -96zM319 717q0 -239 157.5 -396.5t395.5 -157.5t395 157.5t157 396.5t-157 396.5t-395 157.5t-395.5 -157.5
t-157.5 -396.5zM512 1579l226 336h279l226 -336h-193l-172 237l-172 -237h-194z" />
    <glyph glyph-name="Otilde" unicode="&#xd5;" horiz-adv-x="1744" 
d="M872 -20q-213 0 -386.5 96t-272 264.5t-98.5 376.5t98.5 376.5t272 264.5t386.5 96t386.5 -96t272 -264.5t98.5 -376.5t-98.5 -376.5t-272 -264.5t-386.5 -96zM319 717q0 -239 157.5 -396.5t395.5 -157.5t395 157.5t157 396.5t-157 396.5t-395 157.5t-395.5 -157.5
t-157.5 -396.5zM480 1579v109q0 114 57.5 177t158.5 63q55 0 101 -22.5t103 -74.5l50 -54q61 -61 107 -61q80 0 80 102v98h139v-109q0 -114 -57.5 -177t-157.5 -63q-55 0 -101 22.5t-104 73.5l-50 55q-60 60 -107 60q-79 0 -79 -101v-98h-140z" />
    <glyph glyph-name="Odieresis" unicode="&#xd6;" horiz-adv-x="1744" 
d="M872 -20q-213 0 -386.5 96t-272 264.5t-98.5 376.5t98.5 376.5t272 264.5t386.5 96t386.5 -96t272 -264.5t98.5 -376.5t-98.5 -376.5t-272 -264.5t-386.5 -96zM319 717q0 -239 157.5 -396.5t395.5 -157.5t395 157.5t157 396.5t-157 396.5t-395 157.5t-395.5 -157.5
t-157.5 -396.5zM536 1750q0 55 39.5 91.5t99.5 36.5q59 0 98.5 -36.5t39.5 -91.5t-39.5 -91t-98.5 -36q-60 0 -99.5 36t-39.5 91zM943 1750q0 56 39 92t99 36q59 0 99 -36.5t40 -91.5t-40 -91t-99 -36q-60 0 -99 36t-39 91z" />
    <glyph glyph-name="multiply" unicode="&#xd7;" horiz-adv-x="1134" 
d="M849 306l-283 282l-280 -281l-120 120l281 281l-282 281l121 121l282 -282l280 280l119 -120l-280 -279l282 -283z" />
    <glyph glyph-name="Oslash" unicode="&#xd8;" horiz-adv-x="1751" 
d="M876 -20q-267 0 -465 148l-142 -142l-123 122l139 138q-166 199 -166 471q0 208 98.5 376.5t272 264.5t386.5 96q266 0 464 -148l143 142l123 -122l-139 -138q165 -202 165 -471q0 -155 -58 -292t-158 -234.5t-240 -154t-300 -56.5zM311 717q0 -194 108 -336l790 791
q-143 104 -333 104q-245 0 -405 -158.5t-160 -400.5zM543 260q143 -102 333 -102q244 0 404 158.5t160 400.5q0 194 -108 336z" />
    <glyph glyph-name="Ugrave" unicode="&#xd9;" horiz-adv-x="1312" 
d="M657 -20q-233 0 -370 142.5t-137 387.5v924h201v-922q0 -159 82.5 -253t224.5 -94q141 0 225 93t84 254v922h196v-924q0 -244 -136 -387t-370 -143zM356 1915h225l224 -336h-197z" />
    <glyph glyph-name="Uacute" unicode="&#xda;" horiz-adv-x="1312" 
d="M657 -20q-233 0 -370 142.5t-137 387.5v924h201v-922q0 -159 82.5 -253t224.5 -94q141 0 225 93t84 254v922h196v-924q0 -244 -136 -387t-370 -143zM508 1579l224 336h224l-251 -336h-197z" />
    <glyph glyph-name="Ucircumflex" unicode="&#xdb;" horiz-adv-x="1312" 
d="M657 -20q-233 0 -370 142.5t-137 387.5v924h201v-922q0 -159 82.5 -253t224.5 -94q141 0 225 93t84 254v922h196v-924q0 -244 -136 -387t-370 -143zM291 1579l226 336h279l226 -336h-194l-172 237l-172 -237h-193z" />
    <glyph glyph-name="Udieresis" unicode="&#xdc;" horiz-adv-x="1312" 
d="M657 -20q-233 0 -370 142.5t-137 387.5v924h201v-922q0 -159 82.5 -253t224.5 -94q141 0 225 93t84 254v922h196v-924q0 -244 -136 -387t-370 -143zM314 1750q0 55 40 91.5t100 36.5q59 0 98.5 -36.5t39.5 -91.5t-39.5 -91t-98.5 -36q-60 0 -100 36t-40 91zM722 1750
q0 56 39 92t99 36q59 0 98.5 -36.5t39.5 -91.5t-39.5 -91t-98.5 -36q-60 0 -99 36t-39 91z" />
    <glyph glyph-name="Yacute" unicode="&#xdd;" horiz-adv-x="1310" 
d="M557 0v559l-494 875h227l363 -671h7l364 671h223l-493 -875v-559h-197zM507 1579l224 336h224l-252 -336h-196z" />
    <glyph glyph-name="Thorn" unicode="&#xde;" horiz-adv-x="1165" 
d="M164 0v1434h196v-272h288q200 0 326 -118t127 -306q1 -190 -124.5 -308t-328.5 -118h-288v-312h-196zM360 488h273q119 0 190.5 68t71.5 181t-71.5 181t-190.5 68h-273v-498z" />
    <glyph glyph-name="germandbls" unicode="&#xdf;" horiz-adv-x="1193" 
d="M622 -20q-79 0 -166 18v167q86 -20 147 -20q138 0 221.5 75.5t83.5 200.5q0 128 -88 206.5t-239 78.5h-50v151h58q116 0 186.5 64t70.5 172q0 107 -69 172.5t-184 65.5q-119 0 -190.5 -71.5t-71.5 -198.5v-1061h-190v1066q0 197 125 313t328 116q197 0 316.5 -109
t119.5 -280q0 -106 -49 -186.5t-137 -126.5q122 -51 189.5 -152.5t67.5 -234.5q0 -190 -132.5 -308t-346.5 -118z" />
    <glyph glyph-name="agrave" unicode="&#xe0;" horiz-adv-x="1325" 
d="M602 -20q-219 0 -365.5 152t-146.5 380t146.5 380t365.5 152q132 0 238.5 -62t159.5 -169h1v211h190v-1024h-190v211h-1q-54 -107 -160 -169t-238 -62zM286 512q0 -158 103 -261.5t260 -103.5t260 104t103 261q0 158 -103.5 261.5t-260.5 103.5q-156 0 -259 -104
t-103 -261zM352 1505h225l224 -336h-197z" />
    <glyph glyph-name="aacute" unicode="&#xe1;" horiz-adv-x="1325" 
d="M602 -20q-219 0 -365.5 152t-146.5 380t146.5 380t365.5 152q132 0 238.5 -62t159.5 -169h1v211h190v-1024h-190v211h-1q-54 -107 -160 -169t-238 -62zM286 512q0 -158 103 -261.5t260 -103.5t260 104t103 261q0 158 -103.5 261.5t-260.5 103.5q-156 0 -259 -104
t-103 -261zM504 1169l224 336h224l-252 -336h-196z" />
    <glyph glyph-name="acircumflex" unicode="&#xe2;" horiz-adv-x="1325" 
d="M602 -20q-219 0 -365.5 152t-146.5 380t146.5 380t365.5 152q132 0 238.5 -62t159.5 -169h1v211h190v-1024h-190v211h-1q-54 -107 -160 -169t-238 -62zM286 512q0 -158 103 -261.5t260 -103.5t260 104t103 261q0 158 -103.5 261.5t-260.5 103.5q-156 0 -259 -104
t-103 -261zM287 1169l226 336h279l226 -336h-194l-172 237l-172 -237h-193z" />
    <glyph glyph-name="atilde" unicode="&#xe3;" horiz-adv-x="1325" 
d="M602 -20q-219 0 -365.5 152t-146.5 380t146.5 380t365.5 152q132 0 238.5 -62t159.5 -169h1v211h190v-1024h-190v211h-1q-54 -107 -160 -169t-238 -62zM255 1169v109q0 114 57.5 177.5t158.5 63.5q54 0 100 -23t104 -75l50 -54q60 -60 106 -60q80 0 80 101v98h140v-108
q0 -114 -57.5 -177.5t-157.5 -63.5q-55 0 -101 22.5t-104 73.5l-50 56q-59 59 -107 59q-80 0 -80 -100v-99h-139zM286 512q0 -158 103 -261.5t260 -103.5t260 104t103 261q0 158 -103.5 261.5t-260.5 103.5q-156 0 -259 -104t-103 -261z" />
    <glyph glyph-name="adieresis" unicode="&#xe4;" horiz-adv-x="1325" 
d="M602 -20q-219 0 -365.5 152t-146.5 380t146.5 380t365.5 152q132 0 238.5 -62t159.5 -169h1v211h190v-1024h-190v211h-1q-54 -107 -160 -169t-238 -62zM286 512q0 -158 103 -261.5t260 -103.5t260 104t103 261q0 158 -103.5 261.5t-260.5 103.5q-156 0 -259 -104
t-103 -261zM310 1340q0 55 40 91.5t100 36.5q59 0 98.5 -36.5t39.5 -91.5t-39.5 -91t-98.5 -36q-60 0 -100 36t-40 91zM718 1340q0 56 39 92t99 36q59 0 98.5 -36.5t39.5 -91.5t-39.5 -91t-98.5 -36q-60 0 -99 36t-39 91z" />
    <glyph glyph-name="aring" unicode="&#xe5;" horiz-adv-x="1325" 
d="M602 -20q-219 0 -365.5 152t-146.5 380t146.5 380t365.5 152q132 0 238.5 -62t159.5 -169h1v211h190v-1024h-190v211h-1q-54 -107 -160 -169t-238 -62zM286 512q0 -158 103 -261.5t260 -103.5t260 104t103 261q0 158 -103.5 261.5t-260.5 103.5q-156 0 -259 -104
t-103 -261zM382 1386q0 106 76.5 175.5t193.5 69.5t194 -69.5t77 -175.5t-77 -175.5t-194 -69.5t-193.5 69t-76.5 176zM523 1386q0 -54 36.5 -88t92.5 -34t92.5 34t36.5 88q0 53 -36.5 87.5t-92.5 34.5t-92.5 -34.5t-36.5 -87.5z" />
    <glyph glyph-name="ae" unicode="&#xe6;" horiz-adv-x="2054" 
d="M479 -20q-184 0 -286.5 85.5t-102.5 235.5q0 157 123 234t380 85l305 8v19q0 115 -74 180t-202 65q-120 0 -197 -52.5t-91 -140.5h-191q13 157 143 251t332 94q147 0 248.5 -55.5t147.5 -155.5q67 101 177.5 156t251.5 55q232 0 373.5 -141t137.5 -371l-863 -27
q5 -158 101 -259t255 -101q139 0 231.5 77.5t96.5 199.5h194q-10 -196 -156 -319t-363 -123q-166 0 -290 75.5t-185 209.5q-56 -131 -189.5 -208t-306.5 -77zM283 311q0 -82 59.5 -128t164.5 -46q161 0 276 99.5t115 243.5v20l-302 -8q-39 -1 -66.5 -3.5t-68 -8.5
t-68.5 -18.5t-55 -31.5t-41 -49.5t-14 -69.5zM1108 652l644 20q-27 107 -107.5 164.5t-201.5 57.5q-130 0 -217 -64.5t-118 -177.5z" />
    <glyph glyph-name="ccedilla" unicode="&#xe7;" horiz-adv-x="1265" 
d="M657 -553q-114 0 -184 60t-69 159h135q1 -50 34 -79t86 -29q52 0 84 27.5t32 73.5q0 47 -32.5 75.5t-84.5 28.5q-60 0 -98 -42l-102 50l100 215q-211 26 -339.5 171t-128.5 356q0 233 154.5 382t395.5 149q187 0 322 -91t182 -247h-205q-39 78 -119 125t-181 47
q-155 0 -254.5 -103t-99.5 -263q0 -159 99.5 -262.5t260.5 -103.5q160 0 255 105t82 267h199q6 -114 -28.5 -212t-101 -167.5t-162 -111t-209.5 -46.5l-63 -127q35 11 71 11q97 0 159 -55.5t62 -146.5q0 -95 -69.5 -155.5t-182.5 -60.5z" />
    <glyph glyph-name="egrave" unicode="&#xe8;" horiz-adv-x="1245" 
d="M635 -20q-240 0 -392.5 151t-152.5 386q0 231 152.5 379t387.5 148q233 0 373.5 -140.5t136.5 -371.5h-864v-7q0 -170 99.5 -275t255.5 -105q140 0 233 77.5t100 199.5h194q-10 -195 -157 -318.5t-366 -123.5zM301 672h638q-27 108 -107.5 166t-202.5 58
q-124 0 -209 -59.5t-119 -164.5zM333 1505h224l224 -336h-196z" />
    <glyph glyph-name="eacute" unicode="&#xe9;" horiz-adv-x="1245" 
d="M635 -20q-240 0 -392.5 151t-152.5 386q0 231 152.5 379t387.5 148q233 0 373.5 -140.5t136.5 -371.5h-864v-7q0 -170 99.5 -275t255.5 -105q140 0 233 77.5t100 199.5h194q-10 -195 -157 -318.5t-366 -123.5zM301 672h638q-27 108 -107.5 166t-202.5 58
q-124 0 -209 -59.5t-119 -164.5zM484 1169l225 336h224l-252 -336h-197z" />
    <glyph glyph-name="ecircumflex" unicode="&#xea;" horiz-adv-x="1245" 
d="M635 -20q-240 0 -392.5 151t-152.5 386q0 231 152.5 379t387.5 148q233 0 373.5 -140.5t136.5 -371.5h-864v-7q0 -170 99.5 -275t255.5 -105q140 0 233 77.5t100 199.5h194q-10 -195 -157 -318.5t-366 -123.5zM267 1169l227 336h278l226 -336h-193l-172 237l-172 -237
h-194zM301 672h638q-27 108 -107.5 166t-202.5 58q-124 0 -209 -59.5t-119 -164.5z" />
    <glyph glyph-name="edieresis" unicode="&#xeb;" horiz-adv-x="1245" 
d="M635 -20q-240 0 -392.5 151t-152.5 386q0 231 152.5 379t387.5 148q233 0 373.5 -140.5t136.5 -371.5h-864v-7q0 -170 99.5 -275t255.5 -105q140 0 233 77.5t100 199.5h194q-10 -195 -157 -318.5t-366 -123.5zM291 1340q0 55 39.5 91.5t99.5 36.5q59 0 98.5 -36.5
t39.5 -91.5t-39.5 -91t-98.5 -36q-60 0 -99.5 36t-39.5 91zM301 672h638q-27 108 -107.5 166t-202.5 58q-124 0 -209 -59.5t-119 -164.5zM698 1340q0 55 39.5 91.5t99.5 36.5q59 0 98.5 -36.5t39.5 -91.5t-39.5 -91t-98.5 -36q-60 0 -99.5 36t-39.5 91z" />
    <glyph glyph-name="igrave" unicode="&#xec;" horiz-adv-x="522" 
d="M167 0v1024h188v-1024h-188zM-39 1505h224l225 -336h-197z" />
    <glyph glyph-name="iacute" unicode="&#xed;" horiz-adv-x="522" 
d="M167 0v1024h188v-1024h-188zM113 1169l224 336h224l-252 -336h-196z" />
    <glyph glyph-name="icircumflex" unicode="&#xee;" horiz-adv-x="522" 
d="M167 0v1024h188v-1024h-188zM-104 1169l226 336h278l227 -336h-194l-172 237l-172 -237h-193z" />
    <glyph glyph-name="idieresis" unicode="&#xef;" horiz-adv-x="522" 
d="M167 0v1024h188v-1024h-188zM-81 1340q0 55 39.5 91.5t99.5 36.5q59 0 99 -36.5t40 -91.5t-40 -91t-99 -36q-60 0 -99.5 36t-39.5 91zM327 1340q0 56 39 92t99 36q59 0 98.5 -36.5t39.5 -91.5t-39.5 -91t-98.5 -36q-60 0 -99 36t-39 91z" />
    <glyph glyph-name="eth" unicode="&#xf0;" horiz-adv-x="1292" 
d="M646 -20q-237 0 -394.5 151.5t-157.5 383.5q0 225 148 373.5t373 148.5q95 0 175 -37l1 1l-194 214l-369 -89v123l277 67l-145 159h228l99 -115l361 87v-123l-273 -67l207 -236q216 -248 216 -501q0 -234 -157 -387t-395 -153zM286 512q0 -158 102.5 -262t259.5 -104
t260.5 104t103.5 262t-103.5 262t-260.5 104t-259.5 -104t-102.5 -262z" />
    <glyph glyph-name="ntilde" unicode="&#xf1;" horiz-adv-x="1206" 
d="M134 0v1024h189l1 -205q44 108 139.5 166.5t227.5 58.5q185 0 290 -111t105 -309v-624h-189v591q0 135 -71 210t-197 75q-140 0 -223 -92.5t-83 -252.5v-531h-189zM213 1169v109q0 114 57.5 177.5t158.5 63.5q54 0 100 -23t104 -75l50 -54q60 -60 107 -60q79 0 79 101v98
h140v-108q0 -114 -57.5 -177.5t-157.5 -63.5q-55 0 -101 22.5t-104 73.5l-50 56q-59 59 -107 59q-80 0 -80 -100v-99h-139z" />
    <glyph glyph-name="ograve" unicode="&#xf2;" horiz-adv-x="1290" 
d="M644 -20q-241 0 -397.5 151t-156.5 381t156.5 381t397.5 151t398 -150.5t157 -381.5t-157 -381.5t-398 -150.5zM282 512q0 -158 102.5 -262t259.5 -104t260.5 104t103.5 262t-103.5 262t-260.5 104t-259.5 -104t-102.5 -262zM344 1505h224l225 -336h-197z" />
    <glyph glyph-name="oacute" unicode="&#xf3;" horiz-adv-x="1290" 
d="M644 -20q-241 0 -397.5 151t-156.5 381t156.5 381t397.5 151t398 -150.5t157 -381.5t-157 -381.5t-398 -150.5zM282 512q0 -158 102.5 -262t259.5 -104t260.5 104t103.5 262t-103.5 262t-260.5 104t-259.5 -104t-102.5 -262zM496 1169l224 336h224l-252 -336h-196z" />
    <glyph glyph-name="ocircumflex" unicode="&#xf4;" horiz-adv-x="1290" 
d="M644 -20q-241 0 -397.5 151t-156.5 381t156.5 381t397.5 151t398 -150.5t157 -381.5t-157 -381.5t-398 -150.5zM279 1169l226 336h278l227 -336h-194l-172 237l-172 -237h-193zM282 512q0 -158 102.5 -262t259.5 -104t260.5 104t103.5 262t-103.5 262t-260.5 104
t-259.5 -104t-102.5 -262z" />
    <glyph glyph-name="otilde" unicode="&#xf5;" horiz-adv-x="1290" 
d="M644 -20q-241 0 -397.5 151t-156.5 381t156.5 381t397.5 151t398 -150.5t157 -381.5t-157 -381.5t-398 -150.5zM247 1169v109q0 114 57.5 177.5t158.5 63.5q54 0 100 -23t104 -75l50 -54q60 -60 106 -60q80 0 80 101v98h139v-108q0 -114 -57.5 -177.5t-157.5 -63.5
q-55 0 -100.5 22t-103.5 74l-51 56q-59 59 -106 59q-80 0 -80 -100v-99h-139zM282 512q0 -158 102.5 -262t259.5 -104t260.5 104t103.5 262t-103.5 262t-260.5 104t-259.5 -104t-102.5 -262z" />
    <glyph glyph-name="odieresis" unicode="&#xf6;" horiz-adv-x="1290" 
d="M644 -20q-241 0 -397.5 151t-156.5 381t156.5 381t397.5 151t398 -150.5t157 -381.5t-157 -381.5t-398 -150.5zM282 512q0 -158 102.5 -262t259.5 -104t260.5 104t103.5 262t-103.5 262t-260.5 104t-259.5 -104t-102.5 -262zM302 1340q0 55 39.5 91.5t99.5 36.5
q59 0 99 -36.5t40 -91.5t-40 -91t-99 -36q-60 0 -99.5 36t-39.5 91zM710 1340q0 56 39 92t99 36q59 0 98.5 -36.5t39.5 -91.5t-39.5 -91t-98.5 -36q-60 0 -99 36t-39 91z" />
    <glyph glyph-name="divide" unicode="&#xf7;" horiz-adv-x="1161" 
d="M97 611v170h967v-170h-967zM425 271q0 61 44 101.5t110 40.5t109.5 -40.5t43.5 -101.5q0 -62 -43 -101.5t-110 -39.5q-66 0 -110 40t-44 101zM425 1111q0 61 44 101t110 40q67 0 110 -40t43 -101t-43 -100.5t-110 -39.5q-66 0 -110 39.5t-44 100.5z" />
    <glyph glyph-name="oslash" unicode="&#xf8;" horiz-adv-x="1300" 
d="M650 -20q-196 0 -338 103l-100 -101l-93 91l97 97q-120 144 -120 342q0 231 156.5 381.5t397.5 150.5q196 0 338 -103l103 102l92 -91l-98 -98q119 -142 119 -342q0 -231 -156.5 -381.5t-397.5 -150.5zM270 512q0 -126 67 -221l533 533q-92 67 -220 67
q-165 0 -272.5 -107.5t-107.5 -271.5zM430 200q93 -67 220 -67q165 0 273 107.5t108 271.5q0 125 -66 221z" />
    <glyph glyph-name="ugrave" unicode="&#xf9;" horiz-adv-x="1206" 
d="M1071 1024v-1024h-188l-1 205q-44 -108 -140 -166.5t-228 -58.5q-185 0 -290 111t-105 309v624h189v-591q0 -134 71.5 -209.5t197.5 -75.5q140 0 223 92.5t83 252.5v531h188zM297 1505h224l224 -336h-196z" />
    <glyph glyph-name="uacute" unicode="&#xfa;" horiz-adv-x="1206" 
d="M1071 1024v-1024h-188l-1 205q-44 -108 -140 -166.5t-228 -58.5q-185 0 -290 111t-105 309v624h189v-591q0 -134 71.5 -209.5t197.5 -75.5q140 0 223 92.5t83 252.5v531h188zM449 1169l224 336h224l-252 -336h-196z" />
    <glyph glyph-name="ucircumflex" unicode="&#xfb;" horiz-adv-x="1206" 
d="M1071 1024v-1024h-188l-1 205q-44 -108 -140 -166.5t-228 -58.5q-185 0 -290 111t-105 309v624h189v-591q0 -134 71.5 -209.5t197.5 -75.5q140 0 223 92.5t83 252.5v531h188zM231 1169l227 336h278l227 -336h-194l-172 237l-172 -237h-194z" />
    <glyph glyph-name="udieresis" unicode="&#xfc;" horiz-adv-x="1206" 
d="M1071 1024v-1024h-188l-1 205q-44 -108 -140 -166.5t-228 -58.5q-185 0 -290 111t-105 309v624h189v-591q0 -134 71.5 -209.5t197.5 -75.5q140 0 223 92.5t83 252.5v531h188zM255 1340q0 55 39.5 91.5t99.5 36.5q59 0 98.5 -36.5t39.5 -91.5t-39.5 -91t-98.5 -36
q-60 0 -99.5 36t-39.5 91zM663 1340q0 56 39 92t99 36q59 0 98.5 -36.5t39.5 -91.5t-39.5 -91t-98.5 -36q-60 0 -99 36t-39 91z" />
    <glyph glyph-name="yacute" unicode="&#xfd;" horiz-adv-x="1304" 
d="M624 -553q-253 0 -404 138.5t-149 366.5h186q-5 -155 94 -248t270 -93q170 0 267 92t97 249l-1 272h-1q-43 -105 -139 -163t-230 -58q-187 0 -292.5 111.5t-105.5 309.5v600h192v-567q0 -135 71 -210t197 -75q140 0 223 91t83 247v514h188v-1071q0 -232 -148.5 -369
t-397.5 -137zM551 1169l224 336h224l-251 -336h-197z" />
    <glyph glyph-name="thorn" unicode="&#xfe;" horiz-adv-x="1347" 
d="M158 -532v2007h188v-662h1q54 107 160 169t238 62q144 0 261.5 -69t184 -191t66.5 -272q0 -228 -146.5 -380t-365.5 -152q-132 0 -238 62t-160 169h-1v-743h-188zM336 512q0 -157 103 -261t260 -104t260 103.5t103 261.5q0 157 -103 261t-260 104t-260 -103.5
t-103 -261.5z" />
    <glyph glyph-name="ydieresis" unicode="&#xff;" horiz-adv-x="1304" 
d="M624 -553q-253 0 -404 138.5t-149 366.5h186q-5 -155 94 -248t270 -93q170 0 267 92t97 249l-1 272h-1q-43 -105 -139 -163t-230 -58q-187 0 -292.5 111.5t-105.5 309.5v600h192v-567q0 -135 71 -210t197 -75q140 0 223 91t83 247v514h188v-1071q0 -232 -148.5 -369
t-397.5 -137zM357 1340q0 55 40 91.5t100 36.5q59 0 98.5 -36.5t39.5 -91.5t-39.5 -91t-98.5 -36q-60 0 -100 36t-40 91zM765 1340q0 56 39 92t99 36q59 0 98.5 -36.5t39.5 -91.5t-39.5 -91t-98.5 -36q-60 0 -99 36t-39 91z" />
    <glyph glyph-name="Amacron" unicode="&#x100;" horiz-adv-x="1540" 
d="M48 0l596 1434h251l597 -1434h-211l-221 543h-582l-221 -543h-209zM471 1665v166h600v-166h-600zM541 711h456l-151 370q-17 41 -72 187h-10q-36 -96 -73 -188z" />
    <glyph glyph-name="amacron" unicode="&#x101;" horiz-adv-x="1325" 
d="M602 -20q-219 0 -365.5 152t-146.5 380t146.5 380t365.5 152q132 0 238.5 -62t159.5 -169h1v211h190v-1024h-190v211h-1q-54 -107 -160 -169t-238 -62zM286 512q0 -158 103 -261.5t260 -103.5t260 104t103 261q0 158 -103.5 261.5t-260.5 103.5q-156 0 -259 -104
t-103 -261zM352 1255v166h600v-166h-600z" />
    <glyph glyph-name="Abreve" unicode="&#x102;" horiz-adv-x="1540" 
d="M48 0l596 1434h251l597 -1434h-211l-221 543h-582l-221 -543h-209zM432 1915h174q1 -97 43.5 -149.5t121.5 -52.5t121.5 52.5t43.5 149.5h174q2 -159 -89.5 -251.5t-249.5 -92.5t-249.5 92.5t-89.5 251.5zM541 711h456l-151 370q-17 41 -72 187h-10q-36 -96 -73 -188z
" />
    <glyph glyph-name="abreve" unicode="&#x103;" horiz-adv-x="1325" 
d="M602 -20q-219 0 -365.5 152t-146.5 380t146.5 380t365.5 152q132 0 238.5 -62t159.5 -169h1v211h190v-1024h-190v211h-1q-54 -107 -160 -169t-238 -62zM286 512q0 -158 103 -261.5t260 -103.5t260 104t103 261q0 158 -103.5 261.5t-260.5 103.5q-156 0 -259 -104
t-103 -261zM313 1505h174q1 -97 43.5 -149t121.5 -52t121.5 52t43.5 149h174q2 -159 -89.5 -251.5t-249.5 -92.5t-249.5 92.5t-89.5 251.5z" />
    <glyph glyph-name="Aogonek" unicode="&#x104;" horiz-adv-x="1540" 
d="M1400 -442q-124 0 -198 67.5t-74 181.5q0 73 38.5 126t108.5 77l-215 533h-582l-221 -543h-209l596 1434h251l597 -1434h-16q-99 0 -157.5 -44t-58.5 -120q0 -64 41.5 -102.5t111.5 -38.5q37 0 76 11v-139q-45 -9 -89 -9zM541 711h456l-151 370q-17 41 -72 187h-10
q-36 -96 -73 -188z" />
    <glyph glyph-name="aogonek" unicode="&#x105;" horiz-adv-x="1325" 
d="M1100 -442q-110 0 -176 54.5t-66 148.5q0 71 38.5 132.5t109.5 106.5h-5v211h-1q-54 -107 -160 -169t-238 -62q-219 0 -365.5 152t-146.5 380t146.5 380t365.5 152q132 0 238.5 -62t159.5 -169h1v211h190v-1024q-95 -29 -148.5 -81t-53.5 -118q0 -51 33 -78.5t91 -27.5
q38 0 78 11v-139q-47 -9 -91 -9zM286 512q0 -158 103 -261.5t260 -103.5t260 104t103 261q0 158 -103.5 261.5t-260.5 103.5q-156 0 -259 -104t-103 -261z" />
    <glyph glyph-name="Cacute" unicode="&#x106;" horiz-adv-x="1751" 
d="M891 -20q-166 0 -310 56.5t-245 154.5t-159 235.5t-58 294.5q0 158 58 294.5t158.5 232.5t242.5 151t304 55q246 0 432.5 -119t249.5 -323h-217q-58 123 -183.5 191.5t-283.5 68.5q-246 0 -400.5 -155t-154.5 -394q0 -160 71.5 -287.5t200.5 -200t292 -72.5
q165 0 293 73.5t195.5 208t55.5 303.5h203q14 -161 -36 -304t-149 -244.5t-244.5 -160.5t-315.5 -59zM733 1579l224 336h225l-252 -336h-197z" />
    <glyph glyph-name="cacute" unicode="&#x107;" horiz-adv-x="1265" 
d="M644 -20q-245 0 -399.5 150t-154.5 383t154.5 382t395.5 149q187 0 322 -91t182 -247h-205q-39 78 -119 125t-181 47q-155 0 -254.5 -103t-99.5 -263q0 -159 99.5 -262.5t260.5 -103.5q160 0 255 105t82 267h199q13 -239 -138.5 -388.5t-398.5 -149.5zM493 1169l224 336
h224l-252 -336h-196z" />
    <glyph glyph-name="Cdotaccent" unicode="&#x10a;" horiz-adv-x="1751" 
d="M891 -20q-166 0 -310 56.5t-245 154.5t-159 235.5t-58 294.5q0 158 58 294.5t158.5 232.5t242.5 151t304 55q246 0 432.5 -119t249.5 -323h-217q-58 123 -183.5 191.5t-283.5 68.5q-246 0 -400.5 -155t-154.5 -394q0 -160 71.5 -287.5t200.5 -200t292 -72.5
q165 0 293 73.5t195.5 208t55.5 303.5h203q14 -161 -36 -304t-149 -244.5t-244.5 -160.5t-315.5 -59zM732 1746q0 60 42.5 99t107.5 39q64 0 106 -39t42 -99q0 -59 -42 -97.5t-106 -38.5q-65 0 -107.5 39t-42.5 97z" />
    <glyph glyph-name="cdotaccent" unicode="&#x10b;" horiz-adv-x="1265" 
d="M644 -20q-245 0 -399.5 150t-154.5 383t154.5 382t395.5 149q187 0 322 -91t182 -247h-205q-39 78 -119 125t-181 47q-155 0 -254.5 -103t-99.5 -263q0 -159 99.5 -262.5t260.5 -103.5q160 0 255 105t82 267h199q13 -239 -138.5 -388.5t-398.5 -149.5zM492 1336
q0 60 42.5 99.5t106.5 39.5t106.5 -39.5t42.5 -99.5q0 -58 -42.5 -97t-106.5 -39t-106.5 38.5t-42.5 97.5z" />
    <glyph glyph-name="Ccaron" unicode="&#x10c;" horiz-adv-x="1751" 
d="M891 -20q-166 0 -310 56.5t-245 154.5t-159 235.5t-58 294.5q0 158 58 294.5t158.5 232.5t242.5 151t304 55q246 0 432.5 -119t249.5 -323h-217q-58 123 -183.5 191.5t-283.5 68.5q-246 0 -400.5 -155t-154.5 -394q0 -160 71.5 -287.5t200.5 -200t292 -72.5
q165 0 293 73.5t195.5 208t55.5 303.5h203q14 -161 -36 -304t-149 -244.5t-244.5 -160.5t-315.5 -59zM516 1915h194l172 -238l172 238h193l-226 -336h-279z" />
    <glyph glyph-name="ccaron" unicode="&#x10d;" horiz-adv-x="1265" 
d="M644 -20q-245 0 -399.5 150t-154.5 383t154.5 382t395.5 149q187 0 322 -91t182 -247h-205q-39 78 -119 125t-181 47q-155 0 -254.5 -103t-99.5 -263q0 -159 99.5 -262.5t260.5 -103.5q160 0 255 105t82 267h199q13 -239 -138.5 -388.5t-398.5 -149.5zM275 1505h194
l172 -237l172 237h194l-227 -336h-278z" />
    <glyph glyph-name="Dcaron" unicode="&#x10e;" horiz-adv-x="1390" 
d="M164 0v1434h371q216 0 383.5 -90t260 -253.5t92.5 -373.5t-92.5 -373.5t-260 -253.5t-383.5 -90h-371zM220 1915h194l172 -238l172 238h193l-226 -336h-279zM360 181h175q234 0 382.5 149.5t148.5 386.5t-148.5 386t-382.5 149h-175v-1071z" />
    <glyph glyph-name="dcaron" unicode="&#x10f;" horiz-adv-x="1529" 
d="M602 -20q-219 0 -365.5 152t-146.5 380t146.5 380t365.5 152q132 0 238.5 -62t159.5 -169h1v662h190v-1475h-190v211h-1q-54 -107 -160 -169t-238 -62zM286 512q0 -158 103 -261.5t260 -103.5t260 104t103 261q0 158 -103.5 261.5t-260.5 103.5q-156 0 -259 -104
t-103 -261zM1288 1475h157l-12 -418h-134z" />
    <glyph glyph-name="Dcroat" unicode="&#x110;" horiz-adv-x="1482" 
d="M258 0v696h-153v155h153v583h371q162 0 299 -52.5t233 -146t150 -227.5t54 -291t-54 -291t-150 -227.5t-233 -146t-299 -52.5h-371zM455 181h173q235 0 383 149.5t148 386.5t-148 386t-383 149h-173v-401h406v-155h-406v-515z" />
    <glyph glyph-name="dcroat" unicode="&#x111;" horiz-adv-x="1351" 
d="M602 -20q-219 0 -365.5 152t-146.5 380t146.5 380t365.5 152q132 0 238.5 -62t159.5 -169h1v382h-388v124h388v156h190v-156h149v-124h-149v-1195h-190v211h-1q-54 -107 -160 -169t-238 -62zM286 512q0 -158 103 -261.5t260 -103.5t260 104t103 261q0 158 -103.5 261.5
t-260.5 103.5q-156 0 -259 -104t-103 -261z" />
    <glyph glyph-name="Emacron" unicode="&#x112;" horiz-adv-x="1028" 
d="M162 0v1434h737v-171h-545v-426h539v-171h-539v-495h545v-171h-737zM230 1665v166h600v-166h-600z" />
    <glyph glyph-name="emacron" unicode="&#x113;" horiz-adv-x="1245" 
d="M635 -20q-240 0 -392.5 151t-152.5 386q0 231 152.5 379t387.5 148q233 0 373.5 -140.5t136.5 -371.5h-864v-7q0 -170 99.5 -275t255.5 -105q140 0 233 77.5t100 199.5h194q-10 -195 -157 -318.5t-366 -123.5zM301 672h638q-27 108 -107.5 166t-202.5 58
q-124 0 -209 -59.5t-119 -164.5zM333 1255v166h600v-166h-600z" />
    <glyph glyph-name="Edotaccent" unicode="&#x116;" horiz-adv-x="1028" 
d="M162 0v1434h737v-171h-545v-426h539v-171h-539v-495h545v-171h-737zM381 1746q0 60 42 99t107 39q64 0 106.5 -39t42.5 -99q0 -58 -42.5 -97t-106.5 -39t-106.5 38.5t-42.5 97.5z" />
    <glyph glyph-name="edotaccent" unicode="&#x117;" horiz-adv-x="1245" 
d="M635 -20q-240 0 -392.5 151t-152.5 386q0 231 152.5 379t387.5 148q233 0 373.5 -140.5t136.5 -371.5h-864v-7q0 -170 99.5 -275t255.5 -105q140 0 233 77.5t100 199.5h194q-10 -195 -157 -318.5t-366 -123.5zM301 672h638q-27 108 -107.5 166t-202.5 58
q-124 0 -209 -59.5t-119 -164.5zM483 1336q0 60 42.5 99.5t107.5 39.5q64 0 106 -39.5t42 -99.5q0 -59 -42 -97.5t-106 -38.5q-65 0 -107.5 39t-42.5 97z" />
    <glyph glyph-name="Eogonek" unicode="&#x118;" horiz-adv-x="1028" 
d="M810 -442q-124 0 -197 62.5t-73 171.5q0 71 33 125t93 83h-504v1434h737v-171h-545v-426h539v-171h-539v-495h545v-171h-12q-99 0 -157.5 -44t-58.5 -120q0 -65 41.5 -103t111.5 -38q37 0 75 11v-139q-45 -9 -89 -9z" />
    <glyph glyph-name="eogonek" unicode="&#x119;" horiz-adv-x="1245" 
d="M939 672q-27 108 -107.5 166t-202.5 58q-124 0 -209 -59.5t-119 -164.5h638zM90 517q0 231 152.5 379t387.5 148q233 0 373.5 -140.5t136.5 -371.5h-864v-7q0 -170 99.5 -275t255.5 -105q140 0 233 77.5t100 199.5h194q-7 -150 -99.5 -261t-241.5 -156
q-104 -30 -161.5 -86t-57.5 -124q0 -56 39 -88.5t108 -32.5q47 0 81 12v-140q-45 -9 -95 -9q-122 0 -193 59t-71 159q0 137 127 226q-224 14 -364 163t-140 373z" />
    <glyph glyph-name="Ecaron" unicode="&#x11a;" horiz-adv-x="1028" 
d="M162 0v1434h737v-171h-545v-426h539v-171h-539v-495h545v-171h-737zM165 1915h193l172 -238l172 238h194l-226 -336h-279z" />
    <glyph glyph-name="ecaron" unicode="&#x11b;" horiz-adv-x="1245" 
d="M635 -20q-240 0 -392.5 151t-152.5 386q0 231 152.5 379t387.5 148q233 0 373.5 -140.5t136.5 -371.5h-864v-7q0 -170 99.5 -275t255.5 -105q140 0 233 77.5t100 199.5h194q-10 -195 -157 -318.5t-366 -123.5zM267 1505h194l172 -237l172 237h193l-226 -336h-278z
M301 672h638q-27 108 -107.5 166t-202.5 58q-124 0 -209 -59.5t-119 -164.5z" />
    <glyph glyph-name="Gbreve" unicode="&#x11e;" horiz-adv-x="1740" 
d="M879 -20q-163 0 -304 55t-241.5 152t-157.5 234.5t-57 296.5q0 212 98.5 380.5t271.5 262t388 93.5q244 0 430 -118t253 -311h-217q-61 113 -185.5 181t-281.5 68q-243 0 -399 -154.5t-156 -400.5q0 -245 156.5 -402t404.5 -157q227 0 375.5 139t168.5 370h-499v167h700
q14 -186 -34.5 -345.5t-147 -271.5t-245 -175.5t-321.5 -63.5zM540 1915h174q1 -97 43.5 -149.5t121.5 -52.5t121 52t43 150h175q2 -159 -89.5 -251.5t-249.5 -92.5t-249.5 92.5t-89.5 251.5z" />
    <glyph glyph-name="gbreve" unicode="&#x11f;" horiz-adv-x="1357" 
d="M646 -553q-262 0 -426.5 146t-159.5 379h186q-4 -161 107 -261t293 -100q178 0 285 97t107 256v270h-1q-51 -107 -158.5 -170.5t-245.5 -63.5q-218 0 -364 148.5t-146 372.5t146 373.5t364 149.5q135 0 242 -61t159 -166h1v207h189v-1058q0 -233 -160 -376t-418 -143z
M319 522q0 -153 103.5 -253.5t259.5 -100.5q157 0 260.5 100.5t103.5 253.5t-103.5 254t-260.5 101t-260 -101t-103 -254zM332 1505h174q1 -97 43.5 -149t121.5 -52t121.5 52t43.5 149h174q2 -159 -89.5 -251.5t-249.5 -92.5t-249.5 92.5t-89.5 251.5z" />
    <glyph glyph-name="Gdotaccent" unicode="&#x120;" horiz-adv-x="1740" 
d="M879 -20q-163 0 -304 55t-241.5 152t-157.5 234.5t-57 296.5q0 212 98.5 380.5t271.5 262t388 93.5q244 0 430 -118t253 -311h-217q-61 113 -185.5 181t-281.5 68q-243 0 -399 -154.5t-156 -400.5q0 -245 156.5 -402t404.5 -157q227 0 375.5 139t168.5 370h-499v167h700
q14 -186 -34.5 -345.5t-147 -271.5t-245 -175.5t-321.5 -63.5zM729 1746q0 60 42.5 99t107.5 39q64 0 106 -39t42 -99q0 -59 -42 -97.5t-106 -38.5q-65 0 -107.5 39t-42.5 97z" />
    <glyph glyph-name="gdotaccent" unicode="&#x121;" horiz-adv-x="1357" 
d="M646 -553q-262 0 -426.5 146t-159.5 379h186q-4 -161 107 -261t293 -100q178 0 285 97t107 256v270h-1q-51 -107 -158.5 -170.5t-245.5 -63.5q-218 0 -364 148.5t-146 372.5t146 373.5t364 149.5q135 0 242 -61t159 -166h1v207h189v-1058q0 -233 -160 -376t-418 -143z
M319 522q0 -153 103.5 -253.5t259.5 -100.5q157 0 260.5 100.5t103.5 253.5t-103.5 254t-260.5 101t-260 -101t-103 -254zM521 1336q0 60 42.5 99.5t107.5 39.5q64 0 106 -39.5t42 -99.5q0 -59 -42 -97.5t-106 -38.5q-65 0 -107.5 39t-42.5 97z" />
    <glyph glyph-name="uni0122" unicode="&#x122;" horiz-adv-x="1740" 
d="M879 -20q-163 0 -304 55t-241.5 152t-157.5 234.5t-57 296.5q0 212 98.5 380.5t271.5 262t388 93.5q244 0 430 -118t253 -311h-217q-61 113 -185.5 181t-281.5 68q-243 0 -399 -154.5t-156 -400.5q0 -245 156.5 -402t404.5 -157q227 0 375.5 139t168.5 370h-499v167h700
q14 -186 -34.5 -345.5t-147 -271.5t-245 -175.5t-321.5 -63.5zM750 -556v84q175 -18 191 102q-29 -22 -74 -22q-50 0 -82.5 31t-32.5 77q0 52 38 86t100 34q72 0 113 -45t41 -127q0 -120 -76.5 -178t-217.5 -42z" />
    <glyph glyph-name="uni0123" unicode="&#x123;" horiz-adv-x="1357" 
d="M646 -553q-262 0 -426.5 146t-159.5 379h186q-4 -161 107 -261t293 -100q178 0 285 97t107 256v270h-1q-51 -107 -158.5 -170.5t-245.5 -63.5q-218 0 -364 148.5t-146 372.5t146 373.5t364 149.5q135 0 242 -61t159 -166h1v207h189v-1058q0 -233 -160 -376t-418 -143z
M319 522q0 -153 103.5 -253.5t259.5 -100.5q157 0 260.5 100.5t103.5 253.5t-103.5 254t-260.5 101t-260 -101t-103 -254zM517 1379q0 120 76.5 177.5t217.5 42.5v-83q-175 18 -190 -104q28 23 73 23q50 0 82.5 -31t32.5 -77q0 -52 -37.5 -86t-98.5 -34q-73 0 -114.5 45
t-41.5 127z" />
    <glyph glyph-name="Hbar" unicode="&#x126;" horiz-adv-x="1345" 
d="M164 -1v1434h196v-215h625v215h197v-1434h-197v669h-625v-669h-196zM360 851h625v221h-625v-221z" />
    <glyph glyph-name="hbar" unicode="&#x127;" horiz-adv-x="1234" 
d="M164 0v1195h-150v124h150v156h189v-156h388v-124h-388v-376q45 108 140.5 166.5t228.5 58.5q185 0 290 -111t105 -309v-624h-189v591q0 135 -72 210t-198 75q-134 0 -216 -85t-89 -234v-557h-189z" />
    <glyph glyph-name="Imacron" unicode="&#x12a;" horiz-adv-x="524" 
d="M164 0v1434h196v-1434h-196zM-38 1665v166h600v-166h-600z" />
    <glyph glyph-name="imacron" unicode="&#x12b;" horiz-adv-x="522" 
d="M167 0v1024h188v-1024h-188zM-39 1255v166h600v-166h-600z" />
    <glyph glyph-name="Iogonek" unicode="&#x12e;" horiz-adv-x="524" 
d="M271 -442q-123 0 -197 67.5t-74 181.5q0 83 43 142.5t121 87.5v1397h196v-1434h-13q-99 0 -157 -44t-58 -120q0 -64 41.5 -102.5t111.5 -38.5q36 0 75 11v-139q-45 -9 -89 -9z" />
    <glyph glyph-name="iogonek" unicode="&#x12f;" horiz-adv-x="561" 
d="M305 -442q-123 0 -197 67.5t-74 181.5q0 84 44.5 144.5t126.5 88.5v984h189v-1024h-13q-99 0 -157.5 -44t-58.5 -120q0 -64 41.5 -102.5t111.5 -38.5q37 0 76 11v-139q-45 -9 -89 -9zM142 1373q0 64 45.5 105.5t113.5 41.5t113.5 -41.5t45.5 -105.5q0 -62 -45.5 -103.5
t-113.5 -41.5t-113.5 41.5t-45.5 103.5z" />
    <glyph glyph-name="Idotaccent" unicode="&#x130;" horiz-adv-x="524" 
d="M164 0v1434h196v-1434h-196zM113 1746q0 60 42 99t107 39q64 0 106.5 -39t42.5 -99q0 -58 -42.5 -97t-106.5 -39t-106.5 38.5t-42.5 97.5z" />
    <glyph glyph-name="dotlessi" unicode="&#x131;" horiz-adv-x="522" 
d="M167 0v1024h188v-1024h-188z" />
    <glyph glyph-name="IJ" unicode="&#x132;" horiz-adv-x="1144" 
d="M160 804v630h194v-630h-194zM142 440q0 70 12 206h198q-10 -105 -10 -199q0 -134 60 -208t168 -74q104 0 165.5 69.5t61.5 187.5v1012h196v-1010q0 -204 -114.5 -324t-311.5 -120q-199 0 -312 121.5t-113 338.5z" />
    <glyph glyph-name="ij" unicode="&#x133;" horiz-adv-x="1028" 
d="M167 0v1024h188v-1024h-188zM102 1374q0 63 45.5 105t113.5 42t113.5 -42t45.5 -105t-45.5 -104t-113.5 -41t-113.5 41t-45.5 104zM600 1374q0 63 45.5 105t113.5 42t113.5 -42t45.5 -105t-45.5 -104t-113.5 -41t-113.5 41t-45.5 104zM665 -495v1519h189v-1519h-189z" />
    <glyph glyph-name="uni0136" unicode="&#x136;" horiz-adv-x="1224" 
d="M164 0v1434h196v-658h1l526 658h239l-587 -710l600 -724h-251l-527 653h-1v-653h-196zM446 -556v84q176 -18 192 102q-29 -22 -74 -22q-50 0 -82.5 31t-32.5 77q0 52 38 86t100 34q72 0 113 -45t41 -127q0 -120 -76.5 -178t-218.5 -42z" />
    <glyph glyph-name="uni0137" unicode="&#x137;" horiz-adv-x="1062" 
d="M158 0v1475h188v-920l3 -1l411 470h236l-458 -507l478 -517h-242l-425 475l-3 -1v-474h-188zM414 -556v84q175 -18 191 102q-29 -22 -74 -22q-50 0 -82.5 31t-32.5 77q0 52 38 86t100 34q72 0 113.5 -45t41.5 -127q0 -120 -76.5 -178t-218.5 -42z" />
    <glyph glyph-name="Lacute" unicode="&#x139;" horiz-adv-x="950" 
d="M164 0v1434h196v-1251h523v-183h-719zM170 1579l224 336h224l-251 -336h-197z" />
    <glyph glyph-name="lacute" unicode="&#x13a;" horiz-adv-x="503" 
d="M158 0v1475h188v-1475h-188zM154 1579l224 336h224l-252 -336h-196z" />
    <glyph glyph-name="uni013B" unicode="&#x13b;" horiz-adv-x="950" 
d="M164 0v1434h196v-1251h523v-183h-719zM376 -556v84q175 -18 191 102q-29 -22 -73 -22q-50 0 -83 31t-33 77q0 52 38 86t100 34q72 0 113.5 -45t41.5 -127q0 -120 -76.5 -178t-218.5 -42z" />
    <glyph glyph-name="uni013C" unicode="&#x13c;" horiz-adv-x="503" 
d="M158 0v1475h188v-1475h-188zM113 -556v84q175 -18 191 102q-29 -22 -74 -22q-50 0 -82.5 31t-32.5 77q0 52 38 86t100 34q72 0 113.5 -45t41.5 -127q0 -120 -76.5 -178t-218.5 -42z" />
    <glyph glyph-name="Lcaron" unicode="&#x13d;" horiz-adv-x="950" 
d="M164 0v1434h196v-1251h523v-183h-719zM615 1475h156l-11 -418h-134z" />
    <glyph glyph-name="lcaron" unicode="&#x13e;" horiz-adv-x="503" 
d="M158 0v1475h188v-1475h-188zM496 1475h156l-12 -418h-133z" />
    <glyph glyph-name="Lslash" unicode="&#x141;" horiz-adv-x="1044" 
d="M259 0v636l-154 -51v143l154 51v655h197v-592l254 85v-144l-254 -85v-515h522v-183h-719z" />
    <glyph glyph-name="lslash" unicode="&#x142;" horiz-adv-x="669" 
d="M241 0v664l-138 -52v151l138 51v661h188v-594l160 59v-150l-160 -60v-730h-188z" />
    <glyph glyph-name="Nacute" unicode="&#x143;" horiz-adv-x="1376" 
d="M164 0v1434h212l646 -1144l5 1v1143h185v-1434h-212l-646 1144l-6 -1v-1143h-184zM541 1579l224 336h224l-252 -336h-196z" />
    <glyph glyph-name="nacute" unicode="&#x144;" horiz-adv-x="1206" 
d="M134 0v1024h189l1 -205q44 108 139.5 166.5t227.5 58.5q185 0 290 -111t105 -309v-624h-189v591q0 135 -71 210t-197 75q-140 0 -223 -92.5t-83 -252.5v-531h-189zM462 1169l224 336h224l-252 -336h-196z" />
    <glyph glyph-name="uni0145" unicode="&#x145;" horiz-adv-x="1376" 
d="M164 0v1434h212l646 -1144l5 1v1143h185v-1434h-212l-646 1144l-6 -1v-1143h-184zM542 -556v84q175 -18 191 102q-29 -22 -74 -22q-50 0 -82.5 31t-32.5 77q0 52 38 86t100 34q72 0 113.5 -45t41.5 -127q0 -120 -76.5 -178t-218.5 -42z" />
    <glyph glyph-name="uni0146" unicode="&#x146;" horiz-adv-x="1206" 
d="M134 0v1024h189l1 -205q44 108 139.5 166.5t227.5 58.5q185 0 290 -111t105 -309v-624h-189v591q0 135 -71 210t-197 75q-140 0 -223 -92.5t-83 -252.5v-531h-189zM464 -556v84q175 -18 191 102q-29 -22 -73 -22q-50 0 -83 31t-33 77q0 52 38 86t100 34q72 0 113.5 -45
t41.5 -127q0 -120 -76.5 -178t-218.5 -42z" />
    <glyph glyph-name="Ncaron" unicode="&#x147;" horiz-adv-x="1376" 
d="M164 0v1434h212l646 -1144l5 1v1143h185v-1434h-212l-646 1144l-6 -1v-1143h-184zM324 1915h193l172 -238l172 238h194l-227 -336h-278z" />
    <glyph glyph-name="ncaron" unicode="&#x148;" horiz-adv-x="1206" 
d="M134 0v1024h189l1 -205q44 108 139.5 166.5t227.5 58.5q185 0 290 -111t105 -309v-624h-189v591q0 135 -71 210t-197 75q-140 0 -223 -92.5t-83 -252.5v-531h-189zM245 1505h193l172 -237l172 237h194l-226 -336h-279z" />
    <glyph glyph-name="Eng" unicode="&#x14a;" horiz-adv-x="1376" 
d="M847 -553q-164 0 -258 97.5t-94 280.5q0 80 7 157h171q-6 -84 -6 -139q0 -112 48 -168.5t134 -56.5t134 54.5t48 148.5v121l-677 1202l-6 -1v-1143h-184v1434h212l646 -1144l5 1v1143h185v-1607q0 -175 -97 -277.5t-268 -102.5z" />
    <glyph glyph-name="eng" unicode="&#x14b;" horiz-adv-x="1204" 
d="M897 591q0 135 -71 210t-197 75q-140 0 -223 -92.5t-83 -252.5v-531h-189v1024h189l1 -205q44 108 139.5 166.5t227.5 58.5q185 0 290 -111t105 -309v-1113h-189v1080z" />
    <glyph glyph-name="Omacron" unicode="&#x14c;" horiz-adv-x="1744" 
d="M872 -20q-213 0 -386.5 96t-272 264.5t-98.5 376.5t98.5 376.5t272 264.5t386.5 96t386.5 -96t272 -264.5t98.5 -376.5t-98.5 -376.5t-272 -264.5t-386.5 -96zM319 717q0 -239 157.5 -396.5t395.5 -157.5t395 157.5t157 396.5t-157 396.5t-395 157.5t-395.5 -157.5
t-157.5 -396.5zM578 1665v166h600v-166h-600z" />
    <glyph glyph-name="omacron" unicode="&#x14d;" horiz-adv-x="1290" 
d="M644 -20q-241 0 -397.5 151t-156.5 381t156.5 381t397.5 151t398 -150.5t157 -381.5t-157 -381.5t-398 -150.5zM282 512q0 -158 102.5 -262t259.5 -104t260.5 104t103.5 262t-103.5 262t-260.5 104t-259.5 -104t-102.5 -262zM344 1255v166h600v-166h-600z" />
    <glyph glyph-name="Ohungarumlaut" unicode="&#x150;" horiz-adv-x="1744" 
d="M872 -20q-213 0 -386.5 96t-272 264.5t-98.5 376.5t98.5 376.5t272 264.5t386.5 96t386.5 -96t272 -264.5t98.5 -376.5t-98.5 -376.5t-272 -264.5t-386.5 -96zM319 717q0 -239 157.5 -396.5t395.5 -157.5t395 157.5t157 396.5t-157 396.5t-395 157.5t-395.5 -157.5
t-157.5 -396.5zM596 1579l216 336h208l-241 -336h-183zM974 1579l215 336h209l-241 -336h-183z" />
    <glyph glyph-name="ohungarumlaut" unicode="&#x151;" horiz-adv-x="1290" 
d="M644 -20q-241 0 -397.5 151t-156.5 381t156.5 381t397.5 151t398 -150.5t157 -381.5t-157 -381.5t-398 -150.5zM282 512q0 -158 102.5 -262t259.5 -104t260.5 104t103.5 262t-103.5 262t-260.5 104t-259.5 -104t-102.5 -262zM362 1169l217 336h207l-240 -336h-184z
M740 1169l215 336h209l-240 -336h-184z" />
    <glyph glyph-name="OE" unicode="&#x152;" horiz-adv-x="2131" 
d="M857 -20q-209 0 -379 96t-266.5 264.5t-96.5 376.5t96.5 376.5t266 264.5t378.5 96q130 0 243.5 -38.5t195.5 -111.5v130h709v-179h-516v-415h510v-177h-510v-485h516v-178h-709v130q-169 -150 -438 -150zM319 717q0 -238 159 -395.5t399 -158.5q128 -1 236.5 46
t181.5 131v754q-73 84 -181.5 131t-236.5 46q-240 -1 -399 -158.5t-159 -395.5z" />
    <glyph glyph-name="oe" unicode="&#x153;" horiz-adv-x="2187" 
d="M645 -20q-119 0 -222 40t-176.5 110t-115 169t-41.5 213q0 231 156.5 381.5t398.5 150.5q162 0 284 -69t185 -192q64 123 185 192t278 69q228 0 369.5 -142t136.5 -370h-863v-7q0 -171 99 -275.5t259 -104.5q139 0 232 77.5t98 199.5h193q-9 -195 -155.5 -318.5
t-361.5 -123.5q-157 0 -279.5 71t-187.5 195q-63 -125 -185.5 -195.5t-286.5 -70.5zM282 512q0 -158 103 -262t260 -104t260 104t103 262t-103 262t-260 104t-260 -104t-103 -262zM1244 672h638q-27 108 -107.5 166t-202.5 58q-124 0 -209 -59.5t-119 -164.5z" />
    <glyph glyph-name="Racute" unicode="&#x154;" horiz-adv-x="1320" 
d="M164 0v1434h553q188 0 303 -108.5t116 -283.5q1 -174 -110.5 -283t-293.5 -109l576 -650h-257l-557 650h-137v-650h-193zM357 798h329q115 0 183.5 64t68.5 170q0 105 -68.5 169t-183.5 64h-329v-467zM460 1579l224 336h224l-252 -336h-196z" />
    <glyph glyph-name="racute" unicode="&#x155;" horiz-adv-x="780" 
d="M134 0v1024h181v-276h1q80 296 354 296q17 0 25 -1v-188q-9 1 -30 1q-168 0 -255 -112.5t-87 -310.5v-433h-189zM244 1169l224 336h224l-252 -336h-196z" />
    <glyph glyph-name="uni0156" unicode="&#x156;" horiz-adv-x="1320" 
d="M164 0v1434h553q188 0 303 -108.5t116 -283.5q1 -174 -110.5 -283t-293.5 -109l576 -650h-257l-557 650h-137v-650h-193zM357 798h329q115 0 183.5 64t68.5 170q0 105 -68.5 169t-183.5 64h-329v-467zM497 -556v84q175 -18 191 102q-29 -22 -74 -22q-50 0 -82.5 31
t-32.5 77q0 52 38 86t100 34q72 0 113.5 -45t41.5 -127q0 -120 -76.5 -178t-218.5 -42z" />
    <glyph glyph-name="uni0157" unicode="&#x157;" horiz-adv-x="780" 
d="M134 0v1024h181v-276h1q80 296 354 296q17 0 25 -1v-188q-9 1 -30 1q-168 0 -255 -112.5t-87 -310.5v-433h-189zM128 -556v84q175 -18 191 102q-29 -22 -73 -22q-50 0 -83 31t-33 77q0 52 38 86t100 34q72 0 113.5 -45t41.5 -127q0 -120 -76.5 -178t-218.5 -42z" />
    <glyph glyph-name="Rcaron" unicode="&#x158;" horiz-adv-x="1320" 
d="M164 0v1434h553q188 0 303 -108.5t116 -283.5q1 -174 -110.5 -283t-293.5 -109l576 -650h-257l-557 650h-137v-650h-193zM243 1915h193l172 -238l172 238h194l-226 -336h-279zM357 798h329q115 0 183.5 64t68.5 170q0 105 -68.5 169t-183.5 64h-329v-467z" />
    <glyph glyph-name="rcaron" unicode="&#x159;" horiz-adv-x="780" 
d="M134 0v1024h181v-276h1q80 296 354 296q17 0 25 -1v-188q-9 1 -30 1q-168 0 -255 -112.5t-87 -310.5v-433h-189zM27 1505h193l172 -237l172 237h194l-227 -336h-278z" />
    <glyph glyph-name="Sacute" unicode="&#x15a;" horiz-adv-x="1394" 
d="M732 -20q-298 0 -471.5 169t-160.5 437h218q-13 -197 102 -314.5t316 -117.5q164 0 260 78t96 208q0 111 -66.5 169t-198.5 80l-223 33q-195 30 -290 116t-95 232q0 175 126.5 279.5t341.5 104.5q208 0 340.5 -100t150.5 -272l-208 -1q-19 99 -95.5 154t-193.5 55
q-118 0 -190.5 -55.5t-72.5 -148.5q0 -83 60 -127.5t179 -64.5l214 -31q213 -32 318.5 -133t105.5 -276q0 -215 -152 -344.5t-411 -129.5zM541 1579l224 336h224l-252 -336h-196z" />
    <glyph glyph-name="sacute" unicode="&#x15b;" horiz-adv-x="1112" 
d="M583 -20q-224 0 -365 121t-137 317h194q-5 -125 81.5 -203.5t228.5 -78.5q114 0 183.5 49.5t69.5 131.5q0 115 -153 136l-234 31q-59 8 -107 24.5t-89.5 46t-64.5 77t-23 109.5q0 135 107 219t282 84q174 0 279 -72.5t122 -202.5h-193q-16 59 -71.5 92t-137.5 33
q-90 0 -146 -39t-56 -104q0 -101 148 -120l232 -31q61 -9 111 -27t93 -49.5t67 -81.5t24 -115q0 -155 -123 -251t-322 -96zM407 1169l224 336h224l-252 -336h-196z" />
    <glyph glyph-name="Scedilla" unicode="&#x15e;" horiz-adv-x="1394" 
d="M739 -553q-114 0 -184 60t-69 159h135q2 -50 34.5 -79t85.5 -29q52 0 84 27.5t32 73.5q0 47 -32.5 75.5t-84.5 28.5q-59 0 -98 -42l-102 50l99 214q-258 26 -404.5 190t-134.5 411h218q-13 -197 102 -314.5t316 -117.5q164 0 260 78t96 208q0 111 -66.5 169t-198.5 80
l-223 33q-195 30 -290 116t-95 232q0 175 126.5 279.5t341.5 104.5q208 0 340.5 -100t150.5 -272l-208 -1q-18 98 -95 153.5t-194 55.5q-118 0 -190.5 -55.5t-72.5 -148.5q0 -83 60 -127.5t179 -63.5l214 -32q213 -32 318.5 -133t105.5 -276q0 -209 -143.5 -338t-389.5 -136
l-63 -126q35 11 71 11q97 0 159 -55.5t62 -146.5q0 -95 -69 -155.5t-183 -60.5z" />
    <glyph glyph-name="scedilla" unicode="&#x15f;" horiz-adv-x="1112" 
d="M599 -553q-113 0 -183 60t-69 159h133q2 -50 35 -79t86 -29q52 0 84 27.5t32 73.5q0 47 -32.5 75.5t-84.5 28.5q-59 0 -98 -42l-103 50l101 214q-191 22 -306.5 138.5t-113.5 293.5h194q-3 -126 83.5 -205t228.5 -79q114 0 183 50.5t69 133.5q0 119 -153 141l-234 30
q-284 39 -284 253q0 136 107 219.5t286 83.5q171 0 275.5 -73t121.5 -202h-191q-17 59 -73 93t-138 34q-91 0 -147 -40t-56 -105q0 -103 149 -122l232 -31q295 -42 295 -271q0 -148 -111 -242.5t-294 -103.5l-64 -127q35 11 71 11q97 0 159 -55.5t62 -146.5
q0 -95 -69 -155.5t-183 -60.5z" />
    <glyph glyph-name="Scaron" unicode="&#x160;" horiz-adv-x="1394" 
d="M732 -20q-298 0 -471.5 169t-160.5 437h218q-13 -197 102 -314.5t316 -117.5q164 0 260 78t96 208q0 111 -66.5 169t-198.5 80l-223 33q-195 30 -290 116t-95 232q0 175 126.5 279.5t341.5 104.5q208 0 340.5 -100t150.5 -272l-208 -1q-19 99 -95.5 154t-193.5 55
q-118 0 -190.5 -55.5t-72.5 -148.5q0 -83 60 -127.5t179 -64.5l214 -31q213 -32 318.5 -133t105.5 -276q0 -215 -152 -344.5t-411 -129.5zM324 1915h193l172 -238l172 238h194l-227 -336h-278z" />
    <glyph glyph-name="scaron" unicode="&#x161;" horiz-adv-x="1112" 
d="M583 -20q-224 0 -365 121t-137 317h194q-5 -125 81.5 -203.5t228.5 -78.5q114 0 183.5 49.5t69.5 131.5q0 115 -153 136l-234 31q-59 8 -107 24.5t-89.5 46t-64.5 77t-23 109.5q0 135 107 219t282 84q174 0 279 -72.5t122 -202.5h-193q-16 59 -71.5 92t-137.5 33
q-90 0 -146 -39t-56 -104q0 -101 148 -120l232 -31q61 -9 111 -27t93 -49.5t67 -81.5t24 -115q0 -155 -123 -251t-322 -96zM189 1505h194l172 -237l172 237h194l-227 -336h-278z" />
    <glyph glyph-name="uni0162" unicode="&#x162;" horiz-adv-x="1142" 
d="M583 -553q-114 0 -183.5 60t-68.5 159h134q1 -50 34.5 -79t86.5 -29q51 0 82.5 27.5t31.5 73.5q0 47 -32 75.5t-83 28.5q-61 0 -100 -42l-102 50l106 229h-16v1250h-367v184h929v-184h-365v-1250h-54l-73 -146q35 11 70 11q97 0 159.5 -55.5t62.5 -146.5
q0 -95 -69 -155.5t-183 -60.5z" />
    <glyph glyph-name="uni0163" unicode="&#x163;" horiz-adv-x="798" 
d="M275 0v862h-194v146l64 3q73 4 107.5 41.5t38.5 116.5l8 145h163v-290h255v-162h-255v-862h-42l-74 -146q35 11 71 11q97 0 159 -55.5t62 -146.5q0 -95 -69 -155.5t-183 -60.5q-113 0 -183 60t-69 159h134q1 -50 34.5 -79t86.5 -29q51 0 83 27.5t32 73.5q0 47 -32.5 75.5
t-83.5 28.5q-60 0 -99 -42l-103 50l108 229h-19z" />
    <glyph glyph-name="Tcaron" unicode="&#x164;" horiz-adv-x="1142" 
d="M473 0v1250h-367v184h929v-184h-365v-1250h-197zM206 1915h193l172 -238l172 238h194l-226 -336h-279z" />
    <glyph glyph-name="tcaron" unicode="&#x165;" horiz-adv-x="798" 
d="M275 0v862h-194v146l64 3q73 4 107.5 41.5t38.5 116.5l8 145h163v-290h255v-162h-255v-862h-187zM608 1475h157l-12 -334h-133z" />
    <glyph glyph-name="Tbar" unicode="&#x166;" horiz-adv-x="1146" 
d="M476 0v692h-280v156h280v402h-366v184h928v-184h-365v-402h278v-156h-278v-692h-197z" />
    <glyph glyph-name="tbar" unicode="&#x167;" horiz-adv-x="823" 
d="M284 0v515h-170v135h170v212h-194v146l64 3q73 4 107 41t38 117l8 145h164v-290h255v-162h-255v-212h238v-135h-238v-515h-187z" />
    <glyph glyph-name="Umacron" unicode="&#x16a;" horiz-adv-x="1312" 
d="M657 -20q-233 0 -370 142.5t-137 387.5v924h201v-922q0 -159 82.5 -253t224.5 -94q141 0 225 93t84 254v922h196v-924q0 -244 -136 -387t-370 -143zM356 1665v166h600v-166h-600z" />
    <glyph glyph-name="umacron" unicode="&#x16b;" horiz-adv-x="1206" 
d="M1071 1024v-1024h-188l-1 205q-44 -108 -140 -166.5t-228 -58.5q-185 0 -290 111t-105 309v624h189v-591q0 -134 71.5 -209.5t197.5 -75.5q140 0 223 92.5t83 252.5v531h188zM297 1255v166h600v-166h-600z" />
    <glyph glyph-name="Uring" unicode="&#x16e;" horiz-adv-x="1312" 
d="M657 -20q-233 0 -370 142.5t-137 387.5v924h201v-922q0 -159 82.5 -253t224.5 -94q141 0 225 93t84 254v922h196v-924q0 -244 -136 -387t-370 -143zM386 1758q0 106 76.5 175.5t193.5 69.5t194 -69.5t77 -175.5t-77 -176t-194 -70t-193.5 69.5t-76.5 176.5zM527 1758
q0 -54 36.5 -88.5t92.5 -34.5t92.5 34.5t36.5 88.5q0 53 -36.5 87.5t-92.5 34.5t-92.5 -34.5t-36.5 -87.5z" />
    <glyph glyph-name="uring" unicode="&#x16f;" horiz-adv-x="1206" 
d="M1071 1024v-1024h-188l-1 205q-44 -108 -140 -166.5t-228 -58.5q-185 0 -290 111t-105 309v624h189v-591q0 -134 71.5 -209.5t197.5 -75.5q140 0 223 92.5t83 252.5v531h188zM327 1386q0 106 76.5 175.5t193.5 69.5t193.5 -69.5t76.5 -175.5t-76.5 -175.5t-193.5 -69.5
t-193.5 69t-76.5 176zM468 1386q0 -54 36.5 -88t92.5 -34t92.5 34t36.5 88q0 53 -36.5 87.5t-92.5 34.5t-92.5 -34.5t-36.5 -87.5z" />
    <glyph glyph-name="Uhungarumlaut" unicode="&#x170;" horiz-adv-x="1312" 
d="M657 -20q-233 0 -370 142.5t-137 387.5v924h201v-922q0 -159 82.5 -253t224.5 -94q141 0 225 93t84 254v922h196v-924q0 -244 -136 -387t-370 -143zM375 1579l216 336h208l-241 -336h-183zM753 1579l215 336h209l-241 -336h-183z" />
    <glyph glyph-name="uhungarumlaut" unicode="&#x171;" horiz-adv-x="1206" 
d="M1071 1024v-1024h-188l-1 205q-44 -108 -140 -166.5t-228 -58.5q-185 0 -290 111t-105 309v624h189v-591q0 -134 71.5 -209.5t197.5 -75.5q140 0 223 92.5t83 252.5v531h188zM315 1169l216 336h208l-240 -336h-184zM693 1169l215 336h209l-240 -336h-184z" />
    <glyph glyph-name="Uogonek" unicode="&#x172;" horiz-adv-x="1312" 
d="M749 -463q-122 0 -193.5 59t-71.5 159q0 139 128 226q-214 14 -338 155t-124 374v924h201v-922q0 -159 82.5 -253t224.5 -94q141 0 225 93t84 254v922h196v-924q0 -198 -91.5 -332t-254.5 -178q-96 -31 -149 -86t-53 -119q0 -56 39.5 -88.5t108.5 -32.5q47 0 81 12v-140
q-45 -9 -95 -9z" />
    <glyph glyph-name="uogonek" unicode="&#x173;" horiz-adv-x="1204" 
d="M980 -442q-110 0 -176 54.5t-66 148.5q0 146 149 239h-5v205q-45 -108 -140.5 -166.5t-228.5 -58.5q-185 0 -290 111t-105 309v624h189v-591q0 -135 71 -210t197 -75q141 0 224 92.5t83 252.5v531h189v-1024q-95 -29 -148.5 -81t-53.5 -118q0 -51 33 -78.5t91 -27.5
q38 0 78 11v-139q-47 -9 -91 -9z" />
    <glyph glyph-name="Wcircumflex" unicode="&#x174;" horiz-adv-x="1822" 
d="M415 0l-322 1434h204l242 -1206h7l254 1166h225l256 -1167h6l243 1207h201l-324 -1434h-230l-263 1171h-7l-257 -1171h-235zM546 1579l226 336h279l226 -336h-194l-172 237l-172 -237h-193z" />
    <glyph glyph-name="wcircumflex" unicode="&#x175;" horiz-adv-x="1775" 
d="M428 0l-348 1024h199l249 -813h9l248 813h205l250 -815h8l250 815h198l-347 -1024h-197l-260 840h-8l-260 -840h-196zM522 1169l227 336h278l226 -336h-193l-172 237l-172 -237h-194z" />
    <glyph glyph-name="Ycircumflex" unicode="&#x176;" horiz-adv-x="1310" 
d="M557 0v559l-494 875h227l363 -671h7l364 671h223l-493 -875v-559h-197zM290 1579l226 336h279l226 -336h-194l-172 237l-172 -237h-193z" />
    <glyph glyph-name="ycircumflex" unicode="&#x177;" horiz-adv-x="1304" 
d="M624 -553q-253 0 -404 138.5t-149 366.5h186q-5 -155 94 -248t270 -93q170 0 267 92t97 249l-1 272h-1q-43 -105 -139 -163t-230 -58q-187 0 -292.5 111.5t-105.5 309.5v600h192v-567q0 -135 71 -210t197 -75q140 0 223 91t83 247v514h188v-1071q0 -232 -148.5 -369
t-397.5 -137zM334 1169l226 336h279l226 -336h-194l-172 237l-172 -237h-193z" />
    <glyph glyph-name="Ydieresis" unicode="&#x178;" horiz-adv-x="1310" 
d="M557 0v559l-494 875h227l363 -671h7l364 671h223l-493 -875v-559h-197zM313 1750q0 55 40 91.5t100 36.5q59 0 98.5 -36.5t39.5 -91.5t-39.5 -91t-98.5 -36q-60 0 -100 36t-40 91zM721 1750q0 56 39 92t99 36q59 0 98.5 -36.5t39.5 -91.5t-39.5 -91t-98.5 -36
q-60 0 -99 36t-39 91z" />
    <glyph glyph-name="Zacute" unicode="&#x179;" horiz-adv-x="1222" 
d="M116 0v145l710 1110h-688v179h927v-146l-711 -1110h756v-178h-994zM486 1579l225 336h224l-252 -336h-197z" />
    <glyph glyph-name="zacute" unicode="&#x17a;" horiz-adv-x="999" 
d="M92 0v137l559 731h-531v156h759v-137l-560 -731h588v-156h-815zM353 1169l225 336h224l-252 -336h-197z" />
    <glyph glyph-name="Zdotaccent" unicode="&#x17b;" horiz-adv-x="1222" 
d="M116 0v145l710 1110h-688v179h927v-146l-711 -1110h756v-178h-994zM485 1746q0 60 42.5 99t107.5 39q64 0 106 -39t42 -99q0 -59 -42 -97.5t-106 -38.5q-65 0 -107.5 39t-42.5 97z" />
    <glyph glyph-name="zdotaccent" unicode="&#x17c;" horiz-adv-x="999" 
d="M92 0v137l559 731h-531v156h759v-137l-560 -731h588v-156h-815zM352 1336q0 60 42.5 99.5t107.5 39.5q64 0 106 -39.5t42 -99.5q0 -59 -42 -97.5t-106 -38.5q-65 0 -107.5 39t-42.5 97z" />
    <glyph glyph-name="Zcaron" unicode="&#x17d;" horiz-adv-x="1222" 
d="M116 0v145l710 1110h-688v179h927v-146l-711 -1110h756v-178h-994zM269 1915h194l172 -238l172 238h193l-226 -336h-278z" />
    <glyph glyph-name="zcaron" unicode="&#x17e;" horiz-adv-x="999" 
d="M92 0v137l559 731h-531v156h759v-137l-560 -731h588v-156h-815zM136 1505h194l172 -237l172 237h193l-226 -336h-279z" />
    <glyph glyph-name="uni0218" unicode="&#x218;" horiz-adv-x="1394" 
d="M732 -20q-298 0 -471.5 169t-160.5 437h218q-13 -197 102 -314.5t316 -117.5q164 0 260 78t96 208q0 111 -66.5 169t-198.5 80l-223 33q-195 30 -290 116t-95 232q0 175 126.5 279.5t341.5 104.5q208 0 340.5 -100t150.5 -272l-208 -1q-19 99 -95.5 154t-193.5 55
q-118 0 -190.5 -55.5t-72.5 -148.5q0 -83 60 -127.5t179 -64.5l214 -31q213 -32 318.5 -133t105.5 -276q0 -215 -152 -344.5t-411 -129.5zM591 -556v84q175 -18 191 102q-29 -22 -73 -22q-50 0 -83 31t-33 77q0 52 38 86t100 34q72 0 113.5 -45t41.5 -127q0 -120 -76.5 -178
t-218.5 -42z" />
    <glyph glyph-name="uni0219" unicode="&#x219;" horiz-adv-x="1112" 
d="M583 -20q-224 0 -365 121t-137 317h194q-5 -125 81.5 -203.5t228.5 -78.5q114 0 183.5 49.5t69.5 131.5q0 115 -153 136l-234 31q-59 8 -107 24.5t-89.5 46t-64.5 77t-23 109.5q0 135 107 219t282 84q174 0 279 -72.5t122 -202.5h-193q-16 59 -71.5 92t-137.5 33
q-90 0 -146 -39t-56 -104q0 -101 148 -120l232 -31q61 -9 111 -27t93 -49.5t67 -81.5t24 -115q0 -155 -123 -251t-322 -96zM451 -556v84q175 -18 191 102q-29 -22 -74 -22q-50 0 -82.5 31t-32.5 77q0 52 38 86t100 34q72 0 113 -45t41 -127q0 -120 -76.5 -178t-217.5 -42z
" />
    <glyph glyph-name="uni021A" unicode="&#x21a;" horiz-adv-x="1142" 
d="M473 0v1250h-367v184h929v-184h-365v-1250h-197zM428 -556v84q176 -18 192 102q-29 -22 -74 -22q-50 0 -83 31t-33 77q0 52 38 86t100 34q72 0 113.5 -45t41.5 -127q0 -120 -76.5 -178t-218.5 -42z" />
    <glyph glyph-name="uni021B" unicode="&#x21b;" horiz-adv-x="798" 
d="M275 0v862h-194v146l64 3q73 4 107.5 41.5t38.5 116.5l8 145h163v-290h255v-162h-255v-862h-187zM238 -556v84q175 -18 191 102q-29 -22 -74 -22q-50 0 -82.5 31t-32.5 77q0 52 38 86t100 34q72 0 113 -45t41 -127q0 -120 -76.5 -178t-217.5 -42z" />
    <glyph glyph-name="uni02BC" unicode="&#x2bc;" horiz-adv-x="647" 
d="M156 1089q205 -21 223 123q-34 -27 -86 -27q-59 0 -97.5 38.5t-38.5 94.5q0 64 45 105t116 41q85 0 134.5 -55.5t49.5 -154.5q0 -146 -90 -216.5t-256 -50.5v102z" />
    <glyph glyph-name="circumflex" unicode="&#x2c6;" horiz-adv-x="1228" 
d="M249 1169l226 336h279l226 -336h-194l-172 237l-172 -237h-193z" />
    <glyph glyph-name="caron" unicode="&#x2c7;" horiz-adv-x="1228" 
d="M475 1169l-226 336h193l172 -237l172 237h194l-226 -336h-279z" />
    <glyph glyph-name="breve" unicode="&#x2d8;" horiz-adv-x="1228" 
d="M614 1161q-158 0 -249.5 92.5t-89.5 251.5h175q1 -97 43 -149t121 -52t121.5 52t43.5 149h174q2 -159 -89.5 -251.5t-249.5 -92.5z" />
    <glyph glyph-name="dotaccent" unicode="&#x2d9;" horiz-adv-x="1228" 
d="M614 1200q-64 0 -106.5 38.5t-42.5 97.5q0 60 42.5 99.5t106.5 39.5t106.5 -39.5t42.5 -99.5q0 -58 -42.5 -97t-106.5 -39z" />
    <glyph glyph-name="ring" unicode="&#x2da;" horiz-adv-x="1228" 
d="M614 1141q-117 0 -193.5 69t-76.5 176q0 106 76.5 175.5t193.5 69.5t194 -69.5t77 -175.5t-77 -175.5t-194 -69.5zM485 1386q0 -54 36.5 -88t92.5 -34t92.5 34t36.5 88q0 53 -36.5 87.5t-92.5 34.5t-92.5 -34.5t-36.5 -87.5z" />
    <glyph glyph-name="ogonek" unicode="&#x2db;" horiz-adv-x="1228" 
d="M602 0q-100 0 -158 -44t-58 -120q0 -65 42 -103t112 -38q35 0 74 11v-138q-41 -10 -89 -10q-123 0 -197 67t-74 181t76 185.5t210 81.5l74 -73h-12z" />
    <glyph glyph-name="tilde" unicode="&#x2dc;" horiz-adv-x="1228" 
d="M798 1157q-55 0 -101 22.5t-104 73.5l-50 56q-59 59 -107 59q-80 0 -80 -100v-99h-139v109q0 114 57.5 177.5t158.5 63.5q54 0 100 -23t104 -75l50 -54q60 -60 107 -60q79 0 79 101v98h140v-108q0 -114 -57.5 -177.5t-157.5 -63.5z" />
    <glyph glyph-name="hungarumlaut" unicode="&#x2dd;" horiz-adv-x="1228" 
d="M711 1169l215 336h209l-241 -336h-183zM333 1169l216 336h208l-241 -336h-183z" />
    <glyph glyph-name="gravecomb" unicode="&#x300;" horiz-adv-x="0" 
d="M763 1169h-197l-252 336h225z" />
    <glyph glyph-name="acutecomb" unicode="&#x301;" horiz-adv-x="0" 
d="M466 1169l224 336h224l-251 -336h-197z" />
    <glyph glyph-name="uni0302" unicode="&#x302;" horiz-adv-x="0" 
d="M249 1169l226 336h279l226 -336h-194l-172 237l-172 -237h-193z" />
    <glyph glyph-name="tildecomb" unicode="&#x303;" horiz-adv-x="0" 
d="M798 1157q-55 0 -101 22.5t-104 73.5l-50 56q-59 59 -107 59q-80 0 -80 -100v-99h-139v109q0 114 57.5 177.5t158.5 63.5q54 0 100 -23t104 -75l50 -54q60 -60 107 -60q79 0 79 101v98h140v-108q0 -114 -57.5 -177.5t-157.5 -63.5z" />
    <glyph glyph-name="uni0304" unicode="&#x304;" horiz-adv-x="0" 
d="M314 1255v166h600v-166h-600z" />
    <glyph glyph-name="uni0306" unicode="&#x306;" horiz-adv-x="0" 
d="M614 1161q-158 0 -249.5 92.5t-89.5 251.5h175q1 -97 43 -149t121 -52t121.5 52t43.5 149h174q2 -159 -89.5 -251.5t-249.5 -92.5z" />
    <glyph glyph-name="uni0307" unicode="&#x307;" horiz-adv-x="0" 
d="M614 1200q-64 0 -106.5 38.5t-42.5 97.5q0 60 42.5 99.5t106.5 39.5t106.5 -39.5t42.5 -99.5q0 -58 -42.5 -97t-106.5 -39z" />
    <glyph glyph-name="uni0308" unicode="&#x308;" horiz-adv-x="0" 
d="M412 1213q-60 0 -100 36t-40 91t40 91.5t100 36.5q59 0 98.5 -36.5t39.5 -91.5t-39.5 -91t-98.5 -36zM680 1340q0 56 39 92t99 36q59 0 98.5 -36.5t39.5 -91.5t-39.5 -91t-98.5 -36q-60 0 -99 36t-39 91z" />
    <glyph glyph-name="uni030A" unicode="&#x30a;" horiz-adv-x="0" 
d="M614 1141q-117 0 -193.5 69t-76.5 176q0 106 76.5 175.5t193.5 69.5t194 -69.5t77 -175.5t-77 -175.5t-194 -69.5zM485 1386q0 -54 36.5 -88t92.5 -34t92.5 34t36.5 88q0 53 -36.5 87.5t-92.5 34.5t-92.5 -34.5t-36.5 -87.5z" />
    <glyph glyph-name="uni030B" unicode="&#x30b;" horiz-adv-x="0" 
d="M711 1169l215 336h209l-241 -336h-183zM333 1169l216 336h208l-241 -336h-183z" />
    <glyph glyph-name="uni030C" unicode="&#x30c;" horiz-adv-x="0" 
d="M475 1169l-226 336h193l172 -237l172 237h194l-226 -336h-279z" />
    <glyph glyph-name="uni0312" unicode="&#x312;" horiz-adv-x="0" 
d="M616 1207q-73 0 -114 45t-41 127q0 120 76.5 177.5t217.5 42.5v-83q-176 18 -191 -104q28 23 74 23q50 0 82.5 -31t32.5 -77q0 -52 -38 -86t-99 -34z" />
    <glyph glyph-name="uni0326" unicode="&#x326;" horiz-adv-x="0" 
d="M475 -472q175 -18 192 102q-29 -22 -74 -22q-50 0 -83 31t-33 77q0 52 38 86t100 34q72 0 113.5 -45t41.5 -127q0 -120 -76.5 -178t-218.5 -42v84z" />
    <glyph glyph-name="uni0327" unicode="&#x327;" horiz-adv-x="0" 
d="M624 -553q-113 0 -183 60t-69 159h134q1 -50 34.5 -79t86.5 -29q51 0 82.5 27.5t31.5 73.5q0 47 -32 75.5t-83 28.5q-61 0 -100 -42l-102 50l143 305l105 -47l-88 -175q35 11 70 11q97 0 159.5 -55.5t62.5 -146.5q0 -95 -69 -155.5t-183 -60.5z" />
    <glyph glyph-name="uni0328" unicode="&#x328;" horiz-adv-x="0" 
d="M602 0q-100 0 -158 -44t-58 -120q0 -65 42 -103t112 -38q35 0 74 11v-138q-41 -10 -89 -10q-123 0 -197 67t-74 181t76 185.5t210 81.5l74 -73h-12z" />
    <glyph glyph-name="uni0335" unicode="&#x335;" horiz-adv-x="0" 
d="M237 694v155h755v-155h-755z" />
    <glyph glyph-name="uni0336" unicode="&#x336;" horiz-adv-x="0" 
d="M276 1046v145h820v-145h-820z" />
    <glyph glyph-name="uni0337" unicode="&#x337;" horiz-adv-x="0" 
d="M312 546v143l604 199v-144z" />
    <glyph glyph-name="uni0338" unicode="&#x338;" horiz-adv-x="0" 
d="M35 16l-117 117l1283 1284l118 -117z" />
    <glyph glyph-name="uni0401" unicode="&#x401;" horiz-adv-x="1028" 
d="M162 0v1434h737v-171h-545v-426h539v-171h-539v-495h545v-171h-737zM188 1750q0 55 40 91.5t100 36.5q59 0 98.5 -36.5t39.5 -91.5t-39.5 -91t-98.5 -36q-60 0 -100 36t-40 91zM596 1750q0 56 39 92t99 36q59 0 98.5 -36.5t39.5 -91.5t-39.5 -91t-98.5 -36q-60 0 -99 36
t-39 91z" />
    <glyph glyph-name="uni0410" unicode="&#x410;" horiz-adv-x="1540" 
d="M48 0l596 1434h251l597 -1434h-211l-221 543h-582l-221 -543h-209zM541 711h456l-151 370q-17 41 -72 187h-10q-36 -96 -73 -188z" />
    <glyph glyph-name="uni0411" unicode="&#x411;" horiz-adv-x="1204" 
d="M164 0v1434h841v-171h-649v-412h311q206 0 330.5 -116.5t124.5 -307.5q0 -193 -124 -310t-331 -117h-503zM356 168h293q125 0 199.5 71t74.5 188t-74.5 186.5t-198.5 69.5h-294v-515z" />
    <glyph glyph-name="uni0412" unicode="&#x412;" horiz-adv-x="1214" 
d="M162 0v1434h528q184 0 294.5 -101t110.5 -265q0 -115 -56 -199.5t-157 -123.5q112 -42 174 -134.5t62 -219.5q0 -175 -117.5 -283t-311.5 -108h-527zM354 168h299q122 0 194.5 69t72.5 183t-73 182t-194 68h-299v-502zM354 824h304q109 0 173.5 60t64.5 160t-64.5 161
t-173.5 61h-304v-442z" />
    <glyph glyph-name="uni0413" unicode="&#x413;" horiz-adv-x="1009" 
d="M164 0v1434h794v-184h-598v-1250h-196z" />
    <glyph glyph-name="uni0414" unicode="&#x414;" horiz-adv-x="1490" 
d="M72 -279v462h135q64 46 93.5 180.5t48.5 430.5l33 640h844v-1251h158v-462h-190v279h-932v-279h-190zM427 180h604v1073h-471l-22 -476q-12 -225 -37.5 -369t-73.5 -228z" />
    <glyph glyph-name="uni0415" unicode="&#x415;" horiz-adv-x="1028" 
d="M162 0v1434h737v-171h-545v-426h539v-171h-539v-495h545v-171h-737z" />
    <glyph glyph-name="uni0416" unicode="&#x416;" horiz-adv-x="1859" 
d="M54 0l600 724l-588 710h240l524 -671h3v671h195v-671h2l524 671h241l-589 -710l600 -724h-251l-525 667h-2v-667h-195v667h-3l-526 -667h-250z" />
    <glyph glyph-name="uni0417" unicode="&#x417;" horiz-adv-x="1458" 
d="M761 -20q-297 0 -468 166t-171 455q0 77 11 147h206q-12 -80 -12 -147q0 -210 115 -328t319 -118q169 0 273 79t104 209q0 118 -86 192.5t-236 74.5h-218v154h194q126 0 197.5 54t71.5 146q0 101 -84.5 161.5t-220.5 60.5q-148 0 -244 -73.5t-120 -200.5h-214
q22 201 174 321.5t398 120.5q229 0 371 -104.5t142 -276.5q0 -99 -50.5 -170.5t-146.5 -109.5q135 -42 209.5 -137.5t74.5 -228.5q0 -201 -163 -324t-426 -123z" />
    <glyph glyph-name="uni0418" unicode="&#x418;" horiz-adv-x="1376" 
d="M1212 0h-195v1142l-5 2l-638 -1144h-210v1434h195v-1142l6 -2l637 1144h210v-1434z" />
    <glyph glyph-name="uni0419" unicode="&#x419;" horiz-adv-x="1376" 
d="M1212 0h-195v1142l-5 2l-638 -1144h-210v1434h195v-1142l6 -2l637 1144h210v-1434zM349 1915h175q1 -104 43.5 -159t120.5 -55t120.5 55t43.5 159h175q2 -159 -89.5 -251.5t-249.5 -92.5t-249.5 92.5t-89.5 251.5z" />
    <glyph glyph-name="uni041A" unicode="&#x41a;" horiz-adv-x="1224" 
d="M164 0v1434h196v-658h1l526 658h239l-587 -710l600 -724h-251l-527 653h-1v-653h-196z" />
    <glyph glyph-name="uni041B" unicode="&#x41b;" horiz-adv-x="1390" 
d="M135 -14q-54 0 -92 5v178q36 -4 68 -4q51 0 84.5 17t59.5 55t42.5 112.5t27.5 175t20 256.5l33 653h850v-1434h-197v1250h-474l-22 -486q-8 -155 -20 -266.5t-33 -201.5t-49.5 -146.5t-71.5 -94.5t-97.5 -53.5t-128.5 -15.5z" />
    <glyph glyph-name="uni041C" unicode="&#x41c;" horiz-adv-x="1679" 
d="M164 0v1434h305l367 -1075h8l366 1075h306v-1434h-191v1212l-7 1l-390 -1090h-176l-391 1090l-7 -1v-1212h-190z" />
    <glyph glyph-name="uni041D" unicode="&#x41d;" horiz-adv-x="1345" 
d="M985 -1v669h-625v-669h-196v1434h196v-582h625v582h197v-1434h-197z" />
    <glyph glyph-name="uni041E" unicode="&#x41e;" horiz-adv-x="1744" 
d="M872 -20q-213 0 -386.5 96t-272 264.5t-98.5 376.5t98.5 376.5t272 264.5t386.5 96t386.5 -96t272 -264.5t98.5 -376.5t-98.5 -376.5t-272 -264.5t-386.5 -96zM319 717q0 -239 157.5 -396.5t395.5 -157.5t395 157.5t157 396.5t-157 396.5t-395 157.5t-395.5 -157.5
t-157.5 -396.5z" />
    <glyph glyph-name="uni041F" unicode="&#x41f;" horiz-adv-x="1318" 
d="M164 0v1434h991v-1434h-197v1250h-598v-1250h-196z" />
    <glyph glyph-name="uni0420" unicode="&#x420;" horiz-adv-x="1216" 
d="M164 0v1434h488q200 0 326 -118t127 -307t-124.5 -307t-328.5 -118h-292v-584h-196zM360 759h277q119 0 190.5 68.5t71.5 181.5q0 112 -71.5 179.5t-190.5 67.5h-277v-497z" />
    <glyph glyph-name="uni0421" unicode="&#x421;" horiz-adv-x="1751" 
d="M891 -20q-166 0 -310 56.5t-245 154.5t-159 235.5t-58 294.5q0 158 58 294.5t158.5 232.5t242.5 151t304 55q246 0 432.5 -119t249.5 -323h-217q-58 123 -183.5 191.5t-283.5 68.5q-246 0 -400.5 -155t-154.5 -394q0 -160 71.5 -287.5t200.5 -200t292 -72.5
q165 0 293 73.5t195.5 208t55.5 303.5h203q14 -161 -36 -304t-149 -244.5t-244.5 -160.5t-315.5 -59z" />
    <glyph glyph-name="uni0422" unicode="&#x422;" horiz-adv-x="1142" 
d="M473 0v1250h-367v184h929v-184h-365v-1250h-197z" />
    <glyph glyph-name="uni0423" unicode="&#x423;" horiz-adv-x="1306" 
d="M242 0l332 578l-483 856h226l368 -679l368 679h221l-811 -1434h-221z" />
    <glyph glyph-name="uni0424" unicode="&#x424;" horiz-adv-x="1873" 
d="M839 0v105h-65q-293 0 -476 170t-183 442t183 441.5t476 169.5h65v106h196v-106h65q194 0 344 -77t233 -216t83 -318t-83 -318.5t-233 -216.5t-344 -77h-65v-105h-196zM316 717q0 -195 128 -318t331 -123h64v881h-64q-203 0 -331 -122.5t-128 -317.5zM1035 276h64
q203 0 331.5 123t128.5 318t-128.5 317.5t-331.5 122.5h-64v-881z" />
    <glyph glyph-name="uni0425" unicode="&#x425;" horiz-adv-x="1390" 
d="M1100 0l-409 604l-409 -604h-230l531 757l-474 677h237l350 -519l351 519h229l-472 -672l533 -762h-237z" />
    <glyph glyph-name="uni0426" unicode="&#x426;" horiz-adv-x="1413" 
d="M1116 -279v279h-952v1434h196v-1251h591v1251h197v-1251h159v-462h-191z" />
    <glyph glyph-name="uni0427" unicode="&#x427;" horiz-adv-x="1290" 
d="M930 616q-150 -82 -346 -82q-217 0 -338.5 122t-121.5 344v434h197v-403q0 -151 81.5 -232.5t227.5 -81.5q81 0 161 21t139 58v638h196v-1434h-196v616z" />
    <glyph glyph-name="uni0428" unicode="&#x428;" horiz-adv-x="1929" 
d="M164 0v1434h196v-1251h506v1251h197v-1251h506v1251h196v-1434h-1601z" />
    <glyph glyph-name="uni0429" unicode="&#x429;" horiz-adv-x="2029" 
d="M164 0v1434h196v-1251h506v1251h197v-1251h506v1251h196v-1251h158v-462h-190v279h-1569z" />
    <glyph glyph-name="uni042A" unicode="&#x42a;" horiz-adv-x="1394" 
d="M352 0v1263h-297v171h494v-561h301q212 0 339.5 -120t127.5 -316q0 -197 -127.5 -317t-339.5 -120h-498zM549 169h281q131 0 208 73.5t77 195.5q0 121 -77.5 194t-206.5 73h-282v-536z" />
    <glyph glyph-name="uni042B" unicode="&#x42b;" horiz-adv-x="1693" 
d="M164 0v1434h196v-561h296q212 0 339.5 -120t127.5 -316q0 -197 -127.5 -317t-339.5 -120h-492zM360 169h278q130 0 207 73.5t77 195.5q0 121 -77.5 194t-205.5 73h-279v-536zM1333 0v1434h197v-1434h-197z" />
    <glyph glyph-name="uni042C" unicode="&#x42c;" horiz-adv-x="1206" 
d="M164 0v1434h196v-561h302q211 0 338 -119.5t127 -316.5t-127 -317t-338 -120h-498zM360 169h282q131 0 208 73.5t77 195.5q0 121 -77.5 194t-206.5 73h-283v-536z" />
    <glyph glyph-name="uni042D" unicode="&#x42d;" horiz-adv-x="1751" 
d="M860 -20q-170 0 -315.5 59t-244.5 160.5t-149 244.5t-36 304h203q-9 -127 28 -236.5t109.5 -185.5t177.5 -119.5t228 -43.5q233 0 388.5 143t169.5 364h-612v164h607q-33 196 -180.5 317t-362.5 121q-158 0 -283.5 -68.5t-183.5 -191.5h-217q63 204 249.5 323t432.5 119
q162 0 304 -55t242.5 -151t158.5 -232.5t58 -294.5q0 -157 -58 -294.5t-159 -235.5t-245 -154.5t-310 -56.5z" />
    <glyph glyph-name="uni042E" unicode="&#x42e;" horiz-adv-x="2193" 
d="M1333 -20q-151 0 -284.5 52.5t-230.5 143.5t-156.5 218.5t-68.5 273.5h-233v-669h-196v1434h196v-582h245q44 266 245.5 434.5t482.5 168.5q210 0 380.5 -96t267.5 -264.5t97 -376.5t-97 -376.5t-267.5 -264.5t-380.5 -96zM788 717q0 -238 154.5 -396t387.5 -158
q115 0 216 42t172.5 115.5t113 176t41.5 220.5t-41.5 220.5t-113 176t-172.5 115.5t-216 42q-233 0 -387.5 -158t-154.5 -396z" />
    <glyph glyph-name="uni042F" unicode="&#x42f;" horiz-adv-x="1314" 
d="M24 0l574 650h-15q-182 0 -293.5 109t-110.5 283q1 175 116 283.5t303 108.5h554v-1434h-195v650h-129l-557 -650h-247zM377 1032q0 -106 68.5 -170t183.5 -64h328v467h-328q-115 0 -183.5 -64t-68.5 -169z" />
    <glyph glyph-name="uni0430" unicode="&#x430;" horiz-adv-x="1325" 
d="M602 -20q-219 0 -365.5 152t-146.5 380t146.5 380t365.5 152q132 0 238.5 -62t159.5 -169h1v211h190v-1024h-190v211h-1q-54 -107 -160 -169t-238 -62zM286 512q0 -158 103 -261.5t260 -103.5t260 104t103 261q0 158 -103.5 261.5t-260.5 103.5q-156 0 -259 -104
t-103 -261z" />
    <glyph glyph-name="uni0431" unicode="&#x431;" horiz-adv-x="1312" 
d="M677 -20q-127 0 -238 46t-182 131q-76 89 -112 208t-36 286q0 179 37 317.5t98.5 226t149.5 144t181.5 79t202.5 22.5h169q47 0 68 14.5t20 46.5h174q6 -116 -54.5 -172t-195.5 -56h-168q-249 0 -371 -124.5t-139 -399.5l3 -1q55 120 169 187t263 67q222 0 365.5 -140.5
t143.5 -359.5q0 -228 -153.5 -375t-394.5 -147zM314 499q0 -150 102 -252t261 -102q157 0 257 100.5t100 253.5q0 152 -99.5 248.5t-257.5 96.5q-159 0 -261 -97t-102 -248z" />
    <glyph glyph-name="uni0432" unicode="&#x432;" horiz-adv-x="1126" 
d="M134 0v1024h586q144 0 229.5 -72.5t85.5 -191.5q0 -83 -42.5 -143.5t-119.5 -89.5q86 -30 133.5 -95.5t47.5 -155.5q0 -126 -90 -201t-241 -75h-589zM317 152h374q82 0 129 41t47 111t-47.5 111t-130.5 41h-372v-304zM317 605h374q74 0 117 36t43 97t-43 97.5t-117 36.5
h-374v-267z" />
    <glyph glyph-name="uni0433" unicode="&#x433;" horiz-adv-x="923" 
d="M134 0v1024h727v-163h-538v-861h-189z" />
    <glyph glyph-name="uni0434" unicode="&#x434;" horiz-adv-x="1277" 
d="M22 -279v442h153q49 39 70.5 139.5t30.5 304.5l21 417h765v-861h160v-442h-181v279h-839v-279h-180zM372 161h509v702h-419l-12 -271q-9 -303 -78 -431z" />
    <glyph glyph-name="uni0435" unicode="&#x435;" horiz-adv-x="1245" 
d="M635 -20q-240 0 -392.5 151t-152.5 386q0 231 152.5 379t387.5 148q233 0 373.5 -140.5t136.5 -371.5h-864v-7q0 -170 99.5 -275t255.5 -105q140 0 233 77.5t100 199.5h194q-10 -195 -157 -318.5t-366 -123.5zM301 672h638q-27 108 -107.5 166t-202.5 58
q-124 0 -209 -59.5t-119 -164.5z" />
    <glyph glyph-name="uni0436" unicode="&#x436;" horiz-adv-x="1669" 
d="M71 0l481 517l-461 507h233l413 -474l3 1v473h189v-473l3 -1l414 474h232l-461 -507l481 -517h-240l-426 479l-3 -1v-478h-189v478l-3 1l-426 -479h-240z" />
    <glyph glyph-name="uni0437" unicode="&#x437;" horiz-adv-x="1124" 
d="M585 -20q-234 0 -369.5 121t-135.5 331q0 33 5 86h190q-4 -51 -4 -79q0 -145 82 -224t231 -79q121 0 195 51.5t74 133.5q0 74 -60 119.5t-163 45.5h-162v138h137q88 0 138 34.5t50 93.5q0 66 -61 104.5t-159 38.5q-109 0 -176.5 -50t-78.5 -136h-189q6 151 125 243
t316 92q181 0 293.5 -76.5t112.5 -203.5q0 -143 -148 -203q103 -31 161 -97t58 -159q0 -143 -128 -234t-334 -91z" />
    <glyph glyph-name="uni0438" unicode="&#x438;" horiz-adv-x="1206" 
d="M134 0v1024h187v-777l4 -1l568 778h180v-1024h-187v777l-4 1l-568 -778h-180z" />
    <glyph glyph-name="uni0439" unicode="&#x439;" horiz-adv-x="1208" 
d="M134 0v1024h187v-777l4 -1l568 778h180v-1024h-187v777l-4 1l-568 -778h-180zM264 1505h175q1 -104 43.5 -159t120.5 -55t120.5 55t43.5 159h175q2 -159 -89.5 -251.5t-249.5 -92.5t-249.5 92.5t-89.5 251.5z" />
    <glyph glyph-name="uni043A" unicode="&#x43a;" horiz-adv-x="1062" 
d="M134 0v1024h189v-471l3 -1l413 472h234l-462 -507l482 -517h-241l-426 477l-3 -1v-476h-189z" />
    <glyph glyph-name="uni043B" unicode="&#x43b;" horiz-adv-x="1189" 
d="M105 -11q-50 0 -75 5v156q38 -4 53 -4q74 0 114 41t60.5 144.5t25.5 301.5l14 391h759v-1024h-190v861h-400l-8 -245q-5 -245 -39.5 -379t-108 -191t-205.5 -57z" />
    <glyph glyph-name="uni043C" unicode="&#x43c;" horiz-adv-x="1548" 
d="M134 0v1024h284l353 -749h6l355 749h283v-1024h-180v846l-8 2l-374 -773h-158l-372 773l-9 -2v-846h-180z" />
    <glyph glyph-name="uni043D" unicode="&#x43d;" horiz-adv-x="1202" 
d="M134 -1v1024h189v-406h557v406h189v-1024h-189v456h-557v-456h-189z" />
    <glyph glyph-name="uni043E" unicode="&#x43e;" horiz-adv-x="1290" 
d="M644 -20q-241 0 -397.5 151t-156.5 381t156.5 381t397.5 151t398 -150.5t157 -381.5t-157 -381.5t-398 -150.5zM282 512q0 -158 102.5 -262t259.5 -104t260.5 104t103.5 262t-103.5 262t-260.5 104t-259.5 -104t-102.5 -262z" />
    <glyph glyph-name="uni043F" unicode="&#x43f;" horiz-adv-x="1175" 
d="M134 0v1024h907v-1024h-188v861h-530v-861h-189z" />
    <glyph glyph-name="uni0440" unicode="&#x440;" horiz-adv-x="1325" 
d="M134 -532v1556h189v-211h2q54 107 159.5 169t237.5 62q144 0 261.5 -69t184 -191t66.5 -272q0 -228 -146.5 -380t-365.5 -152q-132 0 -237.5 62t-159.5 169h-2v-743h-189zM313 512q0 -157 103 -261t260 -104t260 103.5t103 261.5q0 157 -103 261t-259 104
q-158 0 -261 -103.5t-103 -261.5z" />
    <glyph glyph-name="uni0441" unicode="&#x441;" horiz-adv-x="1265" 
d="M644 -20q-245 0 -399.5 150t-154.5 383t154.5 382t395.5 149q187 0 322 -91t182 -247h-205q-39 78 -119 125t-181 47q-155 0 -254.5 -103t-99.5 -263q0 -159 99.5 -262.5t260.5 -103.5q160 0 255 105t82 267h199q13 -239 -138.5 -388.5t-398.5 -149.5z" />
    <glyph glyph-name="uni0442" unicode="&#x442;" horiz-adv-x="1034" 
d="M423 0v861h-357v163h903v-163h-358v-861h-188z" />
    <glyph glyph-name="uni0443" unicode="&#x443;" horiz-adv-x="1304" 
d="M624 -553q-253 0 -404 138.5t-149 366.5h186q-5 -155 94 -248t270 -93q170 0 267 92t97 249l-1 272h-1q-43 -105 -139 -163t-230 -58q-187 0 -292.5 111.5t-105.5 309.5v600h192v-567q0 -135 71 -210t197 -75q140 0 223 91t83 247v514h188v-1071q0 -232 -148.5 -369
t-397.5 -137z" />
    <glyph glyph-name="uni0444" unicode="&#x444;" horiz-adv-x="1550" 
d="M683 -532v516h-20q-164 0 -295 68t-204.5 188.5t-73.5 271.5t73.5 271.5t204.5 188.5t295 68h20v435h185v-435h21q249 0 410.5 -149t161.5 -379t-161.5 -379t-410.5 -149h-21v-516h-185zM282 512q0 -158 111 -262t280 -104h10v732h-11q-169 0 -279.5 -104t-110.5 -262z
M868 146h11q169 0 280 104t111 262t-110.5 262t-279.5 104h-12v-732z" />
    <glyph glyph-name="uni0445" unicode="&#x445;" horiz-adv-x="1173" 
d="M71 0l412 528l-387 496h229l263 -359l260 359h226l-385 -492l414 -532h-233l-285 395l-288 -395h-226z" />
    <glyph glyph-name="uni0446" unicode="&#x446;" horiz-adv-x="1243" 
d="M134 0v1024h189v-861h520v861h188v-861h156v-442h-180v279h-873z" />
    <glyph glyph-name="uni0447" unicode="&#x447;" horiz-adv-x="1126" 
d="M803 437q-129 -78 -315 -78q-195 0 -303 108t-108 304v253h188v-222q0 -132 72.5 -206t199.5 -74q70 0 141.5 19.5t124.5 52.5v430h188v-1024h-188v437z" />
    <glyph glyph-name="uni0448" unicode="&#x448;" horiz-adv-x="1720" 
d="M134 0v1024h189v-861h443v861h188v-861h444v861h188v-1024h-1452z" />
    <glyph glyph-name="uni0449" unicode="&#x449;" horiz-adv-x="1798" 
d="M1562 -279v279h-1428v1024h189v-861h443v861h188v-861h444v861h188v-861h156v-442h-180z" />
    <glyph glyph-name="uni044A" unicode="&#x44a;" horiz-adv-x="1261" 
d="M271 0v862h-237v162h426v-361h345q177 0 281.5 -90.5t104.5 -241.5t-104.5 -241t-281.5 -90h-534zM459 156h338q93 0 148 48t55 128q0 79 -54.5 126.5t-147.5 47.5h-339v-350z" />
    <glyph glyph-name="uni044B" unicode="&#x44b;" horiz-adv-x="1548" 
d="M134 0v1024h189v-361h341q178 0 282.5 -90.5t104.5 -241.5t-105 -241t-282 -90h-530zM322 156h334q93 0 148 48t55 128q0 79 -55 126.5t-148 47.5h-334v-350zM1227 0v1024h188v-1024h-188z" />
    <glyph glyph-name="uni044C" unicode="&#x44c;" horiz-adv-x="1124" 
d="M134 0v1024h189v-361h345q178 0 282.5 -90.5t104.5 -241.5t-105 -241t-282 -90h-534zM322 156h338q93 0 148 48t55 128q0 79 -55 126.5t-148 47.5h-338v-350z" />
    <glyph glyph-name="uni044D" unicode="&#x44d;" horiz-adv-x="1265" 
d="M621 -20q-246 0 -397.5 149.5t-138.5 388.5h199q-13 -163 82.5 -267.5t256.5 -104.5q162 0 262 104.5t98 262.5h-469v146h441q-38 100 -125 159.5t-202 59.5q-102 0 -182 -46.5t-119 -125.5h-205q47 156 182 247t322 91q241 0 395.5 -149.5t154.5 -382.5
q0 -232 -155 -382t-400 -150z" />
    <glyph glyph-name="uni044E" unicode="&#x44e;" horiz-adv-x="1658" 
d="M1017 -20q-219 0 -369.5 132.5t-170.5 339.5h-155v-453h-188v1024h188v-410h161q32 191 179 311t355 120q239 0 395 -151t156 -381t-156 -381t-395 -151zM651 512q0 -158 103 -262t260 -104t259.5 104t102.5 262t-102.5 262t-259.5 104t-260 -104t-103 -262z" />
    <glyph glyph-name="uni044F" unicode="&#x44f;" horiz-adv-x="1132" 
d="M60 0l364 390q-141 14 -223.5 100t-82.5 216q0 145 100.5 231.5t268.5 86.5h512v-1024h-189v387h-171l-348 -387h-231zM309 706q0 -77 53.5 -123t144.5 -46h305v337h-305q-91 0 -144.5 -45.5t-53.5 -122.5z" />
    <glyph glyph-name="uni0451" unicode="&#x451;" horiz-adv-x="1245" 
d="M635 -20q-240 0 -392.5 151t-152.5 386q0 231 152.5 379t387.5 148q233 0 373.5 -140.5t136.5 -371.5h-864v-7q0 -170 99.5 -275t255.5 -105q140 0 233 77.5t100 199.5h194q-10 -195 -157 -318.5t-366 -123.5zM291 1340q0 55 39.5 91.5t99.5 36.5q59 0 98.5 -36.5
t39.5 -91.5t-39.5 -91t-98.5 -36q-60 0 -99.5 36t-39.5 91zM301 672h638q-27 108 -107.5 166t-202.5 58q-124 0 -209 -59.5t-119 -164.5zM698 1340q0 55 39.5 91.5t99.5 36.5q59 0 98.5 -36.5t39.5 -91.5t-39.5 -91t-98.5 -36q-60 0 -99.5 36t-39.5 91z" />
    <glyph glyph-name="Wgrave" unicode="&#x1e80;" horiz-adv-x="1822" 
d="M415 0l-322 1434h204l242 -1206h7l254 1166h225l256 -1167h6l243 1207h201l-324 -1434h-230l-263 1171h-7l-257 -1171h-235zM611 1915h225l224 -336h-197z" />
    <glyph glyph-name="wgrave" unicode="&#x1e81;" horiz-adv-x="1775" 
d="M428 0l-348 1024h199l249 -813h9l248 813h205l250 -815h8l250 815h198l-347 -1024h-197l-260 840h-8l-260 -840h-196zM588 1505h224l224 -336h-196z" />
    <glyph glyph-name="Wacute" unicode="&#x1e82;" horiz-adv-x="1822" 
d="M415 0l-322 1434h204l242 -1206h7l254 1166h225l256 -1167h6l243 1207h201l-324 -1434h-230l-263 1171h-7l-257 -1171h-235zM763 1579l224 336h224l-252 -336h-196z" />
    <glyph glyph-name="wacute" unicode="&#x1e83;" horiz-adv-x="1775" 
d="M428 0l-348 1024h199l249 -813h9l248 813h205l250 -815h8l250 815h198l-347 -1024h-197l-260 840h-8l-260 -840h-196zM739 1169l225 336h224l-252 -336h-197z" />
    <glyph glyph-name="Wdieresis" unicode="&#x1e84;" horiz-adv-x="1822" 
d="M415 0l-322 1434h204l242 -1206h7l254 1166h225l256 -1167h6l243 1207h201l-324 -1434h-230l-263 1171h-7l-257 -1171h-235zM569 1750q0 55 40 91.5t100 36.5q59 0 98.5 -36.5t39.5 -91.5t-39.5 -91t-98.5 -36q-60 0 -100 36t-40 91zM977 1750q0 56 39 92t99 36
q59 0 98.5 -36.5t39.5 -91.5t-39.5 -91t-98.5 -36q-60 0 -99 36t-39 91z" />
    <glyph glyph-name="wdieresis" unicode="&#x1e85;" horiz-adv-x="1775" 
d="M428 0l-348 1024h199l249 -813h9l248 813h205l250 -815h8l250 815h198l-347 -1024h-197l-260 840h-8l-260 -840h-196zM546 1340q0 55 39.5 91.5t99.5 36.5q59 0 98.5 -36.5t39.5 -91.5t-39.5 -91t-98.5 -36q-60 0 -99.5 36t-39.5 91zM953 1340q0 55 39.5 91.5t99.5 36.5
q59 0 98.5 -36.5t39.5 -91.5t-39.5 -91t-98.5 -36q-60 0 -99.5 36t-39.5 91z" />
    <glyph glyph-name="Ygrave" unicode="&#x1ef2;" horiz-adv-x="1310" 
d="M557 0v559l-494 875h227l363 -671h7l364 671h223l-493 -875v-559h-197zM355 1915h225l224 -336h-197z" />
    <glyph glyph-name="ygrave" unicode="&#x1ef3;" horiz-adv-x="1304" 
d="M624 -553q-253 0 -404 138.5t-149 366.5h186q-5 -155 94 -248t270 -93q170 0 267 92t97 249l-1 272h-1q-43 -105 -139 -163t-230 -58q-187 0 -292.5 111.5t-105.5 309.5v600h192v-567q0 -135 71 -210t197 -75q140 0 223 91t83 247v514h188v-1071q0 -232 -148.5 -369
t-397.5 -137zM399 1505h225l224 -336h-197z" />
    <glyph glyph-name="endash" unicode="&#x2013;" horiz-adv-x="1148" 
d="M97 485v179h955v-179h-955z" />
    <glyph glyph-name="emdash" unicode="&#x2014;" horiz-adv-x="1441" 
d="M97 485v179h1248v-179h-1248z" />
    <glyph glyph-name="quoteleft" unicode="&#x2018;" horiz-adv-x="606" 
d="M469 1357q-205 21 -223 -124q35 28 86 28q59 0 97.5 -39t38.5 -95q0 -63 -45 -104.5t-117 -41.5q-85 0 -134 55.5t-49 154.5q0 146 90 216.5t256 50.5v-101z" />
    <glyph glyph-name="quoteright" unicode="&#x2019;" horiz-adv-x="606" 
d="M136 1089q205 -21 223 123q-34 -27 -86 -27q-59 0 -97.5 38.5t-38.5 94.5q0 63 45 104.5t117 41.5q85 0 134 -55.5t49 -154.5q0 -146 -90 -216.5t-256 -50.5v102z" />
    <glyph glyph-name="quotesinglbase" unicode="&#x201a;" horiz-adv-x="673" 
d="M170 -104q205 -21 223 123q-34 -27 -86 -27q-59 0 -97.5 38.5t-38.5 94.5q0 63 45 104.5t117 41.5q85 0 134 -55.5t49 -154.5q0 -146 -90 -216.5t-256 -50.5v102z" />
    <glyph glyph-name="quotedblleft" unicode="&#x201c;" horiz-adv-x="1056" 
d="M469 1357q-205 21 -223 -124q35 28 86 28q59 0 97.5 -39t38.5 -95q0 -63 -45 -104.5t-117 -41.5q-85 0 -134 55.5t-49 154.5q0 146 90 216.5t256 50.5v-101zM573 1191q0 146 90.5 216.5t256.5 50.5v-101q-206 21 -224 -124q35 28 86 28q59 0 98 -39t39 -95
q0 -63 -45 -104.5t-117 -41.5q-85 0 -134.5 55.5t-49.5 154.5z" />
    <glyph glyph-name="quotedblright" unicode="&#x201d;" horiz-adv-x="1056" 
d="M136 1089q205 -21 223 123q-34 -27 -86 -27q-59 0 -97.5 38.5t-38.5 94.5q0 63 45 104.5t117 41.5q85 0 134 -55.5t49 -154.5q0 -146 -90 -216.5t-256 -50.5v102zM587 987v102q205 -21 223 123q-34 -27 -86 -27q-59 0 -97.5 38.5t-38.5 94.5q0 63 45 104.5t117 41.5
q85 0 134 -55.5t49 -154.5q0 -146 -90 -216.5t-256 -50.5z" />
    <glyph glyph-name="quotedblbase" unicode="&#x201e;" horiz-adv-x="1124" 
d="M170 -104q205 -21 223 123q-34 -27 -86 -27q-59 0 -97.5 38.5t-38.5 94.5q0 63 45 104.5t117 41.5q85 0 134 -55.5t49 -154.5q0 -146 -90 -216.5t-256 -50.5v102zM621 -206v102q205 -21 223 123q-34 -27 -86 -27q-59 0 -97.5 38.5t-38.5 94.5q0 64 45 105t116 41
q85 0 134.5 -55.5t49.5 -154.5q0 -146 -90 -216.5t-256 -50.5z" />
    <glyph glyph-name="dagger" unicode="&#x2020;" horiz-adv-x="1118" 
d="M479 575v505h-311v150h311v245h159v-245h312v-150h-312v-505h-159z" />
    <glyph glyph-name="daggerdbl" unicode="&#x2021;" horiz-adv-x="1142" 
d="M493 478v222h-313v143h313v267h-313v142h313v223h157v-223h313v-142h-313v-267h313v-143h-313v-222h-157z" />
    <glyph glyph-name="bullet" unicode="&#x2022;" horiz-adv-x="712" 
d="M356 501q-89 0 -146.5 55t-57.5 139q0 86 57.5 141.5t146.5 55.5t147 -55.5t58 -141.5q0 -84 -58 -139t-147 -55z" />
    <glyph glyph-name="ellipsis" unicode="&#x2026;" horiz-adv-x="1595" 
d="M798 -20q-68 0 -113.5 41t-45.5 104t45.5 104.5t113.5 41.5t113 -41.5t45 -104.5t-45 -104t-113 -41zM157 125q0 63 45 104.5t113 41.5t113.5 -41.5t45.5 -104.5t-45.5 -104t-113.5 -41t-113 41t-45 104zM1121 125q0 63 45.5 104.5t113.5 41.5t113.5 -41.5t45.5 -104.5
t-45.5 -104t-113.5 -41t-113.5 41t-45.5 104z" />
    <glyph glyph-name="guilsinglleft" unicode="&#x2039;" horiz-adv-x="706" 
d="M564 279l-440 264v244l440 266v-205l-300 -182l300 -183v-204z" />
    <glyph glyph-name="guilsinglright" unicode="&#x203a;" horiz-adv-x="706" 
d="M141 279v204l300 183l-300 182v205l441 -266v-244z" />
    <glyph glyph-name="Euro" unicode="&#x20ac;" horiz-adv-x="2068" 
d="M1138 -20q-275 0 -475.5 145.5t-267.5 384.5h-208v135h184q-4 33 -4 77q0 43 3 65h-183v137h206q65 240 264 385t468 145q248 0 435 -121.5t249 -318.5h-210q-57 120 -186 191.5t-291 71.5q-188 0 -329.5 -96t-196.5 -257h685v-137h-722q-4 -40 -4 -65q0 -34 5 -77h721
v-135h-682q58 -159 200.5 -255.5t332.5 -96.5q125 0 232 43.5t181 120t112 187.5t29 239h196q11 -130 -18.5 -248t-95 -212t-159 -163.5t-214.5 -107t-257 -37.5z" />
    <glyph glyph-name="uni2116" unicode="&#x2116;" horiz-adv-x="2478" 
d="M1912 569q-203 0 -336 125.5t-133 317.5t133 317t336 125t336 -125.5t133 -316.5q0 -192 -133 -317.5t-336 -125.5zM164 0v1434h212l646 -1144l5 1v1143h185v-1434h-212l-646 1144l-6 -1v-1143h-184zM1633 1012q0 -121 79 -200t200 -79q122 0 200.5 78.5t78.5 200.5
q0 121 -79 199.5t-200 78.5t-200 -78.5t-79 -199.5zM1753 125q0 63 45.5 104.5t113.5 41.5t113.5 -41.5t45.5 -104.5t-45.5 -104t-113.5 -41t-113.5 41t-45.5 104z" />
    <glyph glyph-name="uni2117" unicode="&#x2117;" horiz-adv-x="1845" 
d="M695 334v763h300q119 0 192.5 -68.5t74.5 -177.5q1 -110 -73 -178.5t-194 -68.5h-148v-270h-152zM173 717q0 158 56.5 295t155 234t238 152.5t300.5 55.5t300.5 -55.5t238 -152.5t155 -234t56.5 -295t-56.5 -295t-155 -234t-238.5 -152.5t-301 -55.5q-214 0 -385.5 94.5
t-267.5 263t-96 379.5zM308 717q0 -174 79 -312.5t219.5 -216t315.5 -77.5q176 0 316.5 77.5t219.5 216t79 312.5t-79 312.5t-219 216t-316 77.5t-316.5 -77.5t-219.5 -216t-79 -312.5zM847 732h125q60 0 95 32t35 87q0 54 -35 86t-95 32h-125v-237z" />
    <glyph glyph-name="trademark" unicode="&#x2122;" horiz-adv-x="1722" 
d="M777 717v717h217l150 -501h4l150 501h218v-717h-138v559h-5l-164 -498h-126l-164 498h-6v-559h-136zM169 1304v130h508v-130h-183v-587h-143v587h-182z" />
    <glyph glyph-name="estimated" unicode="&#x212e;" horiz-adv-x="1800" 
d="M929 -20q-223 0 -396 94t-268 263.5t-95 386.5q0 211 95.5 378t264.5 259.5t382 92.5q312 0 506.5 -193t189.5 -505h-1055v-462q147 -131 373 -131q215 0 352.5 118.5t141.5 309.5h212q-7 -181 -100.5 -321t-250.5 -215t-352 -75zM553 903h699v261q-132 124 -344 124
q-215 0 -355 -128v-257z" />
    <glyph glyph-name="arrowleft" unicode="&#x2190;" horiz-adv-x="2211" 
d="M557 319l-396 398l396 397v-311l1486 4v-180l-1486 4v-312z" />
    <glyph glyph-name="arrowup" unicode="&#x2191;" horiz-adv-x="1110" 
d="M556 1502l396 -396h-310l4 -1106h-181l4 1106h-310z" />
    <glyph glyph-name="arrowright" unicode="&#x2192;" horiz-adv-x="2211" 
d="M1656 319v312l-1486 -4v180l1486 -4v311l396 -397z" />
    <glyph glyph-name="arrowdown" unicode="&#x2193;" horiz-adv-x="1112" 
d="M556 -28l-397 397h310l-4 1106h181l-4 -1106h310z" />
    <glyph glyph-name="uni2196" unicode="&#x2196;" horiz-adv-x="1474" 
d="M1186 169l-779 784l-220 -219v561h562l-220 -219l785 -778z" />
    <glyph glyph-name="uni2197" unicode="&#x2197;" horiz-adv-x="1472" 
d="M287 142l-128 129l784 779l-220 219h562v-561l-219 219z" />
    <glyph glyph-name="uni2198" unicode="&#x2198;" horiz-adv-x="1472" 
d="M723 175l219 218l-783 779l128 130l778 -786l220 220l-1 -561h-561z" />
    <glyph glyph-name="uni2199" unicode="&#x2199;" horiz-adv-x="1472" 
d="M187 202v561l220 -219l779 784l128 -129l-785 -778l221 -219h-563z" />
    <glyph glyph-name="uni219C" unicode="&#x219c;" horiz-adv-x="3667" 
d="M3498 873l-1 -185h-157q-110 0 -169 -63l-9 -11q-116 -126 -264 -127t-256 124l-77 88q-54 62 -123 62t-123 -62l-76 -88q-109 -127 -256.5 -127t-256.5 127l-77 88q-54 62 -123 62t-123 -62l-77 -88q-70 -82 -157 -111t-174.5 -3.5t-163.5 98.5l-37 36q-121 116 -241 -2
v-310l-396 398l396 397v-294q85 56 183.5 41.5t180.5 -96.5l34 -35q53 -56 119.5 -57.5t121.5 58.5l76 88q110 127 257.5 127t257.5 -128l77 -88q54 -62 122.5 -62t122.5 63l76 87q71 84 164 113.5t186 0t164 -113.5l77 -88q54 -61 121.5 -60.5t124.5 60.5l23 26
q107 117 288 117h165z" />
    <glyph glyph-name="uni219D" unicode="&#x219d;" horiz-adv-x="3667" 
d="M170 560l1 185h157q109 0 169 64l9 10q116 126 264 127t256 -124l77 -88q54 -62 123 -62t123 62l76 88q109 127 256.5 127t256.5 -127l77 -88q54 -62 123 -62t123 62l77 88q70 82 157 111t174.5 4t163.5 -98l37 -36q121 -116 241 2v309l396 -397l-396 -398v294
q-85 -56 -183.5 -41t-180.5 97l-34 34q-53 56 -119.5 57.5t-121.5 -58.5l-76 -88q-110 -127 -257.5 -127t-257.5 128l-77 88q-54 62 -122.5 62t-122.5 -63l-76 -87q-108 -127 -256.5 -127t-257.5 127l-77 88q-54 61 -121.5 60.5t-124.5 -60.5l-23 -25q-108 -118 -288 -118
h-165z" />
    <glyph glyph-name="uni21A9" unicode="&#x21a9;" horiz-adv-x="2676" 
d="M555 319l-396 398l396 397v-311l1456 4q147 0 230 72t83 190q0 121 -85.5 194.5t-223.5 66.5v165q213 8 351 -115.5t138 -318.5q0 -190 -132.5 -312t-345.5 -121l-1471 3v-312z" />
    <glyph glyph-name="uni21AA" unicode="&#x21aa;" horiz-adv-x="2676" 
d="M2122 319v312l-1471 -3q-213 -1 -345 121t-132 312q0 195 137.5 318.5t351.5 115.5v-165q-138 7 -224 -66.5t-86 -194.5q0 -118 83.5 -190t230.5 -72l1455 -4v311l397 -397z" />
    <glyph glyph-name="uni21B0" unicode="&#x21b0;" horiz-adv-x="2226" 
d="M555 1113v-311l1468 4v-848h-188v668l-1280 4v-312l-397 398z" />
    <glyph glyph-name="uni21B1" unicode="&#x21b1;" horiz-adv-x="2226" 
d="M202 -42v849l1468 -4v310l397 -397l-397 -398v312l-1280 -3v-669h-188z" />
    <glyph glyph-name="uni21B2" unicode="&#x21b2;" horiz-adv-x="2226" 
d="M555 319l-396 398l396 397v-311l1280 4v668h188v-848l-1468 4v-312z" />
    <glyph glyph-name="uni21B3" unicode="&#x21b3;" horiz-adv-x="2226" 
d="M1670 319v312l-1468 -4v848h188v-668l1280 -4v311l397 -397z" />
    <glyph glyph-name="minus" unicode="&#x2212;" horiz-adv-x="1040" 
d="M97 606v179h845v-179h-845z" />
    <glyph glyph-name="equivalence" unicode="&#x2261;" horiz-adv-x="2492" 
d="M222 0v173h2048v-173h-2048zM222 631v172h2048v-172h-2048zM222 1261v173h2048v-173h-2048z" />
    <glyph glyph-name="circleplus" unicode="&#x2295;" 
d="M1180 -307q-219 0 -412 78.5t-330 214t-216.5 325.5t-79.5 406t79.5 406t217 325.5t331 214t412.5 78.5t412 -78.5t330.5 -214t217 -325.5t79.5 -406t-79.5 -406t-217.5 -325.5t-331 -214t-413 -78.5zM310 717q0 -182 66.5 -342.5t181.5 -274.5t276.5 -179.5t345.5 -65.5
q148 0 282 42t241 119.5t186 183t121.5 238.5t42.5 279q0 182 -66.5 342.5t-182 274.5t-277 179.5t-345.5 65.5q-147 0 -281.5 -42t-241 -119.5t-185.5 -183t-121.5 -238.5t-42.5 -279zM698 632v171h399v396h169v-396h399v-171h-399v-398h-169v398h-399z" />
    <glyph glyph-name="uni2296" unicode="&#x2296;" 
d="M1180 -307q-219 0 -412 78.5t-330 214t-216.5 325.5t-79.5 406t79.5 406t217 325.5t331 214t412.5 78.5t412 -78.5t330.5 -214t217 -325.5t79.5 -406t-79.5 -406t-217.5 -325.5t-331 -214t-413 -78.5zM310 717q0 -182 66.5 -342.5t181.5 -274.5t276.5 -179.5t345.5 -65.5
q148 0 282 42t241 119.5t186 183t121.5 238.5t42.5 279q0 182 -66.5 342.5t-182 274.5t-277 179.5t-345.5 65.5q-147 0 -281.5 -42t-241 -119.5t-185.5 -183t-121.5 -238.5t-42.5 -279zM759 627v179h845v-179h-845z" />
    <glyph glyph-name="uni2460" unicode="&#x2460;" 
d="M1138 176v794h-253v146l122 5q68 3 100.5 33t39.5 94l2 31h171v-1103h-182zM142 717q0 216 79.5 406t217 325.5t331 214t412.5 78.5t412 -78.5t330.5 -214t217 -325.5t79.5 -406t-79.5 -406t-217.5 -325.5t-331 -214t-413 -78.5q-219 0 -412 78.5t-330 214t-216.5 325.5
t-79.5 406zM310 717q0 -182 66.5 -342.5t181.5 -274.5t276.5 -179.5t345.5 -65.5q148 0 282 42t241 119.5t186 183t121.5 238.5t42.5 279q0 182 -66.5 342.5t-182 274.5t-277 179.5t-345.5 65.5q-147 0 -281.5 -42t-241 -119.5t-185.5 -183t-121.5 -238.5t-42.5 -279z" />
    <glyph glyph-name="uni2461" unicode="&#x2461;" 
d="M762 188v127l375 296q-145 8 -240.5 103.5t-95.5 240.5q0 154 109.5 254.5t276.5 100.5q168 0 277.5 -99t109.5 -249q0 -73 -37.5 -142t-87.5 -117t-124 -102l-339 -252h636v-161h-860zM142 717q0 216 79.5 406t217 325.5t331 214t412.5 78.5t412 -78.5t330.5 -214
t217 -325.5t79.5 -406t-79.5 -406t-217.5 -325.5t-331 -214t-413 -78.5q-219 0 -412 78.5t-330 214t-216.5 325.5t-79.5 406zM310 717q0 -182 66.5 -342.5t181.5 -274.5t276.5 -179.5t345.5 -65.5q148 0 282 42t241 119.5t186 183t121.5 238.5t42.5 279q0 182 -66.5 342.5
t-182 274.5t-277 179.5t-345.5 65.5q-147 0 -281.5 -42t-241 -119.5t-185.5 -183t-121.5 -238.5t-42.5 -279zM966 950q0 -94 63.5 -156t159.5 -62t159 62t63 156q0 93 -62.5 154.5t-159.5 61.5t-160 -60.5t-63 -155.5z" />
    <glyph glyph-name="uni2462" unicode="&#x2462;" 
d="M1190 138q-205 0 -331.5 119.5t-121.5 312.5h189q0 -122 74.5 -196t193.5 -74q110 0 177 62.5t67 162.5q0 104 -71 169.5t-183 65.5q-78 0 -147 -32l-66 102q193 151 368 275v1q-119 -6 -323 -6h-233v156h761v-161l-340 -222q10 1 31 1q170 0 281 -97.5t111 -258.5
q0 -167 -120 -273.5t-317 -106.5zM142 717q0 216 79.5 406t217 325.5t331 214t412.5 78.5t412 -78.5t330.5 -214t217 -325.5t79.5 -406t-79.5 -406t-217.5 -325.5t-331 -214t-413 -78.5q-219 0 -412 78.5t-330 214t-216.5 325.5t-79.5 406zM310 717q0 -182 66.5 -342.5
t181.5 -274.5t276.5 -179.5t345.5 -65.5q148 0 282 42t241 119.5t186 183t121.5 238.5t42.5 279q0 182 -66.5 342.5t-182 274.5t-277 179.5t-345.5 65.5q-147 0 -281.5 -42t-241 -119.5t-185.5 -183t-121.5 -238.5t-42.5 -279z" />
    <glyph glyph-name="uni2463" unicode="&#x2463;" 
d="M749 646v586h181v-437h274v358h180v-358h319v-149h-319v-517h-182v517h-453zM142 717q0 216 79.5 406t217 325.5t331 214t412.5 78.5t412 -78.5t330.5 -214t217 -325.5t79.5 -406t-79.5 -406t-217.5 -325.5t-331 -214t-413 -78.5q-219 0 -412 78.5t-330 214t-216.5 325.5
t-79.5 406zM310 717q0 -182 66.5 -342.5t181.5 -274.5t276.5 -179.5t345.5 -65.5q148 0 282 42t241 119.5t186 183t121.5 238.5t42.5 279q0 182 -66.5 342.5t-182 274.5t-277 179.5t-345.5 65.5q-147 0 -281.5 -42t-241 -119.5t-185.5 -183t-121.5 -238.5t-42.5 -279z" />
    <glyph glyph-name="uni2464" unicode="&#x2464;" 
d="M1186 132q-197 0 -322 113t-124 301h187q2 -114 74 -184.5t188 -70.5q112 0 180.5 65t68.5 168q0 105 -70.5 170t-179.5 65q-135 0 -215 -103h-175l22 595h721v-152h-573l-15 -296q104 95 279 95q168 0 280 -100.5t112 -270.5q0 -173 -121 -284t-317 -111zM142 717
q0 216 79.5 406t217 325.5t331 214t412.5 78.5t412 -78.5t330.5 -214t217 -325.5t79.5 -406t-79.5 -406t-217.5 -325.5t-331 -214t-413 -78.5q-219 0 -412 78.5t-330 214t-216.5 325.5t-79.5 406zM310 717q0 -182 66.5 -342.5t181.5 -274.5t276.5 -179.5t345.5 -65.5
q148 0 282 42t241 119.5t186 183t121.5 238.5t42.5 279q0 182 -66.5 342.5t-182 274.5t-277 179.5t-345.5 65.5q-147 0 -281.5 -42t-241 -119.5t-185.5 -183t-121.5 -238.5t-42.5 -279z" />
    <glyph glyph-name="uni2465" unicode="&#x2465;" 
d="M1086 930q50 23 117 23q171 0 283.5 -109t112.5 -277q0 -174 -123 -286.5t-316 -112.5q-191 0 -313 112t-122 284q0 60 15 115.5t45 105t51 78t56 69.5l299 356h211zM142 717q0 216 79.5 406t217.5 325.5t331.5 214t413.5 78.5q219 0 411.5 -78.5t330 -214t216.5 -325.5
t79 -406t-79.5 -406t-217 -325.5t-330.5 -214t-412 -78.5t-412.5 78.5t-331 214t-217 325.5t-79.5 406zM310 717q0 -146 42.5 -279t121.5 -238.5t185.5 -183t241 -119.5t281.5 -42q184 0 345.5 65.5t277 179.5t182 274.5t66.5 342.5t-66.5 342.5t-181.5 274.5t-276 179.5
t-345 65.5t-346.5 -65.5t-278 -179.5t-182.5 -274.5t-67 -342.5zM910 572q0 -106 70.5 -174t180.5 -68q109 0 180.5 67.5t71.5 174.5q0 106 -71 175t-181 69t-180.5 -69t-70.5 -175z" />
    <glyph glyph-name="uni2466" unicode="&#x2466;" 
d="M972 130l401 934h-555v169h747v-153l-397 -950h-196zM142 717q0 216 79.5 406t217 325.5t331 214t412.5 78.5t412 -78.5t330.5 -214t217 -325.5t79.5 -406t-79.5 -406t-217.5 -325.5t-331 -214t-413 -78.5q-219 0 -412 78.5t-330 214t-216.5 325.5t-79.5 406zM310 717
q0 -182 66.5 -342.5t181.5 -274.5t276.5 -179.5t345.5 -65.5q148 0 282 42t241 119.5t186 183t121.5 238.5t42.5 279q0 182 -66.5 342.5t-182 274.5t-277 179.5t-345.5 65.5q-147 0 -281.5 -42t-241 -119.5t-185.5 -183t-121.5 -238.5t-42.5 -279z" />
    <glyph glyph-name="uni2467" unicode="&#x2467;" 
d="M1182 147q-191 0 -310 90.5t-119 235.5q0 105 64.5 179.5t176.5 104.5q-89 28 -138.5 90t-49.5 150q0 128 104.5 208.5t270.5 80.5q168 0 271 -81t103 -209q0 -87 -49.5 -149t-137.5 -90q112 -30 177 -104t65 -179q0 -146 -118.5 -236.5t-309.5 -90.5zM142 717
q0 216 79.5 406t217 325.5t331 214t412.5 78.5t412 -78.5t330.5 -214t217 -325.5t79.5 -406t-79.5 -406t-217.5 -325.5t-331 -214t-413 -78.5q-219 0 -412 78.5t-330 214t-216.5 325.5t-79.5 406zM310 717q0 -182 66.5 -342.5t181.5 -274.5t276.5 -179.5t345.5 -65.5
q148 0 282 42t241 119.5t186 183t121.5 238.5t42.5 279q0 182 -66.5 342.5t-182 274.5t-277 179.5t-345.5 65.5q-147 0 -281.5 -42t-241 -119.5t-185.5 -183t-121.5 -238.5t-42.5 -279zM932 492q0 -88 69 -143.5t180 -55.5q113 0 181.5 55.5t68.5 143.5t-69 142t-180 54
t-180.5 -53.5t-69.5 -142.5zM981 981q0 -71 56 -114.5t145 -43.5q90 0 144.5 43.5t54.5 114.5t-55 115.5t-144 44.5t-145 -44.5t-56 -115.5z" />
    <glyph glyph-name="uni2468" unicode="&#x2468;" 
d="M1277 504q-53 -24 -117 -24q-171 0 -283.5 109t-112.5 277q0 174 123 287t316 113q191 0 313 -112.5t122 -284.5q0 -60 -15 -115.5t-45 -105t-50.5 -77t-56.5 -69.5l-299 -357h-210zM142 717q0 216 79.5 406t217 325.5t331 214t412.5 78.5t412 -78.5t330.5 -214
t217 -325.5t79.5 -406t-79.5 -406t-217.5 -325.5t-331 -214t-413 -78.5q-219 0 -412 78.5t-330 214t-216.5 325.5t-79.5 406zM310 717q0 -182 66.5 -342.5t181.5 -274.5t276.5 -179.5t345.5 -65.5q148 0 282 42t241 119.5t186 183t121.5 238.5t42.5 279q0 182 -66.5 342.5
t-182 274.5t-277 179.5t-345.5 65.5q-147 0 -281.5 -42t-241 -119.5t-185.5 -183t-121.5 -238.5t-42.5 -279zM950 861q0 -106 71 -175t181 -69t180.5 69t70.5 175t-70.5 174.5t-180.5 68.5q-109 0 -180.5 -68t-71.5 -175z" />
    <glyph glyph-name="uni24EA" unicode="&#x24ea;" 
d="M1182 148q-166 0 -301.5 74t-212.5 204.5t-77 290.5t77 290.5t212.5 204t301.5 73.5t300.5 -73.5t211 -204t76.5 -290.5t-76.5 -290.5t-211 -204.5t-300.5 -74zM142 717q0 216 79.5 406t217 325.5t331 214t412.5 78.5t412 -78.5t330.5 -214t217 -325.5t79.5 -406
t-79.5 -406t-217.5 -325.5t-331 -214t-413 -78.5q-219 0 -412 78.5t-330 214t-216.5 325.5t-79.5 406zM310 717q0 -182 66.5 -342.5t181.5 -274.5t276.5 -179.5t345.5 -65.5q148 0 282 42t241 119.5t186 183t121.5 238.5t42.5 279q0 182 -66.5 342.5t-182 274.5t-277 179.5
t-345.5 65.5q-147 0 -281.5 -42t-241 -119.5t-185.5 -183t-121.5 -238.5t-42.5 -279zM767 717q0 -138 75 -241l579 577q-104 71 -239 71q-181 0 -298 -114.5t-117 -292.5zM942 381q103 -72 240 -72q180 0 296.5 115t116.5 293q0 139 -74 239z" />
    <glyph glyph-name="uni2573" unicode="&#x2573;" horiz-adv-x="1900" 
d="M311 -52l-130 130l639 639l-639 639l130 130l639 -639l639 639l130 -130l-639 -639l639 -639l-130 -130l-639 639z" />
    <glyph glyph-name="triagup" unicode="&#x25b2;" horiz-adv-x="1558" 
d="M161 238l618 1003l619 -1003h-1237z" />
    <glyph glyph-name="uni25B6" unicode="&#x25b6;" horiz-adv-x="1382" 
d="M220 120v1237l1004 -619z" />
    <glyph glyph-name="triagdn" unicode="&#x25bc;" horiz-adv-x="1558" 
d="M779 109l-618 1003l1237 1z" />
    <glyph glyph-name="uni25C0" unicode="&#x25c0;" horiz-adv-x="1382" 
d="M1162 120l-1003 618l1003 619v-1237z" />
    <glyph glyph-name="circle" unicode="&#x25cb;" 
d="M1180 -307q-219 0 -412 78.5t-330 214t-216.5 325.5t-79.5 406t79.5 406t217 325.5t331 214t412.5 78.5t412 -78.5t330.5 -214t217 -325.5t79.5 -406t-79.5 -406t-217.5 -325.5t-331 -214t-413 -78.5zM310 717q0 -182 66.5 -342.5t181.5 -274.5t276.5 -179.5t345.5 -65.5
q148 0 282 42t241 119.5t186 183t121.5 238.5t42.5 279q0 182 -66.5 342.5t-182 274.5t-277 179.5t-345.5 65.5q-147 0 -281.5 -42t-241 -119.5t-185.5 -183t-121.5 -238.5t-42.5 -279z" />
    <glyph glyph-name="uni25CF" unicode="&#x25cf;" 
d="M1180 -307q-219 0 -412 78.5t-330 214t-216.5 325.5t-79.5 406t79.5 406t217 325.5t331 214t412.5 78.5t412 -78.5t330.5 -214t217 -325.5t79.5 -406t-79.5 -406t-217.5 -325.5t-331 -214t-413 -78.5z" />
    <glyph glyph-name="uni25D0" unicode="&#x25d0;" 
d="M1181 -307q-219 0 -412 78.5t-330.5 214t-217 325.5t-79.5 406t79.5 406t217 325.5t330.5 214t412 78.5t412.5 -78.5t331 -214t217 -325.5t79.5 -406t-79.5 -406t-217 -325.5t-331 -214t-412.5 -78.5zM1181 -145q184 0 346 65.5t277.5 179.5t182 274.5t66.5 342.5
t-66.5 342.5t-182 274.5t-277.5 179.5t-346 65.5v-1724z" />
    <glyph glyph-name="uni25D1" unicode="&#x25d1;" 
d="M1183 -307q-219 0 -412.5 78.5t-331.5 214t-217.5 325.5t-79.5 406t79.5 406t217.5 325.5t331.5 214t412.5 78.5t412 -78.5t330 -214t216.5 -325.5t79.5 -406t-79.5 -406t-216.5 -325.5t-330 -214t-412 -78.5zM310 717q0 -146 42.5 -279t121.5 -238.5t186 -183
t241 -119.5t282 -42v1724q-148 0 -282 -42t-241 -119.5t-186 -183t-121.5 -238.5t-42.5 -279z" />
    <glyph glyph-name="uni27F2" unicode="&#x27f2;" horiz-adv-x="2011" 
d="M1011 -116q-174 0 -325 60.5t-259 166t-170 255t-62 322.5h197q1 -177 79.5 -318t220 -220t320.5 -79q181 0 323.5 81.5t221.5 227t79 329.5q0 280 -174 458t-447 178q-151 0 -276.5 -58t-211.5 -163l226 -225h-558v558l203 -205q109 132 272 206t357 73
q173 -1 323.5 -63.5t256.5 -171t166.5 -260.5t60.5 -326q0 -236 -105.5 -424.5t-294 -295t-423.5 -106.5z" />
    <glyph glyph-name="uni27F3" unicode="&#x27f3;" horiz-adv-x="2009" 
d="M1000 -116q-235 0 -423.5 106.5t-294 295t-105.5 424.5q0 174 60.5 326t166.5 260.5t256.5 171t323.5 63.5q194 1 357 -73t272 -206l204 205v-558h-557l224 225q-86 105 -211.5 163t-276.5 58q-180 0 -321.5 -80.5t-220 -225.5t-78.5 -330q0 -184 78.5 -329.5t221 -227
t323.5 -81.5q179 0 320.5 79t220 220t79.5 318h198q0 -173 -62 -322.5t-170 -255t-259.5 -166t-325.5 -60.5z" />
    <glyph glyph-name="uni29B6" unicode="&#x29b6;" 
d="M1180 -307q-219 0 -412 78.5t-330 214t-216.5 325.5t-79.5 406t79.5 406t217 325.5t331 214t412.5 78.5t412 -78.5t330.5 -214t217 -325.5t79.5 -406t-79.5 -406t-217.5 -325.5t-331 -214t-413 -78.5zM310 717q0 -229 101 -418t279.5 -304t402.5 -134v1712
q-224 -19 -402.5 -134.5t-279.5 -304.5t-101 -417zM1271 -139q168 15 313 86t248 183t162 264t59 323q0 228 -100.5 417t-279 304.5t-402.5 134.5v-1712z" />
    <glyph glyph-name="uni29B8" unicode="&#x29b8;" 
d="M1180 -307q-219 0 -412 78.5t-330 214t-216.5 325.5t-79.5 406t79.5 406t217 325.5t331 214t412.5 78.5t412 -78.5t330.5 -214t217 -325.5t79.5 -406t-79.5 -406t-217.5 -325.5t-331 -214t-413 -78.5zM310 717q0 -182 66.5 -342.5t181.5 -274.5t276.5 -179.5t345.5 -65.5
q322 0 551 187l-1228 1228q-193 -233 -193 -553zM632 1393l1228 -1228q193 231 193 552q0 182 -66.5 342.5t-182 274.5t-277 179.5t-345.5 65.5q-320 0 -550 -186z" />
    <glyph glyph-name="uni29BE" unicode="&#x29be;" 
d="M1181 259q-199 0 -332.5 131t-133.5 327t133.5 327t332.5 131q200 0 333.5 -131t133.5 -327t-133.5 -327t-333.5 -131zM142 717q0 216 79.5 406t217 325.5t331 214t412.5 78.5t412 -78.5t330.5 -214t217 -325.5t79.5 -406t-79.5 -406t-217.5 -325.5t-331 -214t-413 -78.5
q-219 0 -412 78.5t-330 214t-216.5 325.5t-79.5 406zM310 717q0 -182 66.5 -342.5t181.5 -274.5t276.5 -179.5t345.5 -65.5q148 0 282 42t241 119.5t186 183t121.5 238.5t42.5 279q0 182 -66.5 342.5t-182 274.5t-277 179.5t-345.5 65.5q-147 0 -281.5 -42t-241 -119.5
t-185.5 -183t-121.5 -238.5t-42.5 -279zM894 717q0 -122 82 -204t206 -82q123 0 205 82t82 204t-82 203.5t-205 81.5q-124 0 -206 -81.5t-82 -203.5z" />
    <glyph glyph-name="uni29BF" unicode="&#x29bf;" 
d="M1182 340q-165 0 -272.5 106.5t-107.5 270.5t107.5 270.5t272.5 106.5t273 -107t108 -270t-108 -270t-273 -107zM142 717q0 216 79.5 406t217 325.5t331 214t412.5 78.5t412 -78.5t330.5 -214t217 -325.5t79.5 -406t-79.5 -406t-217.5 -325.5t-331 -214t-413 -78.5
q-219 0 -412 78.5t-330 214t-216.5 325.5t-79.5 406zM310 717q0 -182 66.5 -342.5t181.5 -274.5t276.5 -179.5t345.5 -65.5q148 0 282 42t241 119.5t186 183t121.5 238.5t42.5 279q0 182 -66.5 342.5t-182 274.5t-277 179.5t-345.5 65.5q-147 0 -281.5 -42t-241 -119.5
t-185.5 -183t-121.5 -238.5t-42.5 -279z" />
    <glyph glyph-name="uni2B0E" unicode="&#x2b0e;" horiz-adv-x="2082" 
d="M1526 298l-398 396h304v331h-1263v181h1451v-512h303z" />
    <glyph glyph-name="uni2B0F" unicode="&#x2b0f;" horiz-adv-x="2084" 
d="M170 298v180h1263v332h-304l398 396l397 -396h-303v-512h-1451z" />
    <glyph glyph-name="uni2B10" unicode="&#x2b10;" horiz-adv-x="2082" 
d="M557 298l-397 396h303v512h1451v-181h-1263v-331h302z" />
    <glyph glyph-name="uni2B11" unicode="&#x2b11;" horiz-adv-x="2084" 
d="M463 298v512h-303l397 396l396 -396h-302v-332h1263v-180h-1451z" />
    <glyph glyph-name="uni2B13" unicode="&#x2b13;" horiz-adv-x="2430" 
d="M481 -25v152h1451v-152h-1451zM174 406v151h2065v-151h-2065zM174 836v151h2065v-151h-2065zM481 1266v151h1451v-151h-1451z" />
    <glyph glyph-name="uni2B14" unicode="&#x2b14;" horiz-adv-x="2408" 
d="M247 -25v152h1656v-152h-1656zM247 406v151h1962v-151h-1962zM247 836v151h1962v-151h-1962zM247 1266v151h1656v-151h-1656z" />
    <glyph glyph-name="uni2B15" unicode="&#x2b15;" horiz-adv-x="2480" 
d="M200 836v151h2033v-151h-2033zM200 406v151h2033v-151h-2033zM578 -25v152h1655v-152h-1655zM578 1266v151h1655v-151h-1655z" />
    <glyph glyph-name="uni2E2F" unicode="&#x2e2f;" horiz-adv-x="462" 
d="M158 953l-13 481h173l-13 -481h-147z" />
    <glyph glyph-name="uniF8FF" unicode="&#xf8ff;" horiz-adv-x="2420" 
d="M105 -163v172h308v1587h1312q264 0 423.5 -142t159.5 -376q0 -237 -159.5 -381t-423.5 -144h-94v-544h355v-172h-1881zM595 9h336v1415h-336v-1415zM1113 9h336v544h-336v-544zM1113 725h336v699h-336v-699zM1631 725h94q179 0 288 96.5t109 253.5q0 156 -109.5 252.5
t-287.5 96.5h-94v-699z" />
    <glyph glyph-name="u1F354" unicode="&#x1f354;" horiz-adv-x="2492" 
d="M222 0v173h2048v-173h-2048zM222 631v172h2048v-172h-2048zM222 1261v173h2048v-173h-2048z" />
    <glyph glyph-name="G.ss04" horiz-adv-x="1832" 
d="M878 -20q-216 0 -389.5 94t-271.5 263t-98 381t98.5 380.5t271.5 262t388 93.5q244 0 430 -118t253 -311h-217q-61 113 -185.5 181t-281.5 68q-243 0 -399 -154.5t-156 -399.5q0 -246 156.5 -403t400.5 -157q226 0 376.5 141t170.5 366h-370v164h722v-164h-162
q-11 -150 -68.5 -277t-152.5 -217.5t-228 -141.5t-288 -51z" />
    <glyph glyph-name="Gbreve.ss04" horiz-adv-x="1832" 
d="M878 -20q-216 0 -389.5 94t-271.5 263t-98 381t98.5 380.5t271.5 262t388 93.5q244 0 430 -118t253 -311h-217q-61 113 -185.5 181t-281.5 68q-243 0 -399 -154.5t-156 -399.5q0 -246 156.5 -403t400.5 -157q226 0 376.5 141t170.5 366h-370v164h722v-164h-162
q-11 -150 -68.5 -277t-152.5 -217.5t-228 -141.5t-288 -51zM540 1915h174q1 -97 43.5 -149.5t121.5 -52.5t121 52t43 150h175q2 -159 -89.5 -251.5t-249.5 -92.5t-249.5 92.5t-89.5 251.5z" />
    <glyph glyph-name="uni0122.ss04" horiz-adv-x="1832" 
d="M878 -20q-216 0 -389.5 94t-271.5 263t-98 381t98.5 380.5t271.5 262t388 93.5q244 0 430 -118t253 -311h-217q-61 113 -185.5 181t-281.5 68q-243 0 -399 -154.5t-156 -399.5q0 -246 156.5 -403t400.5 -157q226 0 376.5 141t170.5 366h-370v164h722v-164h-162
q-11 -150 -68.5 -277t-152.5 -217.5t-228 -141.5t-288 -51zM750 -556v84q175 -18 191 102q-29 -22 -74 -22q-50 0 -82.5 31t-32.5 77q0 52 38 86t100 34q72 0 113 -45t41 -127q0 -120 -76.5 -178t-217.5 -42z" />
    <glyph glyph-name="Gdotaccent.ss04" horiz-adv-x="1832" 
d="M878 -20q-216 0 -389.5 94t-271.5 263t-98 381t98.5 380.5t271.5 262t388 93.5q244 0 430 -118t253 -311h-217q-61 113 -185.5 181t-281.5 68q-243 0 -399 -154.5t-156 -399.5q0 -246 156.5 -403t400.5 -157q226 0 376.5 141t170.5 366h-370v164h722v-164h-162
q-11 -150 -68.5 -277t-152.5 -217.5t-228 -141.5t-288 -51zM729 1746q0 60 42.5 99t107.5 39q64 0 106 -39t42 -99q0 -59 -42 -97.5t-106 -38.5q-65 0 -107.5 39t-42.5 97z" />
    <glyph glyph-name="Q.ss05" horiz-adv-x="1755" 
d="M1335 130q-197 -150 -463 -150q-213 0 -386.5 96t-272 264.5t-98.5 376.5t98.5 376.5t272 264.5t386.5 96t386.5 -96t272 -264.5t98.5 -376.5q0 -271 -165 -469l246 -245l-124 -124zM319 717q0 -239 157.5 -396.5t395.5 -157.5t395 157.5t157 396.5t-157 396.5
t-395 157.5t-395.5 -157.5t-157.5 -396.5z" />
    <glyph glyph-name="a.ss01" horiz-adv-x="1202" 
d="M468 -20q-173 0 -275.5 86.5t-102.5 235.5q0 162 123.5 241.5t379.5 84.5l305 7v12q0 114 -73.5 179.5t-202.5 65.5q-120 0 -197 -52t-91 -141h-192q13 157 144 251t337 94q214 0 337.5 -107t123.5 -286v-651h-179v229h-1q-55 -115 -170 -182t-266 -67zM283 313
q0 -84 59.5 -130t164.5 -46q161 0 276 99.5t115 241.5v17l-303 -8q-164 -5 -238 -46t-74 -128z" />
    <glyph glyph-name="aacute.ss01" horiz-adv-x="1202" 
d="M468 -20q-173 0 -275.5 86.5t-102.5 235.5q0 162 123.5 241.5t379.5 84.5l305 7v12q0 114 -73.5 179.5t-202.5 65.5q-120 0 -197 -52t-91 -141h-192q13 157 144 251t337 94q214 0 337.5 -107t123.5 -286v-651h-179v229h-1q-55 -115 -170 -182t-266 -67zM283 313
q0 -84 59.5 -130t164.5 -46q161 0 276 99.5t115 241.5v17l-303 -8q-164 -5 -238 -46t-74 -128zM471 1169l224 336h225l-252 -336h-197z" />
    <glyph glyph-name="abreve.ss01" horiz-adv-x="1202" 
d="M468 -20q-173 0 -275.5 86.5t-102.5 235.5q0 162 123.5 241.5t379.5 84.5l305 7v12q0 114 -73.5 179.5t-202.5 65.5q-120 0 -197 -52t-91 -141h-192q13 157 144 251t337 94q214 0 337.5 -107t123.5 -286v-651h-179v229h-1q-55 -115 -170 -182t-266 -67zM281 1505h174
q1 -97 43.5 -149t121.5 -52t121 52t43 149h174q2 -159 -89 -251.5t-249 -92.5t-249.5 92.5t-89.5 251.5zM283 313q0 -84 59.5 -130t164.5 -46q161 0 276 99.5t115 241.5v17l-303 -8q-164 -5 -238 -46t-74 -128z" />
    <glyph glyph-name="acircumflex.ss01" horiz-adv-x="1202" 
d="M468 -20q-173 0 -275.5 86.5t-102.5 235.5q0 162 123.5 241.5t379.5 84.5l305 7v12q0 114 -73.5 179.5t-202.5 65.5q-120 0 -197 -52t-91 -141h-192q13 157 144 251t337 94q214 0 337.5 -107t123.5 -286v-651h-179v229h-1q-55 -115 -170 -182t-266 -67zM254 1169l226 336
h279l226 -336h-193l-172 237l-173 -237h-193zM283 313q0 -84 59.5 -130t164.5 -46q161 0 276 99.5t115 241.5v17l-303 -8q-164 -5 -238 -46t-74 -128z" />
    <glyph glyph-name="adieresis.ss01" horiz-adv-x="1202" 
d="M468 -20q-173 0 -275.5 86.5t-102.5 235.5q0 162 123.5 241.5t379.5 84.5l305 7v12q0 114 -73.5 179.5t-202.5 65.5q-120 0 -197 -52t-91 -141h-192q13 157 144 251t337 94q214 0 337.5 -107t123.5 -286v-651h-179v229h-1q-55 -115 -170 -182t-266 -67zM278 1340
q0 55 39.5 91.5t99.5 36.5q59 0 98.5 -36.5t39.5 -91.5t-39.5 -91t-98.5 -36q-60 0 -99.5 36t-39.5 91zM283 313q0 -84 59.5 -130t164.5 -46q161 0 276 99.5t115 241.5v17l-303 -8q-164 -5 -238 -46t-74 -128zM685 1340q0 56 39 92t99 36q59 0 99 -36.5t40 -91.5t-40 -91
t-99 -36q-60 0 -99 36t-39 91z" />
    <glyph glyph-name="agrave.ss01" horiz-adv-x="1202" 
d="M468 -20q-173 0 -275.5 86.5t-102.5 235.5q0 162 123.5 241.5t379.5 84.5l305 7v12q0 114 -73.5 179.5t-202.5 65.5q-120 0 -197 -52t-91 -141h-192q13 157 144 251t337 94q214 0 337.5 -107t123.5 -286v-651h-179v229h-1q-55 -115 -170 -182t-266 -67zM283 313
q0 -84 59.5 -130t164.5 -46q161 0 276 99.5t115 241.5v17l-303 -8q-164 -5 -238 -46t-74 -128zM319 1505h225l224 -336h-197z" />
    <glyph glyph-name="amacron.ss01" horiz-adv-x="1202" 
d="M468 -20q-173 0 -275.5 86.5t-102.5 235.5q0 162 123.5 241.5t379.5 84.5l305 7v12q0 114 -73.5 179.5t-202.5 65.5q-120 0 -197 -52t-91 -141h-192q13 157 144 251t337 94q214 0 337.5 -107t123.5 -286v-651h-179v229h-1q-55 -115 -170 -182t-266 -67zM283 313
q0 -84 59.5 -130t164.5 -46q161 0 276 99.5t115 241.5v17l-303 -8q-164 -5 -238 -46t-74 -128zM319 1255v166h601v-166h-601z" />
    <glyph glyph-name="aogonek.ss01" horiz-adv-x="1202" 
d="M468 -20q-173 0 -275.5 86.5t-102.5 235.5q0 156 123.5 233t379.5 82l305 7v23q0 114 -73.5 179.5t-202.5 65.5q-120 0 -197 -52t-91 -141h-192q13 157 144 251t337 94q214 0 337.5 -107t123.5 -286v-651q-94 -29 -147.5 -80.5t-53.5 -118.5q0 -51 33.5 -78.5t91.5 -27.5
q39 0 76 11v-139q-47 -9 -90 -9q-110 0 -176 54.5t-66 148.5q0 72 40 135t113 107v226h-1q-55 -115 -170 -182t-266 -67zM283 307q0 -86 59.5 -133.5t164.5 -47.5q161 0 276 102.5t115 251.5v21l-303 -8q-163 -4 -237.5 -49t-74.5 -137z" />
    <glyph glyph-name="aring.ss01" horiz-adv-x="1202" 
d="M468 -20q-173 0 -275.5 86.5t-102.5 235.5q0 162 123.5 241.5t379.5 84.5l305 7v12q0 114 -73.5 179.5t-202.5 65.5q-120 0 -197 -52t-91 -141h-192q13 157 144 251t337 94q214 0 337.5 -107t123.5 -286v-651h-179v229h-1q-55 -115 -170 -182t-266 -67zM283 313
q0 -84 59.5 -130t164.5 -46q161 0 276 99.5t115 241.5v17l-303 -8q-164 -5 -238 -46t-74 -128zM368 1386q0 106 76.5 175.5t193.5 69.5t193.5 -69.5t76.5 -175.5t-76.5 -175.5t-193.5 -69.5t-193.5 69t-76.5 176zM509 1386q0 -54 36.5 -88t92.5 -34t92.5 34t36.5 88
q0 53 -36.5 87.5t-92.5 34.5t-92.5 -34.5t-36.5 -87.5z" />
    <glyph glyph-name="atilde.ss01" horiz-adv-x="1202" 
d="M468 -20q-173 0 -275.5 86.5t-102.5 235.5q0 162 123.5 241.5t379.5 84.5l305 7v12q0 114 -73.5 179.5t-202.5 65.5q-120 0 -197 -52t-91 -141h-192q13 157 144 251t337 94q214 0 337.5 -107t123.5 -286v-651h-179v229h-1q-55 -115 -170 -182t-266 -67zM222 1169v109
q0 114 57.5 177.5t158.5 63.5q54 0 100 -23t104 -75l50 -54q60 -60 107 -60q80 0 80 101v98h139v-108q0 -114 -57.5 -177.5t-157.5 -63.5q-55 0 -101 22.5t-104 73.5l-50 56q-59 59 -107 59q-80 0 -80 -100v-99h-139zM283 313q0 -84 59.5 -130t164.5 -46q161 0 276 99.5
t115 241.5v17l-303 -8q-164 -5 -238 -46t-74 -128z" />
    <glyph glyph-name="i.loclTRK" horiz-adv-x="522" 
d="M167 0v1024h188v-1024h-188zM112 1336q0 60 42.5 99.5t106.5 39.5t106.5 -39.5t42.5 -99.5q0 -58 -42.5 -97t-106.5 -39t-106.5 38.5t-42.5 97.5z" />
    <glyph glyph-name="ij.ss02" horiz-adv-x="1083" 
d="M167 0v1024h188v-1024h-188zM102 1374q0 63 45.5 105t113.5 42t113.5 -42t45.5 -105t-45.5 -104t-113.5 -41t-113.5 41t-45.5 104zM441 -453v167q42 -7 84 -7q95 0 147.5 50t52.5 134v1133h188v-1135q0 -164 -94 -257t-264 -93q-58 0 -114 8zM658 1374q0 63 45.5 105
t113.5 42t113.5 -42t45.5 -105t-45.5 -104t-113.5 -41t-113.5 41t-45.5 104z" />
    <glyph glyph-name="j.ss02" horiz-adv-x="628" 
d="M101 -461q-57 0 -113 8v167q42 -7 84 -7q95 0 147 49.5t52 134.5v1133h189v-1135q0 -164 -94.5 -257t-264.5 -93zM205 1374q0 63 45.5 105t113.5 42t113 -42t45 -105t-45 -104t-113 -41t-113.5 41t-45.5 104z" />
    <glyph glyph-name="eng.ss02" horiz-adv-x="1204" 
d="M730 -461q-56 0 -114 8v163q37 -6 85 -6q94 0 145 49t51 134v704q0 135 -71 210t-197 75q-140 0 -223 -92.5t-83 -252.5v-531h-189v1024h189l1 -205q44 108 139.5 166.5t227.5 58.5q185 0 290 -111t105 -309v-743q0 -161 -93 -251.5t-263 -90.5z" />
    <glyph glyph-name="t.ss03" horiz-adv-x="917" 
d="M605 -20q-158 0 -242.5 93.5t-84.5 268.5v520h-197v146l64 3q73 4 107.5 41.5t38.5 116.5l8 145h163v-290h326v-162h-326v-515q0 -199 184 -199q103 0 180 40v-168q-85 -40 -221 -40z" />
    <glyph glyph-name="tbar.ss03" horiz-adv-x="968" 
d="M616 -20q-159 0 -243.5 93.5t-84.5 268.5v194h-182v126h182v200h-196v146l64 3q73 4 107 41t38 117l8 145h164v-290h326v-162h-326v-200h289v-126h-289v-189q0 -199 184 -199q104 0 181 40v-168q-85 -40 -222 -40z" />
    <glyph glyph-name="tcaron.ss03" horiz-adv-x="917" 
d="M605 -20q-158 0 -242.5 93.5t-84.5 268.5v520h-197v146l64 3q73 4 107.5 41.5t38.5 116.5l8 145h163v-290h326v-162h-326v-515q0 -199 184 -199q103 0 180 40v-168q-85 -40 -221 -40zM609 1475h157l-12 -334h-133z" />
    <glyph glyph-name="uni0163.ss03" horiz-adv-x="917" 
d="M573 -553q-113 0 -182.5 60t-68.5 159h134q1 -50 34.5 -79t86.5 -29q52 0 83.5 27.5t31.5 73.5q0 47 -32.5 75.5t-84.5 28.5q-61 0 -98 -42l-102 50l106 227q-99 32 -151 120t-52 224v520h-197v146l64 3q73 4 107.5 41.5t38.5 116.5l8 145h163v-290h326v-162h-326v-515
q0 -199 184 -199q103 0 180 40v-168q-42 -19 -107 -30t-122 -10l-62 -126q35 11 70 11q97 0 159 -55.5t62 -146.5q0 -95 -69.5 -155.5t-183.5 -60.5z" />
    <glyph glyph-name="uni021B.ss03" horiz-adv-x="917" 
d="M605 -20q-158 0 -242.5 93.5t-84.5 268.5v520h-197v146l64 3q73 4 107.5 41.5t38.5 116.5l8 145h163v-290h326v-162h-326v-515q0 -199 184 -199q103 0 180 40v-168q-85 -40 -221 -40zM425 -556v84q175 -18 191 102q-29 -22 -73 -22q-50 0 -83 31t-33 77q0 52 38 86
t100 34q72 0 113.5 -45t41.5 -127q0 -120 -76.5 -178t-218.5 -42z" />
    <glyph glyph-name="zero.zero" horiz-adv-x="1744" 
d="M872 -20q-213 0 -386.5 96t-272 264.5t-98.5 376.5t98.5 376.5t272 264.5t386.5 96t386.5 -96t272 -264.5t98.5 -376.5t-98.5 -376.5t-272 -264.5t-386.5 -96zM319 717q0 -239 157.5 -396.5t395.5 -157.5t395 157.5t157 396.5t-157 396.5t-395 157.5t-395.5 -157.5
t-157.5 -396.5z" />
    <glyph glyph-name="two.ss06" horiz-adv-x="1335" 
d="M117 0v146l634 511q113 90 158.5 169t45.5 174q0 120 -84 198.5t-214 78.5q-161 0 -245 -120.5t-53 -302.5l-197 -1q-31 170 23 308t177 215.5t291 77.5q219 0 361.5 -127.5t142.5 -312.5q0 -98 -41 -187t-104 -157t-160 -144l-438 -346h799v-180h-1096z" />
    <glyph glyph-name="uni24EA.zero" 
d="M1182 148q-166 0 -301.5 74t-212.5 204.5t-77 290.5t77 290.5t212.5 204t301.5 73.5q252 0 421 -162.5t169 -405.5q0 -160 -77 -290.5t-212 -204.5t-301 -74zM142 717q0 216 79.5 406t217 325.5t331 214t412.5 78.5t412 -78.5t330.5 -214t217 -325.5t79.5 -406
t-79.5 -406t-217.5 -325.5t-331 -214t-413 -78.5q-219 0 -412 78.5t-330 214t-216.5 325.5t-79.5 406zM310 717q0 -182 66.5 -342.5t181.5 -274.5t276.5 -179.5t345.5 -65.5q148 0 282 42t241 119.5t186 183t121.5 238.5t42.5 279q0 182 -66.5 342.5t-182 274.5t-277 179.5
t-345.5 65.5q-147 0 -281.5 -42t-241 -119.5t-185.5 -183t-121.5 -238.5t-42.5 -279zM778 717q0 -175 114.5 -289.5t289.5 -114.5q174 0 288 114.5t114 289.5t-114 289t-288 114q-175 0 -289.5 -114t-114.5 -289z" />
    <glyph glyph-name="uni2461.ss06" 
d="M768 188v127l485 388q78 64 114.5 123t36.5 129q0 85 -60 142t-154 57q-116 0 -176.5 -88t-37.5 -222h-176q-24 132 18 239t139.5 167t229.5 60q173 0 285.5 -99t112.5 -246q0 -78 -34.5 -148.5t-83.5 -120t-125 -105.5l-309 -242h594v-161h-859zM142 717q0 216 79.5 406
t217 325.5t331 214t412.5 78.5t412 -78.5t330.5 -214t217 -325.5t79.5 -406t-79.5 -406t-217.5 -325.5t-331 -214t-413 -78.5q-219 0 -412 78.5t-330 214t-216.5 325.5t-79.5 406zM310 717q0 -182 66.5 -342.5t181.5 -274.5t276.5 -179.5t345.5 -65.5q148 0 282 42
t241 119.5t186 183t121.5 238.5t42.5 279q0 182 -66.5 342.5t-182 274.5t-277 179.5t-345.5 65.5q-147 0 -281.5 -42t-241 -119.5t-185.5 -183t-121.5 -238.5t-42.5 -279z" />
    <glyph glyph-name="exclamdown.case" horiz-adv-x="632" 
d="M404 965l13 -965h-201l12 965h176zM158 1309q0 63 45 104t113 41t113.5 -41t45.5 -104t-45.5 -105t-113.5 -42t-113 42t-45 105z" />
    <glyph glyph-name="questiondown.case" horiz-adv-x="1159" 
d="M588 1000q175 0 281 -83.5t106 -223.5q0 -212 -263 -248l-231 -31q-149 -19 -149 -128q0 -74 62.5 -119t163.5 -45q111 0 183.5 55.5t80.5 148.5h175q-4 -157 -124 -251.5t-311 -94.5q-181 0 -290.5 86.5t-109.5 229.5q0 216 270 252l225 31q148 19 148 126
q0 70 -59.5 113t-153.5 43q-100 0 -166.5 -47.5t-79.5 -129.5h-174q8 144 121.5 230t294.5 86zM420 1309q0 63 45.5 104t113.5 41t113 -41t45 -104t-45 -105t-113 -42t-113.5 42t-45.5 105z" />
    <glyph glyph-name="at.case" horiz-adv-x="2154" 
d="M1093 -172q-200 0 -371 65t-292.5 180.5t-190.5 282t-69 362.5q0 260 117.5 462.5t327 313.5t477.5 111q261 0 465.5 -106.5t317 -294t112.5 -423.5q0 -221 -101 -349t-267 -128q-96 0 -164.5 44.5t-99.5 126.5q-46 -92 -136.5 -143.5t-208.5 -51.5q-181 0 -300.5 123
t-119.5 308q0 186 118 310.5t294 124.5q110 0 193.5 -48t124.5 -135v165h174v-503q0 -80 35 -125t100 -45q90 0 144.5 84t54.5 232q0 146 -53 272t-147.5 216t-232.5 141.5t-301 51.5q-221 0 -394.5 -91t-270.5 -259t-97 -385q0 -163 56.5 -300.5t157 -233t242 -148.5
t307.5 -53q258 0 445 118v-173q-195 -99 -447 -99zM774 713q0 -121 78.5 -200t198.5 -79t198 79.5t78 199.5t-78.5 199t-198.5 79t-198 -79t-78 -199z" />
    <glyph glyph-name="uni0306.cy" horiz-adv-x="0" 
d="M614 1161q-158 0 -249.5 92.5t-89.5 251.5h176q1 -104 43 -159t120 -55t120.5 55t43.5 159h175q2 -159 -89.5 -251.5t-249.5 -92.5z" />
    <glyph glyph-name="caroncommacomb" horiz-adv-x="1351" 
d="M863 1381q-175 18 -191 -102q30 23 73 23q50 0 83 -31.5t33 -77.5q0 -52 -38 -86t-100 -34q-72 0 -113.5 45t-41.5 127q0 120 76.5 178t218.5 42v-84z" />
    </font>
</defs>
</svg>
